<svg version="1.1" xmlns="http://www.w3.org/2000/svg" xmlns:xlink="http://www.w3.org/1999/xlink" width="142.5" height="211"><defs><linearGradient x1="262.93285" y1="149.65954" x2="207.07428" y2="187.97896" gradientUnits="userSpaceOnUse" id="color-1"><stop offset="0" stop-color="#ff0000"/><stop offset="1" stop-color="#ffffff"/></linearGradient></defs><g transform="translate(-171.83359,-81.5)"><g data-paper-data="{&quot;isPaintingLayer&quot;:true}" fill="none" fill-rule="nonzero" stroke="none" stroke-width="none" stroke-linecap="none" stroke-linejoin="miter" stroke-miterlimit="10" stroke-dasharray="" stroke-dashoffset="0" font-family="none" font-weight="none" font-size="none" text-anchor="none" style="mix-blend-mode: normal"><path d="M174.83359,289.5v-205h136.5v205z" data-paper-data="{&quot;origPos&quot;:null,&quot;index&quot;:null}" fill="#929292" stroke="#000000" stroke-width="6" stroke-linecap="butt"/><path d="M186.10341,201.18297v-90.33333h114.5v90.33333z" data-paper-data="{&quot;origPos&quot;:null}" fill="#b70000" stroke="#000000" stroke-width="2" stroke-linecap="butt"/><path d="M183.24566,271.16967v-53h120v53z" data-paper-data="{&quot;origPos&quot;:null,&quot;index&quot;:null}" fill="#bebebe" stroke="#000000" stroke-width="2" stroke-linecap="butt"/><path d="M183.08655,110.80331v-19.50806h120v19.50806z" data-paper-data="{&quot;origPos&quot;:null,&quot;index&quot;:null}" fill="#bebebe" stroke="#000000" stroke-width="2" stroke-linecap="butt"/><text transform="translate(184.66696,107.36579) scale(0.39773,0.46952)" font-size="40" xml:space="preserve" data-paper-data="{&quot;origPos&quot;:null,&quot;index&quot;:null}" fill="#000000" fill-rule="nonzero" stroke="#000000" stroke-width="0" stroke-linecap="butt" stroke-linejoin="miter" stroke-miterlimit="10" stroke-dasharray="" stroke-dashoffset="0" font-family="Serif" font-weight="normal" text-anchor="start" style="mix-blend-mode: normal"><tspan x="0" dy="0">Mox Ruby</tspan></text><path d="M183.24575,218.16967v-16.5h120v16.5z" data-paper-data="{&quot;origPos&quot;:null,&quot;index&quot;:null}" fill="#bebebe" stroke="#000000" stroke-width="2" stroke-linecap="butt"/><text transform="translate(289.68746,107.4889) scale(0.5,0.5)" font-size="40" xml:space="preserve" data-paper-data="{&quot;origPos&quot;:null,&quot;index&quot;:null}" fill="#000000" fill-rule="nonzero" stroke="none" stroke-width="1" stroke-linecap="butt" stroke-linejoin="miter" stroke-miterlimit="10" stroke-dasharray="" stroke-dashoffset="0" font-family="Serif" font-weight="normal" text-anchor="start" style="mix-blend-mode: normal"><tspan x="0" dy="0">0</tspan></text><text transform="translate(185.15531,214.02475) scale(0.2994,0.2994)" font-size="40" xml:space="preserve" data-paper-data="{&quot;origPos&quot;:null,&quot;index&quot;:null}" fill="#000000" fill-rule="nonzero" stroke="none" stroke-width="1" stroke-linecap="butt" stroke-linejoin="miter" stroke-miterlimit="10" stroke-dasharray="" stroke-dashoffset="0" font-family="Serif" font-weight="normal" text-anchor="start" style="mix-blend-mode: normal"><tspan x="0" dy="0">Artifact</tspan></text><text transform="translate(177.91213,283.80954) scale(0.23338,0.23338)" font-size="40" xml:space="preserve" data-paper-data="{&quot;origPos&quot;:null,&quot;index&quot;:null}" fill="#000000" fill-rule="nonzero" stroke="none" stroke-width="1" stroke-linecap="butt" stroke-linejoin="miter" stroke-miterlimit="10" stroke-dasharray="" stroke-dashoffset="0" font-family="Sans Serif" font-weight="normal" text-anchor="start" style="mix-blend-mode: normal"><tspan x="0" dy="0">(c)pthiel23</tspan></text><g data-paper-data="{&quot;origPos&quot;:null,&quot;index&quot;:null}"><path d="M237.72561,261.59079c0,0 -46.69718,-5.14993 -40.11137,-21.68067c6.58581,-16.53074 84.44347,-11.91331 84.44347,-11.91331" data-paper-data="{&quot;origRot&quot;:0,&quot;origPos&quot;:null}" fill="none" stroke="#fb4300" stroke-width="3" stroke-linecap="round"/><text transform="translate(207.4518,251.2878) scale(0.69434,0.69434)" font-size="40" xml:space="preserve" data-paper-data="{&quot;origPos&quot;:null}" fill="#fb4300" fill-rule="nonzero" stroke="none" stroke-width="1" stroke-linecap="butt" stroke-linejoin="miter" stroke-miterlimit="10" stroke-dasharray="" stroke-dashoffset="0" font-family="Marker" font-weight="normal" text-anchor="start" style="mix-blend-mode: normal"><tspan x="0" dy="0">Tester</tspan></text></g><text transform="translate(188.41418,234.41086) scale(0.27609,0.27609)" font-size="40" xml:space="preserve" data-paper-data="{&quot;origPos&quot;:null}" fill="#000000" fill-rule="nonzero" stroke="none" stroke-width="1" stroke-linecap="butt" stroke-linejoin="miter" stroke-miterlimit="10" stroke-dasharray="" stroke-dashoffset="0" font-family="Serif" font-weight="normal" text-anchor="start" style="mix-blend-mode: normal"><tspan x="0" dy="0">     : Add </tspan></text><g data-paper-data="{&quot;origPos&quot;:null}" stroke="#000000"><path d="M200.45188,231.52588c0,3.89184 -3.22355,7.04681 -7.2,7.04681c-3.97645,0 -7.2,-3.15497 -7.2,-7.04681c0,-3.89184 3.22355,-7.04681 7.2,-7.04681c3.97645,0 7.2,3.15497 7.2,7.04681z" data-paper-data="{&quot;origPos&quot;:null}" fill="#bebebe" stroke-width="0.5" stroke-linecap="butt"/><g data-paper-data="{&quot;origPos&quot;:null}" fill="none" stroke-width="2" stroke-linecap="round"><path d="M195.5827,234.69834c0,0 -2.2739,1.50598 -4.49127,0.38725c-1.97735,-0.99762 -2.19859,-2.7831 -2.11893,-4.15255c0.10865,-1.53849 1.01262,-2.83368 3.33463,-3.49919c4.63831,-0.47169 4.4065,3.46115 4.4065,3.46115" data-paper-data="{&quot;origPos&quot;:null}"/><path d="M198.20071,229.08229l-1.27363,2.47612c0,0 -2.02006,-1.76411 -2.03111,-1.79218" data-paper-data="{&quot;origPos&quot;:null,&quot;origRot&quot;:0}"/></g></g><g data-paper-data="{&quot;origPos&quot;:null,&quot;index&quot;:null}"><path d="M272.26032,213.04804c0,0 1.95385,-3.18605 4.15516,-5.06347c1.75996,-1.50101 6.48536,-2.07167 8.67371,-2.06222c2.98648,0.01291 6.73853,1.41475 9.52225,2.66316c3.81573,1.71125 5.22841,5.95115 5.22841,5.95115" data-paper-data="{&quot;origPos&quot;:null,&quot;index&quot;:null}" fill="none" stroke="#fb4300" stroke-width="1.5" stroke-linecap="round"/><path d="M272.19584,216.26736c-0.8146,-0.11017 -1.04976,-3.11404 -1.04976,-3.11404c0,0 -3.01136,-0.09161 -3.15863,-0.89926c-0.14723,-0.80762 2.63511,-1.95931 2.63511,-1.95931c0,0 -0.84075,-2.89267 -0.11963,-3.28243c0.72273,-0.38992 2.67728,1.90093 2.67728,1.90093c0,0 2.4907,-1.69553 3.08525,-1.12773c0.59444,0.56624 -0.98157,3.13328 -0.98157,3.13328c0,0 2.38269,1.84564 2.02725,2.58555c-0.35438,0.74219 -3.28274,0.03778 -3.28274,0.03778c0,0 -1.01965,2.83403 -1.83256,2.72522z" data-paper-data="{&quot;origPos&quot;:null,&quot;origRot&quot;:0}" id="Star_1_" fill="#fb4300" stroke="none" stroke-width="2.57572" stroke-linecap="butt"/></g><g stroke="#000000" stroke-width="0.5" stroke-linecap="butt"><path d="M242.57867,230.60922c0,3.38558 -2.80422,6.13014 -6.26341,6.13014c-3.45918,0 -6.26341,-2.74456 -6.26341,-6.13014c0,-3.38558 2.80422,-6.13014 6.26341,-6.13014c3.45918,0 6.26341,2.74456 6.26341,6.13014z" data-paper-data="{&quot;origPos&quot;:null}" fill="#e04a4a"/><path d="M240.0441,232.4004c-0.65593,0.68424 -0.44542,0.60411 -1.02784,1.03225c-0.55718,0.40958 -1.35673,0.69568 -2.00149,0.94571c-0.66119,0.25641 -1.10398,0.23012 -1.92675,0.23701c-0.84591,0.04284 -1.07272,-0.00351 -1.68521,-0.09192c-0.03996,-0.00577 -1.38989,-0.03938 -1.33045,-1.86031c0.02083,-0.63804 0.29644,-1.63115 1.48154,-2.02175c0.07915,-0.02609 0.43932,-0.03763 2.13921,-0.36635c0.67593,0.12759 1.09483,0.05005 1.93084,0.63801c0.42138,0.29635 0.59073,0.04784 1.08694,-0.09063c0.73159,-0.20415 0.83559,-0.4152 0.83857,-0.82105c-0.0445,-0.73786 -0.60865,-1.1611 -1.42446,-1.47752c-1.26365,-0.32781 -1.71021,-0.47948 -2.90679,-0.62109c-0.65384,-0.14723 -1.98244,-0.76279 -1.98244,-0.76279c0,0 2.22413,-0.50604 2.25999,-0.49141c1.69121,0.09101 3.77821,0.74635 4.91219,2.06753c0,0 0.48648,0.67779 0.45775,1.31807c-0.03748,0.83523 -0.23014,1.69149 -0.82158,2.36623z" data-paper-data="{&quot;origPos&quot;:null}" fill="#e02222"/></g><g data-paper-data="{&quot;origRot&quot;:0,&quot;origPos&quot;:null}" stroke="#000000"><path d="M207.27466,188.27107l22.23409,-62.24483l6.46228,-4.84959l7.39803,1.17812l38.55337,54.98602l-1.43298,7.25375l-6.95661,4.36059z" data-paper-data="{&quot;origPos&quot;:null,&quot;index&quot;:null}" fill="url(#color-1)" stroke-width="3" stroke-linecap="butt"/><path d="M231.02933,125.58017l43.06709,61.54979" data-paper-data="{&quot;origPos&quot;:null,&quot;index&quot;:null}" fill="none" stroke-width="1.5" stroke-linecap="round"/><path d="M209.44382,186.18072l29.03601,-49.45521l13.95499,-0.29688" data-paper-data="{&quot;origPos&quot;:null,&quot;index&quot;:null}" fill="none" stroke-width="1.5" stroke-linecap="round"/><path d="M270.98666,162.76016l-4.04792,14.73852l-57.56043,9.83089" data-paper-data="{&quot;origPos&quot;:null,&quot;index&quot;:null}" fill="none" stroke-width="1.5" stroke-linecap="round"/></g></g></g></svg>