<svg version="1.1" xmlns="http://www.w3.org/2000/svg" xmlns:xlink="http://www.w3.org/1999/xlink" width="142.5" height="211" viewBox="0,0,142.5,211"><defs><linearGradient x1="243.79213" y1="111.7647" x2="243.79213" y2="173.20112" gradientUnits="userSpaceOnUse" id="color-1"><stop offset="0" stop-color="#66ebff" stop-opacity="0"/><stop offset="1" stop-color="#66ebff"/></linearGradient><linearGradient x1="272.66458" y1="206.96766" x2="272.66458" y2="216.27041" gradientUnits="userSpaceOnUse" id="color-2"><stop offset="0" stop-color="#cd3700"/><stop offset="1" stop-color="#ff4400"/></linearGradient><linearGradient x1="274.50793" y1="209.50493" x2="300.679" y2="209.50493" gradientUnits="userSpaceOnUse" id="color-3"><stop offset="0" stop-color="#d13800"/><stop offset="1" stop-color="#fa4300"/></linearGradient><linearGradient x1="297.2178" y1="200.92005" x2="297.2178" y2="207.67409" gradientUnits="userSpaceOnUse" id="color-4"><stop offset="0" stop-color="#fa4300"/><stop offset="1" stop-color="#d73a00"/></linearGradient></defs><g transform="translate(-171.83359,-81.5)"><g data-paper-data="{&quot;isPaintingLayer&quot;:true}" fill-rule="nonzero" stroke-linecap="butt" stroke-linejoin="miter" stroke-miterlimit="10" stroke-dasharray="" stroke-dashoffset="0" style="mix-blend-mode: normal"><path d="M174.83359,289.5v-205h136.5v205z" data-paper-data="{&quot;origPos&quot;:null,&quot;index&quot;:null}" fill="#00c6c6" stroke="#000000" stroke-width="6"/><path d="M183.24575,218.16967v-16.5h120v16.5z" data-paper-data="{&quot;origPos&quot;:null,&quot;index&quot;:null}" fill="#bebebe" stroke="#000000" stroke-width="2"/><path d="M186.10356,201.18297v-90.33333h114.5v90.33333z" data-paper-data="{&quot;origPos&quot;:null,&quot;index&quot;:null}" fill="#787878" stroke="#000000" stroke-width="2"/><g data-paper-data="{&quot;origPos&quot;:null,&quot;index&quot;:null}" fill="#68dff1" stroke="none" stroke-width="0"><g data-paper-data="{&quot;origPos&quot;:null}"><g data-paper-data="{&quot;origPos&quot;:null}"><path d="M252.91454,124.00757v-13.04725h4.33334v13.04725z" data-paper-data="{&quot;origPos&quot;:null}"/><path d="M245.24163,129.57859l8.63101,-7.397l3.44806,1.71222l-8.63102,7.397z" data-paper-data="{&quot;origPos&quot;:null,&quot;origRot&quot;:0}"/></g><g data-paper-data="{&quot;origPos&quot;:null,&quot;index&quot;:null}"><path d="M245.39072,142.49117v-13.04725h4.33334v13.04725z" data-paper-data="{&quot;origPos&quot;:null}"/><path d="M237.71781,148.0622l8.63101,-7.397l3.44806,1.71222l-8.63102,7.397z" data-paper-data="{&quot;origPos&quot;:null,&quot;origRot&quot;:0}"/></g></g><g data-paper-data="{&quot;origPos&quot;:null}"><path d="M237.58124,161.06797v-13.04725h4.33334v13.04725z" data-paper-data="{&quot;origPos&quot;:null}"/><path d="M227.95422,168.50812l10.50184,-9.26612l3.44806,1.71222l-9.00167,7.55081z" data-paper-data="{&quot;origPos&quot;:null,&quot;origRot&quot;:0}"/></g></g><path d="M183.24575,271.16967v-53h120v53z" data-paper-data="{&quot;origPos&quot;:null,&quot;index&quot;:null}" fill="#bebebe" stroke="#000000" stroke-width="2"/><g data-paper-data="{&quot;origPos&quot;:null,&quot;index&quot;:null}" fill="#68dff1" stroke="none" stroke-width="0"><g data-paper-data="{&quot;origPos&quot;:null}"><g data-paper-data="{&quot;origPos&quot;:null}"><path d="M258.16042,156.46087v13.04725h-4.33334v-13.04725z" data-paper-data="{&quot;origPos&quot;:null}"/><path d="M265.83329,150.88985l-8.63101,7.397l-3.44806,-1.71222l8.63102,-7.397z" data-paper-data="{&quot;origPos&quot;:null,&quot;origRot&quot;:0}"/></g><g data-paper-data="{&quot;origPos&quot;:null,&quot;index&quot;:null}"><path d="M265.68424,137.97727v13.04725h-4.33334v-13.04725z" data-paper-data="{&quot;origPos&quot;:null}"/><path d="M273.35711,132.40624l-8.63101,7.397l-3.44806,-1.71222l8.63102,-7.397z" data-paper-data="{&quot;origPos&quot;:null,&quot;origRot&quot;:0}"/></g></g><g data-paper-data="{&quot;origPos&quot;:null}"><path d="M273.4937,119.40047v13.04725h-4.33334v-13.04725z" data-paper-data="{&quot;origPos&quot;:null}"/><path d="M283.12068,111.96032l-10.50184,9.26612l-3.44806,-1.71222l9.00167,-7.55081z" data-paper-data="{&quot;origPos&quot;:null,&quot;origRot&quot;:0}"/></g></g><text transform="translate(185.15523,214.02475) scale(0.2994,0.2994)" font-size="40" xml:space="preserve" data-paper-data="{&quot;origPos&quot;:null,&quot;index&quot;:null}" fill="#000000" fill-rule="nonzero" stroke="none" stroke-width="1" stroke-linecap="butt" stroke-linejoin="miter" stroke-miterlimit="10" stroke-dasharray="" stroke-dashoffset="0" font-family="Serif" font-weight="normal" text-anchor="start" style="mix-blend-mode: normal"><tspan x="0" dy="0">Instant</tspan></text><path d="M279.0755,284.34772v-12.139h26.8341v12.139z" data-paper-data="{&quot;origPos&quot;:null,&quot;index&quot;:null}" fill="#bebebe" stroke="#000000" stroke-width="1"/><text transform="translate(282.38617,282.79648) scale(0.35379,0.35379)" font-size="40" xml:space="preserve" data-paper-data="{&quot;origPos&quot;:null,&quot;index&quot;:null}" fill="#000000" fill-rule="nonzero" stroke="none" stroke-width="1" stroke-linecap="butt" stroke-linejoin="miter" stroke-miterlimit="10" stroke-dasharray="" stroke-dashoffset="0" font-family="Serif" font-weight="normal" text-anchor="start" style="mix-blend-mode: normal"><tspan x="0" dy="0">P/T</tspan></text><text transform="translate(177.9123,283.80954) scale(0.23338,0.23338)" font-size="40" xml:space="preserve" data-paper-data="{&quot;origPos&quot;:null,&quot;index&quot;:null}" fill="#000000" fill-rule="nonzero" stroke="none" stroke-width="1" stroke-linecap="butt" stroke-linejoin="miter" stroke-miterlimit="10" stroke-dasharray="" stroke-dashoffset="0" font-family="Sans Serif" font-weight="normal" text-anchor="start" style="mix-blend-mode: normal"><tspan x="0" dy="0">(c)pthiel23</tspan></text><text transform="translate(184.26814,229.24419) scale(0.27609,0.27609)" font-size="40" xml:space="preserve" data-paper-data="{&quot;origPos&quot;:null,&quot;index&quot;:null}" fill="#000000" fill-rule="nonzero" stroke="none" stroke-width="1" stroke-linecap="butt" stroke-linejoin="miter" stroke-miterlimit="10" stroke-dasharray="" stroke-dashoffset="0" font-family="Serif" font-weight="normal" text-anchor="start" style="mix-blend-mode: normal"><tspan x="0" dy="0">Draw three cards, then put</tspan><tspan x="0" dy="48px">two cards from your hand</tspan><tspan x="0" dy="48px">on top of your library in</tspan><tspan x="0" dy="48px">any order.</tspan></text><path d="M219.9191,173.20112l-33.92061,-62.18642h114.33718l-34.16267,62.18642z" data-paper-data="{&quot;origPos&quot;:null}" fill="url(#color-1)" stroke="none" stroke-width="NaN"/><g data-paper-data="{&quot;origPos&quot;:null,&quot;index&quot;:null}" fill="#68dff1" stroke="none" stroke-width="0"><g data-paper-data="{&quot;origPos&quot;:null}"><g data-paper-data="{&quot;origPos&quot;:null}"><path d="M237.04786,172.10865v17.7328h-4.33334v-17.7328z" data-paper-data="{&quot;origPos&quot;:null}"/><path d="M228.48968,162.20985l8.63102,10.05342l-3.44806,2.32711l-8.63101,-10.05342z" data-paper-data="{&quot;origPos&quot;:null,&quot;origRot&quot;:0}"/></g><g data-paper-data="{&quot;origPos&quot;:null,&quot;index&quot;:null}"><path d="M229.52405,146.98719v17.7328h-4.33334v-17.7328z" data-paper-data="{&quot;origPos&quot;:null}"/><path d="M220.96591,137.08838l8.63102,10.05342l-3.44806,2.32711l-8.63101,-10.05342z" data-paper-data="{&quot;origPos&quot;:null,&quot;origRot&quot;:0}"/></g></g><g data-paper-data="{&quot;origPos&quot;:null}"><path d="M221.71451,121.73906v17.7328h-4.33334v-17.7328z" data-paper-data="{&quot;origPos&quot;:null}"/><path d="M212.70248,111.63119l9.00167,10.26248l-3.44806,2.32711l-10.50184,-12.59379z" data-paper-data="{&quot;origPos&quot;:null,&quot;origRot&quot;:0}"/></g></g><g data-paper-data="{&quot;origPos&quot;:null}"><path d="M267.47105,177.7205c0,8.14099 -2.35596,17.62383 -10.1565,19.95348c-0.57863,0.17281 -0.92897,0.19242 -1.53156,0.1529c-1.80778,-0.11857 -7.55431,-4.91756 -13.03306,-4.91756c-13.6531,0 -24.72112,-6.80027 -24.72112,-15.18883c0,-8.38855 11.06802,-15.18883 24.72112,-15.18883c13.6531,0 24.72112,6.80027 24.72112,15.18883z" data-paper-data="{&quot;origPos&quot;:null}" fill="#ff8d8d" stroke="#000000" stroke-width="1.5"/><path d="M244.53703,171.73983c-0.61862,0.11103 -0.72965,-0.50759 -0.72965,-0.50759l0.23187,-0.72879c0.11724,-0.35172 -0.03056,-1.01545 0.04415,-1.35857c-0.25296,-0.22757 -0.52202,-0.53769 -0.80966,-0.53769c-1.14342,-0.04597 -1.9804,-0.42957 -2.16751,-1.66526c-0.05524,-0.3648 0.3985,-1.06939 0.77137,-1.1622c0.58852,-0.14649 0.45338,-2.14141 0.45338,-2.82907c0,0 0,-0.6285 0.6285,-0.6285c0.6285,0 0.6285,0.6285 0.6285,0.6285c0,0.98447 0.20332,2.50864 -0.45125,3.34127c-0.35543,0.45211 -1.00925,0.60573 -0.838,1.04751c0.03253,0.08392 0.04858,-0.25369 0.1362,-0.23313c0.28348,0.06652 0.54957,0.27742 0.83881,0.24388c2.19131,0 2.52342,1.85452 1.95801,3.55077l-0.18714,0.10921c0,0 0.11103,0.61862 -0.50759,0.72965z" data-paper-data="{&quot;origPos&quot;:null}" fill="#000000" stroke="none" stroke-width="0.5"/><path d="M251.07025,192.12943c-0.26762,0.56868 -0.8363,0.30107 -0.8363,0.30107l-0.32864,-0.78893c-0.18318,-0.54953 -0.22576,-0.84982 -0.73233,-1.1031c0.04481,-0.12923 -2.19153,0.27586 -2.65194,0.27586c-1.85941,0 -2.26066,-0.4849 -3.21249,-1.47661c-0.07851,0.00669 -0.15997,0.01011 -0.24427,0.01011c-0.37666,-0.10518 -1.34004,0.36091 -1.8518,0.50595c0.13887,0.12145 0.29183,0.22822 0.43787,0.34108c0.94543,0.73064 1.98814,1.28582 2.94329,2.00218c0,0 0.5028,0.3771 0.1257,0.8799c-0.3771,0.5028 -0.8799,0.1257 -0.8799,0.1257c-1.06935,-0.80201 -2.23873,-1.42045 -3.27431,-2.27543c-0.18855,-0.15567 -0.90621,-0.75045 -0.85206,-1.02125c0.26583,-1.32913 1.93402,-1.70398 3.18591,-1.80339c0.01104,-0.01238 0.02274,-0.02477 0.03513,-0.03716c0.04016,-0.04016 0.0803,-0.07305 0.12013,-0.09967c-0.31011,-0.02058 -0.70319,-0.48729 -0.98355,-0.71291c-1.48625,-1.19604 -1.61359,-2.72351 -3.61543,-2.72351c-2.71448,0 -4.97933,3.14128 -7.69397,0.96703c-1.9919,-2.39028 -3.68795,-4.02646 -1.22314,-6.65478c0.00379,-0.12673 0.0543,-0.26795 0.19408,-0.40985c0.44106,-0.44775 0.88881,-0.00668 0.88881,-0.00668l0.00336,1.10167c-0.34314,0.34314 -1.16026,1.11217 -1.28242,1.44109c-0.47659,1.28321 1.7206,2.92657 2.38498,3.72384c-0.11989,0.3824 1.18596,0.35984 1.60629,0.28894c1.58098,-0.26671 3.30639,-1.70826 5.12202,-1.70826c2.67482,0 2.81792,1.955 4.50427,3.35201c0.33216,0.27517 1.04735,-0.05546 1.38718,0.49833c0.44485,0.72494 0.42038,1.36274 0.0374,1.76753c0.12822,0.23882 0.25305,0.47339 0.42869,0.6779c0.05527,0.06436 0.83942,-0.01075 1.07976,-0.01075c1.32406,0 2.58241,-0.48468 3.84259,-0.14315c0.78648,0.39324 1.09677,1.03217 1.36268,1.82991l-0.32864,0.04907c0,0 0.56868,0.26762 0.30107,0.8363zM243.80825,187.91355c0.03895,-0.03895 -0.03181,0.01212 -0.11487,0.05436c0.00613,0.0037 0.01207,0.0074 0.01783,0.01109c0.03877,-0.01873 0.07201,-0.04041 0.09705,-0.06545zM243.62021,187.68255c-0.12579,0.03199 -0.24613,0.10101 -0.33934,0.19168c0.08802,-0.01395 0.17066,-0.00364 0.24362,0.01801c0.05044,-0.10419 0.17214,-0.22911 0.09571,-0.20968z" data-paper-data="{&quot;origPos&quot;:null}" fill="#000000" stroke="none" stroke-width="0.5"/><path d="M251.22659,178.17459c-0.09746,-0.13195 -0.15676,-0.32394 -0.05034,-0.5859c0.23656,-0.58229 0.81884,-0.34573 0.81884,-0.34573l-0.15275,1.37839c-0.4327,0.57693 -0.77569,1.11828 -0.39886,1.68353c-0.58656,0.06433 1.56338,-0.11547 1.99107,-0.17512c1.62053,-0.226 3.39195,-0.2095 5.02802,-0.2095c0,0 0.6285,0 0.6285,0.6285c0,0.01372 -0.0003,0.02715 -0.00089,0.04027c0.00388,-0.00265 0.00776,-0.00532 0.01163,-0.00802c1.0297,-0.71861 1.23547,-1.20219 2.50326,-1.49876c0.09135,-0.02137 0.73991,-0.24211 1.35537,-0.45171c-0.44039,-0.2731 -0.51179,-0.79451 -0.87001,-1.15273c-0.22253,-0.22253 -1.03246,-0.39975 -1.34877,-0.88416c-0.17239,-0.264 -0.13838,-0.65122 -0.36133,-0.87417c-0.07174,-0.07174 0.16193,0.22871 0.08325,0.29275c-0.2683,0.21835 -0.98145,-0.73873 -1.18842,-0.88508c-0.06136,-0.04339 0.18331,0.13094 0.13017,0.18408c-0.22221,0.22221 -1.8507,0 -2.19976,0l-0.97649,-0.1288c0,0 -0.2902,-0.55749 0.26729,-0.84769c0.55749,-0.2902 0.84769,0.26729 0.84769,0.26729l-0.13849,-0.5478c0.8959,0 2.12969,-0.20084 2.95843,0.18408c0.90877,0.42209 2.27971,1.90633 3.05075,2.67735c0.1717,0.1717 0.1395,0.55079 0.36986,0.62758c0.94544,0.52181 1.15554,0.68032 0.5345,1.95801c-0.0448,0.09216 -0.19548,-0.13428 -0.29135,-0.09808c-0.50642,0.19118 -0.88594,0.53775 -1.42766,0.70509c-0.32099,0.09915 -0.84316,0.4843 -1.04842,0.31947c-0.15502,0.19612 -0.40232,0.35604 -0.59533,0.50778c-0.81354,0.63957 -2.20474,0.85587 -2.75466,1.26831c-1.20407,0.87342 -1.83191,1.78676 -2.96149,2.84841c-0.08162,0.07671 -0.85335,0.65516 -0.94275,0.6285c-0.10072,-0.03003 0.0707,-0.31591 -0.03438,-0.31345c-0.01085,0.00026 0.01026,0.87996 0,0.94275c-0.11639,0.71223 0.98657,1.39432 1.36095,1.95588c-0.1141,0.06629 2.79833,0.76579 3.30755,0.81806c2.01863,0.2072 3.95416,0.47333 6.01604,0.47333c0.07944,0 0.15543,0.01474 0.2254,0.04163c0.18029,0.06126 0.4031,0.21266 0.4031,0.58688c0,0.27623 -0.12141,0.43106 -0.2575,0.51784l-0.55508,0.55508l-0.44442,-0.44442h-0.6285v-0.0202c-1.47807,-0.0485 -2.90765,-0.18598 -4.38694,-0.43045c-1.66167,-0.27461 -3.48086,-0.09009 -4.72555,-1.40048c-0.47992,-0.71987 -1.28815,-1.1728 -1.51287,-2.07261c-0.54455,-2.18047 2.70779,-4.38574 4.29314,-5.62247c-2.25237,0.25006 -5.37476,0.85833 -6.76079,-0.26595c-0.70876,-1.06314 -0.24514,-2.22262 0.43915,-3.13499z" data-paper-data="{&quot;origPos&quot;:null}" fill="#000000" stroke="none" stroke-width="0.5"/><path d="M224.92081,178.40973c-0.58448,-0.23108 -0.35341,-0.81556 -0.35341,-0.81556l0.59524,-0.15567c0.55624,-0.18541 2.14161,-2.06273 1.80226,-3.08077c0.45738,0.03183 -0.59517,-0.41419 -0.65,-0.44051c-0.66878,-0.32089 -1.19472,-0.8305 -1.16301,-1.64376c0.06134,-1.5734 1.58074,-2.8524 2.85634,-3.7375c-0.13283,-0.10408 -0.2484,-0.21961 -0.34233,-0.34777c-0.18293,-0.24963 -0.12261,-1.06174 -0.06164,-1.72224l-0.44117,-0.33087l0.58137,-0.77515c0.07856,-0.15713 0.23569,-0.31425 0.54994,-0.31425c0.37422,0 0.52562,0.22281 0.58688,0.4031c0.02689,0.06996 0.04163,0.14596 0.04163,0.2254c0,0.2095 0,0.419 0,0.6285c0,0.31425 0,0.6285 0,0.94275c0,0.14946 0.03881,0.42956 0.06105,0.6539c0.50053,-0.19682 2.45464,0.28885 2.97671,0.28885c1.09632,0 3.81893,-0.67204 4.70302,0.03225c1.38271,1.10151 1.26776,2.58091 1.26776,4.15777l-0.30623,-0.33492c0.10774,0.1576 0.19722,0.41519 -0.03184,0.71583c-0.3809,0.49993 -0.88083,0.11903 -0.88083,0.11903l-0.0381,-0.49993c0,-0.8287 0.23663,-2.35984 -0.40825,-2.96526c-0.67279,-0.63163 -3.39984,0.03225 -4.30552,0.03225c-0.718,0 -1.77687,-0.06436 -2.69418,-0.32276c-0.08652,0.13858 -0.20446,0.2172 -0.20446,0.2172c-0.94782,0.63188 -2.49649,1.69854 -2.68539,2.81832c-0.12622,0.7482 1.28034,0.89556 1.78076,1.80226c0.50756,1.52269 -1.12073,4.17859 -2.59726,4.67077l0.17623,-0.57468c0,0 -0.23108,0.58448 -0.81556,0.35341z" data-paper-data="{&quot;origPos&quot;:null}" fill="#000000" stroke="none" stroke-width="0.5"/><path d="M252.94758,171.46549c0.28423,0.56056 -0.27633,0.84479 -0.27633,0.84479l-0.29498,0.24519c-1.35831,0.45277 -3.18973,1.02198 -4.27523,1.63577c0.47894,0.31361 1.36201,1.54981 1.24741,2.30663c-0.1453,0.95954 -1.59322,1.27722 -2.24085,1.72543c-0.32499,0.22492 -0.71075,0.70582 -1.06267,0.52594c-0.09119,-0.04661 0.12672,-0.31645 0.02481,-0.30624c-0.05856,0.00587 -0.50759,0.98634 -0.77137,1.1622c-1.9999,0.95052 -5.57502,0.31506 -7.78591,0.31506c0,0 -0.6285,0 -0.6285,-0.6285c0,-0.6285 0.6285,-0.6285 0.6285,-0.6285c1.60618,0 3.21235,0 4.81853,0c0.35681,0 2.31155,0.02127 2.27013,-0.10394c0.42582,-0.28388 0.67831,-0.80656 1.13895,-1.02954c0.74197,-0.35916 2.11831,-0.80758 2.52284,-1.63836c-0.03721,0.07348 -0.09103,0.15592 -0.13839,0.14234c-0.44479,-0.12759 -0.82816,-0.46429 -1.11413,-0.82806c-0.66865,-0.85053 -0.43977,-0.98146 0.10475,-1.88389c0.43096,-0.2873 0.85848,-0.15892 1.29139,-0.31506c1.21416,-0.43792 2.27424,-1.21108 3.57227,-1.64376l0.12402,-0.17381c0,0 0.56056,-0.28423 0.84479,0.27633z" data-paper-data="{&quot;origPos&quot;:null}" fill="#000000" stroke="none" stroke-width="0.5"/><path d="M224.73402,185.25377c-0.01337,0.06448 -0.03857,0.13349 -0.07895,0.2069c-0.30289,0.55071 -0.85359,0.24782 -0.85359,0.24782l0.31364,-1.56596c0.3537,-0.1179 0.61775,-0.01739 0.61775,-0.55601c0,-0.23452 -0.15771,-0.49329 -0.15642,-0.71762c-1.28991,0.44192 -3.20354,-0.04222 -4.38104,0.54652c0,0 -0.56215,0.28107 -0.84322,-0.28107c-0.28107,-0.56215 0.28107,-0.84322 0.28107,-0.84322c1.35557,-0.67778 2.79737,-0.50527 4.2616,-0.69485c0.11504,-0.0149 0.86248,-0.21866 0.92425,-0.19729c1.1329,0.39188 1.17076,1.19727 1.17076,2.18756c0,0.87458 -0.52941,1.37398 -1.25586,1.66724z" data-paper-data="{&quot;origPos&quot;:null}" fill="#000000" stroke="none" stroke-width="0.5"/></g><path d="M183.08655,110.80331v-19.50806h120v19.50806z" data-paper-data="{&quot;origPos&quot;:null,&quot;index&quot;:null}" fill="#bebebe" stroke="#000000" stroke-width="2"/><text transform="translate(184.66696,107.36579) scale(0.39773,0.46952)" font-size="40" xml:space="preserve" data-paper-data="{&quot;origPos&quot;:null,&quot;index&quot;:null}" fill="#000000" fill-rule="nonzero" stroke="#000000" stroke-width="0" stroke-linecap="butt" stroke-linejoin="miter" stroke-miterlimit="10" stroke-dasharray="" stroke-dashoffset="0" font-family="Serif" font-weight="normal" text-anchor="start" style="mix-blend-mode: normal"><tspan x="0" dy="0">Brainstorm</tspan></text><g data-paper-data="{&quot;origPos&quot;:null,&quot;index&quot;:null}" stroke="#000000" stroke-width="0.5"><path d="M300.25712,101.00757c0,3.89674 -3.2276,7.05568 -7.20906,7.05568c-3.98146,0 -7.20906,-3.15894 -7.20906,-7.05568c0,-3.89674 3.2276,-7.05568 7.20906,-7.05568c3.98146,0 7.20906,3.15894 7.20906,7.05568z" data-paper-data="{&quot;origPos&quot;:null}" fill="#00c6c6"/><path d="M296.11172,102.3707c0,1.53676 -1.3973,2.78255 -3.12096,2.78255c-1.72367,0 -3.12098,-1.24578 -3.12098,-2.78255c0,-1.53676 1.54771,-6.994 3.27139,-6.994c1.72367,0 2.97055,5.45722 2.97055,6.994z" data-paper-data="{&quot;origPos&quot;:null}" fill="#009090"/></g><path d="M272.19587,216.26737c-0.8146,-0.11017 -1.04976,-3.11404 -1.04976,-3.11404c0,0 -3.01136,-0.09161 -3.15863,-0.89926c-0.14723,-0.80762 2.63511,-1.95931 2.63511,-1.95931c0,0 -0.84075,-2.89267 -0.11963,-3.28243c0.72273,-0.38992 2.67728,1.90093 2.67728,1.90093c0,0 2.4907,-1.69553 3.08525,-1.12773c0.59444,0.56624 -0.98157,3.13328 -0.98157,3.13328c0,0 2.38269,1.84564 2.02725,2.58555c-0.35438,0.74219 -3.28274,0.03778 -3.28274,0.03778c0,0 -1.01965,2.83403 -1.83256,2.72522z" data-paper-data="{&quot;origPos&quot;:null,&quot;origRot&quot;:0}" fill="url(#color-2)" stroke="#ffffff" stroke-width="0.5"/><path d="M276.30573,209.33508l0.073,-1.59734l-1.8708,0.42679c0,0 2.40669,-1.54408 4.49327,-2.27242c1.77056,-0.35321 4.08991,-0.66822 5.38219,-0.68087c6.74701,-0.18147 11.33161,3.01757 14.24946,5.40506c1.07257,0.87762 2.27781,2.75534 2.00774,3.03044c-0.68192,0.69461 -1.05188,-1.00404 -3.87434,-2.74933c-4.18696,-2.58904 -8.39882,-4.15235 -11.49487,-4.18583c-0.70645,-0.00764 -3.5104,0.13825 -3.92756,0.27353c-3.39524,0.26392 -5.03809,2.34997 -5.03809,2.34997z" fill="url(#color-3)" stroke="#ffffff" stroke-width="0.5"/><path d="M276.90573,208.38508l-1.52415,1.82123l-1.15869,-1.6393l1.94298,-1.0853c0,0 0.61868,-0.21814 0.71848,-0.09628c0.13565,0.16563 0.02138,0.99965 0.02138,0.99965z" fill="url(#color-4)" stroke="none" stroke-width="0"/></g></g></svg>