<svg version="1.1" xmlns="http://www.w3.org/2000/svg" xmlns:xlink="http://www.w3.org/1999/xlink" width="491.96239" height="407.37104"><g transform="translate(8,38.37103)"><g data-paper-data="{&quot;isPaintingLayer&quot;:true}" fill="none" fill-rule="nonzero" stroke="none" stroke-width="none" stroke-linecap="none" stroke-linejoin="miter" stroke-miterlimit="10" stroke-dasharray="" stroke-dashoffset="0" font-family="none" font-weight="none" font-size="none" text-anchor="none" style="mix-blend-mode: normal"><path d="M-8,369.00001v-402.33334h491.96239v402.33334z" data-paper-data="{&quot;origPos&quot;:null}" fill="#969696" stroke="none" stroke-width="0" stroke-linecap="butt"/><text transform="translate(165.33337,258.87926) scale(6.83334,6.83334)" font-size="40" xml:space="preserve" data-paper-data="{&quot;origPos&quot;:null}" fill="#d9d9d9" fill-rule="nonzero" stroke="#6f6f6f" stroke-width="1" stroke-linecap="butt" stroke-linejoin="miter" stroke-miterlimit="10" stroke-dasharray="" stroke-dashoffset="0" font-family="Sans Serif" font-weight="normal" text-anchor="start" style="mix-blend-mode: normal"><tspan x="0" dy="0">S</tspan></text><path d="M270.83332,188.16668c0,0 -6.98555,-32.48405 -6.97412,-32.68871c-1.80244,-8.13681 -3.16406,-12.69644 -6.54741,-17.7304c-1.12778,-1.67799 -4.79532,-7.31828 -6.40358,-8.54344c-0.08031,-0.1747 -13.07487,-11.37078 -13.07487,-11.37078l5.5,-26l5.57064,20.55186l8.41774,-33.16599l8.34869,32.63784l7.0446,-40.36896l6.96367,40.91451l7.64573,-31.28581l5.64551,32.13487l6.63912,-20.90293l4.89095,25.48463c0,0 -12.99457,11.19608 -13.07488,11.37078c-1.60827,1.22516 -5.2758,6.86545 -6.40358,8.54344c-3.38335,5.03396 -4.74497,9.59359 -6.54741,17.7304c0.01143,0.20466 -6.97412,32.68871 -6.97412,32.68871" data-paper-data="{&quot;origPos&quot;:null,&quot;index&quot;:null}" fill="#ff7400" stroke="#ffb100" stroke-width="2.5" stroke-linecap="round"/></g></g></svg>