<svg version="1.1" xmlns="http://www.w3.org/2000/svg" xmlns:xlink="http://www.w3.org/1999/xlink" width="491.96239" height="402.33334"><g transform="translate(5.98118,21.16667)"><g data-paper-data="{&quot;isPaintingLayer&quot;:true}" fill-rule="nonzero" stroke-linejoin="miter" stroke-miterlimit="10" stroke-dasharray="" stroke-dashoffset="0" style="mix-blend-mode: normal"><path d="M-5.98117,381.16667v-402.33334h491.96239v402.33334z" data-paper-data="{&quot;origPos&quot;:null}" fill="#969696" stroke="none" stroke-width="0" stroke-linecap="butt"/><text transform="translate(96.00003,347.05) scale(0.82503,0.82503)" font-size="40" xml:space="preserve" data-paper-data="{&quot;origPos&quot;:null}" fill="#000000" fill-rule="nonzero" stroke="none" stroke-width="1" stroke-linecap="butt" stroke-linejoin="miter" stroke-miterlimit="10" stroke-dasharray="" stroke-dashoffset="0" font-family="Handwriting" font-weight="normal" text-anchor="start" style="mix-blend-mode: normal"><tspan x="0" dy="0">Press any key to close</tspan></text><text transform="translate(83.00002,27.8) scale(0.76002,0.76002)" font-size="40" xml:space="preserve" fill="#000000" fill-rule="nonzero" stroke="none" stroke-width="1" stroke-linecap="butt" stroke-linejoin="miter" stroke-miterlimit="10" stroke-dasharray="" stroke-dashoffset="0" font-family="Handwriting" font-weight="normal" text-anchor="start" style="mix-blend-mode: normal"><tspan x="0" dy="0">Thanks for playing MTGS!</tspan></text><g data-paper-data="{&quot;origPos&quot;:null}"><text transform="translate(170.95829,264.45477) scale(6.44509,6.44509)" font-size="40" xml:space="preserve" data-paper-data="{&quot;origPos&quot;:null,&quot;index&quot;:null}" fill="#d9d9d9" fill-rule="nonzero" stroke="#6f6f6f" stroke-width="1" stroke-linecap="butt" stroke-linejoin="miter" stroke-miterlimit="10" stroke-dasharray="" stroke-dashoffset="0" font-family="Sans Serif" font-weight="normal" text-anchor="start" style="mix-blend-mode: normal"><tspan x="0" dy="0">S</tspan></text><path d="M271.89914,197.75997c0,0 -6.58864,-30.63835 -6.57786,-30.83139c-1.70002,-7.6745 -2.98429,-11.97506 -6.1754,-16.723c-1.0637,-1.58266 -4.52286,-6.90246 -6.03974,-8.05801c-0.07574,-0.16477 -12.33198,-10.72471 -12.33198,-10.72471l5.18751,-24.52273l5.25411,19.38414l7.93946,-31.28156l7.87433,30.78341l6.64433,-38.07527l6.56802,38.58982l7.21131,-29.50821l5.32474,30.30901l6.2619,-19.71526l4.61305,24.03663c0,0 -12.25625,10.55994 -12.33198,10.72471c-1.51688,1.15556 -4.97604,6.47537 -6.03974,8.05803c-3.19111,4.74794 -4.47537,9.04849 -6.1754,16.72299c0.01078,0.19303 -6.57788,30.83139 -6.57788,30.83139" data-paper-data="{&quot;origPos&quot;:null,&quot;index&quot;:null}" fill="#ff7400" stroke="#000000" stroke-width="2.5" stroke-linecap="round"/></g></g></g></svg>