<svg version="1.1" xmlns="http://www.w3.org/2000/svg" xmlns:xlink="http://www.w3.org/1999/xlink" width="635" height="497.33787"><g transform="translate(27,33.53786)"><g data-paper-data="{&quot;isPaintingLayer&quot;:true}" fill="none" fill-rule="nonzero" stroke="none" stroke-width="none" stroke-linecap="butt" stroke-linejoin="miter" stroke-miterlimit="10" stroke-dasharray="" stroke-dashoffset="0" font-family="none" font-weight="none" font-size="none" text-anchor="none" style="mix-blend-mode: normal"><path d="M-26,462.80001v-495.33786h633v495.33787z" data-paper-data="{&quot;origPos&quot;:null}" fill="#ffffff" stroke="#000000" stroke-width="2"/><path d="M184.67501,220.41059l44.04409,-105.14808l70.01323,29.32692l-44.04409,105.14808z" data-paper-data="{&quot;origPos&quot;:null}" fill="#987209" stroke="#000000" stroke-width="6"/><path d="M226.96211,131.3359l4.19129,-10.00602l61.5501,25.78191l-4.19129,10.00602z" data-paper-data="{&quot;origPos&quot;:null}" fill="#bebebe" stroke="#e63b3b" stroke-width="2"/><path d="M189.94988,219.92581l3.54501,-8.46314l61.5501,25.78191l-3.54501,8.46314z" data-paper-data="{&quot;origPos&quot;:null}" fill="#bebebe" stroke="#e63b3b" stroke-width="2"/><path d="M195.15407,211.61504l33.37189,-79.66994l58.72905,24.60024l-33.37189,79.66994z" data-paper-data="{&quot;origPos&quot;:null}" fill="#00ab9a" stroke="#e63b3b" stroke-width="2"/><path d="M245.21177,241.54564l2.40131,-5.73275l5.88232,2.46397l-2.40131,5.73275z" data-paper-data="{&quot;origPos&quot;:null}" fill="#000000" stroke="none" stroke-width="0"/><text transform="translate(191.52886,217.86935) rotate(22.72768) scale(0.15661,0.15661)" font-size="40" xml:space="preserve" data-paper-data="{&quot;origPos&quot;:null}" fill="#000000" fill-rule="nonzero" stroke="none" stroke-width="1" stroke-linecap="butt" stroke-linejoin="miter" stroke-miterlimit="10" stroke-dasharray="" stroke-dashoffset="0" font-family="Serif" font-weight="normal" text-anchor="start" style="mix-blend-mode: normal"><tspan x="0" dy="0">Basic Land - Mountain</tspan></text><path d="M220.44318,190.47983l48.62431,6.92517l-13.16538,31.82088l-56.886,-24.84664l15.93943,-37.93237z" data-paper-data="{&quot;origPos&quot;:null,&quot;origRot&quot;:0,&quot;index&quot;:null}" fill="#747474" stroke="#000000" stroke-width="2"/><path d="M244.37458,177.14402l7.79478,18.36616l-0.81215,31.3897l-52.33594,-21.73715l19.20285,-17.40653l12.01737,1.86913z" data-paper-data="{&quot;origPos&quot;:null,&quot;origRot&quot;:0}" fill="#747474" stroke="#000000" stroke-width="2"/><path d="M196.06804,211.26598l2.47439,-5.9072l57.35614,24.02516l-2.47439,5.9072z" data-paper-data="{&quot;origPos&quot;:null}" fill="#00ab0a" stroke="#000000" stroke-width="2"/><g data-paper-data="{&quot;origPos&quot;:null}" fill="#ffffff" stroke="none" stroke-width="0"><path d="M222.7332,147.48045l1.33793,-3.19409l22.35862,9.36551l-1.33793,3.19409z" data-paper-data="{&quot;origPos&quot;:null}"/><path d="M224.08051,144.26395c0.51724,-1.23484 2.11633,-1.74167 3.57167,-1.13206c1.45534,0.60961 2.21581,2.10482 1.69857,3.33965c-0.51724,1.23484 -2.11634,1.74168 -3.57167,1.13207c-1.45534,-0.60961 -2.21581,-2.10482 -1.69857,-3.33965z" data-paper-data="{&quot;origPos&quot;:null}"/><path d="M227.72516,144.23723c0.51724,-1.23484 2.11633,-1.74167 3.57167,-1.13206c1.45534,0.60961 2.21581,2.10482 1.69857,3.33965c-0.51724,1.23484 -2.11634,1.74168 -3.57167,1.13207c-1.45534,-0.60961 -2.21581,-2.10482 -1.69857,-3.33965z" data-paper-data="{&quot;origPos&quot;:null}"/><path d="M231.14516,147.00908c0.51724,-1.23484 2.11633,-1.74167 3.57167,-1.13206c1.45534,0.60961 2.21581,2.10482 1.69857,3.33965c-0.51724,1.23484 -2.11633,1.74168 -3.57167,1.13207c-1.45534,-0.60961 -2.21581,-2.10482 -1.69857,-3.33965z" data-paper-data="{&quot;origPos&quot;:null}"/><path d="M234.66027,148.12506c0.51724,-1.23484 2.11634,-1.74167 3.57167,-1.13206c1.45534,0.60961 2.21581,2.10482 1.69857,3.33965c-0.51724,1.23484 -2.11633,1.74168 -3.57167,1.13207c-1.45534,-0.60961 -2.21581,-2.10482 -1.69857,-3.33965z" data-paper-data="{&quot;origPos&quot;:null}"/><path d="M237.59003,150.04319c0.51724,-1.23484 2.11633,-1.74167 3.57167,-1.13206c1.45534,0.60961 2.21581,2.10482 1.69857,3.33965c-0.51724,1.23484 -2.11634,1.74168 -3.57167,1.13207c-1.45534,-0.60961 -2.21581,-2.10482 -1.69857,-3.33965z" data-paper-data="{&quot;origPos&quot;:null}"/><path d="M241.20377,151.39999c0.51724,-1.23484 2.11633,-1.74167 3.57167,-1.13206c1.45534,0.60961 2.21581,2.10482 1.69857,3.33965c-0.51724,1.23484 -2.11633,1.74168 -3.57167,1.13207c-1.45534,-0.60961 -2.21581,-2.10482 -1.69857,-3.33965z" data-paper-data="{&quot;origPos&quot;:null}"/><path d="M243.6914,154.00572c0.44363,-1.05909 1.70374,-1.54045 2.81455,-1.07516c1.1108,0.46529 1.65166,1.70104 1.20803,2.76013c-0.44363,1.05909 -1.70375,1.54046 -2.81455,1.07517c-1.1108,-0.46529 -1.65166,-1.70104 -1.20803,-2.76013z" data-paper-data="{&quot;origPos&quot;:null}"/></g><g data-paper-data="{&quot;index&quot;:null,&quot;origPos&quot;:null}" fill="#ffffff" stroke="none" stroke-width="0"><path d="M267.01849,178.08906l0.53964,-1.28831l9.01818,3.77751l-0.53964,1.28831z" data-paper-data="{&quot;origPos&quot;:null}"/><path d="M275.13949,181.02584c-0.58699,-0.24588 -0.89373,-0.84896 -0.6851,-1.34702c0.20863,-0.49806 0.85361,-0.70249 1.4406,-0.45662c0.58699,0.24588 0.89373,0.84896 0.6851,1.34702c-0.20863,0.49806 -0.85361,0.70249 -1.4406,0.45662z" data-paper-data="{&quot;origPos&quot;:null}"/><path d="M274.11596,179.97058c-0.58699,-0.24588 -0.89373,-0.84896 -0.6851,-1.34702c0.20863,-0.49806 0.85361,-0.70249 1.4406,-0.45662c0.58699,0.24588 0.89373,0.84896 0.6851,1.34702c-0.20863,0.49806 -0.8536,0.7025 -1.4406,0.45662z" data-paper-data="{&quot;origPos&quot;:null}"/><path d="M272.35155,179.77169c-0.58699,-0.24588 -0.89373,-0.84896 -0.6851,-1.34702c0.20863,-0.49806 0.85361,-0.70249 1.4406,-0.45662c0.58699,0.24588 0.89373,0.84895 0.6851,1.34702c-0.20863,0.49806 -0.85361,0.70249 -1.4406,0.45662z" data-paper-data="{&quot;origPos&quot;:null}"/><path d="M271.03621,179.07697c-0.58699,-0.24588 -0.89373,-0.84896 -0.6851,-1.34702c0.20863,-0.49806 0.85361,-0.70249 1.4406,-0.45662c0.58699,0.24588 0.89374,0.84897 0.68511,1.34703c-0.20863,0.49806 -0.85361,0.70249 -1.44061,0.45661z" data-paper-data="{&quot;origPos&quot;:null}"/><path d="M269.6559,178.77747c-0.58699,-0.24588 -0.89373,-0.84896 -0.6851,-1.34702c0.20863,-0.49806 0.85361,-0.70249 1.4406,-0.45662c0.58699,0.24588 0.89373,0.84896 0.6851,1.34702c-0.20863,0.49806 -0.85361,0.70249 -1.4406,0.45662z" data-paper-data="{&quot;origPos&quot;:null}"/><path d="M268.24345,178.12253c-0.58699,-0.24588 -0.89373,-0.84896 -0.6851,-1.34702c0.20863,-0.49806 0.85361,-0.70249 1.4406,-0.45662c0.58699,0.24588 0.89373,0.84895 0.6851,1.34702c-0.20863,0.49806 -0.85361,0.70249 -1.4406,0.45662z" data-paper-data="{&quot;origPos&quot;:null}"/><path d="M267.09594,178.12171c-0.44803,-0.18767 -0.66618,-0.6861 -0.48725,-1.11327c0.17893,-0.42717 0.68719,-0.62133 1.13522,-0.43366c0.44803,0.18767 0.66618,0.6861 0.48725,1.11327c-0.17893,0.42717 -0.68719,0.62133 -1.13522,0.43366z" data-paper-data="{&quot;origPos&quot;:null}"/></g><text transform="translate(228.44719,130.06532) rotate(22.72768) scale(0.28618,0.2765)" font-size="40" xml:space="preserve" data-paper-data="{&quot;origPos&quot;:null}" fill="#000000" fill-rule="nonzero" stroke="#000000" stroke-width="0" stroke-linecap="butt" stroke-linejoin="miter" stroke-miterlimit="10" stroke-dasharray="" stroke-dashoffset="0" font-family="Serif" font-weight="normal" text-anchor="start" style="mix-blend-mode: normal"><tspan x="0" dy="0">Mountain</tspan></text><text transform="translate(246.66547,241.2068) rotate(22.72768) scale(0.1643,0.1643)" font-size="40" xml:space="preserve" data-paper-data="{&quot;origPos&quot;:null}" fill="#ffffff" fill-rule="nonzero" stroke="none" stroke-width="1" stroke-linecap="butt" stroke-linejoin="miter" stroke-miterlimit="10" stroke-dasharray="" stroke-dashoffset="0" font-family="Handwriting" font-weight="normal" text-anchor="start" style="mix-blend-mode: normal"><tspan x="0" dy="0">S</tspan></text></g></g></svg>