<svg version="1.1" xmlns="http://www.w3.org/2000/svg" xmlns:xlink="http://www.w3.org/1999/xlink" width="96.22917" height="142.01084" viewBox="0,0,96.22917,142.01084"><defs><radialGradient cx="260.23528" cy="151.8193" r="68.50542" gradientUnits="userSpaceOnUse" id="color-1"><stop offset="0" stop-color="#a87000"/><stop offset="1" stop-color="#7c5200"/></radialGradient><linearGradient x1="243.76914" y1="182.09258" x2="243.76914" y2="188.85814" gradientTransform="translate(-1525.54676,-1276.71913) scale(6.82082,6.82128)" gradientUnits="userSpaceOnUse" id="color-2"><stop offset="0" stop-color="#d2d2d2"/><stop offset="1" stop-color="#00bfbb"/></linearGradient></defs><g transform="translate(-183.43757,-142.30166)"><g data-paper-data="{&quot;isPaintingLayer&quot;:true}" fill-rule="nonzero" stroke-linecap="butt" stroke-linejoin="miter" stroke-miterlimit="10" stroke-dasharray="" stroke-dashoffset="0" style="mix-blend-mode: normal"><path d="M185.93757,281.81251v-137.01084h91.22917v137.01084z" data-paper-data="{&quot;origPos&quot;:null}" fill="url(#color-1)" stroke="#000000" stroke-width="5"/><path d="M268.92378,213.97544c0,34.32789 -17.05603,62.15614 -38.0957,62.15614c-21.03967,0 -38.09569,-27.82825 -38.09569,-62.15614c0,-34.32789 17.05602,-62.15614 38.09569,-62.15614c21.03967,0 38.0957,27.82825 38.0957,62.15614z" data-paper-data="{&quot;origPos&quot;:null}" fill="#cf6100" stroke="#7256db" stroke-width="1.5"/><path d="M197.18802,268.92176v-13.81247h67.75189v13.81247z" data-paper-data="{&quot;origPos&quot;:null}" fill="#00d1ab" stroke="#000000" stroke-width="0.5"/><path d="M198.69944,267.0576v-10.41347h64.50627v10.41347z" data-paper-data="{&quot;origPos&quot;:null}" fill="#00d1ab" stroke="#000000" stroke-width="0.5"/><text transform="translate(198.44753,265.17208) scale(0.23442,0.23442)" font-size="40" xml:space="preserve" data-paper-data="{&quot;origPos&quot;:null}" fill="#000000" fill-rule="nonzero" stroke="none" stroke-width="1" stroke-linecap="butt" stroke-linejoin="miter" stroke-miterlimit="10" stroke-dasharray="" stroke-dashoffset="0" font-family="Handwriting" font-weight="normal" text-anchor="start" style="mix-blend-mode: normal"><tspan x="0" dy="0">DECKMASTER</tspan></text><path d="M195.0599,275.37063c0,1.44888 -1.15728,2.62343 -2.58486,2.62343c-1.42758,0 -2.58485,-1.17455 -2.58485,-2.62343c0,-1.44888 1.15727,-2.62343 2.58485,-2.62343c1.42758,0 2.58486,1.17455 2.58486,2.62343z" data-paper-data="{&quot;origPos&quot;:null}" fill="#ff6100" stroke="#000000" stroke-width="0.5"/><path d="M273.08925,275.37063c0,1.44888 -1.15728,2.62343 -2.58486,2.62343c-1.42758,0 -2.58486,-1.17455 -2.58486,-2.62343c0,-1.44888 1.15728,-2.62343 2.58486,-2.62343c1.42758,0 2.58486,1.17455 2.58486,2.62343z" data-paper-data="{&quot;origPos&quot;:null}" fill="#ff6100" stroke="#000000" stroke-width="0.5"/><path d="M194.39155,151.28114c0,1.44888 -1.15727,2.62343 -2.58485,2.62343c-1.42758,0 -2.58486,-1.17455 -2.58486,-2.62343c0,-1.44888 1.15728,-2.62343 2.58486,-2.62343c1.42758,0 2.58485,1.17455 2.58485,2.62343z" data-paper-data="{&quot;origPos&quot;:null}" fill="#ff6100" stroke="#000000" stroke-width="0.5"/><path d="M273.70189,151.05836c0,1.44888 -1.15727,2.62343 -2.58485,2.62343c-1.42758,0 -2.58486,-1.17454 -2.58486,-2.62343c0,-1.44888 1.15728,-2.62343 2.58486,-2.62343c1.42758,0 2.58485,1.17455 2.58485,2.62343z" data-paper-data="{&quot;origPos&quot;:null}" fill="#ff6100" stroke="#000000" stroke-width="0.5"/><g stroke="#000000" stroke-width="0.5"><path d="M234.07433,213.29035c0,1.44888 -1.15728,2.62343 -2.58486,2.62343c-1.42758,0 -2.58485,-1.17455 -2.58485,-2.62343c0,-1.44888 1.15727,-2.62344 2.58485,-2.62344c1.42758,0 2.58486,1.17456 2.58486,2.62344z" data-paper-data="{&quot;origPos&quot;:null}" fill="#ffd028"/><path d="M223.50568,220.11333c0,1.44888 -1.15727,2.62343 -2.58485,2.62343c-1.42758,0 -2.58486,-1.17455 -2.58486,-2.62343c0,-1.44888 1.15728,-2.62343 2.58486,-2.62343c1.42758,0 2.58485,1.17455 2.58485,2.62343z" data-paper-data="{&quot;origPos&quot;:null}" fill="#72ff29"/><path d="M227.80883,230.75017c0,1.44888 -1.15728,2.62343 -2.58486,2.62343c-1.42758,0 -2.58486,-1.17455 -2.58486,-2.62343c0,-1.44888 1.15728,-2.62343 2.58486,-2.62343c1.42758,0 2.58486,1.17455 2.58486,2.62343z" data-paper-data="{&quot;origPos&quot;:null}" fill="#ff2929"/><path d="M239.26913,231.03489c0,1.44888 -1.15728,2.62343 -2.58486,2.62343c-1.42758,0 -2.58485,-1.17455 -2.58485,-2.62343c0,-1.44888 1.15727,-2.62343 2.58485,-2.62343c1.42758,0 2.58486,1.17455 2.58486,2.62343z" data-paper-data="{&quot;origPos&quot;:null}" fill="#000000"/><path d="M244.09228,220.4475c0,1.44888 -1.15728,2.62343 -2.58486,2.62343c-1.42758,0 -2.58486,-1.17455 -2.58486,-2.62343c0,-1.44888 1.15728,-2.62343 2.58486,-2.62343c1.42758,0 2.58486,1.17455 2.58486,2.62343z" data-paper-data="{&quot;origPos&quot;:null}" fill="#002eff"/></g><text transform="translate(223.66041,187.16703) scale(0.14661,0.1466)" font-size="40" xml:space="preserve" data-paper-data="{&quot;origPos&quot;:null}" fill="url(#color-2)" fill-rule="nonzero" stroke="#000000" stroke-width="1" stroke-linecap="butt" stroke-linejoin="miter" stroke-miterlimit="10" stroke-dasharray="" stroke-dashoffset="0" font-family="Sans Serif" font-weight="normal" text-anchor="start" style="mix-blend-mode: normal"><tspan x="0" dy="0">The Gathering</tspan></text><g data-paper-data="{&quot;origPos&quot;:null}" fill="#2a7bff" stroke="#ff7400" stroke-width="1" font-family="Sans Serif" font-weight="normal" font-size="40" text-anchor="start"><text transform="translate(193.80956,193.5572) scale(0.88895,0.88895)" font-size="40" xml:space="preserve" data-paper-data="{&quot;origPos&quot;:null}" fill="#2a7bff" fill-rule="nonzero" stroke="#ff7400" stroke-width="1" stroke-linecap="butt" stroke-linejoin="miter" stroke-miterlimit="10" stroke-dasharray="" stroke-dashoffset="0" font-family="Sans Serif" font-weight="normal" text-anchor="start" style="mix-blend-mode: normal"><tspan x="0" dy="0">M</tspan></text><text transform="translate(226.22028,181.18689) scale(0.44285,0.44285)" font-size="40" xml:space="preserve" data-paper-data="{&quot;origPos&quot;:null}" fill="#2a7bff" fill-rule="nonzero" stroke="#ff7400" stroke-width="1" stroke-linecap="butt" stroke-linejoin="miter" stroke-miterlimit="10" stroke-dasharray="" stroke-dashoffset="0" font-family="Sans Serif" font-weight="normal" text-anchor="start" style="mix-blend-mode: normal"><tspan x="0" dy="0">AGIC</tspan></text></g></g></g></svg>