<svg version="1.1" xmlns="http://www.w3.org/2000/svg" xmlns:xlink="http://www.w3.org/1999/xlink" width="63" height="39.25" viewBox="0,0,63,39.25"><g transform="translate(-236.5,-178.05001)"><g data-paper-data="{&quot;isPaintingLayer&quot;:true}" fill-rule="nonzero" stroke-linejoin="miter" stroke-miterlimit="10" stroke-dasharray="" stroke-dashoffset="0" style="mix-blend-mode: normal"><path d="M238,215.80001v-36.25h60v36.25z" data-paper-data="{&quot;origPos&quot;:null}" fill="#828282" stroke="#000000" stroke-width="3" stroke-linecap="butt"/><text transform="translate(241.25,194.87451) scale(0.30369,0.30369)" font-size="40" xml:space="preserve" data-paper-data="{&quot;origPos&quot;:null}" fill="#000000" fill-rule="nonzero" stroke="none" stroke-width="1" stroke-linecap="butt" stroke-linejoin="miter" stroke-miterlimit="10" stroke-dasharray="" stroke-dashoffset="0" font-family="Sans Serif" font-weight="normal" text-anchor="start" style="mix-blend-mode: normal"><tspan x="0" dy="0">You need</tspan><tspan x="0" dy="46.150000000000006px">to pay:</tspan></text><path d="M295.75083,205.4277c0,4.03076 -3.33862,7.29835 -7.45702,7.29835c-4.11839,0 -7.45702,-3.26759 -7.45702,-7.29835c0,-4.03076 3.33862,-7.29835 7.45702,-7.29835c4.11839,0 7.45702,3.26759 7.45702,7.29835z" fill="#e04a4a" stroke="#000000" stroke-width="0.5" stroke-linecap="butt"/><g fill="none" stroke="#000000" stroke-width="1"><path d="M284.56499,205.28599c0,-2.02736 1.6435,-3.67085 3.67085,-3.67085c2.02736,0 3.67085,1.6435 3.67085,3.67085c0,2.02736 -1.6435,3.67085 -3.67085,3.67085c-2.02736,0 -3.67085,-1.6435 -3.67085,-3.67085z" stroke-linecap="butt"/><path d="M288.25505,199.47789v12.11702" stroke-linecap="round"/></g></g></g></svg>