<svg version="1.1" xmlns="http://www.w3.org/2000/svg" xmlns:xlink="http://www.w3.org/1999/xlink" width="635" height="497.33787"><g transform="translate(27,33.53786)"><g data-paper-data="{&quot;isPaintingLayer&quot;:true}" fill="none" fill-rule="nonzero" stroke="none" stroke-width="none" stroke-linecap="none" stroke-linejoin="miter" stroke-miterlimit="10" stroke-dasharray="" stroke-dashoffset="0" font-family="none" font-weight="none" font-size="none" text-anchor="none" style="mix-blend-mode: normal"><path d="M-26,462.80001v-495.33786h633v495.33787z" data-paper-data="{&quot;origPos&quot;:null}" fill="#ffffff" stroke="#000000" stroke-width="2" stroke-linecap="butt"/><path d="M184.70295,144.54742l114,-0.00215l0.00143,75.90732l-114,0.00215z" data-paper-data="{&quot;origPos&quot;:null}" fill="#987209" stroke="#000000" stroke-width="6" stroke-linecap="butt"/><path d="M283.19891,149.13498l10.84838,-0.0002l0.00126,66.73171l-10.84838,0.0002z" data-paper-data="{&quot;origPos&quot;:null}" fill="#bebebe" stroke="#e63b3b" stroke-width="2" stroke-linecap="butt"/><path d="M187.18813,149.22537l9.17561,-0.00018l0.00126,66.73171l-9.17561,0.00018z" data-paper-data="{&quot;origPos&quot;:null}" fill="#bebebe" stroke="#e63b3b" stroke-width="2" stroke-linecap="butt"/><path d="M196.86426,150.81439l86.37698,-0.00163l0.0012,63.67317l-86.37698,0.00163z" data-paper-data="{&quot;origPos&quot;:null}" fill="#00ab9a" stroke="#e63b3b" stroke-width="2" stroke-linecap="butt"/><path d="M188.59869,208.54909l6.21537,-0.00012l0.00012,6.37753l-6.21537,0.00012z" data-paper-data="{&quot;origPos&quot;:null}" fill="#000000" stroke="none" stroke-width="0" stroke-linecap="butt"/><text transform="translate(189.69496,149.88718) rotate(89.99892) scale(0.15661,0.15661)" font-size="40" xml:space="preserve" data-paper-data="{&quot;origPos&quot;:null}" fill="#000000" fill-rule="nonzero" stroke="none" stroke-width="1" stroke-linecap="butt" stroke-linejoin="miter" stroke-miterlimit="10" stroke-dasharray="" stroke-dashoffset="0" font-family="Serif" font-weight="normal" text-anchor="start" style="mix-blend-mode: normal"><tspan x="0" dy="0">Basic Land - Mountain</tspan></text><path d="M226.12913,165.97367l12.39954,47.52402l-34.43651,0.15159l0.93816,-62.06845l41.14521,0.04575z" data-paper-data="{&quot;origPos&quot;:null,&quot;origRot&quot;:0,&quot;index&quot;:null}" fill="#747474" stroke="#000000" stroke-width="2" stroke-linecap="butt"/><path d="M247.67569,182.89412l-13.92826,14.28559l-29.2659,11.37893l-0.17185,-56.67032l23.4742,10.9863l2.91916,11.80632z" data-paper-data="{&quot;origPos&quot;:null,&quot;origRot&quot;:0}" fill="#747474" stroke="#000000" stroke-width="2" stroke-linecap="butt"/><path d="M197.53934,151.52253l6.4045,-0.00012l0.00116,62.18469l-6.4045,0.00012z" data-paper-data="{&quot;origPos&quot;:null}" fill="#00ab0a" stroke="#000000" stroke-width="2" stroke-linecap="butt"/><g data-paper-data="{&quot;origPos&quot;:null}" fill="#ffffff" stroke="none" stroke-width="0" stroke-linecap="butt"><path d="M266.67416,151.47223l3.46299,-0.00007l0.00046,24.24089l-3.46299,0.00007z" data-paper-data="{&quot;origPos&quot;:null}"/><path d="M270.16143,151.47215c1.33879,-0.00003 2.4241,1.27905 2.42413,2.85692c0.00003,1.57786 -1.08525,2.85698 -2.42403,2.85701c-1.33879,0.00003 -2.42412,-1.27906 -2.42414,-2.85691c-0.00003,-1.57786 1.08525,-2.85698 2.42403,-2.85701z" data-paper-data="{&quot;origPos&quot;:null}"/><path d="M271.59426,154.82345c1.33879,-0.00003 2.4241,1.27905 2.42413,2.85692c0.00003,1.57786 -1.08525,2.85698 -2.42403,2.85701c-1.33879,0.00003 -2.42412,-1.27906 -2.42414,-2.85691c-0.00003,-1.57786 1.08525,-2.85698 2.42403,-2.85701z" data-paper-data="{&quot;origPos&quot;:null}"/><path d="M270.35904,159.04883c1.33879,-0.00003 2.4241,1.27905 2.42413,2.85692c0.00003,1.57786 -1.08525,2.85698 -2.42403,2.85701c-1.33879,0.00003 -2.42411,-1.27905 -2.42414,-2.85691c-0.00003,-1.57786 1.08525,-2.85698 2.42403,-2.85701z" data-paper-data="{&quot;origPos&quot;:null}"/><path d="M270.68785,162.72215c1.33879,-0.00003 2.4241,1.27907 2.42413,2.85692c0.00003,1.57786 -1.08525,2.85698 -2.42403,2.85701c-1.33879,0.00003 -2.42411,-1.27905 -2.42414,-2.85691c-0.00003,-1.57786 1.08525,-2.85698 2.42403,-2.85701z" data-paper-data="{&quot;origPos&quot;:null}"/><path d="M270.05064,166.1655c1.33879,-0.00003 2.4241,1.27905 2.42413,2.85692c0.00003,1.57786 -1.08525,2.85698 -2.42403,2.85701c-1.33879,0.00003 -2.42412,-1.27906 -2.42414,-2.85691c-0.00003,-1.57786 1.08525,-2.85698 2.42403,-2.85701z" data-paper-data="{&quot;origPos&quot;:null}"/><path d="M270.19545,170.02284c1.33879,-0.00003 2.4241,1.27905 2.42413,2.85692c0.00003,1.57786 -1.08525,2.85698 -2.42403,2.85701c-1.33879,0.00003 -2.42411,-1.27905 -2.42414,-2.85691c-0.00003,-1.57786 1.08525,-2.85698 2.42403,-2.85701z" data-paper-data="{&quot;origPos&quot;:null}"/><path d="M268.75321,173.32407c1.14825,-0.00002 2.07909,0.97625 2.07913,2.18057c0.00002,1.20432 -0.9308,2.18063 -2.07904,2.18065c-1.14825,0.00002 -2.07911,-0.97626 -2.07913,-2.18057c-0.00002,-1.20432 0.9308,-2.18063 2.07904,-2.18065z" data-paper-data="{&quot;origPos&quot;:null}"/></g><g data-paper-data="{&quot;index&quot;:null,&quot;origPos&quot;:null}" fill="#ffffff" stroke="none" stroke-width="0" stroke-linecap="butt"><path d="M255.55294,204.14473l1.39677,-0.00003l0.00018,9.77737l-1.39677,0.00003z" data-paper-data="{&quot;origPos&quot;:null}"/><path d="M255.98193,212.76977c0,-0.63641 0.43772,-1.15234 0.97772,-1.15235c0.53999,-0.00001 0.97774,0.5159 0.97776,1.15231c0,0.63641 -0.43772,1.15234 -0.97772,1.15235c-0.53999,0.00001 -0.97774,-0.5159 -0.97776,-1.15231z" data-paper-data="{&quot;origPos&quot;:null}"/><path d="M256.55978,211.418c0,-0.63641 0.43772,-1.15234 0.97772,-1.15235c0.53999,-0.00001 0.97774,0.5159 0.97776,1.15231c0,0.63641 -0.43772,1.15234 -0.97772,1.15235c-0.53999,0.00001 -0.97775,-0.51589 -0.97776,-1.15231z" data-paper-data="{&quot;origPos&quot;:null}"/><path d="M256.06151,209.71377c0,-0.63641 0.43772,-1.15234 0.97772,-1.15235c0.53999,-0.00001 0.97774,0.5159 0.97776,1.15231c0,0.63641 -0.43771,1.15233 -0.97772,1.15235c-0.53999,0.00001 -0.97774,-0.5159 -0.97776,-1.15231z" data-paper-data="{&quot;origPos&quot;:null}"/><path d="M256.19407,208.23214c0,-0.63641 0.43772,-1.15234 0.97772,-1.15235c0.53999,-0.00001 0.97774,0.5159 0.97776,1.15231c0,0.63641 -0.43773,1.15236 -0.97772,1.15236c-0.53999,0.00001 -0.97774,-0.5159 -0.97776,-1.15231z" data-paper-data="{&quot;origPos&quot;:null}"/><path d="M255.937,206.84331c0,-0.63641 0.43772,-1.15234 0.97772,-1.15235c0.53999,-0.00001 0.97774,0.5159 0.97776,1.15231c0,0.63641 -0.43772,1.15234 -0.97772,1.15235c-0.53999,0.00001 -0.97774,-0.5159 -0.97776,-1.15231z" data-paper-data="{&quot;origPos&quot;:null}"/><path d="M255.99536,205.28749c0,-0.63641 0.43772,-1.15234 0.97772,-1.15235c0.53999,-0.00001 0.97774,0.5159 0.97776,1.15231c0,0.63641 -0.43771,1.15233 -0.97772,1.15235c-0.53999,0.00001 -0.97774,-0.5159 -0.97776,-1.15231z" data-paper-data="{&quot;origPos&quot;:null}"/><path d="M255.55275,204.22879c-0.00001,-0.48575 0.37543,-0.87953 0.83856,-0.87955c0.46313,-0.00001 0.83859,0.39376 0.8386,0.87951c0.00001,0.48575 -0.37543,0.87953 -0.83856,0.87955c-0.46313,0.00001 -0.83859,-0.39376 -0.8386,-0.87951z" data-paper-data="{&quot;origPos&quot;:null}"/></g><text transform="translate(284.94461,150.01383) rotate(89.99892) scale(0.28618,0.2765)" font-size="40" xml:space="preserve" data-paper-data="{&quot;origPos&quot;:null}" fill="#000000" fill-rule="nonzero" stroke="#000000" stroke-width="0" stroke-linecap="butt" stroke-linejoin="miter" stroke-miterlimit="10" stroke-dasharray="" stroke-dashoffset="0" font-family="Serif" font-weight="normal" text-anchor="start" style="mix-blend-mode: normal"><tspan x="0" dy="0">Mountain</tspan></text><text transform="translate(189.47288,209.75898) rotate(89.99892) scale(0.1643,0.1643)" font-size="40" xml:space="preserve" data-paper-data="{&quot;origPos&quot;:null}" fill="#ffffff" fill-rule="nonzero" stroke="none" stroke-width="1" stroke-linecap="butt" stroke-linejoin="miter" stroke-miterlimit="10" stroke-dasharray="" stroke-dashoffset="0" font-family="Handwriting" font-weight="normal" text-anchor="start" style="mix-blend-mode: normal"><tspan x="0" dy="0">S</tspan></text><path d="M241,182.8l210.63019,-61.751" data-paper-data="{&quot;origPos&quot;:null}" fill="none" stroke="#ff0000" stroke-width="5.5" stroke-linecap="round"/></g></g></svg>