<svg version="1.1" xmlns="http://www.w3.org/2000/svg" xmlns:xlink="http://www.w3.org/1999/xlink" width="56.63514" height="52.5"><g transform="translate(-213.25,-160.91672)"><g data-paper-data="{&quot;isPaintingLayer&quot;:true}" fill="none" fill-rule="nonzero" stroke="none" stroke-width="none" stroke-linecap="butt" stroke-linejoin="miter" stroke-miterlimit="10" stroke-dasharray="" stroke-dashoffset="0" font-family="none" font-weight="none" font-size="none" text-anchor="none" style="mix-blend-mode: normal"><path d="M214,212.66672v-51h55.13514v51z" data-paper-data="{&quot;origPos&quot;:null}" fill="#8e8e8e" stroke="#000000" stroke-width="1.5"/><path d="M221.38007,211.34922v-6.5875c0,0 13.51704,-13.9569 20.1875,-13.8125c5.84527,0.12653 21.0375,13.8125 21.0375,13.8125v6.5875z" data-paper-data="{&quot;origPos&quot;:null}" fill="#cd3700" stroke="#ffffff" stroke-width="1"/><path d="M255.59257,181.28047c0,7.80447 -6.18407,14.13125 -13.8125,14.13125c-7.62843,0 -13.8125,-6.32678 -13.8125,-14.13125c0,-7.80447 6.18407,-14.13125 13.8125,-14.13125c7.62843,0 13.8125,6.32677 13.8125,14.13125z" data-paper-data="{&quot;origPos&quot;:null}" fill="#cd3700" stroke="#ffffff" stroke-width="1"/><g fill="#ffde00" stroke="#ffde00" stroke-width="2"><path d="M237.25567,206.72354v-17.32061h10.54298v17.32061z" data-paper-data="{&quot;origPos&quot;:null}"/><path d="M226.86453,189.19798l15.30967,-20.47946l15.53155,20.47946z" data-paper-data="{&quot;origPos&quot;:null}"/></g></g></g></svg>