<svg version="1.1" xmlns="http://www.w3.org/2000/svg" xmlns:xlink="http://www.w3.org/1999/xlink" width="635" height="497.33786"><g transform="translate(27,33.53786)"><g data-paper-data="{&quot;isPaintingLayer&quot;:true}" fill="none" fill-rule="nonzero" stroke="none" stroke-width="none" stroke-linecap="butt" stroke-linejoin="miter" stroke-miterlimit="10" stroke-dasharray="" stroke-dashoffset="0" font-family="none" font-weight="none" font-size="none" text-anchor="none" style="mix-blend-mode: normal"><path d="M-26,462.8v-495.33786h633v495.33786z" data-paper-data="{&quot;origPos&quot;:null}" fill="#ffffff" stroke="#000000" stroke-width="2"/><path d="M203.75001,239.50001v-114h75.90732v114z" data-paper-data="{&quot;origPos&quot;:null}" fill="#987209" stroke="#000000" stroke-width="6"/><path d="M208.33943,141.00414v-10.84838h66.73171v10.84838z" data-paper-data="{&quot;origPos&quot;:null}" fill="#bebebe" stroke="#e63b3b" stroke-width="2"/><path d="M208.428,237.01492v-9.17561h66.73171v9.17561z" data-paper-data="{&quot;origPos&quot;:null}" fill="#bebebe" stroke="#e63b3b" stroke-width="2"/><path d="M210.01722,227.33882v-86.37698h63.67317v86.37698z" data-paper-data="{&quot;origPos&quot;:null}" fill="#00ab9a" stroke="#e63b3b" stroke-width="2"/><path d="M267.75175,235.60548v-6.21536h6.37753v6.21536z" data-paper-data="{&quot;origPos&quot;:null}" fill="#000000" stroke="none" stroke-width="0"/><text transform="translate(209.08986,234.5081) scale(0.15661,0.15661)" font-size="40" xml:space="preserve" data-paper-data="{&quot;origPos&quot;:null}" fill="#000000" fill-rule="nonzero" stroke="none" stroke-width="1" stroke-linecap="butt" stroke-linejoin="miter" stroke-miterlimit="10" stroke-dasharray="" stroke-dashoffset="0" font-family="Serif" font-weight="normal" text-anchor="start" style="mix-blend-mode: normal"><tspan x="0" dy="0">Basic Land - Mountain</tspan></text><path d="M225.17704,198.07424l47.52426,-12.39864l0.15094,34.43651l-62.06843,-0.93933l0.04652,-41.1452z" data-paper-data="{&quot;origPos&quot;:null,&quot;origRot&quot;:0,&quot;index&quot;:null}" fill="#747474" stroke="#000000" stroke-width="2"/><path d="M242.09789,176.528l14.28533,13.92853l11.37838,29.26611l-56.67032,0.17079l10.98674,-23.47399l11.80638,-2.91894z" data-paper-data="{&quot;origPos&quot;:null,&quot;origRot&quot;:0}" fill="#747474" stroke="#000000" stroke-width="2"/><path d="M210.72536,226.66375v-6.4045h62.18469v6.4045z" data-paper-data="{&quot;origPos&quot;:null}" fill="#00ab0a" stroke="#000000" stroke-width="2"/><g data-paper-data="{&quot;origPos&quot;:null}" fill="#ffffff" stroke="none" stroke-width="0"><path d="M210.67636,157.52894v-3.46299h24.24089v3.46299z" data-paper-data="{&quot;origPos&quot;:null}"/><path d="M210.67636,154.04166c0,-1.33879 1.2791,-2.42408 2.85696,-2.42408c1.57786,0 2.85696,1.0853 2.85696,2.42408c0,1.33879 -1.27911,2.42409 -2.85696,2.42409c-1.57786,0 -2.85696,-1.0853 -2.85696,-2.42409z" data-paper-data="{&quot;origPos&quot;:null}"/><path d="M214.02768,152.6089c0,-1.33879 1.2791,-2.42408 2.85696,-2.42408c1.57786,0 2.85696,1.0853 2.85696,2.42408c0,1.33879 -1.27911,2.42409 -2.85696,2.42409c-1.57786,0 -2.85696,-1.0853 -2.85696,-2.42409z" data-paper-data="{&quot;origPos&quot;:null}"/><path d="M218.25303,153.8442c0,-1.33879 1.2791,-2.42408 2.85696,-2.42408c1.57786,0 2.85696,1.0853 2.85696,2.42408c0,1.33879 -1.2791,2.42409 -2.85696,2.42409c-1.57786,0 -2.85696,-1.0853 -2.85696,-2.42409z" data-paper-data="{&quot;origPos&quot;:null}"/><path d="M221.92636,153.51545c0,-1.33879 1.27911,-2.42408 2.85696,-2.42408c1.57786,0 2.85696,1.0853 2.85696,2.42408c0,1.33879 -1.2791,2.42409 -2.85696,2.42409c-1.57786,0 -2.85696,-1.0853 -2.85696,-2.42409z" data-paper-data="{&quot;origPos&quot;:null}"/><path d="M225.3697,154.15272c0,-1.33879 1.2791,-2.42408 2.85696,-2.42408c1.57786,0 2.85696,1.0853 2.85696,2.42408c0,1.33879 -1.27911,2.42409 -2.85696,2.42409c-1.57786,0 -2.85696,-1.0853 -2.85696,-2.42409z" data-paper-data="{&quot;origPos&quot;:null}"/><path d="M229.22704,154.008c0,-1.33879 1.2791,-2.42408 2.85696,-2.42408c1.57786,0 2.85696,1.0853 2.85696,2.42408c0,1.33879 -1.2791,2.42409 -2.85696,2.42409c-1.57786,0 -2.85696,-1.0853 -2.85696,-2.42409z" data-paper-data="{&quot;origPos&quot;:null}"/><path d="M232.52824,155.45029c0,-1.14825 0.97629,-2.07908 2.18061,-2.07908c1.20431,0 2.18061,0.93084 2.18061,2.07908c0,1.14825 -0.9763,2.07909 -2.18061,2.07909c-1.20431,0 -2.18061,-0.93084 -2.18061,-2.07909z" data-paper-data="{&quot;origPos&quot;:null}"/></g><g data-paper-data="{&quot;index&quot;:null,&quot;origPos&quot;:null}" fill="#ffffff" stroke="none" stroke-width="0"><path d="M263.34866,168.65114v-1.39677h9.77738v1.39677z" data-paper-data="{&quot;origPos&quot;:null}"/><path d="M271.9737,168.22232c-0.63641,0 -1.15233,-0.43775 -1.15233,-0.97774c0,-0.53999 0.51592,-0.97774 1.15233,-0.97774c0.63641,0 1.15233,0.43775 1.15233,0.97774c0,0.53999 -0.51592,0.97774 -1.15233,0.97774z" data-paper-data="{&quot;origPos&quot;:null}"/><path d="M270.62195,167.64444c-0.63641,0 -1.15233,-0.43775 -1.15233,-0.97774c0,-0.53999 0.51592,-0.97774 1.15233,-0.97774c0.63641,0 1.15233,0.43775 1.15233,0.97774c0,0.53999 -0.51591,0.97774 -1.15233,0.97774z" data-paper-data="{&quot;origPos&quot;:null}"/><path d="M268.9177,168.14268c-0.63641,0 -1.15233,-0.43775 -1.15233,-0.97774c0,-0.53999 0.51592,-0.97774 1.15233,-0.97774c0.63641,0 1.15233,0.43774 1.15233,0.97774c0,0.53999 -0.51592,0.97774 -1.15233,0.97774z" data-paper-data="{&quot;origPos&quot;:null}"/><path d="M267.43609,168.01009c-0.63641,0 -1.15233,-0.43775 -1.15233,-0.97774c0,-0.53999 0.51592,-0.97774 1.15233,-0.97774c0.63641,0 1.15234,0.43775 1.15234,0.97774c0,0.53999 -0.51592,0.97774 -1.15234,0.97774z" data-paper-data="{&quot;origPos&quot;:null}"/><path d="M266.04724,168.26713c-0.63641,0 -1.15233,-0.43775 -1.15233,-0.97774c0,-0.53999 0.51592,-0.97774 1.15233,-0.97774c0.63641,0 1.15233,0.43775 1.15233,0.97774c0,0.53999 -0.51592,0.97774 -1.15233,0.97774z" data-paper-data="{&quot;origPos&quot;:null}"/><path d="M264.49143,168.20875c-0.63641,0 -1.15233,-0.43775 -1.15233,-0.97774c0,-0.53999 0.51592,-0.97774 1.15233,-0.97774c0.63641,0 1.15233,0.43774 1.15233,0.97774c0,0.53999 -0.51592,0.97774 -1.15233,0.97774z" data-paper-data="{&quot;origPos&quot;:null}"/><path d="M263.4327,168.65133c-0.48575,0 -0.87953,-0.37545 -0.87953,-0.83858c0,-0.46313 0.39378,-0.83858 0.87953,-0.83858c0.48575,0 0.87953,0.37544 0.87953,0.83858c0,0.46313 -0.39378,0.83858 -0.87953,0.83858z" data-paper-data="{&quot;origPos&quot;:null}"/></g><text transform="translate(209.2183,139.25846) scale(0.28618,0.2765)" font-size="40" xml:space="preserve" data-paper-data="{&quot;origPos&quot;:null}" fill="#000000" fill-rule="nonzero" stroke="#000000" stroke-width="0" stroke-linecap="butt" stroke-linejoin="miter" stroke-miterlimit="10" stroke-dasharray="" stroke-dashoffset="0" font-family="Serif" font-weight="normal" text-anchor="start" style="mix-blend-mode: normal"><tspan x="0" dy="0">Mountain</tspan></text><text transform="translate(268.96166,234.73131) scale(0.1643,0.1643)" font-size="40" xml:space="preserve" data-paper-data="{&quot;origPos&quot;:null}" fill="#ffffff" fill-rule="nonzero" stroke="none" stroke-width="1" stroke-linecap="butt" stroke-linejoin="miter" stroke-miterlimit="10" stroke-dasharray="" stroke-dashoffset="0" font-family="Handwriting" font-weight="normal" text-anchor="start" style="mix-blend-mode: normal"><tspan x="0" dy="0">S</tspan></text></g></g></svg>