<svg version="1.1" xmlns="http://www.w3.org/2000/svg" xmlns:xlink="http://www.w3.org/1999/xlink" width="142.5" height="211" viewBox="0,0,142.5,211"><defs><radialGradient cx="296.00004" cy="196.6" r="57.25" gradientUnits="userSpaceOnUse" id="color-1"><stop offset="0" stop-color="#00f7f7"/><stop offset="1" stop-color="#00f7f7" stop-opacity="0"/></radialGradient><linearGradient x1="295.15624" y1="200.12325" x2="295.15624" y2="221.53171" gradientTransform="translate(-647.61111,-484.6972) scale(2.2421,2.2421)" gradientUnits="userSpaceOnUse" id="color-2"><stop offset="0" stop-color="#d1a500"/><stop offset="1" stop-color="#ffca00"/></linearGradient></defs><g transform="translate(-171.83361,-81.5)"><g data-paper-data="{&quot;isPaintingLayer&quot;:true}" fill-rule="nonzero" stroke-linecap="butt" stroke-linejoin="miter" stroke-miterlimit="10" stroke-dasharray="" stroke-dashoffset="0" style="mix-blend-mode: normal"><path d="M174.83362,289.5v-205h136.5v205z" data-paper-data="{&quot;origPos&quot;:null,&quot;index&quot;:null}" fill="#e2bc00" stroke="#000000" stroke-width="6"/><path d="M183.24578,271.16967v-53h120v53z" data-paper-data="{&quot;origPos&quot;:null,&quot;index&quot;:null}" fill="#bebebe" stroke="#000000" stroke-width="2"/><path d="M186.18692,200.93297v-90.33333h114.5v90.33333z" data-paper-data="{&quot;origPos&quot;:null,&quot;index&quot;:null}" fill="#000000" stroke="#000000" stroke-width="2"/><path d="M186.18692,200.59964v-90.33333h114.5v90.33333z" data-paper-data="{&quot;origPos&quot;:null,&quot;index&quot;:null}" fill="url(#color-1)" stroke="none" stroke-width="0"/><text transform="translate(177.91233,283.80954) scale(0.23338,0.23338)" font-size="40" xml:space="preserve" data-paper-data="{&quot;origPos&quot;:null,&quot;index&quot;:null}" fill="#000000" fill-rule="nonzero" stroke="none" stroke-width="1" stroke-linecap="butt" stroke-linejoin="miter" stroke-miterlimit="10" stroke-dasharray="" stroke-dashoffset="0" font-family="Sans Serif" font-weight="normal" text-anchor="start" style="mix-blend-mode: normal"><tspan x="0" dy="0">(c)pthiel23</tspan></text><text transform="translate(185.26817,229.24419) scale(0.27609,0.27609)" font-size="40" xml:space="preserve" data-paper-data="{&quot;origPos&quot;:null,&quot;index&quot;:null}" fill="#000000" fill-rule="nonzero" stroke="none" stroke-width="1" stroke-linecap="butt" stroke-linejoin="miter" stroke-miterlimit="10" stroke-dasharray="" stroke-dashoffset="0" font-family="Serif" font-weight="normal" text-anchor="start" style="mix-blend-mode: normal"><tspan x="0" dy="0">Flip a coin. If you win the</tspan><tspan x="0" dy="48px">flip, take an extra turn</tspan><tspan x="0" dy="48px">after this one.</tspan></text><path d="M253.23163,279.76382c0,2.68369 -4.51848,4.85926 -10.09231,4.85926c-5.57383,0 -10.09231,-2.17556 -10.09231,-4.85926c0,-2.68369 4.51848,-4.85926 10.09231,-4.85926c5.57383,0 10.09231,2.17556 10.09231,4.85926z" data-paper-data="{&quot;origPos&quot;:null,&quot;index&quot;:null}" fill="#ffffff" stroke="#000000" stroke-width="2"/><g data-paper-data="{&quot;origPos&quot;:null}" fill="#00f7f7" stroke="none" stroke-width="0"><g data-paper-data="{&quot;origPos&quot;:null}"><g data-paper-data="{&quot;origPos&quot;:null}"><path d="M270.327,131.96032v-20h4.33334v20z" data-paper-data="{&quot;origPos&quot;:null}"/><path d="M278.88518,143.12472l-8.63102,-11.33879l3.44806,-2.62464l8.63101,11.33879z" data-paper-data="{&quot;origPos&quot;:null,&quot;origRot&quot;:0}"/></g><g data-paper-data="{&quot;origPos&quot;:null,&quot;index&quot;:null}"><path d="M277.85082,160.29365v-20h4.33334v20z" data-paper-data="{&quot;origPos&quot;:null}"/><path d="M286.409,171.45806l-8.63102,-11.33879l3.44806,-2.62464l8.63101,11.33879z" data-paper-data="{&quot;origPos&quot;:null,&quot;origRot&quot;:0}"/></g></g><g data-paper-data="{&quot;origPos&quot;:null}"><path d="M285.66037,188.76984v-20h4.33334v20z" data-paper-data="{&quot;origPos&quot;:null}"/><path d="M294.67246,200.17004l-9.00167,-11.57457l3.44806,-2.62464l10.50184,14.20395z" data-paper-data="{&quot;origPos&quot;:null,&quot;origRot&quot;:0}"/></g></g><g data-paper-data="{&quot;origPos&quot;:null,&quot;index&quot;:null,&quot;origRot&quot;:0}" fill="#00f7f7" stroke="none" stroke-width="0"><g data-paper-data="{&quot;origPos&quot;:null}"><g data-paper-data="{&quot;origPos&quot;:null}"><path d="M280.13964,174.16819c0,0 16.9842,20.32644 17.71553,21.20169c0.24377,0.29175 1.32464,1.54757 1.32464,1.54757l0.17181,3.44537l-5.62748,-0.17166l-18.34017,-22.04926z" data-paper-data="{&quot;origPos&quot;:null}"/><path d="M260.5095,169.76359l19.87,4.52919l-1.3773,6.04234l-19.86998,-4.52919z" data-paper-data="{&quot;origPos&quot;:null,&quot;origRot&quot;:0}"/></g><g data-paper-data="{&quot;origPos&quot;:null,&quot;index&quot;:null}"><path d="M245.90062,149.97281l18.34017,21.94925l-4.75568,3.97371l-18.34017,-21.94925z" data-paper-data="{&quot;origPos&quot;:null}"/><path d="M226.27051,145.5682l19.86999,4.52918l-1.3773,6.04235l-19.86999,-4.52919z" data-paper-data="{&quot;origPos&quot;:null,&quot;origRot&quot;:0}"/></g></g><g data-paper-data="{&quot;origPos&quot;:null}"><path d="M211.21704,125.88267l18.34018,21.94925l-4.75568,3.97371l-18.34017,-21.94925z" data-paper-data="{&quot;origPos&quot;:null}"/><path d="M186.57252,120.73554l24.79298,5.34805l-1.3773,6.04234l-23.27696,-5.52761z" data-paper-data="{&quot;origPos&quot;:null,&quot;origRot&quot;:0}"/></g></g><path d="M183.24578,218.16967v-16.5h120v16.5z" data-paper-data="{&quot;origPos&quot;:null,&quot;index&quot;:null}" fill="#bebebe" stroke="#000000" stroke-width="2"/><text transform="translate(185.15526,214.02475) scale(0.2994,0.2994)" font-size="40" xml:space="preserve" data-paper-data="{&quot;origPos&quot;:null,&quot;index&quot;:null}" fill="#000000" fill-rule="nonzero" stroke="none" stroke-width="1" stroke-linecap="butt" stroke-linejoin="miter" stroke-miterlimit="10" stroke-dasharray="" stroke-dashoffset="0" font-family="Serif" font-weight="normal" text-anchor="start" style="mix-blend-mode: normal"><tspan x="0" dy="0">Sorcery</tspan></text><g><path d="M183.08658,110.80331v-19.50806h120v19.50806z" data-paper-data="{&quot;origPos&quot;:null,&quot;index&quot;:null}" fill="#bebebe" stroke="#000000" stroke-width="2"/><text transform="translate(184.41699,105.34311) scale(0.33249,0.39251)" font-size="40" xml:space="preserve" data-paper-data="{&quot;origPos&quot;:null,&quot;index&quot;:null}" fill="#000000" fill-rule="nonzero" stroke="#000000" stroke-width="0" stroke-linecap="butt" stroke-linejoin="miter" stroke-miterlimit="10" stroke-dasharray="" stroke-dashoffset="0" font-family="Serif" font-weight="normal" text-anchor="start" style="mix-blend-mode: normal"><tspan x="0" dy="0">Stitch in Time</tspan></text><text transform="translate(261.43746,107.4889) scale(0.5,0.5)" font-size="40" xml:space="preserve" data-paper-data="{&quot;origPos&quot;:null,&quot;index&quot;:null}" fill="#000000" fill-rule="nonzero" stroke="none" stroke-width="1" stroke-linecap="butt" stroke-linejoin="miter" stroke-miterlimit="10" stroke-dasharray="" stroke-dashoffset="0" font-family="Serif" font-weight="normal" text-anchor="start" style="mix-blend-mode: normal"><tspan x="0" dy="0">1</tspan></text><g data-paper-data="{&quot;origPos&quot;:null,&quot;index&quot;:null}" stroke="#000000" stroke-width="0.5"><path d="M284.67386,101.00757c0,3.89674 -3.2276,7.05568 -7.20906,7.05568c-3.98146,0 -7.20906,-3.15894 -7.20906,-7.05568c0,-3.89674 3.2276,-7.05568 7.20906,-7.05568c3.98146,0 7.20906,3.15894 7.20906,7.05568z" data-paper-data="{&quot;origPos&quot;:null}" fill="#00c6c6"/><path d="M280.52846,102.3707c0,1.53676 -1.3973,2.78255 -3.12096,2.78255c-1.72367,0 -3.12098,-1.24578 -3.12098,-2.78255c0,-1.53676 1.54771,-6.994 3.27139,-6.994c1.72367,0 2.97055,5.45722 2.97055,6.994z" data-paper-data="{&quot;origPos&quot;:null}" fill="#009090"/></g><g data-paper-data="{&quot;origPos&quot;:null}" stroke="#000000" stroke-width="0.5"><path d="M300.44408,101.07186c0,4.03076 -3.33862,7.29835 -7.45702,7.29835c-4.11839,0 -7.45702,-3.26759 -7.45702,-7.29835c0,-4.03076 3.33862,-7.29835 7.45702,-7.29835c4.11839,0 7.45702,3.26759 7.45702,7.29835z" data-paper-data="{&quot;origPos&quot;:null}" fill="#e04a4a"/><path d="M297.42673,103.20438c-0.78092,0.81463 -0.5303,0.71925 -1.22371,1.22898c-0.66336,0.48763 -1.61528,0.82825 -2.38291,1.12593c-0.78719,0.30527 -1.31436,0.27397 -2.29394,0.28218c-1.00711,0.051 -1.27715,-0.00418 -2.00636,-0.10944c-0.04758,-0.00687 -1.65476,-0.04688 -1.58399,-2.21483c0.0248,-0.75963 0.35294,-1.942 1.76387,-2.40703c0.09423,-0.03106 0.52303,-0.0448 2.54688,-0.43615c0.80474,0.1519 1.30347,0.05958 2.2988,0.75958c0.50168,0.35284 0.70332,0.05694 1.29408,-0.1079c0.87101,-0.24305 0.99483,-0.49432 0.99839,-0.9775c-0.05298,-0.87846 -0.72464,-1.38237 -1.69592,-1.75909c-1.50446,-0.39028 -2.03612,-0.57085 -3.46073,-0.73945c-0.77844,-0.17529 -2.36023,-0.90815 -2.36023,-0.90815c0,0 2.64798,-0.60248 2.69068,-0.58506c2.01349,0.10835 4.49822,0.88858 5.8483,2.46154c0,0 0.57919,0.80696 0.54498,1.56925c-0.04462,0.99441 -0.27399,2.01385 -0.97815,2.81716z" data-paper-data="{&quot;origPos&quot;:null}" fill="#e02222"/></g></g><text transform="translate(288.84103,216.1798) scale(0.44601,0.44601)" font-size="40" xml:space="preserve" data-paper-data="{&quot;origPos&quot;:null}" fill="url(#color-2)" fill-rule="nonzero" stroke="#000000" stroke-width="1" stroke-linecap="butt" stroke-linejoin="miter" stroke-miterlimit="10" stroke-dasharray="" stroke-dashoffset="0" font-family="Sans Serif" font-weight="normal" text-anchor="start" style="mix-blend-mode: normal"><tspan x="0" dy="0">II</tspan></text></g></g></svg>