<svg version="1.1" xmlns="http://www.w3.org/2000/svg" xmlns:xlink="http://www.w3.org/1999/xlink" width="635" height="497.33787"><g transform="translate(27,33.53786)"><g data-paper-data="{&quot;isPaintingLayer&quot;:true}" fill="none" fill-rule="nonzero" stroke="none" stroke-width="none" stroke-linecap="none" stroke-linejoin="miter" stroke-miterlimit="10" stroke-dasharray="" stroke-dashoffset="0" font-family="none" font-weight="none" font-size="none" text-anchor="none" style="mix-blend-mode: normal"><path d="M-26,462.80001v-495.33786h633v495.33787z" data-paper-data="{&quot;origPos&quot;:null}" fill="#ffffff" stroke="#000000" stroke-width="2" stroke-linecap="butt"/><g data-paper-data="{&quot;origPos&quot;:null}" stroke="#000000" stroke-width="0.5" stroke-linecap="butt"><path d="M251.63009,179.93265c0,10.14224 -8.40065,18.36417 -18.76341,18.36417c-10.36273,0 -18.76341,-8.22193 -18.76341,-18.36417c0,-10.14224 8.40065,-18.36417 18.76341,-18.36417c10.36273,0 18.76341,8.22193 18.76341,18.36417z" data-paper-data="{&quot;origPos&quot;:null}" fill="#e04a4a"/><path d="M244.03729,185.29852c-1.96495,2.04979 -1.33435,1.80977 -3.07912,3.09236c-1.66915,1.22699 -4.06438,2.08406 -5.9959,2.83308c-1.98074,0.76813 -3.30721,0.68937 -5.77203,0.71002c-2.53411,0.12834 -3.21357,-0.01051 -5.04841,-0.27537c-0.11971,-0.01729 -4.16372,-0.11797 -3.98565,-5.57296c0.0624,-1.91139 0.88808,-4.88647 4.43828,-6.05659c0.23711,-0.07816 1.31605,-0.11273 6.40847,-1.09745c2.0249,0.38222 3.2798,0.14991 5.78425,1.91127c1.26234,0.88781 1.76969,0.14329 3.25617,-0.2715c2.19164,-0.61158 2.50319,-1.24382 2.51215,-2.4596c-0.13331,-2.21039 -1.82334,-3.47833 -4.26728,-4.42623c-3.78554,-0.98203 -5.12331,-1.43639 -8.70792,-1.86061c-1.95872,-0.44106 -5.93883,-2.2851 -5.93883,-2.2851c0,0 6.66287,-1.51595 6.77032,-1.47213c5.06636,0.27264 11.31845,2.23585 14.71554,6.19374c0,0 1.45736,2.03047 1.37129,3.94857c-0.11228,2.50214 -0.6894,5.06726 -2.46122,7.08856z" data-paper-data="{&quot;origPos&quot;:null}" fill="#e02222"/></g><path d="M362,178.3c0,12.97869 -22.38576,23.5 -50,23.5c-27.61424,0 -50,-10.52131 -50,-23.5c0,-12.97869 22.38576,-23.5 50,-23.5c27.61424,0 50,10.52131 50,23.5z" data-paper-data="{&quot;origPos&quot;:null}" fill="#ff8d00" stroke="#000000" stroke-width="0.5" stroke-linecap="butt"/><text transform="translate(300,190.92785) scale(0.93706,0.93706)" font-size="40" xml:space="preserve" data-paper-data="{&quot;origPos&quot;:null}" fill="#ffffff" fill-rule="nonzero" stroke="none" stroke-width="1" stroke-linecap="butt" stroke-linejoin="miter" stroke-miterlimit="10" stroke-dasharray="" stroke-dashoffset="0" font-family="Sans Serif" font-weight="normal" text-anchor="start" style="mix-blend-mode: normal"><tspan x="0" dy="0">0</tspan></text><path d="M192.02749,192.75981l-215.02749,63.0402" data-paper-data="{&quot;origPos&quot;:null,&quot;index&quot;:null}" fill="none" stroke="#ff0000" stroke-width="5.5" stroke-linecap="round"/><text transform="translate(287.20674,261.35123) rotate(0.03451) scale(0.95456,0.95456)" font-size="40" xml:space="preserve" data-paper-data="{&quot;origPos&quot;:null,&quot;origRot&quot;:-8.75001}" fill="#000000" fill-rule="nonzero" stroke="none" stroke-width="1" stroke-linecap="butt" stroke-linejoin="miter" stroke-miterlimit="10" stroke-dasharray="" stroke-dashoffset="0" font-family="Handwriting" font-weight="normal" text-anchor="start" style="mix-blend-mode: normal"><tspan x="0" dy="0">Card design:</tspan><tspan x="0" dy="46.150000000000006px">pthiel23</tspan><tspan x="0" dy="46.150000000000006px">oozsmash</tspan></text></g></g></svg>