<svg version="1.1" xmlns="http://www.w3.org/2000/svg" xmlns:xlink="http://www.w3.org/1999/xlink" width="164.46296" height="269.49997" viewBox="0,0,164.46296,269.49997"><defs><linearGradient x1="223.99181" y1="210.07634" x2="223.99181" y2="221.25309" gradientUnits="userSpaceOnUse" id="color-1"><stop offset="0" stop-color="#d1a500"/><stop offset="1" stop-color="#ffca00"/></linearGradient><linearGradient x1="171.07861" y1="163.83715" x2="171.07861" y2="175.83715" gradientUnits="userSpaceOnUse" id="color-2"><stop offset="0" stop-color="#ff0800"/><stop offset="1" stop-color="#f7ff00"/></linearGradient><radialGradient cx="169.68573" cy="170.03954" r="57" gradientUnits="userSpaceOnUse" id="color-3"><stop offset="0" stop-color="#1a1a1a" stop-opacity="0"/><stop offset="1" stop-color="#1a1a1a"/></radialGradient></defs><g transform="translate(-90.28716,-64.05004)"><g data-paper-data="{&quot;isPaintingLayer&quot;:true}" fill-rule="nonzero" stroke-linejoin="miter" stroke-miterlimit="10" stroke-dasharray="" stroke-dashoffset="0" style="mix-blend-mode: normal"><path d="M93.03716,330.80001v-263h158.96296v263z" data-paper-data="{&quot;origPos&quot;:null}" fill="#828282" stroke="#000000" stroke-width="5.5" stroke-linecap="butt"/><text transform="translate(104.00009,85.80004) scale(0.5,0.5)" font-size="40" xml:space="preserve" data-paper-data="{&quot;origPos&quot;:null}" fill="#000000" fill-rule="nonzero" stroke="none" stroke-width="1" stroke-linecap="butt" stroke-linejoin="miter" stroke-miterlimit="10" stroke-dasharray="" stroke-dashoffset="0" font-family="Sans Serif" font-weight="normal" text-anchor="start" style="mix-blend-mode: normal"><tspan x="0" dy="0">Revealed Card</tspan></text><path d="M103.83345,295.5v-205h136.5v205z" data-paper-data="{&quot;origPos&quot;:null,&quot;index&quot;:null}" fill="#ff4d4d" stroke="#000000" stroke-width="6" stroke-linecap="butt"/><path d="M112.24561,277.16967v-53h120v53z" data-paper-data="{&quot;origPos&quot;:null,&quot;index&quot;:null}" fill="#bebebe" stroke="#000000" stroke-width="2" stroke-linecap="butt"/><path d="M112.54701,116.80331v-19.50806h120v19.50806z" data-paper-data="{&quot;origPos&quot;:null,&quot;index&quot;:null}" fill="#bebebe" stroke="#000000" stroke-width="2" stroke-linecap="butt"/><text transform="translate(113.66682,113.36579) scale(0.39773,0.46952)" font-size="40" xml:space="preserve" data-paper-data="{&quot;origPos&quot;:null,&quot;index&quot;:null}" fill="#000000" fill-rule="nonzero" stroke="#000000" stroke-width="0" stroke-linecap="butt" stroke-linejoin="miter" stroke-miterlimit="10" stroke-dasharray="" stroke-dashoffset="0" font-family="Serif" font-weight="normal" text-anchor="start" style="mix-blend-mode: normal"><tspan x="0" dy="0">Goblin Guide</tspan></text><path d="M115.10342,207.18297v-90.33333h114.5v90.33333z" data-paper-data="{&quot;origPos&quot;:null,&quot;index&quot;:null}" fill="#5fc7be" stroke="#000000" stroke-width="2" stroke-linecap="butt"/><path d="M112.24561,224.16967v-16.5h120v16.5z" data-paper-data="{&quot;origPos&quot;:null,&quot;index&quot;:null}" fill="#bebebe" stroke="#000000" stroke-width="2" stroke-linecap="butt"/><g data-paper-data="{&quot;origPos&quot;:null,&quot;index&quot;:null}" stroke="#000000" stroke-width="0.5" stroke-linecap="butt"><path d="M228.98341,107.07186c0,4.03076 -3.33862,7.29835 -7.45702,7.29835c-4.11839,0 -7.45702,-3.26759 -7.45702,-7.29835c0,-4.03076 3.33862,-7.29835 7.45702,-7.29835c4.11839,0 7.45702,3.26759 7.45702,7.29835z" data-paper-data="{&quot;origPos&quot;:null}" fill="#e04a4a"/><path d="M225.96594,109.20438c-0.78092,0.81463 -0.5303,0.71925 -1.22371,1.22898c-0.66336,0.48763 -1.61528,0.82825 -2.38291,1.12593c-0.78719,0.30527 -1.31436,0.27397 -2.29394,0.28218c-1.00711,0.051 -1.27715,-0.00418 -2.00636,-0.10944c-0.04758,-0.00687 -1.65476,-0.04688 -1.58399,-2.21483c0.0248,-0.75963 0.35294,-1.942 1.76387,-2.40703c0.09423,-0.03106 0.52303,-0.0448 2.54688,-0.43615c0.80474,0.1519 1.30347,0.05958 2.2988,0.75958c0.50168,0.35284 0.70332,0.05694 1.29408,-0.1079c0.87101,-0.24305 0.99483,-0.49432 0.99839,-0.9775c-0.05298,-0.87846 -0.72464,-1.38237 -1.69592,-1.75909c-1.50446,-0.39028 -2.03612,-0.57085 -3.46073,-0.73945c-0.77844,-0.17529 -2.36023,-0.90815 -2.36023,-0.90815c0,0 2.64798,-0.60248 2.69068,-0.58506c2.01349,0.10835 4.49822,0.88858 5.8483,2.46154c0,0 0.57919,0.80696 0.54498,1.56925c-0.04462,0.99441 -0.27399,2.01385 -0.97815,2.81716z" data-paper-data="{&quot;origPos&quot;:null}" fill="#e02222"/></g><path d="M208.07545,290.34772v-12.139h26.8341v12.139z" data-paper-data="{&quot;origPos&quot;:null,&quot;index&quot;:null}" fill="#bebebe" stroke="#000000" stroke-width="1" stroke-linecap="butt"/><text transform="translate(212.38617,288.79648) scale(0.35379,0.35379)" font-size="40" xml:space="preserve" data-paper-data="{&quot;origPos&quot;:null,&quot;index&quot;:null}" fill="#000000" fill-rule="nonzero" stroke="none" stroke-width="1" stroke-linecap="butt" stroke-linejoin="miter" stroke-miterlimit="10" stroke-dasharray="" stroke-dashoffset="0" font-family="Serif" font-weight="normal" text-anchor="start" style="mix-blend-mode: normal"><tspan x="0" dy="0">2/2</tspan></text><text transform="translate(114.15518,219.15451) scale(0.26679,0.26679)" font-size="40" xml:space="preserve" data-paper-data="{&quot;origPos&quot;:null,&quot;index&quot;:null}" fill="#000000" fill-rule="nonzero" stroke="none" stroke-width="1" stroke-linecap="butt" stroke-linejoin="miter" stroke-miterlimit="10" stroke-dasharray="" stroke-dashoffset="0" font-family="Serif" font-weight="normal" text-anchor="start" style="mix-blend-mode: normal"><tspan x="0" dy="0">Creature - Goblin Scout</tspan></text><path d="M218.25759,221.25309v-11.17675h11.46836v11.17675z" data-paper-data="{&quot;origPos&quot;:null}" fill="url(#color-1)" stroke="#000000" stroke-width="0.5" stroke-linecap="butt"/><text transform="translate(220.43334,219.68113) scale(0.29546,0.29546)" font-size="40" xml:space="preserve" data-paper-data="{&quot;origPos&quot;:null}" fill="#ffffff" fill-rule="nonzero" stroke="none" stroke-width="1" stroke-linecap="butt" stroke-linejoin="miter" stroke-miterlimit="10" stroke-dasharray="" stroke-dashoffset="0" font-family="Handwriting" font-weight="normal" text-anchor="start" style="mix-blend-mode: normal"><tspan x="0" dy="0">S</tspan></text><text transform="translate(106.91215,289.80954) scale(0.23338,0.23338)" font-size="40" xml:space="preserve" data-paper-data="{&quot;origPos&quot;:null,&quot;index&quot;:null}" fill="#000000" fill-rule="nonzero" stroke="none" stroke-width="1" stroke-linecap="butt" stroke-linejoin="miter" stroke-miterlimit="10" stroke-dasharray="" stroke-dashoffset="0" font-family="Sans Serif" font-weight="normal" text-anchor="start" style="mix-blend-mode: normal"><tspan x="0" dy="0">(c)pthiel23</tspan></text><path d="M182.23154,285.76382c0,2.68369 -4.51848,4.85926 -10.09231,4.85926c-5.57383,0 -10.09231,-2.17556 -10.09231,-4.85926c0,-2.68369 4.51848,-4.85926 10.09231,-4.85926c5.57383,0 10.09231,2.17556 10.09231,4.85926z" data-paper-data="{&quot;origPos&quot;:null,&quot;index&quot;:null}" fill="#ffffff" stroke="#000000" stroke-width="2" stroke-linecap="butt"/><text transform="translate(113.93484,234.23783) scale(0.19259,0.19258)" font-size="40" xml:space="preserve" data-paper-data="{&quot;origPos&quot;:null,&quot;index&quot;:null}" fill="#000000" fill-rule="nonzero" stroke="none" stroke-width="1" stroke-linecap="butt" stroke-linejoin="miter" stroke-miterlimit="10" stroke-dasharray="" stroke-dashoffset="0" font-family="Serif" font-weight="normal" text-anchor="start" style="mix-blend-mode: normal"><tspan x="0" dy="0">Haste</tspan><tspan x="0" dy="48px">Whenever Goblin Guide attacks,</tspan><tspan x="0" dy="48px">defending player reveals the top card</tspan><tspan x="0" dy="48px">of their library. If it’s a land card, that</tspan><tspan x="0" dy="48px">player puts it into their hand.</tspan></text><path d="M116.10718,206.23334v-19.5h112.76191v19.5z" data-paper-data="{&quot;origPos&quot;:null}" fill="#a87a51" stroke="none" stroke-width="0" stroke-linecap="butt"/><path d="M161.39947,147.48117c0.69259,-0.27132 2.57447,-1.64436 2.57447,-1.64436c0,0 -0.52905,2.12507 -1.23297,3.29914c-0.65767,1.09694 -2.94343,1.69543 -2.94343,1.69543l0.07683,-3.26008c0,0 0.5826,0.2791 1.5251,-0.09013z" data-paper-data="{&quot;origPos&quot;:null,&quot;origRot&quot;:0,&quot;index&quot;:null}" fill="#ffffff" stroke="none" stroke-width="0" stroke-linecap="butt"/><g data-paper-data="{&quot;origPos&quot;:null}"><g data-paper-data="{&quot;origPos&quot;:null}" stroke="#000000" stroke-width="1" stroke-linecap="butt"><path d="M172.36432,161.83715c0,1.18347 -0.51167,2.14285 -1.14285,2.14285c-0.63118,0 -1.14286,-0.95939 -1.14286,-2.14285c0,-1.18347 0.51167,-2.14286 1.14286,-2.14286c0.63118,0 1.14285,0.95939 1.14285,2.14286z" data-paper-data="{&quot;origPos&quot;:null}" fill="none"/><path d="M174.22146,169.83715c0,3.31371 -1.40711,6 -3.14286,6c-1.73575,0 -3.14286,-2.68629 -3.14286,-6c0,-3.31371 1.40711,-6 3.14286,-6c1.73575,0 3.14286,2.68629 3.14286,6z" data-paper-data="{&quot;origPos&quot;:null}" fill="url(#color-2)"/><path d="M167.3133,175.98v-0.14285h7.62245v0.14285z" data-paper-data="{&quot;origPos&quot;:null}" fill="none"/><path d="M167.22146,163.83715v-0.14285h7.62244v0.14285z" data-paper-data="{&quot;origPos&quot;:null}" fill="none"/></g><g data-paper-data="{&quot;origPos&quot;:null}" stroke="#00ff0e" stroke-width="2.5"><path d="M150.75003,191l8,-16.5l6.7,16.56" data-paper-data="{&quot;origPos&quot;:null}" fill="none" stroke-linecap="round"/><path d="M158.65003,175.46l0.2,-15.6l12.4,-0.4" data-paper-data="{&quot;origPos&quot;:null}" fill="none" stroke-linecap="round"/><path d="M147.85002,170.46l10.4,-11" data-paper-data="{&quot;origPos&quot;:null}" fill="none" stroke-linecap="round"/><path d="M164.65003,152.66c0,3.42416 -2.64152,6.2 -5.9,6.2c-3.25848,0 -5.9,-2.77584 -5.9,-6.2c0,-3.42416 2.64152,-6.2 5.9,-6.2c3.25848,0 5.9,2.77584 5.9,6.2z" data-paper-data="{&quot;origPos&quot;:null}" fill="#00ff0e" stroke-linecap="butt"/></g></g><path d="M154.18282,147.42844l0.07683,3.26008c0,0 -2.28577,-0.59849 -2.94343,-1.69543c-0.70391,-1.17407 -1.23296,-3.29914 -1.23296,-3.29914c0,0 1.88188,1.37304 2.57447,1.64436c0.94249,0.36922 1.5251,0.09013 1.5251,0.09013z" data-paper-data="{&quot;origPos&quot;:null,&quot;origRot&quot;:0,&quot;index&quot;:null}" fill="#ffffff" stroke="none" stroke-width="0" stroke-linecap="butt"/><path d="M115.40001,207.53334v-90.46666h114v90.46667z" data-paper-data="{&quot;origPos&quot;:null}" fill="url(#color-3)" stroke="none" stroke-width="0" stroke-linecap="butt"/></g></g></svg>