<svg version="1.1" xmlns="http://www.w3.org/2000/svg" xmlns:xlink="http://www.w3.org/1999/xlink" width="28.28766" height="27.6964"><g transform="translate(-227.0614,-166.12629)"><g data-paper-data="{&quot;isPaintingLayer&quot;:true}" fill="none" fill-rule="nonzero" stroke="#000000" stroke-width="0.5" stroke-linecap="butt" stroke-linejoin="miter" stroke-miterlimit="10" stroke-dasharray="" stroke-dashoffset="0" font-family="none" font-weight="none" font-size="none" text-anchor="none" style="mix-blend-mode: normal"><path d="M255.09907,179.97449c0,7.51007 -6.22047,13.5982 -13.89383,13.5982c-7.67334,0 -13.89383,-6.08813 -13.89383,-13.5982c0,-7.51007 6.22047,-13.5982 13.89383,-13.5982c7.67334,0 13.89383,6.08813 13.89383,13.5982z" data-paper-data="{&quot;origPos&quot;:null}" fill="#e04a4a"/><path d="M249.47679,183.94778c-1.455,1.51782 -0.98805,1.34009 -2.28001,2.28981c-1.23597,0.90855 -3.00957,1.54319 -4.43981,2.09782c-1.46669,0.56878 -2.44891,0.51046 -4.27404,0.52575c-1.87644,0.09503 -2.37956,-0.00779 -3.73822,-0.2039c-0.08864,-0.0128 -3.08313,-0.08735 -2.95127,-4.12664c0.04621,-1.41533 0.6576,-3.6183 3.28643,-4.48475c0.17557,-0.05787 0.9745,-0.08347 4.74531,-0.81263c1.49938,0.28303 2.42861,0.111 4.28309,1.41525c0.93473,0.6574 1.31041,0.1061 2.41111,-0.20104c1.62285,-0.45286 1.85355,-0.92102 1.86018,-1.82127c-0.09871,-1.63674 -1.35014,-2.57561 -3.15981,-3.27751c-2.8031,-0.72717 -3.79368,-1.06361 -6.448,-1.37773c-1.45038,-0.32659 -4.39755,-1.69206 -4.39755,-1.69206c0,0 4.93368,-1.12252 5.01325,-1.09007c3.75151,0.20188 8.38103,1.65559 10.89648,4.5863c0,0 1.07914,1.50351 1.01541,2.92381c-0.08314,1.85277 -0.51049,3.75217 -1.82247,5.2489z" data-paper-data="{&quot;origPos&quot;:null}" fill="#e02222"/></g></g></svg>