<svg version="1.1" xmlns="http://www.w3.org/2000/svg" xmlns:xlink="http://www.w3.org/1999/xlink" width="142.5" height="211" viewBox="0,0,142.5,211"><defs><radialGradient cx="274.68778" cy="184.32917" r="37.32389" gradientUnits="userSpaceOnUse" id="color-1"><stop offset="0" stop-color="#ffffff"/><stop offset="1" stop-color="#00c6c6"/></radialGradient><linearGradient x1="272.66458" y1="206.96766" x2="272.66458" y2="216.27041" gradientUnits="userSpaceOnUse" id="color-2"><stop offset="0" stop-color="#cd3700"/><stop offset="1" stop-color="#ff4400"/></linearGradient><linearGradient x1="274.50793" y1="209.50493" x2="300.679" y2="209.50493" gradientUnits="userSpaceOnUse" id="color-3"><stop offset="0" stop-color="#d13800"/><stop offset="1" stop-color="#fa4300"/></linearGradient><linearGradient x1="297.2178" y1="200.92005" x2="297.2178" y2="207.67409" gradientUnits="userSpaceOnUse" id="color-4"><stop offset="0" stop-color="#fa4300"/><stop offset="1" stop-color="#d73a00"/></linearGradient></defs><g transform="translate(-171.83366,-81.5)"><g data-paper-data="{&quot;isPaintingLayer&quot;:true}" fill-rule="nonzero" stroke-linejoin="miter" stroke-miterlimit="10" stroke-dasharray="" stroke-dashoffset="0" style="mix-blend-mode: normal"><path d="M174.83366,289.5v-205h136.5v205z" data-paper-data="{&quot;origPos&quot;:null,&quot;index&quot;:null}" fill="#929292" stroke="#000000" stroke-width="6" stroke-linecap="butt"/><path d="M183.24565,271.16967v-53h120v53z" data-paper-data="{&quot;origPos&quot;:null,&quot;index&quot;:null}" fill="#bebebe" stroke="#000000" stroke-width="2" stroke-linecap="butt"/><path d="M183.08642,110.80331v-19.50806h120v19.50806z" data-paper-data="{&quot;origPos&quot;:null,&quot;index&quot;:null}" fill="#bebebe" stroke="#000000" stroke-width="2" stroke-linecap="butt"/><text transform="translate(184.66683,107.36579) scale(0.39773,0.46952)" font-size="40" xml:space="preserve" data-paper-data="{&quot;origPos&quot;:null,&quot;index&quot;:null}" fill="#000000" fill-rule="nonzero" stroke="#000000" stroke-width="0" stroke-linecap="butt" stroke-linejoin="miter" stroke-miterlimit="10" stroke-dasharray="" stroke-dashoffset="0" font-family="Serif" font-weight="normal" text-anchor="start" style="mix-blend-mode: normal"><tspan x="0" dy="0">Mox Sapphire</tspan></text><path d="M186.24635,201.18297v-90.33333h114.5v90.33333z" data-paper-data="{&quot;origPos&quot;:null,&quot;index&quot;:null}" fill="#b70000" stroke="#000000" stroke-width="2" stroke-linecap="butt"/><path d="M183.24566,218.16967v-16.5h120v16.5z" data-paper-data="{&quot;origPos&quot;:null,&quot;index&quot;:null}" fill="#bebebe" stroke="#000000" stroke-width="2" stroke-linecap="butt"/><text transform="translate(289.68746,107.4889) scale(0.5,0.5)" font-size="40" xml:space="preserve" data-paper-data="{&quot;origPos&quot;:null,&quot;index&quot;:null}" fill="#000000" fill-rule="nonzero" stroke="none" stroke-width="1" stroke-linecap="butt" stroke-linejoin="miter" stroke-miterlimit="10" stroke-dasharray="" stroke-dashoffset="0" font-family="Serif" font-weight="normal" text-anchor="start" style="mix-blend-mode: normal"><tspan x="0" dy="0">0</tspan></text><text transform="translate(185.15519,214.02475) scale(0.2994,0.2994)" font-size="40" xml:space="preserve" data-paper-data="{&quot;origPos&quot;:null,&quot;index&quot;:null}" fill="#000000" fill-rule="nonzero" stroke="none" stroke-width="1" stroke-linecap="butt" stroke-linejoin="miter" stroke-miterlimit="10" stroke-dasharray="" stroke-dashoffset="0" font-family="Serif" font-weight="normal" text-anchor="start" style="mix-blend-mode: normal"><tspan x="0" dy="0">Artifact</tspan></text><text transform="translate(177.91214,283.80954) scale(0.23338,0.23338)" font-size="40" xml:space="preserve" data-paper-data="{&quot;origPos&quot;:null,&quot;index&quot;:null}" fill="#000000" fill-rule="nonzero" stroke="none" stroke-width="1" stroke-linecap="butt" stroke-linejoin="miter" stroke-miterlimit="10" stroke-dasharray="" stroke-dashoffset="0" font-family="Sans Serif" font-weight="normal" text-anchor="start" style="mix-blend-mode: normal"><tspan x="0" dy="0">(c)pthiel23</tspan></text><g data-paper-data="{&quot;origPos&quot;:null,&quot;index&quot;:null}"><path d="M237.72564,261.59079c0,0 -46.69718,-5.14993 -40.11137,-21.68067c6.58581,-16.53074 84.44347,-11.91331 84.44347,-11.91331" data-paper-data="{&quot;origRot&quot;:0,&quot;origPos&quot;:null}" fill="none" stroke="#fb4300" stroke-width="3" stroke-linecap="round"/><text transform="translate(207.45183,251.2878) scale(0.69434,0.69434)" font-size="40" xml:space="preserve" data-paper-data="{&quot;origPos&quot;:null}" fill="#fb4300" fill-rule="nonzero" stroke="none" stroke-width="1" stroke-linecap="butt" stroke-linejoin="miter" stroke-miterlimit="10" stroke-dasharray="" stroke-dashoffset="0" font-family="Marker" font-weight="normal" text-anchor="start" style="mix-blend-mode: normal"><tspan x="0" dy="0">Tester</tspan></text></g><path d="M215.66427,188.95514l-6.95661,-4.36059l-1.43298,-7.25375l38.55337,-54.98602l7.39803,-1.17812l6.46229,4.84959l22.23409,62.24482z" data-paper-data="{&quot;origPos&quot;:null,&quot;index&quot;:null}" fill="url(#color-1)" stroke="#000000" stroke-width="3" stroke-linecap="butt"/><path d="M258.16774,125.58017l-43.0671,61.54979" data-paper-data="{&quot;origPos&quot;:null,&quot;index&quot;:null}" fill="none" stroke="#000000" stroke-width="1.5" stroke-linecap="round"/><path d="M236.76229,136.42863l13.95499,0.29687l29.03601,49.45522" data-paper-data="{&quot;origPos&quot;:null,&quot;index&quot;:null}" fill="none" stroke="#000000" stroke-width="1.5" stroke-linecap="round"/><path d="M279.81872,187.32957l-57.56043,-9.83089l-4.04791,-14.73852" data-paper-data="{&quot;origPos&quot;:null,&quot;index&quot;:null}" fill="none" stroke="#000000" stroke-width="1.5" stroke-linecap="round"/><g data-paper-data="{&quot;origPos&quot;:null}" stroke="#000000" stroke-width="0.5" stroke-linecap="butt"><path d="M243.04712,230.71727c0,3.41746 -2.83062,6.18787 -6.32239,6.18787c-3.49176,0 -6.32239,-2.77041 -6.32239,-6.18787c0,-3.41746 2.83062,-6.18787 6.32239,-6.18787c3.49176,0 6.32239,2.77041 6.32239,6.18787z" data-paper-data="{&quot;origPos&quot;:null}" fill="#00c6c6"/><path d="M239.41165,231.91274c0,1.34775 -1.22544,2.44031 -2.7371,2.44031c-1.51167,0 -2.73711,-1.09256 -2.73711,-2.44031c0,-1.34775 1.35736,-6.13378 2.86903,-6.13378c1.51167,0 2.60519,4.78602 2.60519,6.13378z" data-paper-data="{&quot;origPos&quot;:null}" fill="#009090"/></g><text transform="translate(188.41413,234.41086) scale(0.27609,0.27609)" font-size="40" xml:space="preserve" data-paper-data="{&quot;origPos&quot;:null}" fill="#000000" fill-rule="nonzero" stroke="none" stroke-width="1" stroke-linecap="butt" stroke-linejoin="miter" stroke-miterlimit="10" stroke-dasharray="" stroke-dashoffset="0" font-family="Serif" font-weight="normal" text-anchor="start" style="mix-blend-mode: normal"><tspan x="0" dy="0">     : Add      .</tspan></text><g data-paper-data="{&quot;origPos&quot;:null}" stroke="#000000"><path d="M200.4518,231.52588c0,3.89184 -3.22355,7.04681 -7.2,7.04681c-3.97645,0 -7.2,-3.15497 -7.2,-7.04681c0,-3.89184 3.22355,-7.04681 7.2,-7.04681c3.97645,0 7.2,3.15497 7.2,7.04681z" data-paper-data="{&quot;origPos&quot;:null}" fill="#bebebe" stroke-width="0.5" stroke-linecap="butt"/><g data-paper-data="{&quot;origPos&quot;:null}" fill="none" stroke-width="2" stroke-linecap="round"><path d="M195.58264,234.69834c0,0 -2.2739,1.50598 -4.49127,0.38725c-1.97735,-0.99762 -2.19859,-2.7831 -2.11893,-4.15255c0.10865,-1.53849 1.01262,-2.83368 3.33463,-3.49919c4.63831,-0.47169 4.4065,3.46115 4.4065,3.46115" data-paper-data="{&quot;origPos&quot;:null}"/><path d="M198.20065,229.08229l-1.27363,2.47612c0,0 -2.02006,-1.76411 -2.03111,-1.79218" data-paper-data="{&quot;origPos&quot;:null,&quot;origRot&quot;:0}"/></g></g><path d="M272.19587,216.26737c-0.8146,-0.11017 -1.04976,-3.11404 -1.04976,-3.11404c0,0 -3.01136,-0.09161 -3.15863,-0.89926c-0.14723,-0.80762 2.63511,-1.95931 2.63511,-1.95931c0,0 -0.84075,-2.89267 -0.11963,-3.28243c0.72273,-0.38992 2.67728,1.90093 2.67728,1.90093c0,0 2.4907,-1.69553 3.08525,-1.12773c0.59444,0.56624 -0.98157,3.13328 -0.98157,3.13328c0,0 2.38269,1.84564 2.02725,2.58555c-0.35438,0.74219 -3.28274,0.03778 -3.28274,0.03778c0,0 -1.01965,2.83403 -1.83256,2.72522z" data-paper-data="{&quot;origPos&quot;:null,&quot;origRot&quot;:0}" fill="url(#color-2)" stroke="#ffffff" stroke-width="0.5" stroke-linecap="butt"/><path d="M276.30573,209.33508l0.073,-1.59734l-1.8708,0.42679c0,0 2.40669,-1.54408 4.49327,-2.27242c1.77056,-0.35321 4.08991,-0.66822 5.38219,-0.68087c6.74701,-0.18147 11.33161,3.01757 14.24946,5.40506c1.07257,0.87762 2.27781,2.75534 2.00774,3.03044c-0.68192,0.69461 -1.05188,-1.00404 -3.87434,-2.74933c-4.18696,-2.58904 -8.39882,-4.15235 -11.49487,-4.18583c-0.70645,-0.00764 -3.5104,0.13825 -3.92756,0.27353c-3.39524,0.26392 -5.03809,2.34997 -5.03809,2.34997z" fill="url(#color-3)" stroke="#ffffff" stroke-width="0.5" stroke-linecap="butt"/><path d="M276.90573,208.38508l-1.52415,1.82123l-1.15869,-1.6393l1.94298,-1.0853c0,0 0.61868,-0.21814 0.71848,-0.09628c0.13565,0.16563 0.02138,0.99965 0.02138,0.99965z" fill="url(#color-4)" stroke="none" stroke-width="0" stroke-linecap="butt"/></g></g></svg>