<svg version="1.1" xmlns="http://www.w3.org/2000/svg" xmlns:xlink="http://www.w3.org/1999/xlink" width="56.63514" height="52.5"><g transform="translate(-213.25,-160.91672)"><g data-paper-data="{&quot;isPaintingLayer&quot;:true}" fill="none" fill-rule="nonzero" stroke="none" stroke-width="none" stroke-linecap="none" stroke-linejoin="miter" stroke-miterlimit="10" stroke-dasharray="" stroke-dashoffset="0" font-family="none" font-weight="none" font-size="none" text-anchor="none" style="mix-blend-mode: normal"><path d="M214,212.66672v-51h55.13514v51z" data-paper-data="{&quot;origPos&quot;:null}" fill="#8e8e8e" stroke="#000000" stroke-width="1.5" stroke-linecap="butt"/><g data-paper-data="{&quot;origPos&quot;:null}" stroke="#ffffff" stroke-width="1" stroke-linecap="butt"><path d="M227.52431,193.33163v-28.52414h29.26836v28.52414z" data-paper-data="{&quot;origPos&quot;:null}" fill="#ffffff"/><path d="M229.96989,190.73672v-22.95h23.92268v22.95z" data-paper-data="{&quot;origPos&quot;:null}" fill="#000000"/></g><path d="M219.89257,208.79922v-11.05h29.75v11.05z" data-paper-data="{&quot;origPos&quot;:null}" fill="#ffffff" stroke="#ffffff" stroke-width="1" stroke-linecap="butt"/><path d="M260.26757,203.16797c0,2.52325 -1.0941,4.56875 -2.44375,4.56875c-1.34965,0 -2.44375,-2.0455 -2.44375,-4.56875c0,-2.52325 1.09411,-4.56875 2.44375,-4.56875c1.34965,0 2.44375,2.0455 2.44375,4.56875z" data-paper-data="{&quot;origPos&quot;:null}" fill="#ffffff" stroke="#ffffff" stroke-width="1" stroke-linecap="butt"/><path d="M235.33856,192.98046l-0.12977,4.80153" fill="none" stroke="#ffffff" stroke-width="1" stroke-linecap="round"/><path d="M238.06376,193.11023c0,0 -0.22191,1.6787 1.94424,2.99331c1.51446,0.91911 10.08896,-1.05219 13.42245,-0.47654c2.7086,0.46774 4.74781,2.93361 4.74781,2.93361" data-paper-data="{&quot;origPos&quot;:null}" fill="none" stroke="#ffffff" stroke-width="1" stroke-linecap="round"/></g></g></svg>