<svg version="1.1" xmlns="http://www.w3.org/2000/svg" xmlns:xlink="http://www.w3.org/1999/xlink" width="142.5" height="211" viewBox="0,0,142.5,211"><defs><linearGradient x1="294.99181" y1="204.07634" x2="294.99181" y2="215.25309" gradientUnits="userSpaceOnUse" id="color-1"><stop offset="0" stop-color="#d1a500"/><stop offset="1" stop-color="#ffca00"/></linearGradient><linearGradient x1="241.06831" y1="111.40196" x2="241.06831" y2="182.45535" gradientUnits="userSpaceOnUse" id="color-2"><stop offset="0" stop-color="#3bff30"/><stop offset="1" stop-color="#3bff30" stop-opacity="0"/></linearGradient></defs><g transform="translate(-171.83357,-81.5)"><g data-paper-data="{&quot;isPaintingLayer&quot;:true}" fill-rule="nonzero" stroke-linecap="butt" stroke-linejoin="miter" stroke-miterlimit="10" stroke-dasharray="" stroke-dashoffset="0" style="mix-blend-mode: normal"><path d="M174.83357,289.5v-205h136.5v205z" data-paper-data="{&quot;origPos&quot;:null}" fill="#2595b7" stroke="#000000" stroke-width="6"/><g data-paper-data="{&quot;origPos&quot;:null}" stroke="#000000" stroke-width="0.5"><path d="M306.48992,98.25757c0,3.89674 -3.2276,7.05568 -7.20906,7.05568c-3.98146,0 -7.20906,-3.15894 -7.20906,-7.05568c0,-3.89674 3.2276,-7.05568 7.20906,-7.05568c3.98146,0 7.20906,3.15894 7.20906,7.05568z" data-paper-data="{&quot;origPos&quot;:null}" fill="#00c6c6"/><path d="M302.34452,99.6207c0,1.53676 -1.3973,2.78255 -3.12096,2.78255c-1.72367,0 -3.12098,-1.24578 -3.12098,-2.78255c0,-1.53676 1.54771,-6.994 3.27139,-6.994c1.72367,0 2.97055,5.45722 2.97055,6.994z" data-paper-data="{&quot;origPos&quot;:null}" fill="#009090"/></g><path d="M183.24572,271.16967v-53h120v53z" data-paper-data="{&quot;origPos&quot;:null}" fill="#8faeb8" stroke="#000000" stroke-width="2"/><text transform="translate(185.1552,214.02475) scale(0.2994,0.2994)" font-size="40" xml:space="preserve" data-paper-data="{&quot;origPos&quot;:null}" fill="#ffffff" fill-rule="nonzero" stroke="none" stroke-width="1" stroke-linecap="butt" stroke-linejoin="miter" stroke-miterlimit="10" stroke-dasharray="" stroke-dashoffset="0" font-family="Serif" font-weight="normal" text-anchor="start" style="mix-blend-mode: normal"><tspan x="0" dy="0">Instant</tspan></text><text transform="translate(186.26811,240.84419) scale(0.27609,0.27609)" font-size="40" xml:space="preserve" data-paper-data="{&quot;origPos&quot;:null}" fill="#000000" fill-rule="nonzero" stroke="none" stroke-width="1" stroke-linecap="butt" stroke-linejoin="miter" stroke-miterlimit="10" stroke-dasharray="" stroke-dashoffset="0" font-family="Serif" font-weight="normal" text-anchor="start" style="mix-blend-mode: normal"><tspan x="0" dy="0">Draw 3 cards or force</tspan><tspan x="0" dy="48px">opponent to draw 3 cards.</tspan></text><text transform="translate(177.91218,283.80954) scale(0.23338,0.23338)" font-size="40" xml:space="preserve" data-paper-data="{&quot;origPos&quot;:null}" fill="#ffffff" fill-rule="nonzero" stroke="none" stroke-width="1" stroke-linecap="butt" stroke-linejoin="miter" stroke-miterlimit="10" stroke-dasharray="" stroke-dashoffset="0" font-family="Sans Serif" font-weight="normal" text-anchor="start" style="mix-blend-mode: normal"><tspan x="0" dy="0">Illus (c) pthiel23</tspan></text><path d="M289.25766,215.25309v-11.17675h11.46836v11.17675z" data-paper-data="{&quot;origPos&quot;:null}" fill="url(#color-1)" stroke="#000000" stroke-width="0.5"/><text transform="translate(291.03337,213.68113) scale(0.29546,0.29546)" font-size="40" xml:space="preserve" data-paper-data="{&quot;origPos&quot;:null}" fill="#000000" fill-rule="nonzero" stroke="none" stroke-width="1" stroke-linecap="butt" stroke-linejoin="miter" stroke-miterlimit="10" stroke-dasharray="" stroke-dashoffset="0" font-family="Handwriting" font-weight="normal" text-anchor="start" style="mix-blend-mode: normal"><tspan x="0" dy="0">A</tspan></text><text transform="translate(181.00034,104.36579) scale(0.39773,0.46952)" font-size="40" xml:space="preserve" data-paper-data="{&quot;origPos&quot;:null,&quot;index&quot;:null}" fill="#ffffff" fill-rule="nonzero" stroke="#000000" stroke-width="0" stroke-linecap="butt" stroke-linejoin="miter" stroke-miterlimit="10" stroke-dasharray="" stroke-dashoffset="0" font-family="Serif" font-weight="normal" text-anchor="start" style="mix-blend-mode: normal"><tspan x="0" dy="0">Ancestral Recall</tspan></text><path d="M186.1037,201.38297v-90.33333c0,0 38.87294,0 63.75361,0c19.80443,0 50.74639,0 50.74639,0v90.33333z" data-paper-data="{&quot;origPos&quot;:null,&quot;index&quot;:null}" fill="#000000" stroke="#000000" stroke-width="2"/><path d="M186.45971,200.17161v-10.0923h113.85384v10.0923z" data-paper-data="{&quot;origPos&quot;:null}" fill="#c98700" stroke="#000000" stroke-width="2"/><path d="M255.37277,192.62929c0,0 -0.16384,-25.91818 1.93242,-36.21772c2.755,-13.53609 22.09623,-9.04342 23.62025,1.26028c1.48526,10.04166 -1.19262,36.13463 -1.19262,36.13463z" data-paper-data="{&quot;origPos&quot;:null,&quot;origRot&quot;:0}" fill="#d2d2d2" stroke="#d2d2d2" stroke-width="2"/><path d="M196.23039,194.5766c0,0 -3.81214,-25.63682 -3.18721,-36.12893c0.82132,-13.78917 20.60248,-12.06501 23.56233,-2.07862c2.88458,9.73243 3.90795,35.94248 3.90795,35.94248z" data-paper-data="{&quot;origPos&quot;:null,&quot;origRot&quot;:0}" fill="#d2d2d2" stroke="#d2d2d2" stroke-width="2"/><path d="M204.03587,195.49103c-6.39564,-9.80665 20.45366,-40.00827 18.5,-58.51667c0.23363,-11.11562 -36.43143,-25.49557 -36.43143,-25.49557l115.32781,-0.07683c0,0 -41.48386,12.95615 -42.31205,25.01999c-6.09403,28.4579 25.77153,45.68278 16.13243,60.80814c-6.9562,5.27165 -28.17686,-44.63587 -35.69464,-44.69316c-7.36188,-0.0561 -29.12649,52.76075 -35.52213,42.95411z" fill="url(#color-2)" stroke="none" stroke-width="0"/></g></g></svg>