<svg version="1.1" xmlns="http://www.w3.org/2000/svg" xmlns:xlink="http://www.w3.org/1999/xlink" width="48.55694" height="29.65307"><g transform="translate(-214.81483,-173.83893)"><g data-paper-data="{&quot;isPaintingLayer&quot;:true}" fill="none" fill-rule="nonzero" stroke="none" stroke-width="1" stroke-linecap="butt" stroke-linejoin="miter" stroke-miterlimit="10" stroke-dasharray="" stroke-dashoffset="0" font-family="none" font-weight="none" font-size="none" text-anchor="none" style="mix-blend-mode: normal"><g data-paper-data="{&quot;origPos&quot;:null}"><path d="M263.37177,198.90049c0,2.5356 -2.05644,4.59151 -4.59151,4.59151h-39.37444c-2.5356,0 -4.59098,-2.05644 -4.59098,-4.59151v-19.98976c0,-2.5356 2.05538,-4.59098 4.59098,-4.59098h39.37391c2.53667,0 4.59151,2.05538 4.59151,4.59098v19.98976z" data-paper-data="{&quot;origPos&quot;:null}" fill="#000000"/><path d="M261.54957,178.91072v19.98923c0,1.52713 -1.24166,2.76932 -2.76985,2.76932h-39.37391c-1.52659,0 -2.76932,-1.24219 -2.76932,-2.76932v-19.98976c0,-1.52713 1.24272,-2.76932 2.76932,-2.76932h39.37391c1.52819,0 2.76985,1.24272 2.76985,2.76985z" fill="#828282"/></g><text transform="translate(215.85813,195.58893) scale(0.5,0.5)" font-size="40" xml:space="preserve" data-paper-data="{&quot;origPos&quot;:null}" fill="#000000" fill-rule="nonzero" stroke="none" stroke-width="1" stroke-linecap="butt" stroke-linejoin="miter" stroke-miterlimit="10" stroke-dasharray="" stroke-dashoffset="0" font-family="Sans Serif" font-weight="normal" text-anchor="start" style="mix-blend-mode: normal"><tspan x="0" dy="0">Next</tspan></text></g></g></svg>