<svg version="1.1" xmlns="http://www.w3.org/2000/svg" xmlns:xlink="http://www.w3.org/1999/xlink" width="159.03743" height="142.12607"><g transform="translate(-160.55892,-108.65132)"><g data-paper-data="{&quot;isPaintingLayer&quot;:true}" fill="none" fill-rule="nonzero" stroke="#000000" stroke-width="1.5" stroke-linecap="butt" stroke-linejoin="miter" stroke-miterlimit="10" stroke-dasharray="" stroke-dashoffset="0" font-family="none" font-weight="none" font-size="none" text-anchor="none" style="mix-blend-mode: normal"><path d="M257.572,125.44746c0,8.86205 -7.07846,16.04614 -15.81019,16.04614c-8.73173,0 -15.81019,-7.18409 -15.81019,-16.04614c0,-8.86205 7.07846,-16.04614 15.81019,-16.04614c8.73173,0 15.81019,7.18409 15.81019,16.04614z" data-paper-data="{&quot;origPos&quot;:null}" fill="#ffd641"/><path d="M192.9293,167.17997c0,8.86205 -7.07846,16.04614 -15.81019,16.04614c-8.73173,0 -15.81019,-7.18409 -15.81019,-16.04614c0,-8.86205 7.07846,-16.04614 15.81019,-16.04614c8.73173,0 15.81019,7.18409 15.81019,16.04614z" data-paper-data="{&quot;origPos&quot;:null}" fill="#66e925"/><path d="M219.2493,232.23976c0,8.86205 -7.07846,16.04614 -15.81019,16.04614c-8.73173,0 -15.81019,-7.18409 -15.81019,-16.04614c0,-8.86205 7.07846,-16.04614 15.81019,-16.04614c8.73173,0 15.81019,7.18409 15.81019,16.04614z" data-paper-data="{&quot;origPos&quot;:null}" fill="#ff5959"/><path d="M289.34575,233.98125c0,8.86205 -7.07846,16.04614 -15.81019,16.04614c-8.73173,0 -15.81019,-7.18409 -15.81019,-16.04614c0,-8.86205 7.07846,-16.04614 15.81019,-16.04614c8.73173,0 15.81019,7.18409 15.81019,16.04614z" data-paper-data="{&quot;origPos&quot;:null}" fill="#000000"/><path d="M318.84635,168.05204c0,8.86205 -7.07846,16.04614 -15.81019,16.04614c-8.73173,0 -15.81019,-7.18409 -15.81019,-16.04614c0,-8.86205 7.07846,-16.04614 15.81019,-16.04614c8.73173,0 15.81019,7.18409 15.81019,16.04614z" data-paper-data="{&quot;origPos&quot;:null}" fill="#00a5ff"/></g></g></svg>