<svg version="1.1" xmlns="http://www.w3.org/2000/svg" xmlns:xlink="http://www.w3.org/1999/xlink" width="142.5" height="211" viewBox="0,0,142.5,211"><defs><linearGradient x1="295.15624" y1="200.12325" x2="295.15624" y2="221.5317" gradientTransform="translate(-647.61111,-484.6972) scale(2.2421,2.2421)" gradientUnits="userSpaceOnUse" id="color-1"><stop offset="0" stop-color="#464646"/><stop offset="1" stop-color="#acacac"/></linearGradient></defs><g transform="translate(-172.07822,-81.5)"><g data-paper-data="{&quot;isPaintingLayer&quot;:true}" fill-rule="nonzero" stroke-linejoin="miter" stroke-miterlimit="10" stroke-dasharray="" stroke-dashoffset="0" style="mix-blend-mode: normal"><path d="M175.07822,289.5v-205h136.5v205z" data-paper-data="{&quot;origPos&quot;:null,&quot;index&quot;:null}" fill="#929292" stroke="#000000" stroke-width="6" stroke-linecap="butt"/><path d="M183.24559,271.16967v-53h120v53z" data-paper-data="{&quot;origPos&quot;:null,&quot;index&quot;:null}" fill="#bebebe" stroke="#000000" stroke-width="2" stroke-linecap="butt"/><path d="M183.08636,110.80331v-19.50806h120v19.50806z" data-paper-data="{&quot;origPos&quot;:null,&quot;index&quot;:null}" fill="#bebebe" stroke="#000000" stroke-width="2" stroke-linecap="butt"/><text transform="translate(184.66677,107.36579) scale(0.39773,0.46952)" font-size="40" xml:space="preserve" data-paper-data="{&quot;origPos&quot;:null,&quot;index&quot;:null}" fill="#000000" fill-rule="nonzero" stroke="#000000" stroke-width="0" stroke-linecap="butt" stroke-linejoin="miter" stroke-miterlimit="10" stroke-dasharray="" stroke-dashoffset="0" font-family="Serif" font-weight="normal" text-anchor="start" style="mix-blend-mode: normal"><tspan x="0" dy="0">Spellbook</tspan></text><path d="M186.24629,201.18297v-90.33333h114.5v90.33333z" data-paper-data="{&quot;origPos&quot;:null,&quot;index&quot;:null}" fill="#5500ff" stroke="#000000" stroke-width="2" stroke-linecap="butt"/><path d="M183.2456,218.16967v-16.5h120v16.5z" data-paper-data="{&quot;origPos&quot;:null,&quot;index&quot;:null}" fill="#bebebe" stroke="#000000" stroke-width="2" stroke-linecap="butt"/><text transform="translate(177.91212,283.80954) scale(0.23337,0.23337)" font-size="40" xml:space="preserve" data-paper-data="{&quot;origPos&quot;:null,&quot;index&quot;:null}" fill="#000000" fill-rule="nonzero" stroke="none" stroke-width="1" stroke-linecap="butt" stroke-linejoin="miter" stroke-miterlimit="10" stroke-dasharray="" stroke-dashoffset="0" font-family="Sans Serif" font-weight="normal" text-anchor="start" style="mix-blend-mode: normal"><tspan x="0" dy="0">(c)[pending]</tspan></text><text transform="translate(185.1553,214.02475) scale(0.2994,0.2994)" font-size="40" xml:space="preserve" data-paper-data="{&quot;origPos&quot;:null,&quot;index&quot;:null}" fill="#000000" fill-rule="nonzero" stroke="none" stroke-width="1" stroke-linecap="butt" stroke-linejoin="miter" stroke-miterlimit="10" stroke-dasharray="" stroke-dashoffset="0" font-family="Serif" font-weight="normal" text-anchor="start" style="mix-blend-mode: normal"><tspan x="0" dy="0">Artifact</tspan></text><text transform="translate(185.76814,229.91086) scale(0.27609,0.27609)" font-size="40" xml:space="preserve" data-paper-data="{&quot;origPos&quot;:null}" fill="#000000" fill-rule="nonzero" stroke="none" stroke-width="1" stroke-linecap="butt" stroke-linejoin="miter" stroke-miterlimit="10" stroke-dasharray="" stroke-dashoffset="0" font-family="Serif" font-weight="normal" text-anchor="start" style="mix-blend-mode: normal"><tspan x="0" dy="0">You have no maximum</tspan><tspan x="0" dy="48px">hand size.</tspan></text><text transform="translate(289.68746,107.4889) scale(0.5,0.5)" font-size="40" xml:space="preserve" data-paper-data="{&quot;origPos&quot;:null,&quot;index&quot;:null}" fill="#000000" fill-rule="nonzero" stroke="none" stroke-width="1" stroke-linecap="butt" stroke-linejoin="miter" stroke-miterlimit="10" stroke-dasharray="" stroke-dashoffset="0" font-family="Serif" font-weight="normal" text-anchor="start" style="mix-blend-mode: normal"><tspan x="0" dy="0">0</tspan></text><text transform="translate(288.84103,216.1798) scale(0.44601,0.44601)" font-size="40" xml:space="preserve" data-paper-data="{&quot;origPos&quot;:null}" fill="url(#color-1)" fill-rule="nonzero" stroke="#000000" stroke-width="1" stroke-linecap="butt" stroke-linejoin="miter" stroke-miterlimit="10" stroke-dasharray="" stroke-dashoffset="0" font-family="Sans Serif" font-weight="normal" text-anchor="start" style="mix-blend-mode: normal"><tspan x="0" dy="0">II</tspan></text><g fill="#ffffff" stroke="none" stroke-width="0"><g><path d="M284.5998,168.69048c0.81837,3.21631 -4.53241,11.07328 -11.4796,14.91847c-5.18404,2.86931 -7.57835,9.09078 -13.52626,10.60419c-7.1027,1.80724 -13.57185,-2.23901 -19.76584,-5.07409c-5.94404,-2.72067 -11.74541,-4.13963 -12.44522,-6.88998c-0.84637,-3.32635 -2.32578,-20.99136 2.3353,-29.77781c3.20889,-6.04897 11.157,-4.14737 16.83221,-5.59139c4.94857,-1.25913 13.47818,-8.20373 19.2964,-5.25884c10.5466,5.33818 17.83203,23.44988 18.753,27.06944z" stroke-linecap="butt"/><path d="M284.09285,167.32641c0.81837,3.21631 -4.53241,11.07328 -11.4796,14.91847c-5.18404,2.86931 -7.57835,9.09078 -13.52626,10.60419c-7.1027,1.80724 -13.57185,-2.23901 -19.76584,-5.07409c-5.94404,-2.72067 -11.74541,-4.13963 -12.44522,-6.88998c-0.84637,-3.32635 -2.32578,-20.99136 2.3353,-29.77781c3.20889,-6.04897 11.157,-4.14737 16.83221,-5.59139c4.94857,-1.25913 13.47818,-8.20373 19.2964,-5.25884c10.5466,5.33818 17.83203,23.44988 18.753,27.06944z" stroke-linecap="butt"/><path d="M284.29161,166.11608c0.81837,3.21631 -4.53242,11.07327 -11.47961,14.91847c-5.18404,2.86931 -7.57835,9.09079 -13.52626,10.60419c-7.1027,1.80724 -13.57185,-2.23901 -19.76584,-5.07409c-5.94404,-2.72067 -11.74541,-4.13964 -12.44522,-6.88998c-0.84637,-3.32635 -2.32578,-20.99135 2.3353,-29.77781c3.20889,-6.04897 11.157,-4.14737 16.83221,-5.59139c4.94857,-1.25913 13.47818,-8.20373 19.2964,-5.25884c10.5466,5.33818 17.83203,23.44988 18.753,27.06944z" stroke-linecap="butt"/><path d="M283.84835,165.05556c0.81837,3.21631 -4.53241,11.07328 -11.4796,14.91847c-5.18404,2.86931 -7.57835,9.09078 -13.52626,10.60419c-7.1027,1.80724 -13.57185,-2.23901 -19.76584,-5.07409c-5.94404,-2.72067 -11.74541,-4.13963 -12.44522,-6.88998c-0.84637,-3.32635 -2.32578,-20.99136 2.3353,-29.77781c3.20889,-6.04897 11.157,-4.14737 16.83221,-5.59139c4.94857,-1.25913 13.47818,-8.20373 19.2964,-5.25884c10.5466,5.33818 17.83203,23.44988 18.753,27.06944z" stroke-linecap="butt"/><path d="M283.34139,163.69149c0.81837,3.21631 -4.53241,11.07328 -11.4796,14.91847c-5.18404,2.86931 -7.57835,9.09078 -13.52626,10.60419c-7.1027,1.80724 -13.57185,-2.23901 -19.76584,-5.07409c-5.94404,-2.72067 -11.74541,-4.13963 -12.44522,-6.88998c-0.84637,-3.32635 -2.32578,-20.99136 2.3353,-29.77781c3.20889,-6.04897 11.157,-4.14737 16.83221,-5.59139c4.94857,-1.25913 13.47818,-8.20373 19.2964,-5.25884c10.5466,5.33818 17.83203,23.44988 18.753,27.06944z" stroke-linecap="butt"/><path d="M283.54015,162.48116c0.81837,3.21631 -4.53242,11.07327 -11.47961,14.91847c-5.18404,2.86931 -7.57835,9.09078 -13.52626,10.60419c-7.1027,1.80724 -13.57185,-2.23901 -19.76584,-5.07409c-5.94404,-2.72067 -11.74541,-4.13963 -12.44522,-6.88998c-0.84637,-3.32635 -2.32579,-20.99135 2.3353,-29.7778c3.20889,-6.04897 11.157,-4.14737 16.83222,-5.59139c4.94857,-1.25913 13.47818,-8.20373 19.2964,-5.25884c10.5466,5.33818 17.83203,23.44988 18.753,27.06944z" stroke-linecap="butt"/><path d="M246.74458,141.01366l10.29691,45.70796" stroke-linecap="round"/></g><path d="M233.77887,150.31204l2.11156,-0.87057" stroke-linecap="round"/><path d="M233.1695,154.46664l5.56046,-0.41493" stroke-linecap="round"/><path d="M236.64622,161.58112l7.9054,-1.67818" stroke-linecap="round"/><path d="M253.88688,144.19579l6.18095,-1.906" stroke-linecap="round"/><path d="M258.05817,148.80047l3.67671,-1.26881" stroke-linecap="round"/><path d="M266.62858,156.28537l-9.15752,1.99678l5.39003,-3.70453" stroke-linecap="round"/><path d="M271.56298,156.02973l-5.54933,3.07847" stroke-linecap="round"/><path d="M246.56509,173.05576l-6.81258,0.73353" stroke-linecap="round"/><path d="M238.25032,170.50526l3.1303,-0.79649" stroke-linecap="round"/><path d="M265.58584,169.21594l5.00848,-1.27438" stroke-linecap="round"/><path d="M264.61893,162.79604l-6.18652,0.57423" stroke-linecap="round"/></g><g><g><path d="M286.06326,170.56508c0,3.31879 -7.12298,9.61371 -14.80382,11.62708c-5.73149,1.5024 -9.586,6.94134 -15.72343,6.94134c-7.32901,0 -12.60065,-5.51651 -17.90428,-9.79139c-5.08961,-4.10238 -10.36194,-6.90807 -10.36194,-9.74605c0,-3.43233 2.92222,-20.91666 9.606,-28.28244c4.60139,-5.07091 11.83516,-1.26813 17.69121,-1.26813c5.10625,0 15.08492,-4.62687 19.9973,-0.33821c8.90461,7.77399 11.49896,27.12291 11.49896,30.8578z" fill="#dcdb8f" stroke="#000000" stroke-width="0.5" stroke-linecap="butt"/><path d="M285.90833,169.11812c0,3.31879 -7.12298,9.61371 -14.80382,11.62708c-5.73149,1.5024 -9.586,6.94134 -15.72343,6.94134c-7.32901,0 -12.60066,-5.51651 -17.90428,-9.79139c-5.08961,-4.10238 -10.36194,-6.90806 -10.36194,-9.74604c0,-3.43233 2.92222,-20.91666 9.606,-28.28244c4.60139,-5.07091 11.83517,-1.26814 17.69121,-1.26814c5.10625,0 15.08492,-4.62687 19.9973,-0.33821c8.90461,7.77399 11.49896,27.12291 11.49896,30.8578z" fill="#dcdb8f" stroke="#000000" stroke-width="0.5" stroke-linecap="butt"/><path d="M286.3994,167.99417c0,3.31879 -7.12298,9.61371 -14.80382,11.62708c-5.73149,1.5024 -9.586,6.94135 -15.72343,6.94135c-7.32901,0 -12.60065,-5.51651 -17.90428,-9.7914c-5.08961,-4.10238 -10.36194,-6.90807 -10.36194,-9.74605c0,-3.43233 2.92223,-20.91666 9.606,-28.28243c4.60139,-5.07091 11.83517,-1.26814 17.69121,-1.26814c5.10625,0 15.08492,-4.62687 19.99731,-0.33821c8.90461,7.77399 11.49896,27.12291 11.49896,30.85779z" fill="#dcdb8f" stroke="#000000" stroke-width="0.5" stroke-linecap="butt"/><path d="M286.23133,166.8571c0,3.31879 -7.12298,9.61371 -14.80382,11.62708c-5.73149,1.5024 -9.586,6.94134 -15.72343,6.94134c-7.32901,0 -12.60066,-5.51651 -17.90428,-9.79139c-5.08961,-4.10238 -10.36194,-6.90806 -10.36194,-9.74604c0,-3.43233 2.92222,-20.91667 9.606,-28.28244c4.60139,-5.07091 11.83517,-1.26814 17.69121,-1.26814c5.10625,0 15.08492,-4.62687 19.9973,-0.33821c8.90461,7.77399 11.49896,27.12291 11.49896,30.8578z" fill="#dcdb8f" stroke="#000000" stroke-width="0.5" stroke-linecap="butt"/><path d="M286.07639,165.41014c0,3.31879 -7.12298,9.61371 -14.80382,11.62708c-5.73149,1.5024 -9.586,6.94135 -15.72343,6.94135c-7.32901,0 -12.60065,-5.51651 -17.90428,-9.79139c-5.08961,-4.10238 -10.36194,-6.90807 -10.36194,-9.74605c0,-3.43233 2.92222,-20.91666 9.606,-28.28244c4.60139,-5.07091 11.83516,-1.26814 17.69121,-1.26814c5.10625,0 15.08491,-4.62687 19.99731,-0.33821c8.90461,7.77399 11.49896,27.12291 11.49896,30.8578z" fill="#dcdb8f" stroke="#000000" stroke-width="0.5" stroke-linecap="butt"/><path d="M286.56747,164.28619c0,3.3188 -7.12298,9.61371 -14.80382,11.62708c-5.73149,1.50239 -9.586,6.94135 -15.72343,6.94135c-7.32901,0 -12.60065,-5.51651 -17.90428,-9.7914c-5.08961,-4.10238 -10.36194,-6.90806 -10.36194,-9.74605c0,-3.43234 2.92222,-20.91666 9.606,-28.28244c4.60139,-5.07091 11.83517,-1.26813 17.69121,-1.26813c5.10625,0 15.08492,-4.62687 19.9973,-0.33821c8.90461,7.77399 11.49896,27.12291 11.49896,30.8578z" fill="#dcdb8f" stroke="#000000" stroke-width="0.5" stroke-linecap="butt"/><path d="M256.20172,134.4083l-1.29202,46.83561" fill="none" stroke="#a7a66d" stroke-width="1" stroke-linecap="round"/></g><path d="M241.34352,140.22238l2.26103,-0.323" fill="none" stroke="#000000" stroke-width="0.5" stroke-linecap="round"/><path d="M239.7285,144.09843l5.49107,0.96901" fill="none" stroke="#000000" stroke-width="0.5" stroke-linecap="round"/><path d="M241.34352,151.85053l8.07511,0.323" fill="none" stroke="#000000" stroke-width="0.5" stroke-linecap="round"/><path d="M262.3388,139.25337l6.46008,-0.323" fill="none" stroke="#000000" stroke-width="0.5" stroke-linecap="round"/><path d="M265.24583,144.74444l3.87605,-0.323" fill="none" stroke="#000000" stroke-width="0.5" stroke-linecap="round"/><path d="M271.70592,154.11156l-9.36712,-0.323l6.13708,-2.26103" fill="none" stroke="#000000" stroke-width="0.5" stroke-linecap="round"/><path d="M276.55098,155.08057l-6.13708,1.61502" fill="none" stroke="#000000" stroke-width="0.5" stroke-linecap="round"/><path d="M248.12661,165.41671l-6.78309,-0.96901" fill="none" stroke="#000000" stroke-width="0.5" stroke-linecap="round"/><path d="M240.69752,160.89465h3.23004" fill="none" stroke="#000000" stroke-width="0.5" stroke-linecap="round"/><path d="M267.50686,166.38572h5.16807" fill="none" stroke="#000000" stroke-width="0.5" stroke-linecap="round"/><path d="M268.15287,159.92563l-6.13708,-0.96901" fill="none" stroke="#000000" stroke-width="0.5" stroke-linecap="round"/></g></g></g></svg>