<svg version="1.1" xmlns="http://www.w3.org/2000/svg" xmlns:xlink="http://www.w3.org/1999/xlink" width="635" height="497.33787"><g transform="translate(27,33.53786)"><g data-paper-data="{&quot;isPaintingLayer&quot;:true}" fill="none" fill-rule="nonzero" stroke="none" stroke-width="none" stroke-linecap="butt" stroke-linejoin="miter" stroke-miterlimit="10" stroke-dasharray="" stroke-dashoffset="0" font-family="none" font-weight="none" font-size="none" text-anchor="none" style="mix-blend-mode: normal"><path d="M-26,462.80001v-495.33786h633v495.33787z" data-paper-data="{&quot;origPos&quot;:null}" fill="#ffffff" stroke="#000000" stroke-width="2"/><path d="M173.36545,178.09911l98.75364,-56.95366l37.9228,65.75547l-98.75364,56.95366z" data-paper-data="{&quot;origPos&quot;:null}" fill="#987209" stroke="#000000" stroke-width="6"/><path d="M260.98132,132.86684l9.39752,-5.41978l33.33873,57.80701l-9.39752,5.41978z" data-paper-data="{&quot;origPos&quot;:null}" fill="#bebebe" stroke="#e63b3b" stroke-width="2"/><path d="M177.85528,180.90993l7.94846,-4.58408l33.33873,57.80701l-7.94846,4.58408z" data-paper-data="{&quot;origPos&quot;:null}" fill="#bebebe" stroke="#e63b3b" stroke-width="2"/><path d="M187.03125,177.45248l74.82492,-43.15338l31.8107,55.15752l-74.82492,43.15338z" data-paper-data="{&quot;origPos&quot;:null}" fill="#00ab9a" stroke="#e63b3b" stroke-width="2"/><path d="M208.71398,231.59557l5.38412,-3.10516l3.18617,5.5246l-5.38412,3.10516z" data-paper-data="{&quot;origPos&quot;:null}" fill="#000000" stroke="none" stroke-width="0"/><text transform="translate(180.35749,180.23088) rotate(60.02689) scale(0.15661,0.15661)" font-size="40" xml:space="preserve" data-paper-data="{&quot;origPos&quot;:null}" fill="#000000" fill-rule="nonzero" stroke="none" stroke-width="1" stroke-linecap="butt" stroke-linejoin="miter" stroke-miterlimit="10" stroke-dasharray="" stroke-dashoffset="0" font-family="Serif" font-weight="normal" text-anchor="start" style="mix-blend-mode: normal"><tspan x="0" dy="0">Basic Land - Mountain</tspan></text><path d="M219.95574,175.96444l34.48326,34.97408l-29.75556,17.33501l-30.19528,-54.23668l35.66569,-20.51558z" data-paper-data="{&quot;origPos&quot;:null,&quot;origRot&quot;:0,&quot;index&quot;:null}" fill="#747474" stroke="#000000" stroke-width="2"/><path d="M247.07394,179.85793l-4.92887,19.33341l-19.6675,24.47779l-28.46007,-49.00591l25.82348,-2.21008l8.42695,8.76911z" data-paper-data="{&quot;origPos&quot;:null,&quot;origRot&quot;:0}" fill="#747474" stroke="#000000" stroke-width="2"/><path d="M187.96982,177.72866l5.54796,-3.19965l31.06706,53.86811l-5.54796,3.19965z" data-paper-data="{&quot;origPos&quot;:null}" fill="#00ab0a" stroke="#000000" stroke-width="2"/><g data-paper-data="{&quot;origPos&quot;:null}" fill="#ffffff" stroke="none" stroke-width="0"><path d="M247.83407,143.14691l2.99985,-1.73009l12.11059,20.99891l-2.99985,1.73009z" data-paper-data="{&quot;origPos&quot;:null}"/><path d="M250.85495,141.40468c1.15974,-0.66886 2.73891,-0.10302 3.5272,1.26382c0.78829,1.36684 0.48716,3.01708 -0.67257,3.68593c-1.15974,0.66886 -2.73893,0.10302 -3.52721,-1.26381c-0.78829,-1.36684 -0.48716,-3.01708 0.67257,-3.68593z" data-paper-data="{&quot;origPos&quot;:null}"/><path d="M253.7704,143.592c1.15974,-0.66886 2.73891,-0.10302 3.5272,1.26382c0.78829,1.36684 0.48716,3.01708 -0.67257,3.68593c-1.15974,0.66886 -2.73893,0.10302 -3.52721,-1.26381c-0.78829,-1.36684 -0.48716,-3.01708 0.67257,-3.68593z" data-paper-data="{&quot;origPos&quot;:null}"/><path d="M254.81127,147.8694c1.15974,-0.66886 2.73891,-0.10302 3.5272,1.26382c0.78829,1.36684 0.48716,3.01708 -0.67257,3.68593c-1.15974,0.66886 -2.73892,0.10303 -3.52721,-1.26381c-0.78829,-1.36684 -0.48716,-3.01708 0.67257,-3.68593z" data-paper-data="{&quot;origPos&quot;:null}"/><path d="M256.93121,150.88722c1.15974,-0.66886 2.73892,-0.10301 3.5272,1.26382c0.78829,1.36684 0.48716,3.01708 -0.67257,3.68593c-1.15974,0.66886 -2.73892,0.10303 -3.52721,-1.26381c-0.78829,-1.36684 -0.48716,-3.01708 0.67257,-3.68593z" data-paper-data="{&quot;origPos&quot;:null}"/><path d="M258.09944,154.18843c1.15974,-0.66886 2.73891,-0.10302 3.5272,1.26382c0.78829,1.36684 0.48716,3.01708 -0.67257,3.68593c-1.15974,0.66886 -2.73893,0.10302 -3.52721,-1.26381c-0.78829,-1.36684 -0.48716,-3.01708 0.67257,-3.68593z" data-paper-data="{&quot;origPos&quot;:null}"/><path d="M260.15192,157.45758c1.15974,-0.66886 2.73891,-0.10302 3.5272,1.26382c0.78829,1.36684 0.48716,3.01708 -0.67257,3.68593c-1.15974,0.66886 -2.73892,0.10303 -3.52721,-1.26381c-0.78829,-1.36684 -0.48716,-3.01708 0.67257,-3.68593z" data-paper-data="{&quot;origPos&quot;:null}"/><path d="M260.55177,161.03784c0.99468,-0.57366 2.28877,-0.19297 2.89045,0.85028c0.60167,1.04325 0.28307,2.35402 -0.71161,2.92767c-0.99468,0.57366 -2.28879,0.19297 -2.89045,-0.85028c-0.60167,-1.04325 -0.28307,-2.35402 0.71161,-2.92767z" data-paper-data="{&quot;origPos&quot;:null}"/></g><g data-paper-data="{&quot;index&quot;:null,&quot;origPos&quot;:null}" fill="#ffffff" stroke="none" stroke-width="0"><path d="M264.51408,194.33139l1.20996,-0.69782l4.88471,8.46975l-1.20996,0.69782z" data-paper-data="{&quot;origPos&quot;:null}"/><path d="M269.19457,201.58869c-0.31794,-0.5513 -0.1965,-1.21691 0.27128,-1.48669c0.46777,-0.26977 1.10472,-0.04155 1.42267,0.50974c0.31794,0.5513 0.1965,1.21691 -0.27128,1.48669c-0.46777,0.26977 -1.10472,0.04155 -1.42267,-0.50974z" data-paper-data="{&quot;origPos&quot;:null}"/><path d="M269.01983,200.12901c-0.31794,-0.5513 -0.1965,-1.21691 0.27128,-1.48669c0.46777,-0.26977 1.10472,-0.04155 1.42267,0.50974c0.31794,0.5513 0.1965,1.21691 -0.27128,1.48669c-0.46777,0.26977 -1.10472,0.04156 -1.42267,-0.50974z" data-paper-data="{&quot;origPos&quot;:null}"/><path d="M267.7368,198.90161c-0.31794,-0.5513 -0.1965,-1.21691 0.27128,-1.48669c0.46777,-0.26977 1.10472,-0.04155 1.42267,0.50974c0.31794,0.5513 0.1965,1.2169 -0.27128,1.48669c-0.46777,0.26977 -1.10472,0.04155 -1.42267,-0.50974z" data-paper-data="{&quot;origPos&quot;:null}"/><path d="M267.11145,197.5519c-0.31794,-0.5513 -0.1965,-1.21691 0.27128,-1.48669c0.46777,-0.26977 1.10472,-0.04155 1.42267,0.50974c0.31794,0.5513 0.1965,1.21693 -0.27128,1.4867c-0.46777,0.26977 -1.10472,0.04155 -1.42267,-0.50975z" data-paper-data="{&quot;origPos&quot;:null}"/><path d="M266.19493,196.47722c-0.31794,-0.5513 -0.1965,-1.21691 0.27128,-1.48669c0.46777,-0.26977 1.10472,-0.04155 1.42267,0.50974c0.31794,0.5513 0.1965,1.21691 -0.27128,1.48669c-0.46777,0.26977 -1.10472,0.04155 -1.42267,-0.50974z" data-paper-data="{&quot;origPos&quot;:null}"/><path d="M265.46823,195.10031c-0.31794,-0.5513 -0.1965,-1.21691 0.27128,-1.48669c0.46777,-0.26977 1.10472,-0.04155 1.42267,0.50974c0.31794,0.5513 0.1965,1.2169 -0.27128,1.48669c-0.46777,0.26977 -1.10472,0.04155 -1.42267,-0.50974z" data-paper-data="{&quot;origPos&quot;:null}"/><path d="M264.55591,194.4043c-0.24268,-0.42078 -0.11417,-0.94947 0.28702,-1.18085c0.40119,-0.23138 0.92316,-0.07784 1.16584,0.34295c0.24268,0.42078 0.11417,0.94947 -0.28702,1.18085c-0.40119,0.23138 -0.92316,0.07784 -1.16584,-0.34295z" data-paper-data="{&quot;origPos&quot;:null}"/></g><text transform="translate(262.93262,132.75604) rotate(60.02689) scale(0.28618,0.2765)" font-size="40" xml:space="preserve" data-paper-data="{&quot;origPos&quot;:null}" fill="#000000" fill-rule="nonzero" stroke="#000000" stroke-width="0" stroke-linecap="butt" stroke-linejoin="miter" stroke-miterlimit="10" stroke-dasharray="" stroke-dashoffset="0" font-family="Serif" font-weight="normal" text-anchor="start" style="mix-blend-mode: normal"><tspan x="0" dy="0">Mountain</tspan></text><text transform="translate(210.0757,232.20693) rotate(60.02689) scale(0.1643,0.1643)" font-size="40" xml:space="preserve" data-paper-data="{&quot;origPos&quot;:null}" fill="#ffffff" fill-rule="nonzero" stroke="none" stroke-width="1" stroke-linecap="butt" stroke-linejoin="miter" stroke-miterlimit="10" stroke-dasharray="" stroke-dashoffset="0" font-family="Handwriting" font-weight="normal" text-anchor="start" style="mix-blend-mode: normal"><tspan x="0" dy="0">S</tspan></text></g></g></svg>