<svg version="1.1" xmlns="http://www.w3.org/2000/svg" xmlns:xlink="http://www.w3.org/1999/xlink" width="142.5" height="211" viewBox="0,0,142.5,211"><defs><linearGradient x1="240.86089" y1="129.32992" x2="240.86089" y2="154.11766" gradientUnits="userSpaceOnUse" id="color-1"><stop offset="0" stop-color="#9f6500"/><stop offset="1" stop-color="#ffffff"/></linearGradient><linearGradient x1="243.00004" y1="112.26667" x2="243.00004" y2="199.26667" gradientUnits="userSpaceOnUse" id="color-2"><stop offset="0" stop-color="#fff86f" stop-opacity="0"/><stop offset="1" stop-color="#fff86f"/></linearGradient><linearGradient x1="272.66458" y1="206.96766" x2="272.66458" y2="216.27041" gradientUnits="userSpaceOnUse" id="color-3"><stop offset="0" stop-color="#cd3700"/><stop offset="1" stop-color="#ff4400"/></linearGradient><linearGradient x1="274.50793" y1="209.50493" x2="300.679" y2="209.50493" gradientUnits="userSpaceOnUse" id="color-4"><stop offset="0" stop-color="#d13800"/><stop offset="1" stop-color="#fa4300"/></linearGradient><linearGradient x1="297.2178" y1="200.92005" x2="297.2178" y2="207.67409" gradientUnits="userSpaceOnUse" id="color-5"><stop offset="0" stop-color="#fa4300"/><stop offset="1" stop-color="#d73a00"/></linearGradient></defs><g transform="translate(-171.83358,-81.5)"><g data-paper-data="{&quot;isPaintingLayer&quot;:true}" fill-rule="nonzero" stroke-linejoin="miter" stroke-miterlimit="10" stroke-dasharray="" stroke-dashoffset="0" style="mix-blend-mode: normal"><path d="M174.83358,289.5v-205h136.5v205z" data-paper-data="{&quot;origPos&quot;:null,&quot;index&quot;:null}" fill="#00c6c6" stroke="#000000" stroke-width="6" stroke-linecap="butt"/><path d="M183.08655,110.80331v-19.50806h120v19.50806z" data-paper-data="{&quot;origPos&quot;:null,&quot;index&quot;:null}" fill="#bebebe" stroke="#000000" stroke-width="2" stroke-linecap="butt"/><g data-paper-data="{&quot;origPos&quot;:null,&quot;index&quot;:null}" stroke="#000000" stroke-width="0.5" stroke-linecap="butt"><path d="M300.25712,101.00757c0,3.89674 -3.2276,7.05568 -7.20906,7.05568c-3.98146,0 -7.20906,-3.15894 -7.20906,-7.05568c0,-3.89674 3.2276,-7.05568 7.20906,-7.05568c3.98146,0 7.20906,3.15894 7.20906,7.05568z" data-paper-data="{&quot;origPos&quot;:null}" fill="#00c6c6"/><path d="M296.11172,102.3707c0,1.53676 -1.3973,2.78255 -3.12096,2.78255c-1.72367,0 -3.12098,-1.24578 -3.12098,-2.78255c0,-1.53676 1.54771,-6.994 3.27139,-6.994c1.72367,0 2.97055,5.45722 2.97055,6.994z" data-paper-data="{&quot;origPos&quot;:null}" fill="#009090"/></g><path d="M183.24573,271.16967v-53h120v53z" data-paper-data="{&quot;origPos&quot;:null,&quot;index&quot;:null}" fill="#bebebe" stroke="#000000" stroke-width="2" stroke-linecap="butt"/><text transform="translate(184.66696,106.75811) scale(0.37004,0.43683)" font-size="40" xml:space="preserve" data-paper-data="{&quot;origPos&quot;:null,&quot;index&quot;:null}" fill="#000000" fill-rule="nonzero" stroke="#000000" stroke-width="0" stroke-linecap="butt" stroke-linejoin="miter" stroke-miterlimit="10" stroke-dasharray="" stroke-dashoffset="0" font-family="Serif" font-weight="normal" text-anchor="start" style="mix-blend-mode: normal"><tspan x="0" dy="0">Ancestral Recall</tspan></text><path d="M183.24573,218.16967v-16.5h120v16.5z" data-paper-data="{&quot;origPos&quot;:null,&quot;index&quot;:null}" fill="#bebebe" stroke="#000000" stroke-width="2" stroke-linecap="butt"/><text transform="translate(185.15522,214.02475) scale(0.2994,0.2994)" font-size="40" xml:space="preserve" data-paper-data="{&quot;origPos&quot;:null,&quot;index&quot;:null}" fill="#000000" fill-rule="nonzero" stroke="none" stroke-width="1" stroke-linecap="butt" stroke-linejoin="miter" stroke-miterlimit="10" stroke-dasharray="" stroke-dashoffset="0" font-family="Serif" font-weight="normal" text-anchor="start" style="mix-blend-mode: normal"><tspan x="0" dy="0">Instant</tspan></text><text transform="translate(177.91216,283.80954) scale(0.23338,0.23338)" font-size="40" xml:space="preserve" data-paper-data="{&quot;origPos&quot;:null,&quot;index&quot;:null}" fill="#000000" fill-rule="nonzero" stroke="none" stroke-width="1" stroke-linecap="butt" stroke-linejoin="miter" stroke-miterlimit="10" stroke-dasharray="" stroke-dashoffset="0" font-family="Sans Serif" font-weight="normal" text-anchor="start" style="mix-blend-mode: normal"><tspan x="0" dy="0">(c)pthiel23</tspan></text><text transform="translate(184.57795,268.50462) scale(0.1756,0.1756)" font-size="40" xml:space="preserve" data-paper-data="{&quot;origPos&quot;:null,&quot;index&quot;:null}" fill="#000000" fill-rule="nonzero" stroke="none" stroke-width="1" stroke-linecap="butt" stroke-linejoin="miter" stroke-miterlimit="10" stroke-dasharray="" stroke-dashoffset="0" font-family="Sans Serif" font-weight="normal" text-anchor="start" style="mix-blend-mode: normal"><tspan x="0" dy="0">Dedicated to Louie</tspan></text><path d="M186.10357,201.38297v-90.33333c0,0 38.87294,0 63.75361,0c19.80443,0 50.74639,0 50.74639,0v90.33333z" data-paper-data="{&quot;origPos&quot;:null,&quot;index&quot;:null}" fill="#84bbb4" stroke="#000000" stroke-width="2" stroke-linecap="butt"/><path d="M226.46118,195.90994c0,0 -6.42375,-43.2 -5.37069,-60.88001c1.38398,-23.2358 34.71675,-20.33047 39.70433,-3.50263c4.86074,16.39989 6.58519,60.56583 6.58519,60.56583z" data-paper-data="{&quot;origPos&quot;:null,&quot;origRot&quot;:0,&quot;index&quot;:null}" fill="#8a8a8a" stroke="#8a8a8a" stroke-width="2" stroke-linecap="butt"/><g data-paper-data="{&quot;origPos&quot;:null,&quot;index&quot;:null}"><path d="M253.39718,141.72379c0,6.84494 -5.61271,12.39387 -12.53633,12.39387c-6.92362,0 -12.53633,-5.54892 -12.53633,-12.39387c0,-6.84494 5.61271,-12.39387 12.53633,-12.39387c6.92362,0 12.53633,5.54892 12.53633,12.39387z" data-paper-data="{&quot;origPos&quot;:null}" fill="url(#color-1)" stroke="#000000" stroke-width="1.5" stroke-linecap="butt"/><path d="M230.6503,134.97169c0,0 0.39988,-10.87275 2.14145,-11.18247c1.28123,-0.22786 5.05476,9.90268 5.05476,9.90268z" data-paper-data="{&quot;origPos&quot;:null,&quot;origRot&quot;:0}" fill="#ff7c65" stroke="#b5893b" stroke-width="0.5" stroke-linecap="butt"/><path d="M244.8753,134.00113c0,0 3.77352,-10.13053 5.05476,-9.90267c1.74157,0.30973 2.14146,11.18247 2.14146,11.18247z" data-paper-data="{&quot;origPos&quot;:null,&quot;origRot&quot;:0,&quot;index&quot;:null}" fill="#ff7c65" stroke="#b5893b" stroke-width="0.5" stroke-linecap="butt"/><path d="M238.86814,150.12572c0,0 -0.34099,-0.82667 -0.39799,-1.42071c-0.057,-0.59404 0.08379,-1.5286 0.11721,-1.52691c0.10028,0.00506 0.57959,-0.03322 0.87697,-0.13817c0.44508,-0.15708 0.61898,-0.29499 1.0765,-0.30875c0.45888,-0.0138 0.9761,0.32727 1.43061,0.42139c0.44265,0.09167 0.95657,0.03258 0.95657,0.03258c0,0 0.13285,1.01358 0.05654,1.60756c-0.06749,0.52534 -0.34951,1.44053 -0.70522,1.33911c0,0 -1.00859,0.27887 -1.68951,0.28026c-0.65039,0.00133 -1.7217,-0.28635 -1.7217,-0.28635z" data-paper-data="{&quot;origPos&quot;:null}" fill="#ff0000" stroke="none" stroke-width="0" stroke-linecap="butt"/><path d="M238.57016,139.85923c0,0.41284 -0.74973,0.74752 -1.67456,0.74752c-0.92484,0 -1.67456,-0.33468 -1.67456,-0.74752c0,-0.41284 0.74972,-0.74752 1.67456,-0.74752c0.92484,0 1.67456,0.33467 1.67456,0.74752z" data-paper-data="{&quot;origPos&quot;:null}" fill="#000000" stroke="#000000" stroke-width="1.5" stroke-linecap="butt"/><path d="M238.75015,141.80399l-0.18191,-2.07371" data-paper-data="{&quot;origPos&quot;:null}" fill="none" stroke="#000000" stroke-width="1.5" stroke-linecap="round"/><path d="M245.53327,139.05429c0.92484,0 1.67456,0.33468 1.67456,0.74752c0,0.41285 -0.74972,0.74751 -1.67456,0.74751c-0.92484,0 -1.67456,-0.33468 -1.67456,-0.74751c0,-0.41285 0.74973,-0.74752 1.67456,-0.74752z" data-paper-data="{&quot;origPos&quot;:null}" fill="#000000" stroke="#000000" stroke-width="1.5" stroke-linecap="butt"/><path d="M243.67873,141.74657l0.1819,-2.07372" data-paper-data="{&quot;origPos&quot;:null}" fill="none" stroke="#000000" stroke-width="1.5" stroke-linecap="round"/><path d="M245.30136,146.31883c0,0 -1.2591,0.68123 -2.6025,0.88348c-0.85435,0.12862 -1.14014,-0.52106 -2.00366,-0.5491c-0.64332,-0.02089 -1.21086,0.5712 -1.85447,0.56262c-2.11831,-0.02824 -2.88526,-0.82828 -2.88526,-0.82828" data-paper-data="{&quot;origPos&quot;:null}" fill="none" stroke="#000000" stroke-width="0.5" stroke-linecap="round"/><path d="M244.36028,143.46227l-3.655,3.30482l-3.08203,-3.4086z" data-paper-data="{&quot;origRot&quot;:0,&quot;origPos&quot;:null}" fill="#ffacac" stroke="none" stroke-width="0" stroke-linecap="butt"/><path d="M238.83019,150.13195l0.3155,-1.64928l0.39813,1.81008z" data-paper-data="{&quot;origPos&quot;:null}" fill="#ffffff" stroke="none" stroke-width="0" stroke-linecap="butt"/><path d="M241.78399,150.27142l0.39812,-1.81008l0.3155,1.64927z" data-paper-data="{&quot;origPos&quot;:null,&quot;index&quot;:null}" fill="#ffffff" stroke="none" stroke-width="0" stroke-linecap="butt"/></g><path d="M214.33333,199.26667v-87h57.33333v87z" data-paper-data="{&quot;index&quot;:null}" fill="url(#color-2)" stroke="none" stroke-width="0" stroke-linecap="butt"/><text transform="translate(186.26814,229.24419) scale(0.27609,0.27609)" font-size="40" xml:space="preserve" data-paper-data="{&quot;origPos&quot;:null,&quot;index&quot;:null}" fill="#000000" fill-rule="nonzero" stroke="none" stroke-width="1" stroke-linecap="butt" stroke-linejoin="miter" stroke-miterlimit="10" stroke-dasharray="" stroke-dashoffset="0" font-family="Serif" font-weight="normal" text-anchor="start" style="mix-blend-mode: normal"><tspan x="0" dy="0">Target player draws three</tspan><tspan x="0" dy="48px">cards.</tspan></text><path d="M186.45958,200.17161v-10.0923h113.85384v10.0923z" data-paper-data="{&quot;origPos&quot;:null,&quot;index&quot;:null}" fill="#00c910" stroke="#000000" stroke-width="2" stroke-linecap="butt"/><g data-paper-data="{&quot;origPos&quot;:null,&quot;index&quot;:null}"><path d="M225.25001,193.45l41.5,-0.25" data-paper-data="{&quot;origPos&quot;:null}" fill="none" stroke="#00ff36" stroke-width="2" stroke-linecap="round"/><path d="M247.96752,187.8095c2.13191,-2.16374 4.37842,-3.40716 5.01771,-2.77728c0.63929,0.62989 -0.57073,2.89455 -2.70264,5.05829c-2.13191,2.16374 -4.37842,3.40717 -5.01771,2.77729c-0.63929,-0.62989 0.57073,-2.89456 2.70264,-5.0583z" data-paper-data="{&quot;origPos&quot;:null,&quot;origRot&quot;:0}" fill="#00ff36" stroke="#00ff36" stroke-width="2" stroke-linecap="butt"/><path d="M274.11091,199.17059c-4.59359,-0.15672 -8.33148,-3.01959 -8.33148,-6.74443c0,-3.72484 3.73013,-6.74442 8.33148,-6.74442l6.96476,1.06075l-6.48861,2.10145l6.68483,1.42145l-6.48702,1.91514l6.38161,1.44077l-6.23909,1.75474l5.26335,1.46859c0,0 -4.01985,2.29802 -4.11883,2.30358c-0.29694,0.01669 -0.75405,0.06355 -1.961,0.02237z" data-paper-data="{&quot;origPos&quot;:null}" fill="#ff0000" stroke="none" stroke-width="0" stroke-linecap="butt"/></g><path d="M272.19587,216.26737c-0.8146,-0.11017 -1.04976,-3.11404 -1.04976,-3.11404c0,0 -3.01136,-0.09161 -3.15863,-0.89926c-0.14723,-0.80762 2.63511,-1.95931 2.63511,-1.95931c0,0 -0.84075,-2.89267 -0.11963,-3.28243c0.72273,-0.38992 2.67728,1.90093 2.67728,1.90093c0,0 2.4907,-1.69553 3.08525,-1.12773c0.59444,0.56624 -0.98157,3.13328 -0.98157,3.13328c0,0 2.38269,1.84564 2.02725,2.58555c-0.35438,0.74219 -3.28274,0.03778 -3.28274,0.03778c0,0 -1.01965,2.83403 -1.83256,2.72522z" data-paper-data="{&quot;origPos&quot;:null,&quot;origRot&quot;:0}" fill="url(#color-3)" stroke="#ffffff" stroke-width="0.5" stroke-linecap="butt"/><path d="M276.30573,209.33508l0.073,-1.59734l-1.8708,0.42679c0,0 2.40669,-1.54408 4.49327,-2.27242c1.77056,-0.35321 4.08991,-0.66822 5.38219,-0.68087c6.74701,-0.18147 11.33161,3.01757 14.24946,5.40506c1.07257,0.87762 2.27781,2.75534 2.00774,3.03044c-0.68192,0.69461 -1.05188,-1.00404 -3.87434,-2.74933c-4.18696,-2.58904 -8.39882,-4.15235 -11.49487,-4.18583c-0.70645,-0.00764 -3.5104,0.13825 -3.92756,0.27353c-3.39524,0.26392 -5.03809,2.34997 -5.03809,2.34997z" fill="url(#color-4)" stroke="#ffffff" stroke-width="0.5" stroke-linecap="butt"/><path d="M276.90573,208.38508l-1.52415,1.82123l-1.15869,-1.6393l1.94298,-1.0853c0,0 0.61868,-0.21814 0.71848,-0.09628c0.13565,0.16563 0.02138,0.99965 0.02138,0.99965z" fill="url(#color-5)" stroke="none" stroke-width="0" stroke-linecap="butt"/></g></g></svg>