<svg version="1.1" xmlns="http://www.w3.org/2000/svg" xmlns:xlink="http://www.w3.org/1999/xlink" width="142.5" height="211" viewBox="0,0,142.5,211"><defs><linearGradient x1="241.06826" y1="111.90196" x2="241.06826" y2="182.95535" gradientUnits="userSpaceOnUse" id="color-1"><stop offset="0" stop-color="#3bff30"/><stop offset="1" stop-color="#3bff30" stop-opacity="0"/></linearGradient><linearGradient x1="272.66458" y1="206.96766" x2="272.66458" y2="216.27041" gradientUnits="userSpaceOnUse" id="color-2"><stop offset="0" stop-color="#cd3700"/><stop offset="1" stop-color="#ff4400"/></linearGradient><linearGradient x1="274.50793" y1="209.50493" x2="300.679" y2="209.50493" gradientUnits="userSpaceOnUse" id="color-3"><stop offset="0" stop-color="#d13800"/><stop offset="1" stop-color="#fa4300"/></linearGradient><linearGradient x1="297.2178" y1="200.92005" x2="297.2178" y2="207.67409" gradientUnits="userSpaceOnUse" id="color-4"><stop offset="0" stop-color="#fa4300"/><stop offset="1" stop-color="#d73a00"/></linearGradient></defs><g transform="translate(-171.83366,-81.5)"><g data-paper-data="{&quot;isPaintingLayer&quot;:true}" fill-rule="nonzero" stroke-linejoin="miter" stroke-miterlimit="10" stroke-dasharray="" stroke-dashoffset="0" style="mix-blend-mode: normal"><path d="M174.83366,289.5v-205h136.5v205z" data-paper-data="{&quot;origPos&quot;:null,&quot;index&quot;:null}" fill="#00c6c6" stroke="#000000" stroke-width="6" stroke-linecap="butt"/><path d="M183.08663,110.80331v-19.50806h120v19.50806z" data-paper-data="{&quot;origPos&quot;:null,&quot;index&quot;:null}" fill="#bebebe" stroke="#000000" stroke-width="2" stroke-linecap="butt"/><g data-paper-data="{&quot;origPos&quot;:null,&quot;index&quot;:null}" stroke="#000000" stroke-width="0.5" stroke-linecap="butt"><path d="M300.25712,101.00757c0,3.89674 -3.2276,7.05568 -7.20906,7.05568c-3.98146,0 -7.20906,-3.15894 -7.20906,-7.05568c0,-3.89674 3.2276,-7.05568 7.20906,-7.05568c3.98146,0 7.20906,3.15894 7.20906,7.05568z" data-paper-data="{&quot;origPos&quot;:null}" fill="#00c6c6"/><path d="M296.11172,102.3707c0,1.53676 -1.3973,2.78255 -3.12096,2.78255c-1.72367,0 -3.12098,-1.24578 -3.12098,-2.78255c0,-1.53676 1.54771,-6.994 3.27139,-6.994c1.72367,0 2.97055,5.45722 2.97055,6.994z" data-paper-data="{&quot;origPos&quot;:null}" fill="#009090"/></g><path d="M183.24582,271.16967v-53h120v53z" data-paper-data="{&quot;origPos&quot;:null,&quot;index&quot;:null}" fill="#bebebe" stroke="#000000" stroke-width="2" stroke-linecap="butt"/><text transform="translate(184.66704,106.75811) scale(0.37004,0.43683)" font-size="40" xml:space="preserve" data-paper-data="{&quot;origPos&quot;:null,&quot;index&quot;:null}" fill="#000000" fill-rule="nonzero" stroke="#000000" stroke-width="0" stroke-linecap="butt" stroke-linejoin="miter" stroke-miterlimit="10" stroke-dasharray="" stroke-dashoffset="0" font-family="Serif" font-weight="normal" text-anchor="start" style="mix-blend-mode: normal"><tspan x="0" dy="0">Ancestral Recall</tspan></text><path d="M183.24582,218.16967v-16.5h120v16.5z" data-paper-data="{&quot;origPos&quot;:null,&quot;index&quot;:null}" fill="#bebebe" stroke="#000000" stroke-width="2" stroke-linecap="butt"/><text transform="translate(185.1553,214.02475) scale(0.2994,0.2994)" font-size="40" xml:space="preserve" data-paper-data="{&quot;origPos&quot;:null,&quot;index&quot;:null}" fill="#000000" fill-rule="nonzero" stroke="none" stroke-width="1" stroke-linecap="butt" stroke-linejoin="miter" stroke-miterlimit="10" stroke-dasharray="" stroke-dashoffset="0" font-family="Serif" font-weight="normal" text-anchor="start" style="mix-blend-mode: normal"><tspan x="0" dy="0">Instant</tspan></text><text transform="translate(177.91228,283.80954) scale(0.23338,0.23338)" font-size="40" xml:space="preserve" data-paper-data="{&quot;origPos&quot;:null,&quot;index&quot;:null}" fill="#000000" fill-rule="nonzero" stroke="none" stroke-width="1" stroke-linecap="butt" stroke-linejoin="miter" stroke-miterlimit="10" stroke-dasharray="" stroke-dashoffset="0" font-family="Sans Serif" font-weight="normal" text-anchor="start" style="mix-blend-mode: normal"><tspan x="0" dy="0">(c)pthiel23</tspan></text><path d="M186.10365,201.38297v-90.33333c0,0 38.87294,0 63.75361,0c19.80443,0 50.74639,0 50.74639,0v90.33333z" data-paper-data="{&quot;origPos&quot;:null,&quot;index&quot;:null}" fill="#000000" stroke="#000000" stroke-width="2" stroke-linecap="butt"/><g data-paper-data="{&quot;origPos&quot;:null,&quot;index&quot;:null}"><path d="M237.72568,261.59079c0,0 -46.69718,-5.14993 -40.11137,-21.68067c6.58581,-16.53074 84.44347,-11.91331 84.44347,-11.91331" data-paper-data="{&quot;origRot&quot;:0,&quot;origPos&quot;:null}" fill="none" stroke="#fb4300" stroke-width="3" stroke-linecap="round"/><text transform="translate(207.45186,251.2878) scale(0.69434,0.69434)" font-size="40" xml:space="preserve" data-paper-data="{&quot;origPos&quot;:null}" fill="#fb4300" fill-rule="nonzero" stroke="none" stroke-width="1" stroke-linecap="butt" stroke-linejoin="miter" stroke-miterlimit="10" stroke-dasharray="" stroke-dashoffset="0" font-family="Marker" font-weight="normal" text-anchor="start" style="mix-blend-mode: normal"><tspan x="0" dy="0">Tester</tspan></text></g><text transform="translate(186.26822,229.24419) scale(0.27609,0.27609)" font-size="40" xml:space="preserve" data-paper-data="{&quot;origPos&quot;:null,&quot;index&quot;:null}" fill="#000000" fill-rule="nonzero" stroke="none" stroke-width="1" stroke-linecap="butt" stroke-linejoin="miter" stroke-miterlimit="10" stroke-dasharray="" stroke-dashoffset="0" font-family="Serif" font-weight="normal" text-anchor="start" style="mix-blend-mode: normal"><tspan x="0" dy="0">Target player draws three</tspan><tspan x="0" dy="48px">cards.</tspan></text><path d="M186.45966,200.17161v-10.0923h113.85384v10.0923z" data-paper-data="{&quot;origPos&quot;:null}" fill="#c98700" stroke="#000000" stroke-width="2" stroke-linecap="butt"/><path d="M255.37272,192.62929c0,0 -0.16384,-25.91818 1.93242,-36.21772c2.755,-13.53609 22.09623,-9.04342 23.62025,1.26028c1.48526,10.04166 -1.19262,36.13463 -1.19262,36.13463z" data-paper-data="{&quot;origPos&quot;:null,&quot;origRot&quot;:0}" fill="#d2d2d2" stroke="#d2d2d2" stroke-width="2" stroke-linecap="butt"/><path d="M196.23034,194.5766c0,0 -3.81214,-25.63682 -3.18721,-36.12893c0.82132,-13.78917 20.60248,-12.06501 23.56233,-2.07862c2.88458,9.73243 3.90795,35.94248 3.90795,35.94248z" data-paper-data="{&quot;origPos&quot;:null,&quot;origRot&quot;:0}" fill="#d2d2d2" stroke="#d2d2d2" stroke-width="2" stroke-linecap="butt"/><path d="M204.03582,195.99103c-6.39564,-9.80665 20.45366,-40.00827 18.5,-58.51667c0.23363,-11.11562 -36.43143,-25.49557 -36.43143,-25.49557l115.32781,-0.07683c0,0 -41.48386,12.95615 -42.31205,25.01999c-6.09403,28.4579 25.77153,45.68278 16.13243,60.80814c-6.9562,5.27165 -28.17686,-44.63587 -35.69464,-44.69316c-7.36188,-0.0561 -29.12649,52.76075 -35.52213,42.95411z" data-paper-data="{&quot;origPos&quot;:null}" fill="url(#color-1)" stroke="none" stroke-width="0" stroke-linecap="butt"/><path d="M272.19587,216.26737c-0.8146,-0.11017 -1.04976,-3.11404 -1.04976,-3.11404c0,0 -3.01136,-0.09161 -3.15863,-0.89926c-0.14723,-0.80762 2.63511,-1.95931 2.63511,-1.95931c0,0 -0.84075,-2.89267 -0.11963,-3.28243c0.72273,-0.38992 2.67728,1.90093 2.67728,1.90093c0,0 2.4907,-1.69553 3.08525,-1.12773c0.59444,0.56624 -0.98157,3.13328 -0.98157,3.13328c0,0 2.38269,1.84564 2.02725,2.58555c-0.35438,0.74219 -3.28274,0.03778 -3.28274,0.03778c0,0 -1.01965,2.83403 -1.83256,2.72522z" data-paper-data="{&quot;origPos&quot;:null,&quot;origRot&quot;:0}" fill="url(#color-2)" stroke="#ffffff" stroke-width="0.5" stroke-linecap="butt"/><path d="M276.30573,209.33508l0.073,-1.59734l-1.8708,0.42679c0,0 2.40669,-1.54408 4.49327,-2.27242c1.77056,-0.35321 4.08991,-0.66822 5.38219,-0.68087c6.74701,-0.18147 11.33161,3.01757 14.24946,5.40506c1.07257,0.87762 2.27781,2.75534 2.00774,3.03044c-0.68192,0.69461 -1.05188,-1.00404 -3.87434,-2.74933c-4.18696,-2.58904 -8.39882,-4.15235 -11.49487,-4.18583c-0.70645,-0.00764 -3.5104,0.13825 -3.92756,0.27353c-3.39524,0.26392 -5.03809,2.34997 -5.03809,2.34997z" fill="url(#color-3)" stroke="#ffffff" stroke-width="0.5" stroke-linecap="butt"/><path d="M276.90573,208.38508l-1.52415,1.82123l-1.15869,-1.6393l1.94298,-1.0853c0,0 0.61868,-0.21814 0.71848,-0.09628c0.13565,0.16563 0.02138,0.99965 0.02138,0.99965z" fill="url(#color-4)" stroke="none" stroke-width="0" stroke-linecap="butt"/></g></g></svg>