<svg version="1.1" xmlns="http://www.w3.org/2000/svg" xmlns:xlink="http://www.w3.org/1999/xlink" width="142.5" height="211" viewBox="0,0,142.5,211"><defs><linearGradient x1="295.1561" y1="200.12315" x2="295.1561" y2="221.53161" gradientTransform="translate(-647.61112,-484.6972) scale(2.2421,2.2421)" gradientUnits="userSpaceOnUse" id="color-1"><stop offset="0" stop-color="#d13800"/><stop offset="1" stop-color="#f94300"/></linearGradient></defs><g transform="translate(-171.83359,-81.5)"><g data-paper-data="{&quot;isPaintingLayer&quot;:true}" fill-rule="nonzero" stroke-linecap="butt" stroke-linejoin="miter" stroke-miterlimit="10" stroke-dasharray="" stroke-dashoffset="0" style="mix-blend-mode: normal"><path d="M174.83359,289.5v-205h136.5v205z" data-paper-data="{&quot;origPos&quot;:null,&quot;index&quot;:null}" fill="#00c6c6" stroke="#000000" stroke-width="6"/><path d="M186.10356,201.18297v-90.33333h114.5v90.33333z" data-paper-data="{&quot;origPos&quot;:null,&quot;index&quot;:null}" fill="#ffffff" stroke="#000000" stroke-width="2"/><path d="M183.08655,110.80331v-19.50806h120v19.50806z" data-paper-data="{&quot;origPos&quot;:null,&quot;index&quot;:null}" fill="#bebebe" stroke="#000000" stroke-width="2"/><g data-paper-data="{&quot;origPos&quot;:null,&quot;index&quot;:null}" stroke="#000000" stroke-width="0.5"><path d="M300.25712,101.00757c0,3.89674 -3.2276,7.05568 -7.20906,7.05568c-3.98146,0 -7.20906,-3.15894 -7.20906,-7.05568c0,-3.89674 3.2276,-7.05568 7.20906,-7.05568c3.98146,0 7.20906,3.15894 7.20906,7.05568z" data-paper-data="{&quot;origPos&quot;:null}" fill="#00c6c6"/><path d="M296.11172,102.3707c0,1.53676 -1.3973,2.78255 -3.12096,2.78255c-1.72367,0 -3.12098,-1.24578 -3.12098,-2.78255c0,-1.53676 1.54771,-6.994 3.27139,-6.994c1.72367,0 2.97055,5.45722 2.97055,6.994z" data-paper-data="{&quot;origPos&quot;:null}" fill="#009090"/></g><path d="M183.24575,271.16967v-53h120v53z" data-paper-data="{&quot;origPos&quot;:null,&quot;index&quot;:null}" fill="#bebebe" stroke="#000000" stroke-width="2"/><text transform="translate(184.66696,106.75811) scale(0.37004,0.43683)" font-size="40" xml:space="preserve" data-paper-data="{&quot;origPos&quot;:null,&quot;index&quot;:null}" fill="#000000" fill-rule="nonzero" stroke="#000000" stroke-width="0" stroke-linecap="butt" stroke-linejoin="miter" stroke-miterlimit="10" stroke-dasharray="" stroke-dashoffset="0" font-family="Serif" font-weight="normal" text-anchor="start" style="mix-blend-mode: normal"><tspan x="0" dy="0">Time Warp</tspan></text><path d="M183.24575,218.16967v-16.5h120v16.5z" data-paper-data="{&quot;origPos&quot;:null,&quot;index&quot;:null}" fill="#bebebe" stroke="#000000" stroke-width="2"/><text transform="translate(185.15523,214.02475) scale(0.2994,0.2994)" font-size="40" xml:space="preserve" data-paper-data="{&quot;origPos&quot;:null,&quot;index&quot;:null}" fill="#000000" fill-rule="nonzero" stroke="none" stroke-width="1" stroke-linecap="butt" stroke-linejoin="miter" stroke-miterlimit="10" stroke-dasharray="" stroke-dashoffset="0" font-family="Serif" font-weight="normal" text-anchor="start" style="mix-blend-mode: normal"><tspan x="0" dy="0">Sorcery</tspan></text><text transform="translate(177.91212,283.80954) scale(0.23337,0.23337)" font-size="40" xml:space="preserve" data-paper-data="{&quot;origPos&quot;:null,&quot;index&quot;:null}" fill="#000000" fill-rule="nonzero" stroke="none" stroke-width="1" stroke-linecap="butt" stroke-linejoin="miter" stroke-miterlimit="10" stroke-dasharray="" stroke-dashoffset="0" font-family="Sans Serif" font-weight="normal" text-anchor="start" style="mix-blend-mode: normal"><tspan x="0" dy="0">(c)[pending]</tspan></text><text transform="translate(259.28393,107.4889) scale(0.5,0.5)" font-size="40" xml:space="preserve" data-paper-data="{&quot;origPos&quot;:null}" fill="#000000" fill-rule="nonzero" stroke="none" stroke-width="1" stroke-linecap="butt" stroke-linejoin="miter" stroke-miterlimit="10" stroke-dasharray="" stroke-dashoffset="0" font-family="Serif" font-weight="normal" text-anchor="start" style="mix-blend-mode: normal"><tspan x="0" dy="0">3</tspan></text><path d="M252.87022,279.76382c0,2.68369 -4.51848,4.85926 -10.09231,4.85926c-5.57383,0 -10.09231,-2.17556 -10.09231,-4.85926c0,-2.68369 4.51848,-4.85926 10.09231,-4.85926c5.57383,0 10.09231,2.17556 10.09231,4.85926z" data-paper-data="{&quot;origPos&quot;:null}" fill="#ffffff" stroke="#000000" stroke-width="2"/><text transform="translate(186.26814,229.24419) scale(0.27609,0.27609)" font-size="40" xml:space="preserve" data-paper-data="{&quot;origPos&quot;:null,&quot;index&quot;:null}" fill="#000000" fill-rule="nonzero" stroke="none" stroke-width="1" stroke-linecap="butt" stroke-linejoin="miter" stroke-miterlimit="10" stroke-dasharray="" stroke-dashoffset="0" font-family="Serif" font-weight="normal" text-anchor="start" style="mix-blend-mode: normal"><tspan x="0" dy="0">Target player takes an</tspan><tspan x="0" dy="48px">extra turn after this one.</tspan></text><g data-paper-data="{&quot;origPos&quot;:null,&quot;index&quot;:null}" stroke="#000000" stroke-width="0.5"><path d="M284.67379,101.00757c0,3.89674 -3.2276,7.05568 -7.20906,7.05568c-3.98146,0 -7.20906,-3.15894 -7.20906,-7.05568c0,-3.89674 3.2276,-7.05568 7.20906,-7.05568c3.98146,0 7.20906,3.15894 7.20906,7.05568z" data-paper-data="{&quot;origPos&quot;:null}" fill="#00c6c6"/><path d="M280.52839,102.3707c0,1.53676 -1.3973,2.78255 -3.12096,2.78255c-1.72367,0 -3.12098,-1.24578 -3.12098,-2.78255c0,-1.53676 1.54771,-6.994 3.27139,-6.994c1.72367,0 2.97055,5.45722 2.97055,6.994z" data-paper-data="{&quot;origPos&quot;:null}" fill="#009090"/></g><text transform="translate(288.84103,216.1798) scale(0.44601,0.44601)" font-size="40" xml:space="preserve" data-paper-data="{&quot;origPos&quot;:null}" fill="url(#color-1)" fill-rule="nonzero" stroke="#ffffff" stroke-width="1" stroke-linecap="butt" stroke-linejoin="miter" stroke-miterlimit="10" stroke-dasharray="" stroke-dashoffset="0" font-family="Sans Serif" font-weight="normal" text-anchor="start" style="mix-blend-mode: normal"><tspan x="0" dy="0">II</tspan></text></g></g></svg>