<svg version="1.1" xmlns="http://www.w3.org/2000/svg" xmlns:xlink="http://www.w3.org/1999/xlink" width="164.46296" height="269.20312"><defs><linearGradient x1="223.90838" y1="210.07635" x2="223.90838" y2="221.25309" gradientUnits="userSpaceOnUse" id="color-1"><stop offset="0" stop-color="#414141"/><stop offset="1" stop-color="#b0b0b0"/></linearGradient></defs><g transform="translate(-90.28707,-64.3469)"><g data-paper-data="{&quot;isPaintingLayer&quot;:true}" fill="none" fill-rule="nonzero" stroke="none" stroke-width="none" stroke-linecap="none" stroke-linejoin="miter" stroke-miterlimit="10" stroke-dasharray="" stroke-dashoffset="0" font-family="none" font-weight="none" font-size="none" text-anchor="none" style="mix-blend-mode: normal"><g data-paper-data="{&quot;origPos&quot;:null}" stroke-linecap="butt"><path d="M93.03707,330.80002v-263h158.96296v263z" data-paper-data="{&quot;origPos&quot;:null}" fill="#828282" stroke="#000000" stroke-width="5.5"/><text transform="translate(123.00003,85.80003) scale(0.5,0.5)" font-size="40" xml:space="preserve" data-paper-data="{&quot;origPos&quot;:null}" fill="#000000" fill-rule="nonzero" stroke="none" stroke-width="1" stroke-linecap="butt" stroke-linejoin="miter" stroke-miterlimit="10" stroke-dasharray="" stroke-dashoffset="0" font-family="Sans Serif" font-weight="normal" text-anchor="start" style="mix-blend-mode: normal"><tspan x="0" dy="0">The Stack</tspan></text></g><g data-paper-data="{&quot;origPos&quot;:null}"><path d="M103.75004,295.50001v-205h136.5v205z" data-paper-data="{&quot;origPos&quot;:null}" fill="#ff4d4d" stroke="#000000" stroke-width="6" stroke-linecap="butt"/><path d="M112.1622,224.16971v-16.5h120v16.5z" data-paper-data="{&quot;origPos&quot;:null}" fill="#bebebe" stroke="#000000" stroke-width="2" stroke-linecap="butt"/><text transform="translate(114.07172,220.02477) scale(0.2994,0.2994)" font-size="40" xml:space="preserve" data-paper-data="{&quot;origPos&quot;:null}" fill="#000000" fill-rule="nonzero" stroke="none" stroke-width="1" stroke-linecap="butt" stroke-linejoin="miter" stroke-miterlimit="10" stroke-dasharray="" stroke-dashoffset="0" font-family="Serif" font-weight="normal" text-anchor="start" style="mix-blend-mode: normal"><tspan x="0" dy="0">Instant</tspan></text><path d="M112.00295,116.80334v-19.50806h120v19.50806z" data-paper-data="{&quot;origPos&quot;:null}" fill="#bebebe" stroke="#000000" stroke-width="2" stroke-linecap="butt"/><text transform="translate(113.58336,111.75452) scale(0.39367,0.46472)" font-size="40" xml:space="preserve" data-paper-data="{&quot;origPos&quot;:null}" fill="#000000" fill-rule="nonzero" stroke="#000000" stroke-width="0" stroke-linecap="butt" stroke-linejoin="miter" stroke-miterlimit="10" stroke-dasharray="" stroke-dashoffset="0" font-family="Serif" font-weight="normal" text-anchor="start" style="mix-blend-mode: normal"><tspan x="0" dy="0">Lightning Bolt</tspan></text><path d="M115.02001,207.18298v-90.33333h114.5v90.33333z" data-paper-data="{&quot;origPos&quot;:null}" fill="#7a7a7a" stroke="#000000" stroke-width="2" stroke-linecap="butt"/><path d="M218.17421,221.25309v-11.17675h11.46836v11.17675z" data-paper-data="{&quot;origPos&quot;:null}" fill="url(#color-1)" stroke="#000000" stroke-width="0.5" stroke-linecap="butt"/><text transform="translate(220.34995,219.68117) scale(0.29546,0.29546)" font-size="40" xml:space="preserve" data-paper-data="{&quot;origPos&quot;:null}" fill="#ffffff" fill-rule="nonzero" stroke="none" stroke-width="1" stroke-linecap="butt" stroke-linejoin="miter" stroke-miterlimit="10" stroke-dasharray="" stroke-dashoffset="0" font-family="Handwriting" font-weight="normal" text-anchor="start" style="mix-blend-mode: normal"><tspan x="0" dy="0">S</tspan></text><g data-paper-data="{&quot;origPos&quot;:null}" stroke="#000000" stroke-width="0.5" stroke-linecap="butt"><path d="M229.36065,107.07189c0,4.03076 -3.33862,7.29835 -7.45702,7.29835c-4.11839,0 -7.45702,-3.26759 -7.45702,-7.29835c0,-4.03076 3.33862,-7.29835 7.45702,-7.29835c4.11839,0 7.45702,3.26759 7.45702,7.29835z" data-paper-data="{&quot;origPos&quot;:null}" fill="#e04a4a"/><path d="M226.34317,109.20441c-0.78092,0.81463 -0.5303,0.71925 -1.22371,1.22898c-0.66336,0.48763 -1.61528,0.82825 -2.38291,1.12593c-0.78719,0.30527 -1.31436,0.27397 -2.29394,0.28218c-1.00711,0.051 -1.27715,-0.00418 -2.00636,-0.10944c-0.04758,-0.00687 -1.65476,-0.04688 -1.58399,-2.21483c0.0248,-0.75963 0.35294,-1.942 1.76387,-2.40703c0.09423,-0.03106 0.52303,-0.0448 2.54688,-0.43615c0.80474,0.1519 1.30347,0.05958 2.2988,0.75958c0.50168,0.35284 0.70332,0.05694 1.29408,-0.1079c0.87101,-0.24305 0.99483,-0.49432 0.99839,-0.9775c-0.05298,-0.87846 -0.72464,-1.38237 -1.69592,-1.75909c-1.50446,-0.39028 -2.03612,-0.57085 -3.46073,-0.73945c-0.77844,-0.17529 -2.36023,-0.90815 -2.36023,-0.90815c0,0 2.64798,-0.60248 2.69068,-0.58506c2.01349,0.10835 4.49822,0.88858 5.8483,2.46154c0,0 0.57919,0.80696 0.54498,1.56925c-0.04462,0.99441 -0.27399,2.01385 -0.97815,2.81716z" data-paper-data="{&quot;origPos&quot;:null}" fill="#e02222"/></g><path d="M112.16215,277.1697v-53h120v53z" data-paper-data="{&quot;origPos&quot;:null}" fill="#bebebe" stroke="#000000" stroke-width="2" stroke-linecap="butt"/><text transform="translate(116.68458,235.91087) scale(0.27609,0.27609)" font-size="40" xml:space="preserve" data-paper-data="{&quot;origPos&quot;:null}" fill="#000000" fill-rule="nonzero" stroke="none" stroke-width="1" stroke-linecap="butt" stroke-linejoin="miter" stroke-miterlimit="10" stroke-dasharray="" stroke-dashoffset="0" font-family="Serif" font-weight="normal" text-anchor="start" style="mix-blend-mode: normal"><tspan x="0" dy="0">Lightning Bolt deals 3 </tspan><tspan x="0" dy="48px">damage to target creature</tspan><tspan x="0" dy="48px">or player</tspan></text><path d="M133.84803,135.83071c0,0 -4.10067,4.99974 -5.83708,6.23646c-1.52025,0.54712 -2.73903,0.47473 -4.92692,0.23751c-4.20095,0.26665 -7.92386,-6.49439 -7.92386,-6.49439" data-paper-data="{&quot;origPos&quot;:null}" fill="none" stroke="#000000" stroke-width="2" stroke-linecap="round"/><path d="M152.80969,136.01295c0,0 -4.10067,4.99974 -5.83708,6.23646c-1.52025,0.54712 -2.73904,0.47473 -4.92693,0.23751c-4.20095,0.26665 -7.92386,-6.49439 -7.92386,-6.49439" data-paper-data="{&quot;origPos&quot;:null}" fill="none" stroke="#000000" stroke-width="2" stroke-linecap="round"/><path d="M171.84806,135.83071c0,0 -4.10067,4.99974 -5.83708,6.23646c-1.52025,0.54712 -2.73903,0.47473 -4.92692,0.23751c-4.20095,0.26665 -7.92386,-6.49439 -7.92386,-6.49439" data-paper-data="{&quot;origPos&quot;:null}" fill="none" stroke="#000000" stroke-width="2" stroke-linecap="round"/><path d="M190.51472,135.99737c0,0 -4.10066,4.99974 -5.83708,6.23646c-1.52025,0.54712 -2.73903,0.47473 -4.92692,0.23751c-4.20095,0.26665 -7.92386,-6.49439 -7.92386,-6.49439" data-paper-data="{&quot;origPos&quot;:null}" fill="none" stroke="#000000" stroke-width="2" stroke-linecap="round"/><path d="M209.51473,136.83071c0,0 -4.10067,4.99974 -5.83708,6.23646c-1.52025,0.54712 -2.73903,0.47473 -4.92692,0.23751c-4.20095,0.26665 -7.92386,-6.49439 -7.92386,-6.49439" data-paper-data="{&quot;origPos&quot;:null}" fill="none" stroke="#000000" stroke-width="2" stroke-linecap="round"/><path d="M228.84806,136.83071c0,0 -4.10067,4.99974 -5.83708,6.23646c-1.52025,0.54712 -2.73903,0.47473 -4.92692,0.23751c-4.20095,0.26665 -7.92386,-6.49439 -7.92386,-6.49439" data-paper-data="{&quot;origPos&quot;:null}" fill="none" stroke="#000000" stroke-width="2" stroke-linecap="round"/><path d="M134.01469,173.49737c0,0 -4.10067,4.99974 -5.83708,6.23646c-1.52025,0.54712 -2.73903,0.47473 -4.92692,0.23751c-4.20095,0.26665 -7.92386,-6.49439 -7.92386,-6.49439" data-paper-data="{&quot;origPos&quot;:null}" fill="none" stroke="#000000" stroke-width="2" stroke-linecap="round"/><path d="M133.84626,162.27247c0,0 3.0017,2.46136 3.74424,3.50368c0.32855,0.9126 0.28517,1.64426 0.14291,2.9577c0.16035,2.52188 -3.89817,4.75725 -3.89817,4.75725" data-paper-data="{&quot;origPos&quot;:null,&quot;origRot&quot;:0}" fill="none" stroke="#000000" stroke-width="2" stroke-linecap="round"/><path d="M114.82685,161.98338c0,0 1.59795,-4.27429 3.40107,-4.10572c0.93908,-0.14997 1.46221,-0.19574 2.11473,0.15015c0.7453,0.78185 2.50539,3.94266 2.50539,3.94266" data-paper-data="{&quot;origPos&quot;:null,&quot;index&quot;:null}" fill="none" stroke="#000000" stroke-width="2" stroke-linecap="round"/><path d="M123.16592,161.97116c0,0 1.96781,-2.8227 2.83763,-3.5509c0.78378,-0.35339 1.43336,-0.36559 2.60391,-0.33061c2.21756,-0.31592 4.47337,3.11626 4.47337,3.11626" data-paper-data="{&quot;origPos&quot;:null,&quot;origRot&quot;:0}" fill="none" stroke="#000000" stroke-width="2" stroke-linecap="round"/><path d="M228.84806,184.49737c0,0 -4.10066,4.99974 -5.83708,6.23646c-1.52025,0.54712 -2.73904,0.47473 -4.92693,0.23751c-4.20094,0.26665 -7.92385,-6.49439 -7.92385,-6.49439" data-paper-data="{&quot;origPos&quot;:null}" fill="none" stroke="#000000" stroke-width="2" stroke-linecap="round"/><path d="M209.51473,183.49737c0,0 -4.10066,4.99974 -5.83708,6.23646c-1.52025,0.54712 -2.73904,0.47473 -4.92693,0.23751c-4.20094,0.26665 -7.92385,-6.49439 -7.92385,-6.49439" data-paper-data="{&quot;origPos&quot;:null}" fill="none" stroke="#000000" stroke-width="2" stroke-linecap="round"/><path d="M149.84802,193.49737c0,0 -4.10067,4.99974 -5.83708,6.23646c-1.52024,0.54712 -2.73903,0.47473 -4.92692,0.23751c-4.20094,0.26665 -7.92385,-6.49439 -7.92385,-6.49439" data-paper-data="{&quot;origPos&quot;:null}" fill="none" stroke="#000000" stroke-width="2" stroke-linecap="round"/><path d="M169.18138,193.49737c0,0 -4.10067,4.99974 -5.83708,6.23646c-1.52025,0.54712 -2.73904,0.47473 -4.92693,0.23751c-4.20094,0.26665 -7.92385,-6.49439 -7.92385,-6.49439" data-paper-data="{&quot;origPos&quot;:null}" fill="none" stroke="#000000" stroke-width="2" stroke-linecap="round"/><g data-paper-data="{&quot;origPos&quot;:null}" fill="#00ceff" stroke="none" stroke-width="0" stroke-linecap="butt"><g data-paper-data="{&quot;origPos&quot;:null}"><g data-paper-data="{&quot;origPos&quot;:null}"><path d="M150.24354,137.96033v-20h4.33334v20z" data-paper-data="{&quot;origPos&quot;:null}"/><path d="M158.80172,149.12473l-8.63102,-11.33879l3.44806,-2.62464l8.63101,11.33879z" data-paper-data="{&quot;origPos&quot;:null,&quot;origRot&quot;:0}"/></g><g data-paper-data="{&quot;origPos&quot;:null,&quot;index&quot;:null}"><path d="M157.76735,166.29366v-20h4.33334v20z" data-paper-data="{&quot;origPos&quot;:null}"/><path d="M166.32553,177.45806l-8.63102,-11.33879l3.44806,-2.62464l8.63101,11.33879z" data-paper-data="{&quot;origPos&quot;:null,&quot;origRot&quot;:0}"/></g></g><g data-paper-data="{&quot;origPos&quot;:null}"><path d="M165.57689,194.76984v-20h4.33334v20z" data-paper-data="{&quot;origPos&quot;:null}"/><path d="M174.589,206.17007l-9.00167,-11.57457l3.44806,-2.62464l10.50184,14.20395z" data-paper-data="{&quot;origPos&quot;:null,&quot;origRot&quot;:0}"/></g></g><text transform="translate(106.82865,289.80956) scale(0.23338,0.23338)" font-size="40" xml:space="preserve" data-paper-data="{&quot;origPos&quot;:null}" fill="#000000" fill-rule="nonzero" stroke="none" stroke-width="1" stroke-linecap="butt" stroke-linejoin="miter" stroke-miterlimit="10" stroke-dasharray="" stroke-dashoffset="0" font-family="Sans Serif" font-weight="normal" text-anchor="start" style="mix-blend-mode: normal"><tspan x="0" dy="0">(c)pthiel23</tspan></text></g></g></g></svg>