<svg version="1.1" xmlns="http://www.w3.org/2000/svg" xmlns:xlink="http://www.w3.org/1999/xlink" width="579" height="467.60001"><g transform="translate(41,27.79996)"><g data-paper-data="{&quot;isPaintingLayer&quot;:true}" fill-rule="nonzero" stroke-linecap="butt" stroke-linejoin="miter" stroke-miterlimit="10" stroke-dasharray="" stroke-dashoffset="0" style="mix-blend-mode: normal"><path d="M-41,439.80004v-467.6h579v467.60001z" data-paper-data="{&quot;origPos&quot;:null}" fill="#8e8e8e" stroke="none" stroke-width="0"/><path d="M367,110.50509c0,33.52648 -57.82678,60.70507 -129.15974,60.70507c-71.33295,0 -129.15973,-27.17859 -129.15973,-60.70507c0,-33.52648 57.82677,-60.70508 129.15973,-60.70508c71.33296,0 129.15974,27.17859 129.15974,60.70508z" data-paper-data="{&quot;origPos&quot;:null}" fill="#ff8d00" stroke="#000000" stroke-width="0.5"/><text transform="translate(125.66109,124.14831) scale(1.00202,1.00202)" font-size="40" xml:space="preserve" data-paper-data="{&quot;origPos&quot;:null}" fill="#ffffff" fill-rule="nonzero" stroke="none" stroke-width="1" stroke-linecap="butt" stroke-linejoin="miter" stroke-miterlimit="10" stroke-dasharray="" stroke-dashoffset="0" font-family="Sans Serif" font-weight="normal" text-anchor="start" style="mix-blend-mode: normal"><tspan x="0" dy="0">IonStorm66</tspan></text><path d="M72,325.80001v-127h337v127z" data-paper-data="{&quot;origPos&quot;:null}" fill="#8e8e8e" stroke="#000000" stroke-width="3.5"/><text transform="translate(100,303.86265) scale(3.13092,3.13092)" font-size="40" xml:space="preserve" data-paper-data="{&quot;origPos&quot;:null}" fill="#000000" fill-rule="nonzero" stroke="none" stroke-width="1" stroke-linecap="butt" stroke-linejoin="miter" stroke-miterlimit="10" stroke-dasharray="" stroke-dashoffset="0" font-family="Sans Serif" font-weight="normal" text-anchor="start" style="mix-blend-mode: normal"><tspan x="0" dy="0">Next</tspan></text><path d="M231.38104,282.45259c0,0 -26.68446,17.82481 -39.82321,23.91372c-4.48932,2.0805 -6.19771,-1.74284 -5.34655,-2.98066c10.52421,-15.305 29.55256,-37.15325 29.55256,-37.15325l-24.93498,-13.54492l89.80644,-29.55256l-34.78582,83.0213z" data-paper-data="{&quot;origPos&quot;:null,&quot;index&quot;:null}" fill="#ffffff" stroke="#000000" stroke-width="4"/></g></g></svg>