<svg version="1.1" xmlns="http://www.w3.org/2000/svg" xmlns:xlink="http://www.w3.org/1999/xlink" width="209.5" height="283.5" viewBox="0,0,209.5,283.5"><g transform="translate(-135.25,-38.25)"><g data-paper-data="{&quot;isPaintingLayer&quot;:true}" fill-rule="nonzero" stroke-linejoin="miter" stroke-miterlimit="10" stroke-dasharray="" stroke-dashoffset="0" style="mix-blend-mode: normal"><path d="M159.78788,296.9697v-236.60606h162.18182v236.60606z" fill="#ffffff" stroke="none" stroke-width="0" stroke-linecap="butt"/><path d="M158.10496,298.44866v-104h168v104z" fill="#a6494b" stroke="#000000" stroke-width="2" stroke-linecap="butt"/><path d="M153.23838,197.34568v-143.5h174v143.5z" fill="#a67d4d" stroke="#000000" stroke-width="2" stroke-linecap="butt"/><g stroke="#e2dacd"><path d="M221.9,123.4c0,-25.18418 20.41582,-45.6 45.6,-45.6c25.18418,0 45.6,20.41582 45.6,45.6c0,25.18418 -20.41582,45.6 -45.6,45.6c-25.18418,0 -45.6,-20.41582 -45.6,-45.6z" fill="#fff6e8" stroke-width="2" stroke-linecap="butt"/><path d="M265.75,78.2l-1.375,1.375l-41.5,41.5" fill="none" stroke-width="2" stroke-linecap="round"/><path d="M224.375,135.575l54.75,-54.75" fill="none" stroke-width="2" stroke-linecap="round"/><path d="M228.375,144.575l61.25,-61.25" fill="none" stroke-width="2" stroke-linecap="round"/><path d="M297.125,90.075l-62.75,62.75" fill="none" stroke-width="2" stroke-linecap="round"/><path d="M243.375,162.325l61.75,-61.75" fill="none" stroke-width="2" stroke-linecap="round"/><path d="M256.375,166.575l54.125,-54.125" fill="none" stroke-width="2" stroke-linecap="round"/><path d="M312.5,127.45l-39.125,39.125l-2.625,2.625" fill="none" stroke-width="2" stroke-linecap="round"/><path d="M245.125,106.325l2.875,-2.875" fill="none" stroke-width="1" stroke-linecap="round"/><path d="M231.375,101.825l12.5,-12.5" fill="none" stroke-width="1" stroke-linecap="round"/><path d="M247.75,90.2l-5.125,5.125" fill="none" stroke-width="1" stroke-linecap="round"/><path d="M238.125,100.075l-2.25,2.25" fill="none" stroke-width="1" stroke-linecap="round"/><path d="M242.875,111.575l-12,12" fill="none" stroke-width="1" stroke-linecap="round"/><path d="M255.375,97.325l7.625,-7.625" fill="none" stroke-width="1" stroke-linecap="round"/><path d="M265.375,85.075l2.625,-2.625" fill="none" stroke-width="1" stroke-linecap="round"/><path d="M264.125,101.575l11,-11" fill="none" stroke-width="1" stroke-linecap="round"/><path d="M251.375,114.325l6,-6" fill="none" stroke-width="1" stroke-linecap="round"/><path d="M236.375,131.075l7,-7" fill="none" stroke-width="1" stroke-linecap="round"/><path d="M235.125,144.325l7.25,-7.25" fill="none" stroke-width="1" stroke-linecap="round"/><path d="M246.875,122.075l4.5,-4.5" fill="none" stroke-width="1" stroke-linecap="round"/><path d="M248.875,133.325l11.75,-11.75" fill="none" stroke-width="1" stroke-linecap="round"/><path d="M250.875,125.825l12.625,-12.625" fill="none" stroke-width="1" stroke-linecap="round"/><path d="M263.125,117.825l9,-9" fill="none" stroke-width="1" stroke-linecap="round"/><path d="M277.875,104.075l9.5,-9.5" fill="none" stroke-width="1" stroke-linecap="round"/><path d="M278.375,100.575l12.25,-12.25" fill="none" stroke-width="1" stroke-linecap="round"/><path d="M255.375,143.575l-8.25,8.75" fill="none" stroke-width="1" stroke-linecap="round"/><path d="M251.375,143.825l13.75,-13.75" fill="none" stroke-width="1" stroke-linecap="round"/><path d="M270.625,126.825l12,-12" fill="none" stroke-width="1" stroke-linecap="round"/><path d="M300.375,97.325l-11,7" fill="none" stroke-width="1" stroke-linecap="round"/><path d="M294.25,104.2l-5.375,5.375" fill="none" stroke-width="1" stroke-linecap="round"/><path d="M286.125,108.075l-2.75,2.75" fill="none" stroke-width="1" stroke-linecap="round"/><path d="M251.625,160.325l21.75,-21.75" fill="none" stroke-width="1" stroke-linecap="round"/><path d="M270.875,145.825l15.25,-15.25" fill="none" stroke-width="1" stroke-linecap="round"/><path d="M285.875,127.825l15.25,-15.25" fill="none" stroke-width="1" stroke-linecap="round"/><path d="M285.625,124.075l-9.25,9.25" fill="none" stroke-width="1" stroke-linecap="round"/><path d="M253.375,163.575l15.5,-15.5" fill="none" stroke-width="1" stroke-linecap="round"/><path d="M267.125,164.075l26.625,-26.625" fill="none" stroke-width="1" stroke-linecap="round"/><path d="M279.125,148.075l23.25,-23.25" fill="none" stroke-width="1" stroke-linecap="round"/><path d="M301.625,131.075l6.5,-6.5" fill="none" stroke-width="1" stroke-linecap="round"/><path d="M309.25,118.2l-2.875,2.875" fill="none" stroke-width="1" stroke-linecap="round"/><path d="M283.625,152.325l5.625,-5.625" fill="none" stroke-width="1" stroke-linecap="round"/><path d="M282.125,162.575l11.5,-11.5" fill="none" stroke-width="1" stroke-linecap="round"/><path d="M293.375,156.325l7.75,-9.25" fill="none" stroke-width="1" stroke-linecap="round"/><path d="M298.375,146.575l8.25,-8.25" fill="none" stroke-width="1" stroke-linecap="round"/></g><path d="M290.19905,149.59935l-8.41311,-7.84025" fill="none" stroke="#b0b0b0" stroke-width="5.5" stroke-linecap="round"/><path d="M290.68676,150.05386l5.48682,5.11321" fill="none" stroke="#503900" stroke-width="5.5" stroke-linecap="round"/><path d="M289.5697,155.16398l5.9086,-6.34032" fill="none" stroke="#503900" stroke-width="5.5" stroke-linecap="round"/><path d="M296.263,98.69392c-0.31875,4.40677 -11.70608,4.16633 -11.70608,4.16633c0,0 -1.36237,-3.68962 -1.04361,-8.09639c0.11317,-1.56462 3.00722,-4.99834 5.11319,-4.81288c1.15657,0.10185 2.11809,4.72582 2.11809,4.72582c0,0 4.4942,-2.32303 5.26427,-0.85389c0.60653,1.15714 0.31734,3.99734 0.25414,4.871z" fill="#e8c0c8" stroke="none" stroke-width="0" stroke-linecap="butt"/><path d="M242.04258,92.04109c0.53804,0.56402 0.06267,2.51156 0.95952,3.73775c1.20809,1.65172 3.75675,2.5789 3.75675,2.5789l-3.76709,3.46502c0,0 -0.43122,-2.3536 -2.54371,-3.92973c-0.82663,-0.61675 -3.0457,0.26719 -3.89105,-0.61897c-0.5668,-0.59417 -1.44242,-1.30674 -1.995,-2.14491c-0.6842,-1.03783 -0.9901,-2.15662 -0.9901,-2.15662l4.01257,-4.33971c0,0 1.02663,0.29858 2.00527,0.99774c0.91386,0.65289 1.75776,1.68188 2.45284,2.41052z" fill="#f6ddae" stroke="#000000" stroke-width="0.5" stroke-linecap="butt"/><path d="M247.28536,156.86531c-2.06825,2.79827 -6.22261,3.45715 -8.90895,1.47163c-2.68634,-1.98552 -2.38741,-5.76355 -0.31916,-8.56182c0.3734,-0.5052 2.38105,0.07939 3.93845,-0.97116c1.94305,-1.31069 3.52124,-3.6884 5.80286,-1.81804c3.90491,3.20104 0.5187,4.41719 -0.81493,6.41365c-0.68512,1.02564 0.65958,2.9816 0.30174,3.46574z" fill="#ffffff" stroke="none" stroke-width="0" stroke-linecap="butt"/><path d="M240.18699,152.94774c0,0.74559 0.66274,1.75 0,1.75c-0.66274,0 -1.6,-0.60442 -1.6,-1.35c0,-0.74559 -0.16274,-1.35 0.5,-1.35c0.66274,0 1.1,0.20442 1.1,0.95z" fill="#000000" stroke="#000000" stroke-width="0.5" stroke-linecap="butt"/><path d="M243.89564,158.28459c-0.25545,0.61154 -0.75043,0.22841 -1.4384,-0.05897c-0.68797,-0.28737 -0.88444,-1.38518 -0.629,-1.99671c0.25545,-0.61154 0.92681,0.38714 1.61479,0.67451c0.68797,0.28737 0.70806,0.76963 0.45261,1.38117z" data-paper-data="{&quot;index&quot;:null}" fill="#000000" stroke="#000000" stroke-width="0.5" stroke-linecap="butt"/><path d="M246.98555,149.88638l-1.55555,-1.55555" fill="none" stroke="#000000" stroke-width="1.5" stroke-linecap="round"/><text transform="translate(194.5,233.41693) scale(0.1872,0.1872)" font-size="40" xml:space="preserve" fill="#000000" fill-rule="nonzero" stroke="none" stroke-width="1" stroke-linecap="butt" stroke-linejoin="miter" stroke-miterlimit="10" stroke-dasharray="" stroke-dashoffset="0" font-family="Sans Serif" font-weight="normal" text-anchor="start" style="mix-blend-mode: normal"><tspan x="0" dy="0">All players discard</tspan><tspan x="0" dy="46.15px">thier hands and draw</tspan><tspan x="0" dy="46.15px">7 new cards</tspan><tspan x="0" dy="46.15px"> </tspan></text><path d="M141.5,315.5v-271h197v271z" fill="none" stroke="#ffffff" stroke-width="12.5" stroke-linecap="butt"/><path d="M155.5,302.5v-247h171v247z" fill="none" stroke="#bf0600" stroke-width="12.5" stroke-linecap="butt"/><path d="M157.5,300.5v-105h170v105z" fill="none" stroke="#bf0600" stroke-width="12.5" stroke-linecap="butt"/><text transform="translate(164.87879,198.67508) scale(0.37057,0.33118)" font-size="40" xml:space="preserve" fill="#000000" fill-rule="nonzero" stroke="none" stroke-width="1" stroke-linecap="butt" stroke-linejoin="miter" stroke-miterlimit="10" stroke-dasharray="" stroke-dashoffset="0" font-family="Sans Serif" font-weight="normal" text-anchor="start" style="mix-blend-mode: normal"><tspan x="0" dy="0">sorcery</tspan></text><text transform="translate(159.78788,59.08998) scale(0.2637,0.2637)" font-size="40" xml:space="preserve" fill="#ffffff" fill-rule="nonzero" stroke="none" stroke-width="1" stroke-linecap="butt" stroke-linejoin="miter" stroke-miterlimit="10" stroke-dasharray="" stroke-dashoffset="0" font-family="Sans Serif" font-weight="normal" text-anchor="start" style="mix-blend-mode: normal"><tspan x="0" dy="0">wheel of fortune</tspan></text></g></g></svg>