<svg version="1.1" xmlns="http://www.w3.org/2000/svg" xmlns:xlink="http://www.w3.org/1999/xlink" width="164.00016" height="378.50297" viewBox="0,0,164.00016,378.50297"><g transform="translate(-161.9167,34.20697)"><g data-paper-data="{&quot;isPaintingLayer&quot;:true}" fill="none" fill-rule="nonzero" stroke="none" stroke-width="none" stroke-linecap="none" stroke-linejoin="miter" stroke-miterlimit="10" stroke-dasharray="" stroke-dashoffset="0" font-family="none" font-weight="none" font-size="none" text-anchor="none" style="mix-blend-mode: normal"><text transform="translate(165.33337,258.87925) scale(6.83334,6.83334)" font-size="40" xml:space="preserve" data-paper-data="{&quot;origPos&quot;:null}" fill="#d9d9d9" fill-rule="nonzero" stroke="#6f6f6f" stroke-width="1" stroke-linecap="butt" stroke-linejoin="miter" stroke-miterlimit="10" stroke-dasharray="" stroke-dashoffset="0" font-family="Sans Serif" font-weight="normal" text-anchor="start" style="mix-blend-mode: normal"><tspan x="0" dy="0">S</tspan></text><path d="M271.44665,188.16667c0,0 -1.11769,-32.48405 -1.11586,-32.68871c-0.28839,-8.13681 -0.50625,-12.69644 -1.04759,-17.7304c-0.18044,-1.67799 -0.76725,-7.31828 -1.02457,-8.54344c-0.01285,-0.1747 -2.09198,-11.37078 -2.09198,-11.37078l0.88,-26l0.8913,20.55186l1.34684,-33.16599l1.33579,32.63784l1.12714,-40.36896l1.11419,40.91451l1.22331,-31.28581l0.90328,32.13487l1.06226,-20.90293l0.78255,25.48463c0,0 -2.07913,11.19608 -2.09198,11.37078c-0.25733,1.22516 -0.84413,6.86545 -1.02457,8.54344c-0.54134,5.03396 -0.75919,9.59359 -1.04759,17.7304c0.00183,0.20466 -1.11586,32.68871 -1.11586,32.68871" data-paper-data="{&quot;origPos&quot;:null,&quot;index&quot;:null}" fill="#ff7400" stroke="#ffb100" stroke-width="2.5" stroke-linecap="round"/></g></g></svg>