<svg version="1.1" xmlns="http://www.w3.org/2000/svg" xmlns:xlink="http://www.w3.org/1999/xlink" width="164.46296" height="269.49998" viewBox="0,0,164.46296,269.49998"><g transform="translate(-90.28711,-64.05003)"><g data-paper-data="{&quot;isPaintingLayer&quot;:true}" fill-rule="nonzero" stroke-linecap="butt" stroke-linejoin="miter" stroke-miterlimit="10" stroke-dasharray="" stroke-dashoffset="0" style="mix-blend-mode: normal"><path d="M93.03712,330.80001v-263h158.96296v263z" data-paper-data="{&quot;origPos&quot;:null}" fill="#828282" stroke="#000000" stroke-width="5.5"/><text transform="translate(123.00007,85.80003) scale(0.5,0.5)" font-size="40" xml:space="preserve" data-paper-data="{&quot;origPos&quot;:null}" fill="#000000" fill-rule="nonzero" stroke="none" stroke-width="1" stroke-linecap="butt" stroke-linejoin="miter" stroke-miterlimit="10" stroke-dasharray="" stroke-dashoffset="0" font-family="Sans Serif" font-weight="normal" text-anchor="start" style="mix-blend-mode: normal"><tspan x="0" dy="0">The Stack</tspan></text><path d="M103.93778,295.47917v-205h136.5v205z" data-paper-data="{&quot;origPos&quot;:null,&quot;index&quot;:null}" fill="#00c6c6" stroke="#000000" stroke-width="6"/><path d="M115.20775,207.16214v-90.33333h114.5v90.33333z" data-paper-data="{&quot;origPos&quot;:null,&quot;index&quot;:null}" fill="#6b6b6b" stroke="#000000" stroke-width="2"/><path d="M112.19074,116.78248v-19.50806h120v19.50806z" data-paper-data="{&quot;origPos&quot;:null,&quot;index&quot;:null}" fill="#bebebe" stroke="#000000" stroke-width="2"/><g data-paper-data="{&quot;origPos&quot;:null,&quot;index&quot;:null}" stroke="#000000" stroke-width="0.5"><path d="M229.36131,106.98674c0,3.89674 -3.2276,7.05568 -7.20906,7.05568c-3.98146,0 -7.20906,-3.15894 -7.20906,-7.05568c0,-3.89674 3.2276,-7.05568 7.20906,-7.05568c3.98146,0 7.20906,3.15894 7.20906,7.05568z" data-paper-data="{&quot;origPos&quot;:null}" fill="#00c6c6"/><path d="M225.21591,108.34987c0,1.53676 -1.3973,2.78255 -3.12096,2.78255c-1.72367,0 -3.12098,-1.24578 -3.12098,-2.78255c0,-1.53676 1.54771,-6.994 3.27139,-6.994c1.72367,0 2.97055,5.45722 2.97055,6.994z" data-paper-data="{&quot;origPos&quot;:null}" fill="#009090"/></g><path d="M112.34994,277.14884v-53h120v53z" data-paper-data="{&quot;origPos&quot;:null,&quot;index&quot;:null}" fill="#bebebe" stroke="#000000" stroke-width="2"/><text transform="translate(113.77115,112.73728) scale(0.37004,0.43683)" font-size="40" xml:space="preserve" data-paper-data="{&quot;origPos&quot;:null,&quot;index&quot;:null}" fill="#000000" fill-rule="nonzero" stroke="#000000" stroke-width="0" stroke-linecap="butt" stroke-linejoin="miter" stroke-miterlimit="10" stroke-dasharray="" stroke-dashoffset="0" font-family="Serif" font-weight="normal" text-anchor="start" style="mix-blend-mode: normal"><tspan x="0" dy="0">Brainstorm</tspan></text><path d="M112.34994,224.14884v-16.5h120v16.5z" data-paper-data="{&quot;origPos&quot;:null,&quot;index&quot;:null}" fill="#bebebe" stroke="#000000" stroke-width="2"/><text transform="translate(114.25942,220.00392) scale(0.2994,0.2994)" font-size="40" xml:space="preserve" data-paper-data="{&quot;origPos&quot;:null,&quot;index&quot;:null}" fill="#000000" fill-rule="nonzero" stroke="none" stroke-width="1" stroke-linecap="butt" stroke-linejoin="miter" stroke-miterlimit="10" stroke-dasharray="" stroke-dashoffset="0" font-family="Serif" font-weight="normal" text-anchor="start" style="mix-blend-mode: normal"><tspan x="0" dy="0">Instant</tspan></text><text transform="translate(113.37233,235.22336) scale(0.27609,0.27609)" font-size="40" xml:space="preserve" data-paper-data="{&quot;origPos&quot;:null,&quot;index&quot;:null}" fill="#000000" fill-rule="nonzero" stroke="none" stroke-width="1" stroke-linecap="butt" stroke-linejoin="miter" stroke-miterlimit="10" stroke-dasharray="" stroke-dashoffset="0" font-family="Serif" font-weight="normal" text-anchor="start" style="mix-blend-mode: normal"><tspan x="0" dy="0">Draw three cards, then put</tspan><tspan x="0" dy="48px">two cards from your hand</tspan><tspan x="0" dy="48px">on top of your library in</tspan><tspan x="0" dy="48px">any order</tspan></text><text transform="translate(107.01631,289.78871) scale(0.23337,0.23337)" font-size="40" xml:space="preserve" data-paper-data="{&quot;origPos&quot;:null,&quot;index&quot;:null}" fill="#000000" fill-rule="nonzero" stroke="none" stroke-width="1" stroke-linecap="butt" stroke-linejoin="miter" stroke-miterlimit="10" stroke-dasharray="" stroke-dashoffset="0" font-family="Sans Serif" font-weight="normal" text-anchor="start" style="mix-blend-mode: normal"><tspan x="0" dy="0">(c)pthiel23</tspan></text><path d="M218.3618,221.23226v-11.17675h11.46836v11.17675z" data-paper-data="{&quot;origPos&quot;:null}" fill="#000000" stroke="#ffffff" stroke-width="0.5"/><text transform="translate(220.53755,219.6603) scale(0.29546,0.29546)" font-size="40" xml:space="preserve" data-paper-data="{&quot;origPos&quot;:null}" fill="#ffffff" fill-rule="nonzero" stroke="none" stroke-width="1" stroke-linecap="butt" stroke-linejoin="miter" stroke-miterlimit="10" stroke-dasharray="" stroke-dashoffset="0" font-family="Handwriting" font-weight="normal" text-anchor="start" style="mix-blend-mode: normal"><tspan x="0" dy="0">S</tspan></text><g data-paper-data="{&quot;origPos&quot;:null,&quot;index&quot;:null,&quot;origRot&quot;:0}" fill="#00ceff" stroke="none" stroke-width="0"><g data-paper-data="{&quot;origPos&quot;:null}"><g data-paper-data="{&quot;origPos&quot;:null}"><path d="M209.57712,180.14736c0,0 16.9842,20.32644 17.71553,21.20169c0.24377,0.29175 1.32464,1.54757 1.32464,1.54757l0.17181,3.44537l-5.62748,-0.17166l-18.34017,-22.04926z" data-paper-data="{&quot;origPos&quot;:null}"/><path d="M189.94699,175.74276l19.87,4.52919l-1.3773,6.04234l-19.86998,-4.52919z" data-paper-data="{&quot;origPos&quot;:null,&quot;origRot&quot;:0}"/></g><g data-paper-data="{&quot;origPos&quot;:null,&quot;index&quot;:null}"><path d="M175.33811,155.95198l18.34017,21.94925l-4.75568,3.97371l-18.34017,-21.94925z" data-paper-data="{&quot;origPos&quot;:null}"/><path d="M155.70797,151.54737l19.86999,4.52918l-1.3773,6.04235l-19.86999,-4.52919z" data-paper-data="{&quot;origPos&quot;:null,&quot;origRot&quot;:0}"/></g></g><g data-paper-data="{&quot;origPos&quot;:null}"><path d="M140.65451,131.86184l18.34018,21.94925l-4.75568,3.97371l-18.34017,-21.94925z" data-paper-data="{&quot;origPos&quot;:null}"/><path d="M116.00999,126.71471l24.79298,5.34805l-1.3773,6.04234l-23.27696,-5.52761z" data-paper-data="{&quot;origPos&quot;:null,&quot;origRot&quot;:0}"/></g></g><g data-paper-data="{&quot;origPos&quot;:null}"><path d="M209.77086,161.49584c0,12.95298 -3.74853,28.04097 -16.15983,31.74763c-6.50789,1.94359 -16.38159,-7.58096 -23.17351,-7.58096c-21.7232,0 -39.33333,-10.81979 -39.33333,-24.16667c0,-13.34688 17.61013,-24.16667 39.33333,-24.16667c21.7232,0 39.33333,10.81979 39.33333,24.16667z" data-paper-data="{&quot;origPos&quot;:null}" fill="#ff8d8d" stroke="#000000" stroke-width="1.5"/><path d="M173.28085,151.98011c-0.98427,0.17666 -1.16094,-0.80761 -1.16094,-0.80761l0.36892,-1.15956c0.18654,-0.55962 -0.04862,-1.61567 0.07025,-2.1616c-0.40248,-0.36208 -0.83058,-0.85551 -1.28823,-0.85551c-1.81928,-0.07315 -3.15098,-0.68348 -3.44868,-2.64956c-0.08789,-0.58043 0.63405,-1.70149 1.22732,-1.84916c0.93638,-0.23308 0.72137,-3.40716 0.72137,-4.50128c0,0 0,-1 1,-1c1,0 1,1 1,1c0,1.56637 0.3235,3.99145 -0.71798,5.31623c-0.56552,0.71935 -1.6058,0.96377 -1.33333,1.66667c0.05176,0.13352 0.07729,-0.40364 0.2167,-0.37093c0.45104,0.10584 0.87441,0.4414 1.33462,0.38803c3.48656,0 4.01497,2.95069 3.11535,5.64956l-0.29775,0.17377c0,0 0.17666,0.98427 -0.80761,1.16094z" data-paper-data="{&quot;origPos&quot;:null}" fill="#000000" stroke="none" stroke-width="0.5"/><path d="M183.67568,184.42163c-0.4258,0.90482 -1.33062,0.47902 -1.33062,0.47902l-0.52289,-1.25526c-0.29145,-0.87434 -0.35921,-1.35214 -1.1652,-1.75513c0.0713,-0.20562 -3.4869,0.43891 -4.21945,0.43891c-2.95847,0 -3.5969,-0.77152 -5.11134,-2.34941c-0.12491,0.01064 -0.25453,0.01608 -0.38866,0.01608c-0.59929,-0.16735 -2.13211,0.57424 -2.94636,0.80501c0.22096,0.19323 0.46432,0.36311 0.69669,0.54269c1.50426,1.16251 3.16329,2.04584 4.68301,3.18563c0,0 0.8,0.6 0.2,1.4c-0.6,0.8 -1.4,0.2 -1.4,0.2c-1.70142,-1.27607 -3.562,-2.26006 -5.2097,-3.6204c-0.3,-0.24768 -1.44186,-1.19402 -1.35569,-1.6249c0.42295,-2.11476 3.07719,-2.71117 5.06905,-2.86934c0.01756,-0.0197 0.03618,-0.03941 0.05589,-0.05913c0.06389,-0.06389 0.12777,-0.11623 0.19114,-0.15859c-0.49341,-0.03274 -1.11883,-0.77532 -1.56491,-1.1343c-2.36475,-1.903 -2.56736,-4.33333 -5.75245,-4.33333c-4.31896,0 -7.92252,4.99803 -12.24174,1.53863c-3.16927,-3.80313 -5.86783,-6.40643 -1.94612,-10.5883c0.00603,-0.20163 0.0864,-0.42633 0.30879,-0.6521c0.70177,-0.7124 1.41417,-0.01063 1.41417,-0.01063l0.00534,1.75284c-0.54596,0.54596 -1.84607,1.76955 -2.04044,2.29289c-0.75829,2.0417 2.73762,4.65642 3.7947,5.92493c-0.19075,0.60843 1.88696,0.57254 2.55574,0.45972c2.51547,-0.42435 5.26074,-2.71798 8.14956,-2.71798c4.25586,0 4.48354,3.11056 7.16667,5.33333c0.52849,0.43782 1.66642,-0.08824 2.20711,0.79289c0.70779,1.15344 0.66886,2.16823 0.0595,2.81229c0.20401,0.37998 0.40263,0.7532 0.68208,1.07859c0.08794,0.1024 1.33559,-0.01711 1.71798,-0.01711c2.10669,0 4.10882,-0.77117 6.11388,-0.22776c1.25136,0.62568 1.74505,1.64227 2.16814,2.91153l-0.52289,0.07808c0,0 0.90482,0.4258 0.47902,1.33062zM172.12129,177.71382c0.06197,-0.06197 -0.05061,0.01929 -0.18277,0.08649c0.00975,0.00589 0.01921,0.01178 0.02837,0.01764c0.06169,-0.0298 0.11457,-0.06429 0.15441,-0.10413zM171.82217,177.34628c-0.20015,0.0509 -0.39162,0.16071 -0.53991,0.30498c0.14005,-0.02219 0.27154,-0.00579 0.38762,0.02865c0.08025,-0.16578 0.27389,-0.36454 0.15229,-0.33362z" data-paper-data="{&quot;origPos&quot;:null}" fill="#000000" stroke="none" stroke-width="0.5"/><path d="M183.92448,162.21833c-0.15506,-0.20995 -0.24942,-0.51541 -0.08009,-0.93221c0.37638,-0.92647 1.30284,-0.55009 1.30284,-0.55009l-0.24304,2.19313c-0.68846,0.91795 -1.23419,1.77927 -0.63462,2.67863c-0.93326,0.10236 2.48747,-0.18373 3.16795,-0.27863c2.5784,-0.35958 5.39687,-0.33333 8,-0.33333c0,0 1,0 1,1c0,0.02183 -0.00048,0.04319 -0.00141,0.06408c0.00618,-0.00421 0.01235,-0.00846 0.01851,-0.01276c1.63834,-1.14336 1.96573,-1.91278 3.98289,-2.38465c0.14534,-0.034 1.17726,-0.38521 2.1565,-0.7187c-0.70069,-0.43453 -0.8143,-1.26413 -1.38426,-1.83409c-0.35407,-0.35407 -1.64273,-0.63604 -2.14601,-1.40677c-0.27429,-0.42005 -0.22017,-1.03614 -0.57491,-1.39088c-0.11414,-0.11414 0.25765,0.3639 0.13246,0.46579c-0.42689,0.34742 -1.56156,-1.17538 -1.89088,-1.40824c-0.09763,-0.06904 0.29166,0.20834 0.20711,0.29289c-0.35355,0.35355 -2.94462,0 -3.5,0l-1.55368,-0.20493c0,0 -0.46174,-0.88702 0.42528,-1.34875c0.88702,-0.46174 1.34875,0.42528 1.34875,0.42528l-0.22035,-0.8716c1.42545,0 3.38851,-0.31955 4.70711,0.29289c1.44592,0.67158 3.62721,3.03312 4.85399,4.25989c0.27319,0.27319 0.22195,0.87636 0.58847,0.99853c1.50428,0.83024 1.83856,1.08245 0.85044,3.11535c-0.07128,0.14664 -0.31103,-0.21365 -0.46356,-0.15606c-0.80576,0.30419 -1.40961,0.85561 -2.27153,1.12185c-0.51072,0.15776 -1.34153,0.77056 -1.66813,0.50831c-0.24665,0.31205 -0.64012,0.56649 -0.94722,0.80792c-1.29441,1.01761 -3.50793,1.36176 -4.38289,2.01798c-1.91577,1.38969 -2.91472,2.84288 -4.71197,4.53205c-0.12986,0.12205 -1.35775,1.04241 -1.5,1c-0.16026,-0.04778 0.11249,-0.50264 -0.0547,-0.49872c-0.01727,0.00041 0.01633,1.40009 0,1.5c-0.18518,1.13322 1.56972,2.21847 2.16538,3.11197c-0.18154,0.10547 4.45238,1.21844 5.26259,1.3016c3.21181,0.32968 6.29139,0.7531 9.57202,0.7531c0.12639,0 0.2473,0.02345 0.35863,0.06623c0.28686,0.09747 0.64137,0.33836 0.64137,0.93377c0,0.43951 -0.19317,0.68585 -0.40971,0.82393l-0.88318,0.88318l-0.70711,-0.70711h-1v-0.03214c-2.35173,-0.07716 -4.62631,-0.29591 -6.97998,-0.68488c-2.64386,-0.43692 -5.53834,-0.14334 -7.51874,-2.22828c-0.76359,-1.14538 -2.04955,-1.86602 -2.4071,-3.2977c-0.86643,-3.4693 4.30832,-6.97807 6.83074,-8.94581c-3.5837,0.39786 -8.55168,1.36567 -10.75697,-0.42315c-1.1277,-1.69155 -0.39003,-3.53637 0.69872,-4.98803z" data-paper-data="{&quot;origPos&quot;:null}" fill="#000000" stroke="none" stroke-width="0.5"/><path d="M142.06984,162.59247c-0.92996,-0.36766 -0.5623,-1.29762 -0.5623,-1.29762l0.94707,-0.24769c0.88502,-0.29501 3.40747,-3.28197 2.86754,-4.90176c0.72773,0.05065 -0.94696,-0.65901 -1.03421,-0.70088c-1.06408,-0.51056 -1.90089,-1.3214 -1.85044,-2.61535c0.0976,-2.50341 2.51509,-4.53841 4.54467,-5.94667c-0.21134,-0.1656 -0.39523,-0.34941 -0.54467,-0.55333c-0.29106,-0.39718 -0.19509,-1.68932 -0.09807,-2.74022l-0.70193,-0.52644l0.925,-1.23333c0.125,-0.25 0.375,-0.5 0.875,-0.5c0.59541,0 0.8363,0.35451 0.93377,0.64137c0.04278,0.11132 0.06623,0.23224 0.06623,0.35863c0,0.33333 0,0.66667 0,1c0,0.5 0,1 0,1.5c0,0.2378 0.06175,0.68347 0.09714,1.04041c0.79639,-0.31316 3.90554,0.45959 4.73619,0.45959c1.74434,0 6.07623,-1.06927 7.48289,0.05132c2.20001,1.75259 2.01711,4.10644 2.01711,6.61535l-0.48724,-0.53289c0.17142,0.25075 0.31379,0.6606 -0.05066,1.13894c-0.60604,0.79543 -1.40147,0.18939 -1.40147,0.18939l-0.06062,-0.79543c0,-1.31853 0.37649,-3.7547 -0.64956,-4.71798c-1.07046,-1.00498 -5.40943,0.05132 -6.85044,0.05132c-1.1424,0 -2.82715,-0.10241 -4.28666,-0.51354c-0.13766,0.22049 -0.32531,0.34559 -0.32531,0.34559c-1.50806,1.00538 -3.97212,2.70252 -4.27268,4.48418c-0.20082,1.19045 2.03712,1.42491 2.83333,2.86754c0.80757,2.42272 -1.78317,6.64848 -4.13246,7.43158l0.2804,-0.91436c0,0 -0.36766,0.92996 -1.29762,0.5623z" data-paper-data="{&quot;origPos&quot;:null}" fill="#000000" stroke="none" stroke-width="0.5"/><path d="M186.66276,151.54361c0.45223,0.8919 -0.43967,1.34413 -0.43967,1.34413l-0.46934,0.39012c-2.16118,0.72039 -5.07512,1.62605 -6.80224,2.60265c0.76204,0.49898 2.16707,2.46588 1.98473,3.67004c-0.23118,1.5267 -2.53495,2.03217 -3.56538,2.7453c-0.51709,0.35786 -1.13086,1.12302 -1.6908,0.83681c-0.14509,-0.07416 0.20162,-0.5035 0.03948,-0.48725c-0.09318,0.00934 -0.80761,1.56935 -1.22732,1.84916c-3.18201,1.51236 -8.87031,0.50128 -12.38803,0.50128c0,0 -1,0 -1,-1c0,-1 1,-1 1,-1c2.55556,0 5.11111,0 7.66667,0c0.56772,0 3.67786,0.03384 3.61197,-0.16538c0.67751,-0.45167 1.07925,-1.28331 1.81216,-1.63809c1.18053,-0.57146 3.37041,-1.28492 4.01404,-2.60676c-0.05921,0.11692 -0.14483,0.24808 -0.22019,0.22647c-0.70769,-0.203 -1.31767,-0.73873 -1.77268,-1.31751c-1.06388,-1.35326 -0.69971,-1.56158 0.16667,-2.99743c0.68569,-0.45712 1.36592,-0.25286 2.0547,-0.50128c1.93183,-0.69677 3.61851,-1.92693 5.68377,-2.61535l0.19733,-0.27655c0,0 0.8919,-0.45223 1.34413,0.43967z" data-paper-data="{&quot;origPos&quot;:null}" fill="#000000" stroke="none" stroke-width="0.5"/><path d="M141.77269,173.48189c-0.02127,0.10259 -0.06137,0.21239 -0.12562,0.3292c-0.48192,0.87622 -1.35813,0.3943 -1.35813,0.3943l0.49902,-2.49157c0.56276,-0.18759 0.98289,-0.02767 0.98289,-0.88465c0,-0.37314 -0.25093,-0.78486 -0.24887,-1.1418c-2.05235,0.70313 -5.0971,-0.06718 -6.97059,0.86956c0,0 -0.89443,0.44721 -1.34164,-0.44721c-0.44721,-0.89443 0.44721,-1.34164 0.44721,-1.34164c2.15682,-1.07841 4.45084,-0.80392 6.78055,-1.10557c0.18304,-0.0237 1.37227,-0.34791 1.47055,-0.31391c1.80253,0.62351 1.86278,1.90495 1.86278,3.48058c0,1.39153 -0.84233,2.18611 -1.99817,2.65272z" data-paper-data="{&quot;origPos&quot;:null}" fill="#000000" stroke="none" stroke-width="0.5"/></g><g data-paper-data="{&quot;origPos&quot;:null,&quot;index&quot;:null}" fill="#00ceff" stroke="none" stroke-width="0"><g data-paper-data="{&quot;origPos&quot;:null}"><g data-paper-data="{&quot;origPos&quot;:null}"><path d="M152.2645,186.15395v20h-4.33334v-20z" data-paper-data="{&quot;origPos&quot;:null}"/><path d="M159.93739,177.61419l-8.63101,11.33879l-3.44806,-2.62464l8.63102,-11.33879z" data-paper-data="{&quot;origPos&quot;:null,&quot;origRot&quot;:0}"/></g><g data-paper-data="{&quot;origPos&quot;:null,&quot;index&quot;:null}"><path d="M159.78832,157.82062v20h-4.33334v-20z" data-paper-data="{&quot;origPos&quot;:null}"/><path d="M167.46119,149.28085l-8.63101,11.33879l-3.44806,-2.62464l8.63102,-11.33879z" data-paper-data="{&quot;origPos&quot;:null,&quot;origRot&quot;:0}"/></g></g><g data-paper-data="{&quot;origPos&quot;:null}"><path d="M167.59785,129.34443v20h-4.33334v-20z" data-paper-data="{&quot;origPos&quot;:null}"/><path d="M177.22484,117.93949l-10.50184,14.20395l-3.44806,-2.62464l9.00167,-11.57457z" data-paper-data="{&quot;origPos&quot;:null,&quot;origRot&quot;:0}"/></g></g><g data-paper-data="{&quot;origPos&quot;:null}" fill="#00ceff" stroke="none" stroke-width="0"><g data-paper-data="{&quot;origPos&quot;:null}"><g data-paper-data="{&quot;origPos&quot;:null}"><path d="M184.59783,137.93948v-20h4.33334v20z" data-paper-data="{&quot;origPos&quot;:null}"/><path d="M193.156,149.10389l-8.63102,-11.33879l3.44806,-2.62464l8.63101,11.33879z" data-paper-data="{&quot;origPos&quot;:null,&quot;origRot&quot;:0}"/></g><g data-paper-data="{&quot;origPos&quot;:null,&quot;index&quot;:null}"><path d="M192.12164,166.27282v-20h4.33334v20z" data-paper-data="{&quot;origPos&quot;:null}"/><path d="M200.67981,177.43723l-8.63102,-11.33879l3.44806,-2.62464l8.63101,11.33879z" data-paper-data="{&quot;origPos&quot;:null,&quot;origRot&quot;:0}"/></g></g><g data-paper-data="{&quot;origPos&quot;:null}"><path d="M199.93118,194.74901v-20h4.33334v20z" data-paper-data="{&quot;origPos&quot;:null}"/><path d="M208.94328,206.14921l-9.00167,-11.57457l3.44806,-2.62464l10.50184,14.20395z" data-paper-data="{&quot;origPos&quot;:null,&quot;origRot&quot;:0}"/></g></g></g></g></svg>