<svg version="1.1" xmlns="http://www.w3.org/2000/svg" xmlns:xlink="http://www.w3.org/1999/xlink" width="58.7125" height="54.4375"><g transform="translate(-212.25507,-160.04921)"><g data-paper-data="{&quot;isPaintingLayer&quot;:true}" fill="none" fill-rule="nonzero" stroke="none" stroke-width="none" stroke-linecap="none" stroke-linejoin="miter" stroke-miterlimit="10" stroke-dasharray="" stroke-dashoffset="0" font-family="none" font-weight="none" font-size="none" text-anchor="none" style="mix-blend-mode: normal"><path d="M214,212.66671v-51h55.13514v51z" data-paper-data="{&quot;origPos&quot;:null}" fill="#8e8e8e" stroke="#000000" stroke-width="1.5" stroke-linecap="butt"/><path d="M221.38007,211.34921v-6.5875c0,0 13.51704,-13.9569 20.1875,-13.8125c5.84527,0.12653 21.0375,13.8125 21.0375,13.8125v6.5875z" data-paper-data="{&quot;origPos&quot;:null}" fill="#cd3700" stroke="#ffffff" stroke-width="1" stroke-linecap="butt"/><path d="M255.59257,181.28046c0,7.80447 -6.18407,14.13125 -13.8125,14.13125c-7.62843,0 -13.8125,-6.32678 -13.8125,-14.13125c0,-7.80447 6.18407,-14.13125 13.8125,-14.13125c7.62843,0 13.8125,6.32677 13.8125,14.13125z" data-paper-data="{&quot;origPos&quot;:null}" fill="#cd3700" stroke="#ffffff" stroke-width="1" stroke-linecap="butt"/><path d="M215.00507,191.48672c0,0 1.92309,-12.47028 7.37029,-18.54774c4.58742,-5.1182 18.34221,-10.13976 18.34221,-10.13976" data-paper-data="{&quot;origPos&quot;:null}" fill="none" stroke="#00ffe4" stroke-width="5.5" stroke-linecap="round"/><path d="M268.21757,183.04922c0,0 -1.92309,12.47028 -7.37029,18.54774c-4.58742,5.1182 -18.34221,10.13976 -18.34221,10.13976" data-paper-data="{&quot;origPos&quot;:null,&quot;index&quot;:null}" fill="none" stroke="#00ffe4" stroke-width="5.5" stroke-linecap="round"/></g></g></svg>