<svg version="1.1" xmlns="http://www.w3.org/2000/svg" xmlns:xlink="http://www.w3.org/1999/xlink" width="142.5" height="211" viewBox="0,0,142.5,211"><defs><linearGradient x1="294.99181" y1="204.07634" x2="294.99181" y2="215.25309" gradientUnits="userSpaceOnUse" id="color-1"><stop offset="0" stop-color="#cd3700"/><stop offset="1" stop-color="#ff4400"/></linearGradient><linearGradient x1="242.49602" y1="125.5944" x2="242.49602" y2="193.33333" gradientUnits="userSpaceOnUse" id="color-2"><stop offset="0" stop-color="#ca0000"/><stop offset="1" stop-color="#ff0000"/></linearGradient></defs><g transform="translate(-171.8335,-81.5)"><g data-paper-data="{&quot;isPaintingLayer&quot;:true}" fill-rule="nonzero" stroke-linejoin="miter" stroke-miterlimit="10" stroke-dasharray="" stroke-dashoffset="0" style="mix-blend-mode: normal"><path d="M174.8335,289.5v-205h136.5v205z" data-paper-data="{&quot;origPos&quot;:null}" fill="#929292" stroke="#000000" stroke-width="6" stroke-linecap="butt"/><path d="M186.1034,201.18297v-90.33333h114.5v90.33333z" data-paper-data="{&quot;origPos&quot;:null}" fill="#d19400" stroke="#000000" stroke-width="2" stroke-linecap="butt"/><path d="M183.08642,110.80331v-19.50806h120v19.50806z" data-paper-data="{&quot;origPos&quot;:null}" fill="#bebebe" stroke="#000000" stroke-width="2" stroke-linecap="butt"/><text transform="translate(184.66683,107.36579) scale(0.39773,0.46952)" font-size="40" xml:space="preserve" data-paper-data="{&quot;origPos&quot;:null}" fill="#000000" fill-rule="nonzero" stroke="#000000" stroke-width="0" stroke-linecap="butt" stroke-linejoin="miter" stroke-miterlimit="10" stroke-dasharray="" stroke-dashoffset="0" font-family="Serif" font-weight="normal" text-anchor="start" style="mix-blend-mode: normal"><tspan x="0" dy="0">Mox Ruby</tspan></text><path d="M183.24566,218.16967v-16.5h120v16.5z" data-paper-data="{&quot;origPos&quot;:null}" fill="#bebebe" stroke="#000000" stroke-width="2" stroke-linecap="butt"/><text transform="translate(289.68746,107.4889) scale(0.5,0.5)" font-size="40" xml:space="preserve" data-paper-data="{&quot;origPos&quot;:null}" fill="#000000" fill-rule="nonzero" stroke="none" stroke-width="1" stroke-linecap="butt" stroke-linejoin="miter" stroke-miterlimit="10" stroke-dasharray="" stroke-dashoffset="0" font-family="Serif" font-weight="normal" text-anchor="start" style="mix-blend-mode: normal"><tspan x="0" dy="0">0</tspan></text><text transform="translate(185.15519,214.02475) scale(0.2994,0.2994)" font-size="40" xml:space="preserve" data-paper-data="{&quot;origPos&quot;:null}" fill="#000000" fill-rule="nonzero" stroke="none" stroke-width="1" stroke-linecap="butt" stroke-linejoin="miter" stroke-miterlimit="10" stroke-dasharray="" stroke-dashoffset="0" font-family="Serif" font-weight="normal" text-anchor="start" style="mix-blend-mode: normal"><tspan x="0" dy="0">Artifact</tspan></text><path d="M289.25762,215.25309v-11.17675h11.46836v11.17675z" data-paper-data="{&quot;origPos&quot;:null}" fill="url(#color-1)" stroke="#ffffff" stroke-width="0.5" stroke-linecap="butt"/><text transform="translate(291.43336,213.68113) scale(0.29546,0.29546)" font-size="40" xml:space="preserve" data-paper-data="{&quot;origPos&quot;:null}" fill="#ffffff" fill-rule="nonzero" stroke="none" stroke-width="1" stroke-linecap="butt" stroke-linejoin="miter" stroke-miterlimit="10" stroke-dasharray="" stroke-dashoffset="0" font-family="Handwriting" font-weight="normal" text-anchor="start" style="mix-blend-mode: normal"><tspan x="0" dy="0">S</tspan></text><path d="M183.24558,271.16967v-53h120v53z" data-paper-data="{&quot;origPos&quot;:null}" fill="#bebebe" stroke="#000000" stroke-width="2" stroke-linecap="butt"/><text transform="translate(188.41409,234.41086) scale(0.27609,0.27609)" font-size="40" xml:space="preserve" data-paper-data="{&quot;origPos&quot;:null}" fill="#000000" fill-rule="nonzero" stroke="none" stroke-width="1" stroke-linecap="butt" stroke-linejoin="miter" stroke-miterlimit="10" stroke-dasharray="" stroke-dashoffset="0" font-family="Serif" font-weight="normal" text-anchor="start" style="mix-blend-mode: normal"><tspan x="0" dy="0">     : Add      .</tspan></text><g data-paper-data="{&quot;origPos&quot;:null}" stroke="#000000"><path d="M200.45177,231.52588c0,3.89184 -3.22355,7.04681 -7.2,7.04681c-3.97645,0 -7.2,-3.15497 -7.2,-7.04681c0,-3.89184 3.22355,-7.04681 7.2,-7.04681c3.97645,0 7.2,3.15497 7.2,7.04681z" data-paper-data="{&quot;origPos&quot;:null}" fill="#bebebe" stroke-width="0.5" stroke-linecap="butt"/><g data-paper-data="{&quot;origPos&quot;:null}" fill="none" stroke-width="2" stroke-linecap="round"><path d="M195.58261,234.69834c0,0 -2.2739,1.50598 -4.49127,0.38725c-1.97735,-0.99762 -2.19859,-2.7831 -2.11893,-4.15255c0.10865,-1.53849 1.01262,-2.83368 3.33463,-3.49919c4.63831,-0.47169 4.4065,3.46115 4.4065,3.46115" data-paper-data="{&quot;origPos&quot;:null}"/><path d="M198.20062,229.08229l-1.27363,2.47612c0,0 -2.02006,-1.76411 -2.03111,-1.79218" data-paper-data="{&quot;origPos&quot;:null,&quot;origRot&quot;:0}"/></g></g><path d="M242.57858,230.60922c0,3.38558 -2.80422,6.13014 -6.26341,6.13014c-3.45918,0 -6.26341,-2.74456 -6.26341,-6.13014c0,-3.38558 2.80422,-6.13014 6.26341,-6.13014c3.45918,0 6.26341,2.74456 6.26341,6.13014z" data-paper-data="{&quot;origPos&quot;:null}" fill="#e04a4a" stroke="#000000" stroke-width="0.5" stroke-linecap="butt"/><path d="M240.04401,232.4004c-0.65593,0.68424 -0.44542,0.60411 -1.02784,1.03225c-0.55718,0.40958 -1.35673,0.69568 -2.00149,0.94571c-0.66119,0.25641 -1.10398,0.23012 -1.92675,0.23701c-0.84591,0.04284 -1.07272,-0.00351 -1.68521,-0.09192c-0.03996,-0.00577 -1.38989,-0.03938 -1.33045,-1.86031c0.02083,-0.63804 0.29644,-1.63115 1.48154,-2.02175c0.07915,-0.02609 0.43932,-0.03763 2.13921,-0.36635c0.67593,0.12759 1.09483,0.05005 1.93084,0.63801c0.42138,0.29635 0.59073,0.04784 1.08694,-0.09063c0.73159,-0.20415 0.83559,-0.4152 0.83857,-0.82105c-0.0445,-0.73786 -0.60865,-1.1611 -1.42446,-1.47752c-1.26365,-0.32781 -1.71021,-0.47948 -2.90679,-0.62109c-0.65384,-0.14723 -1.98244,-0.76279 -1.98244,-0.76279c0,0 2.22413,-0.50604 2.25999,-0.49141c1.69121,0.09101 3.77821,0.74635 4.91219,2.06753c0,0 0.48648,0.67779 0.45775,1.31807c-0.03748,0.83523 -0.23014,1.69149 -0.82158,2.36623z" data-paper-data="{&quot;origPos&quot;:null}" fill="#e02222" stroke="#000000" stroke-width="0.5" stroke-linecap="butt"/><g data-paper-data="{&quot;origPos&quot;:null}" stroke="#000000"><path d="M242.85024,193.33333l-38.75042,-53.54604l-0.34338,-8.07228l5.15651,-5.43408l67.15172,-0.68653l5.17093,5.28505l-0.33949,8.20329z" data-paper-data="{&quot;origPos&quot;:null}" fill="url(#color-2)" stroke-width="3" stroke-linecap="butt"/><path d="M204.59219,138.48104l73.91769,-0.68443" data-paper-data="{&quot;origPos&quot;:null}" fill="none" stroke-width="1.5" stroke-linecap="round"/><path d="M242.15361,190.5621l-24.3561,-51.92002l7.64943,-11.67545" data-paper-data="{&quot;origPos&quot;:null}" fill="none" stroke-width="1.5" stroke-linecap="round"/><path d="M257.65504,126.56403l9.86374,11.67545l-24.45481,53.02652" data-paper-data="{&quot;origPos&quot;:null}" fill="none" stroke-width="1.5" stroke-linecap="round"/></g><text transform="translate(177.91209,283.80954) scale(0.23338,0.23338)" font-size="40" xml:space="preserve" data-paper-data="{&quot;origPos&quot;:null}" fill="#000000" fill-rule="nonzero" stroke="none" stroke-width="1" stroke-linecap="butt" stroke-linejoin="miter" stroke-miterlimit="10" stroke-dasharray="" stroke-dashoffset="0" font-family="Sans Serif" font-weight="normal" text-anchor="start" style="mix-blend-mode: normal"><tspan x="0" dy="0">(c)pthiel23</tspan></text><path d="M252.87022,279.76382c0,2.68369 -4.51848,4.85926 -10.09231,4.85926c-5.57383,0 -10.09231,-2.17556 -10.09231,-4.85926c0,-2.68369 4.51848,-4.85926 10.09231,-4.85926c5.57383,0 10.09231,2.17556 10.09231,4.85926z" data-paper-data="{&quot;origPos&quot;:null}" fill="#ffffff" stroke="#000000" stroke-width="2" stroke-linecap="butt"/></g></g></svg>