<svg version="1.1" xmlns="http://www.w3.org/2000/svg" xmlns:xlink="http://www.w3.org/1999/xlink" width="164.00016" height="378.50297" viewBox="0,0,164.00016,378.50297"><g transform="translate(-161.9167,34.20697)"><g data-paper-data="{&quot;isPaintingLayer&quot;:true}" fill="none" fill-rule="nonzero" stroke="none" stroke-width="none" stroke-linecap="none" stroke-linejoin="miter" stroke-miterlimit="10" stroke-dasharray="" stroke-dashoffset="0" font-family="none" font-weight="none" font-size="none" text-anchor="none" style="mix-blend-mode: normal"><text transform="translate(165.33337,258.87925) scale(6.83334,6.83334)" font-size="40" xml:space="preserve" data-paper-data="{&quot;origPos&quot;:null}" fill="#d9d9d9" fill-rule="nonzero" stroke="#6f6f6f" stroke-width="1" stroke-linecap="butt" stroke-linejoin="miter" stroke-miterlimit="10" stroke-dasharray="" stroke-dashoffset="0" font-family="Sans Serif" font-weight="normal" text-anchor="start" style="mix-blend-mode: normal"><tspan x="0" dy="0">S</tspan></text><path d="M270.48498,188.16667c0,0 -3.80713,-32.48405 -3.80089,-32.68871c-0.98233,-8.13681 -1.72442,-12.69644 -3.56834,-17.7304c-0.61464,-1.67799 -2.61345,-7.31828 -3.48995,-8.54344c-0.04377,-0.1747 -7.1258,-11.37078 -7.1258,-11.37078l2.9975,-26l3.036,20.55186l4.58767,-33.16599l4.55003,32.63784l3.83931,-40.36896l3.7952,40.91451l4.16692,-31.28581l3.0768,32.13487l3.61832,-20.90293l2.66557,25.48463c0,0 -7.08204,11.19608 -7.12581,11.37078c-0.87651,1.22516 -2.87531,6.86545 -3.48995,8.54344c-1.84393,5.03396 -2.58601,9.59359 -3.56834,17.7304c0.00623,0.20466 -3.80089,32.68871 -3.80089,32.68871" data-paper-data="{&quot;origPos&quot;:null,&quot;index&quot;:null}" fill="#ff7400" stroke="#ffb100" stroke-width="2.5" stroke-linecap="round"/></g></g></svg>