<svg version="1.1" xmlns="http://www.w3.org/2000/svg" xmlns:xlink="http://www.w3.org/1999/xlink" width="142.5" height="211"><defs><linearGradient x1="294.99181" y1="204.07634" x2="294.99181" y2="215.25309" gradientUnits="userSpaceOnUse" id="color-1"><stop offset="0" stop-color="#cd3700"/><stop offset="1" stop-color="#ff4400"/></linearGradient><linearGradient x1="241.06813" y1="111.90196" x2="241.06813" y2="182.95535" gradientUnits="userSpaceOnUse" id="color-2"><stop offset="0" stop-color="#31d6ff"/><stop offset="1" stop-color="#31d6ff" stop-opacity="0"/></linearGradient></defs><g transform="translate(-171.83351,-81.5)"><g data-paper-data="{&quot;isPaintingLayer&quot;:true}" fill="none" fill-rule="nonzero" stroke="none" stroke-width="none" stroke-linecap="butt" stroke-linejoin="miter" stroke-miterlimit="10" stroke-dasharray="" stroke-dashoffset="0" font-family="none" font-weight="none" font-size="none" text-anchor="none" style="mix-blend-mode: normal"><path d="M174.83352,289.5v-205h136.5v205z" data-paper-data="{&quot;origPos&quot;:null}" fill="#00c6c6" stroke="#000000" stroke-width="6"/><path d="M186.1035,201.18297v-90.33333h114.5v90.33333z" data-paper-data="{&quot;origPos&quot;:null}" fill="#000000" stroke="#000000" stroke-width="2"/><path d="M183.08647,110.80331v-19.50806h120v19.50806z" data-paper-data="{&quot;origPos&quot;:null}" fill="#bebebe" stroke="#000000" stroke-width="2"/><g data-paper-data="{&quot;origPos&quot;:null}" stroke="#000000" stroke-width="0.5"><path d="M300.25712,101.00757c0,3.89674 -3.2276,7.05568 -7.20906,7.05568c-3.98146,0 -7.20906,-3.15894 -7.20906,-7.05568c0,-3.89674 3.2276,-7.05568 7.20906,-7.05568c3.98146,0 7.20906,3.15894 7.20906,7.05568z" data-paper-data="{&quot;origPos&quot;:null}" fill="#00c6c6"/><path d="M296.11172,102.3707c0,1.53676 -1.3973,2.78255 -3.12096,2.78255c-1.72367,0 -3.12098,-1.24578 -3.12098,-2.78255c0,-1.53676 1.54771,-6.994 3.27139,-6.994c1.72367,0 2.97055,5.45722 2.97055,6.994z" data-paper-data="{&quot;origPos&quot;:null}" fill="#009090"/></g><path d="M183.24567,271.16967v-53h120v53z" data-paper-data="{&quot;origPos&quot;:null}" fill="#bebebe" stroke="#000000" stroke-width="2"/><text transform="translate(184.66688,106.75811) scale(0.37004,0.43683)" font-size="40" xml:space="preserve" data-paper-data="{&quot;origPos&quot;:null}" fill="#000000" fill-rule="nonzero" stroke="#000000" stroke-width="0" stroke-linecap="butt" stroke-linejoin="miter" stroke-miterlimit="10" stroke-dasharray="" stroke-dashoffset="0" font-family="Serif" font-weight="normal" text-anchor="start" style="mix-blend-mode: normal"><tspan x="0" dy="0">Ancestral Recall</tspan></text><path d="M183.24567,218.16967v-16.5h120v16.5z" data-paper-data="{&quot;origPos&quot;:null}" fill="#bebebe" stroke="#000000" stroke-width="2"/><text transform="translate(185.15515,214.02475) scale(0.2994,0.2994)" font-size="40" xml:space="preserve" data-paper-data="{&quot;origPos&quot;:null}" fill="#000000" fill-rule="nonzero" stroke="none" stroke-width="1" stroke-linecap="butt" stroke-linejoin="miter" stroke-miterlimit="10" stroke-dasharray="" stroke-dashoffset="0" font-family="Serif" font-weight="normal" text-anchor="start" style="mix-blend-mode: normal"><tspan x="0" dy="0">Instant</tspan></text><text transform="translate(186.26806,229.24419) scale(0.27609,0.27609)" font-size="40" xml:space="preserve" data-paper-data="{&quot;origPos&quot;:null}" fill="#000000" fill-rule="nonzero" stroke="none" stroke-width="1" stroke-linecap="butt" stroke-linejoin="miter" stroke-miterlimit="10" stroke-dasharray="" stroke-dashoffset="0" font-family="Serif" font-weight="normal" text-anchor="start" style="mix-blend-mode: normal"><tspan x="0" dy="0">Target player draws three</tspan><tspan x="0" dy="48px">cards.</tspan></text><path d="M289.25766,215.25309v-11.17675h11.46836v11.17675z" data-paper-data="{&quot;origPos&quot;:null}" fill="url(#color-1)" stroke="#ffffff" stroke-width="0.5"/><text transform="translate(291.43336,213.68113) scale(0.29546,0.29546)" font-size="40" xml:space="preserve" data-paper-data="{&quot;origPos&quot;:null}" fill="#ffffff" fill-rule="nonzero" stroke="none" stroke-width="1" stroke-linecap="butt" stroke-linejoin="miter" stroke-miterlimit="10" stroke-dasharray="" stroke-dashoffset="0" font-family="Handwriting" font-weight="normal" text-anchor="start" style="mix-blend-mode: normal"><tspan x="0" dy="0">S</tspan></text><path d="M186.45957,200.17161v-10.0923h113.85384v10.0923z" fill="#00c910" stroke="#000000" stroke-width="2"/><path d="M255.37264,192.62929c0,0 -0.16384,-25.91818 1.93242,-36.21772c2.755,-13.53609 22.09623,-9.04342 23.62025,1.26028c1.48526,10.04166 -1.19262,36.13463 -1.19262,36.13463z" data-paper-data="{&quot;origPos&quot;:null,&quot;origRot&quot;:0}" fill="#8a8a8a" stroke="#8a8a8a" stroke-width="2"/><path d="M196.23024,194.5766c0,0 -3.81214,-25.63682 -3.18721,-36.12893c0.82132,-13.78917 20.60248,-12.06501 23.56233,-2.07862c2.88458,9.73243 3.90795,35.94248 3.90795,35.94248z" data-paper-data="{&quot;origPos&quot;:null,&quot;origRot&quot;:0}" fill="#8a8a8a" stroke="#8a8a8a" stroke-width="2"/><path d="M204.0357,195.99103c-6.39564,-9.80665 17.26637,-39.40105 13,-57.51667c-4.26637,-18.11562 -25.33143,-26.49557 -25.33143,-26.49557l98.72781,-0.07683c0,0 -24.87086,12.18762 -28.14638,27.0724c-3.27551,14.88477 22.49447,51.5353 12.96676,58.75573c-6.9562,5.27165 -19.84352,-44.16921 -32.02797,-44.0265c-13.98173,-0.20106 -32.79315,52.09409 -39.18879,42.28744z" data-paper-data="{&quot;origPos&quot;:null}" fill="url(#color-2)" stroke="none" stroke-width="0"/><text transform="translate(177.91213,283.80954) scale(0.23338,0.23338)" font-size="40" xml:space="preserve" data-paper-data="{&quot;origPos&quot;:null}" fill="#000000" fill-rule="nonzero" stroke="none" stroke-width="1" stroke-linecap="butt" stroke-linejoin="miter" stroke-miterlimit="10" stroke-dasharray="" stroke-dashoffset="0" font-family="Sans Serif" font-weight="normal" text-anchor="start" style="mix-blend-mode: normal"><tspan x="0" dy="0">(c)pthiel23</tspan></text><path d="M252.87022,279.76382c0,2.68369 -4.51848,4.85926 -10.09231,4.85926c-5.57383,0 -10.09231,-2.17556 -10.09231,-4.85926c0,-2.68369 4.51848,-4.85926 10.09231,-4.85926c5.57383,0 10.09231,2.17556 10.09231,4.85926z" data-paper-data="{&quot;origPos&quot;:null}" fill="#ffffff" stroke="#000000" stroke-width="2"/></g></g></svg>