<svg version="1.1" xmlns="http://www.w3.org/2000/svg" xmlns:xlink="http://www.w3.org/1999/xlink" width="164.46296" height="269.49999" viewBox="0,0,164.46296,269.49999"><defs><linearGradient x1="173.00003" y1="118.85769" x2="173.00003" y2="205.55556" gradientUnits="userSpaceOnUse" id="color-1"><stop offset="0" stop-color="#00d8cd"/><stop offset="1" stop-color="#002725"/></linearGradient><linearGradient x1="172.31713" y1="135.82627" x2="172.31713" y2="206.46034" gradientUnits="userSpaceOnUse" id="color-2"><stop offset="0" stop-color="#ffffff" stop-opacity="0"/><stop offset="1" stop-color="#ffffff"/></linearGradient><linearGradient x1="172.31713" y1="156.82627" x2="172.31713" y2="206.46034" gradientUnits="userSpaceOnUse" id="color-3"><stop offset="0" stop-color="#ffffff" stop-opacity="0"/><stop offset="1" stop-color="#ffffff"/></linearGradient></defs><g transform="translate(-90.28709,-64.05003)"><g data-paper-data="{&quot;isPaintingLayer&quot;:true}" fill-rule="nonzero" stroke-linejoin="miter" stroke-miterlimit="10" stroke-dasharray="" stroke-dashoffset="0" style="mix-blend-mode: normal"><path d="M93.03709,330.80002v-263h158.96296v263z" data-paper-data="{&quot;origPos&quot;:null}" fill="#828282" stroke="#000000" stroke-width="5.5" stroke-linecap="butt"/><text transform="translate(123.00005,85.80003) scale(0.5,0.5)" font-size="40" xml:space="preserve" data-paper-data="{&quot;origPos&quot;:null}" fill="#000000" fill-rule="nonzero" stroke="none" stroke-width="1" stroke-linecap="butt" stroke-linejoin="miter" stroke-miterlimit="10" stroke-dasharray="" stroke-dashoffset="0" font-family="Sans Serif" font-weight="normal" text-anchor="start" style="mix-blend-mode: normal"><tspan x="0" dy="0">The Stack</tspan></text><path d="M103.8335,295.5v-205h136.5v205z" data-paper-data="{&quot;origPos&quot;:null}" fill="#00c6c6" stroke="#000000" stroke-width="6" stroke-linecap="butt"/><path d="M112.08641,116.80331v-19.50806h120v19.50806z" data-paper-data="{&quot;origPos&quot;:null}" fill="#bebebe" stroke="#000000" stroke-width="2" stroke-linecap="butt"/><path d="M115.10347,207.18297v-90.33333h114.5v90.33333z" data-paper-data="{&quot;origPos&quot;:null}" fill="#000000" stroke="#000000" stroke-width="2" stroke-linecap="butt"/><path d="M116.00003,206.22222l-0.00955,-62.69098l13.27008,8.21684l8.88055,-30.20098l12.08753,30.19919l13.4512,-31.60141l14.02098,30.56183l8.14661,-31.84901l14.05116,26.08584l7.73244,-20.32244l7.38409,21.05888l13.84852,-14.0621l-0.19693,74.84246z" data-paper-data="{&quot;origPos&quot;:null}" fill="url(#color-1)" stroke="none" stroke-width="0" stroke-linecap="butt"/><path d="M112.24565,224.16967v-16.5h120v16.5z" data-paper-data="{&quot;origPos&quot;:null}" fill="#bebebe" stroke="#000000" stroke-width="2" stroke-linecap="butt"/><path d="M112.24565,277.16967v-53h120v53z" data-paper-data="{&quot;origPos&quot;:null}" fill="#bebebe" stroke="#000000" stroke-width="2" stroke-linecap="butt"/><text transform="translate(113.26803,235.91086) scale(0.27609,0.27609)" font-size="40" xml:space="preserve" data-paper-data="{&quot;origPos&quot;:null}" fill="#000000" fill-rule="nonzero" stroke="none" stroke-width="1" stroke-linecap="butt" stroke-linejoin="miter" stroke-miterlimit="10" stroke-dasharray="" stroke-dashoffset="0" font-family="Serif" font-weight="normal" text-anchor="start" style="mix-blend-mode: normal"><tspan x="0" dy="0">Draw two cards</tspan></text><text transform="translate(114.15518,220.02475) scale(0.2994,0.2994)" font-size="40" xml:space="preserve" data-paper-data="{&quot;origPos&quot;:null}" fill="#000000" fill-rule="nonzero" stroke="none" stroke-width="1" stroke-linecap="butt" stroke-linejoin="miter" stroke-miterlimit="10" stroke-dasharray="" stroke-dashoffset="0" font-family="Serif" font-weight="normal" text-anchor="start" style="mix-blend-mode: normal"><tspan x="0" dy="0">Sorcery</tspan></text><path d="M218.25765,221.25309v-11.17675h11.46836v11.17675z" data-paper-data="{&quot;origPos&quot;:null}" fill="#000000" stroke="#ffffff" stroke-width="0.5" stroke-linecap="butt"/><text transform="translate(220.43336,219.68113) scale(0.29546,0.29546)" font-size="40" xml:space="preserve" data-paper-data="{&quot;origPos&quot;:null}" fill="#ffffff" fill-rule="nonzero" stroke="none" stroke-width="1" stroke-linecap="butt" stroke-linejoin="miter" stroke-miterlimit="10" stroke-dasharray="" stroke-dashoffset="0" font-family="Handwriting" font-weight="normal" text-anchor="start" style="mix-blend-mode: normal"><tspan x="0" dy="0">S</tspan></text><g data-paper-data="{&quot;origPos&quot;:null}" stroke="#000000" stroke-width="0.5" stroke-linecap="butt"><path d="M229.25712,107.00757c0,3.89674 -3.2276,7.05568 -7.20906,7.05568c-3.98146,0 -7.20906,-3.15894 -7.20906,-7.05568c0,-3.89674 3.2276,-7.05568 7.20906,-7.05568c3.98146,0 7.20906,3.15894 7.20906,7.05568z" data-paper-data="{&quot;origPos&quot;:null}" fill="#00c6c6"/><path d="M225.11172,108.3707c0,1.53676 -1.3973,2.78255 -3.12096,2.78255c-1.72367,0 -3.12098,-1.24578 -3.12098,-2.78255c0,-1.53676 1.54771,-6.994 3.27139,-6.994c1.72367,0 2.97055,5.45722 2.97055,6.994z" data-paper-data="{&quot;origPos&quot;:null}" fill="#009090"/></g><text transform="translate(204.86726,113.4889) scale(0.5,0.5)" font-size="40" xml:space="preserve" data-paper-data="{&quot;origPos&quot;:null}" fill="#000000" fill-rule="nonzero" stroke="none" stroke-width="1" stroke-linecap="butt" stroke-linejoin="miter" stroke-miterlimit="10" stroke-dasharray="" stroke-dashoffset="0" font-family="Serif" font-weight="normal" text-anchor="start" style="mix-blend-mode: normal"><tspan x="0" dy="0">2</tspan></text><text transform="translate(113.6668,113.36579) scale(0.39773,0.46952)" font-size="40" xml:space="preserve" data-paper-data="{&quot;origPos&quot;:null}" fill="#000000" fill-rule="nonzero" stroke="#000000" stroke-width="0" stroke-linecap="butt" stroke-linejoin="miter" stroke-miterlimit="10" stroke-dasharray="" stroke-dashoffset="0" font-family="Serif" font-weight="normal" text-anchor="start" style="mix-blend-mode: normal"><tspan x="0" dy="0">Divination</tspan></text><path d="M116.32812,206.26835l-0.00948,-50.54778l13.16708,6.62524l8.81161,-24.35108l11.9937,24.34963l13.34679,-25.48023l13.91213,24.64202l8.08337,-25.67988l13.94209,21.03303l7.67242,-16.386l7.32677,16.97979l13.74102,-11.33828l-0.1954,60.34553z" data-paper-data="{&quot;origPos&quot;:null}" fill="url(#color-2)" stroke="none" stroke-width="0" stroke-linecap="butt"/><g stroke="#000000" stroke-width="2.5"><path d="M169.00003,207.22222v-45h1.33334v45z" data-paper-data="{&quot;origPos&quot;:null}" fill="none" stroke-linecap="butt"/><path d="M169.83337,160.88888c-8.9286,0 -16.16667,-7.46191 -16.16667,-16.66666c0,-9.20475 7.23806,-16.66667 16.16667,-16.66667c8.9286,0 16.16666,7.46192 16.16666,16.66667c0,9.20474 -7.23805,16.66666 -16.16666,16.66666z" data-paper-data="{&quot;origPos&quot;:null}" fill="#000000" stroke-linecap="butt"/><path d="M206.33338,163.88888c0,0 -9.72319,15.9529 -15.21311,16.32241c-8.50863,0.57268 -21.78689,-17.32241 -21.78689,-17.32241c0,0 -14.64264,14.66184 -24.46799,18.15262c-4.82998,1.71601 -13.53202,-17.81928 -13.53202,-17.81928" data-paper-data="{&quot;origPos&quot;:null}" fill="none" stroke-linecap="round"/></g><path d="M116.32812,206.32543l-0.00948,-35.51957l13.16708,4.65551l8.81161,-17.11133l11.9937,17.11032l13.34679,-17.90478l13.91213,17.31578l8.08337,-18.04507l13.94209,14.77976l7.67242,-11.51433l7.32677,11.93158l13.74102,-7.96733l-0.1954,42.40438z" data-paper-data="{&quot;origPos&quot;:null}" fill="url(#color-3)" stroke="none" stroke-width="0" stroke-linecap="butt"/><text transform="translate(106.91208,289.80954) scale(0.23338,0.23338)" font-size="40" xml:space="preserve" data-paper-data="{&quot;origPos&quot;:null}" fill="#000000" fill-rule="nonzero" stroke="none" stroke-width="1" stroke-linecap="butt" stroke-linejoin="miter" stroke-miterlimit="10" stroke-dasharray="" stroke-dashoffset="0" font-family="Sans Serif" font-weight="normal" text-anchor="start" style="mix-blend-mode: normal"><tspan x="0" dy="0">(c)pthiel23</tspan></text></g></g></svg>