<svg version="1.1" xmlns="http://www.w3.org/2000/svg" xmlns:xlink="http://www.w3.org/1999/xlink" width="142.5" height="211" viewBox="0,0,142.5,211"><defs><linearGradient x1="183.24559" y1="244.66967" x2="303.24559" y2="244.66967" gradientUnits="userSpaceOnUse" id="color-1"><stop offset="0" stop-color="#00c6c6"/><stop offset="1" stop-color="#ff4d4d"/></linearGradient><linearGradient x1="183.08636" y1="101.04928" x2="303.08636" y2="101.04928" gradientUnits="userSpaceOnUse" id="color-2"><stop offset="0" stop-color="#00c6c6"/><stop offset="1" stop-color="#ff4d4d"/></linearGradient><linearGradient x1="183.2456" y1="209.91967" x2="303.2456" y2="209.91967" gradientUnits="userSpaceOnUse" id="color-3"><stop offset="0" stop-color="#00c6c6"/><stop offset="1" stop-color="#ff4d4d"/></linearGradient><linearGradient x1="295.15624" y1="200.12325" x2="295.15624" y2="221.53171" gradientTransform="translate(-647.61111,-484.6972) scale(2.2421,2.2421)" gradientUnits="userSpaceOnUse" id="color-4"><stop offset="0" stop-color="#d1a500"/><stop offset="1" stop-color="#ffca00"/></linearGradient></defs><g transform="translate(-172.07822,-81.5)"><g data-paper-data="{&quot;isPaintingLayer&quot;:true}" fill-rule="nonzero" stroke-linejoin="miter" stroke-miterlimit="10" stroke-dasharray="" stroke-dashoffset="0" style="mix-blend-mode: normal"><path d="M175.07822,289.5v-205h136.5v205z" data-paper-data="{&quot;origPos&quot;:null,&quot;index&quot;:null}" fill="#987209" stroke="#000000" stroke-width="6" stroke-linecap="butt"/><path d="M183.24559,271.16967v-53h120v53z" data-paper-data="{&quot;origPos&quot;:null,&quot;index&quot;:null}" fill="url(#color-1)" stroke="#000000" stroke-width="2" stroke-linecap="butt"/><path d="M183.08636,110.80331v-19.50806h120v19.50806z" data-paper-data="{&quot;origPos&quot;:null,&quot;index&quot;:null}" fill="url(#color-2)" stroke="#000000" stroke-width="2" stroke-linecap="butt"/><text transform="translate(184.66677,107.36579) scale(0.39773,0.46952)" font-size="40" xml:space="preserve" data-paper-data="{&quot;origPos&quot;:null,&quot;index&quot;:null}" fill="#000000" fill-rule="nonzero" stroke="#000000" stroke-width="0" stroke-linecap="butt" stroke-linejoin="miter" stroke-miterlimit="10" stroke-dasharray="" stroke-dashoffset="0" font-family="Serif" font-weight="normal" text-anchor="start" style="mix-blend-mode: normal"><tspan x="0" dy="0">Shivan Reef</tspan></text><path d="M186.24629,201.18297v-90.33333h114.5v90.33333z" data-paper-data="{&quot;origPos&quot;:null,&quot;index&quot;:null}" fill="#ffffff" stroke="#000000" stroke-width="2" stroke-linecap="butt"/><path d="M183.2456,218.16967v-16.5h120v16.5z" data-paper-data="{&quot;origPos&quot;:null,&quot;index&quot;:null}" fill="url(#color-3)" stroke="#000000" stroke-width="2" stroke-linecap="butt"/><text transform="translate(177.91212,283.80954) scale(0.23337,0.23337)" font-size="40" xml:space="preserve" data-paper-data="{&quot;origPos&quot;:null,&quot;index&quot;:null}" fill="#000000" fill-rule="nonzero" stroke="none" stroke-width="1" stroke-linecap="butt" stroke-linejoin="miter" stroke-miterlimit="10" stroke-dasharray="" stroke-dashoffset="0" font-family="Sans Serif" font-weight="normal" text-anchor="start" style="mix-blend-mode: normal"><tspan x="0" dy="0">(c)[pending]</tspan></text><path d="M253.23161,279.76382c0,2.68369 -4.51848,4.85926 -10.09231,4.85926c-5.57383,0 -10.09231,-2.17556 -10.09231,-4.85926c0,-2.68369 4.51848,-4.85926 10.09231,-4.85926c5.57383,0 10.09231,2.17556 10.09231,4.85926z" data-paper-data="{&quot;origPos&quot;:null,&quot;index&quot;:null}" fill="#ffffff" stroke="#000000" stroke-width="2" stroke-linecap="butt"/><text transform="translate(185.1553,214.02475) scale(0.2994,0.2994)" font-size="40" xml:space="preserve" data-paper-data="{&quot;origPos&quot;:null,&quot;index&quot;:null}" fill="#000000" fill-rule="nonzero" stroke="none" stroke-width="1" stroke-linecap="butt" stroke-linejoin="miter" stroke-miterlimit="10" stroke-dasharray="" stroke-dashoffset="0" font-family="Serif" font-weight="normal" text-anchor="start" style="mix-blend-mode: normal"><tspan x="0" dy="0">Land</tspan></text><path d="M198.7963,226.64072c0,3.5902 -2.9737,6.50064 -6.64195,6.50064c-3.66825,0 -6.64195,-2.91044 -6.64195,-6.50064c0,-3.5902 2.9737,-6.50064 6.64195,-6.50064c3.66825,0 6.64195,2.91044 6.64195,6.50064z" data-paper-data="{&quot;origPos&quot;:null}" fill="#bebebe" stroke="#000000" stroke-width="0.5" stroke-linecap="butt"/><g data-paper-data="{&quot;origPos&quot;:null}" fill="none" stroke="#000000" stroke-width="2" stroke-linecap="round"><path d="M194.30454,229.5673c0,0 -2.09766,1.38926 -4.14317,0.35724c-1.82409,-0.9203 -2.02819,-2.56739 -1.9547,-3.8307c0.10023,-1.41925 0.93414,-2.61405 3.07617,-3.22798c4.27881,-0.43513 4.06497,3.19289 4.06497,3.19289" data-paper-data="{&quot;origPos&quot;:null}"/><path d="M196.71963,224.38653l-1.17492,2.2842c0,0 -1.86349,-1.62738 -1.87369,-1.65327" data-paper-data="{&quot;origPos&quot;:null,&quot;origRot&quot;:0}"/></g><g data-paper-data="{&quot;origPos&quot;:null}" fill="#9e9e9e" stroke="#000000" stroke-linecap="butt"><path d="M238.09013,225.78634c0,3.15547 -2.62846,5.71349 -5.87085,5.71349c-3.24239,0 -5.87085,-2.55802 -5.87085,-5.71349c0,-3.15547 2.62846,-5.71349 5.87085,-5.71349c3.24239,0 5.87085,2.55802 5.87085,5.71349z" data-paper-data="{&quot;origPos&quot;:null}" stroke-width="0.5"/><path d="M228.566,225.72327l3.7158,-3.56999l3.53886,3.7485l-3.7158,3.56999z" data-paper-data="{&quot;origRot&quot;:0,&quot;origPos&quot;:null}" stroke-width="2"/></g><text transform="translate(187.69162,243.1395) scale(0.25469,0.25469)" font-size="40" xml:space="preserve" data-paper-data="{&quot;origPos&quot;:null}" fill="#000000" fill-rule="nonzero" stroke="none" stroke-width="1" stroke-linecap="butt" stroke-linejoin="miter" stroke-miterlimit="10" stroke-dasharray="" stroke-dashoffset="0" font-family="Serif" font-weight="normal" text-anchor="start" style="mix-blend-mode: normal"><tspan x="0" dy="0">     : Add       or      . Shivan</tspan><tspan x="0" dy="48px">Reef deals 1 damage to you</tspan></text><path d="M198.7963,240.47813c0,3.5902 -2.9737,6.50064 -6.64195,6.50064c-3.66825,0 -6.64195,-2.91044 -6.64195,-6.50064c0,-3.5902 2.9737,-6.50064 6.64195,-6.50064c3.66825,0 6.64195,2.91044 6.64195,6.50064z" data-paper-data="{&quot;origPos&quot;:null}" fill="#bebebe" stroke="#000000" stroke-width="0.5" stroke-linecap="butt"/><g data-paper-data="{&quot;origPos&quot;:null}" fill="none" stroke="#000000" stroke-width="2" stroke-linecap="round"><path d="M194.30454,243.4047c0,0 -2.09766,1.38926 -4.14317,0.35724c-1.82409,-0.9203 -2.02819,-2.56739 -1.9547,-3.8307c0.10023,-1.41925 0.93414,-2.61405 3.07617,-3.22798c4.27881,-0.43513 4.06497,3.19289 4.06497,3.19289" data-paper-data="{&quot;origPos&quot;:null}"/><path d="M196.71963,238.22393l-1.17492,2.2842c0,0 -1.86349,-1.62738 -1.87369,-1.65327" data-paper-data="{&quot;origPos&quot;:null,&quot;origRot&quot;:0}"/></g><g data-paper-data="{&quot;origPos&quot;:null}" stroke="#000000" stroke-width="0.5" stroke-linecap="butt"><path d="M237.66528,239.93719c0,3.15258 -2.61123,5.70827 -5.83236,5.70827c-3.22113,0 -5.83236,-2.55569 -5.83236,-5.70827c0,-3.15258 2.61123,-5.70827 5.83236,-5.70827c3.22113,0 5.83236,2.55569 5.83236,5.70827z" data-paper-data="{&quot;origPos&quot;:null}" fill="#00c6c6"/><path d="M234.31158,241.04c0,1.24329 -1.13046,2.25117 -2.52496,2.25117c-1.39451,0 -2.52497,-1.00788 -2.52497,-2.25117c0,-1.24329 1.25216,-5.65837 2.64666,-5.65837c1.39451,0 2.40327,4.41507 2.40327,5.65837z" data-paper-data="{&quot;origPos&quot;:null}" fill="#009090"/></g><g data-paper-data="{&quot;origPos&quot;:null}" stroke="#000000" stroke-width="0.5" stroke-linecap="butt"><path d="M264.60049,239.94001c0,3.12318 -2.58688,5.65501 -5.77796,5.65501c-3.19107,0 -5.77796,-2.53184 -5.77796,-5.65501c0,-3.12318 2.58688,-5.65501 5.77796,-5.65501c3.19107,0 5.77796,2.53184 5.77796,5.65501z" data-paper-data="{&quot;origPos&quot;:null}" fill="#e04a4a"/><path d="M262.26236,241.59237c-0.60509,0.63121 -0.4109,0.55729 -0.94818,0.95224c-0.51399,0.37783 -1.25157,0.64176 -1.84636,0.87241c-0.60994,0.23654 -1.01841,0.21228 -1.77741,0.21864c-0.78035,0.03952 -0.98958,-0.00324 -1.5546,-0.0848c-0.03686,-0.00532 -1.28216,-0.03633 -1.22733,-1.71612c0.01922,-0.58859 0.27346,-1.50473 1.36671,-1.86505c0.07302,-0.02407 0.40527,-0.03471 1.97341,-0.33796c0.62354,0.1177 1.00997,0.04617 1.78119,0.58856c0.38872,0.27338 0.54494,0.04413 1.0027,-0.08361c0.67489,-0.18833 0.77083,-0.38302 0.77358,-0.75741c-0.04105,-0.68067 -0.56148,-1.07111 -1.31406,-1.363c-1.16571,-0.3024 -1.57766,-0.44232 -2.6815,-0.57295c-0.60316,-0.13582 -1.82879,-0.70367 -1.82879,-0.70367c0,0 2.05175,-0.46682 2.08483,-0.45332c1.56013,0.08396 3.48537,0.6885 4.53146,1.90728c0,0 0.44877,0.62526 0.42227,1.21591c-0.03458,0.77049 -0.2123,1.56039 -0.7579,2.18283z" data-paper-data="{&quot;origPos&quot;:null}" fill="#e02222"/></g><text transform="translate(187.69163,229.53951) scale(0.25469,0.25469)" font-size="40" xml:space="preserve" data-paper-data="{&quot;origPos&quot;:null}" fill="#000000" fill-rule="nonzero" stroke="none" stroke-width="1" stroke-linecap="butt" stroke-linejoin="miter" stroke-miterlimit="10" stroke-dasharray="" stroke-dashoffset="0" font-family="Serif" font-weight="normal" text-anchor="start" style="mix-blend-mode: normal"><tspan x="0" dy="0">     : Add      .</tspan></text><text transform="translate(288.84103,216.1798) scale(0.44601,0.44601)" font-size="40" xml:space="preserve" data-paper-data="{&quot;origPos&quot;:null}" fill="url(#color-4)" fill-rule="nonzero" stroke="#000000" stroke-width="1" stroke-linecap="butt" stroke-linejoin="miter" stroke-miterlimit="10" stroke-dasharray="" stroke-dashoffset="0" font-family="Sans Serif" font-weight="normal" text-anchor="start" style="mix-blend-mode: normal"><tspan x="0" dy="0">II</tspan></text></g></g></svg>