<svg version="1.1" xmlns="http://www.w3.org/2000/svg" xmlns:xlink="http://www.w3.org/1999/xlink" width="675.75" height="556.21774"><defs><radialGradient cx="60.24809" cy="258.57827" r="7.08735" gradientUnits="userSpaceOnUse" id="color-1"><stop offset="0" stop-color="#f1a000"/><stop offset="1" stop-color="#ab6300"/></radialGradient><linearGradient x1="60.73472" y1="262.31327" x2="61.10008" y2="262.85122" gradientTransform="translate(7030.35965,-17857.53839) rotate(34.18073) scale(70.97232,70.97232)" gradientUnits="userSpaceOnUse" id="color-2"><stop offset="0" stop-color="#d2d2d2"/><stop offset="1" stop-color="#00bfbb"/></linearGradient><radialGradient cx="78.28744" cy="261.562" r="7.08735" gradientUnits="userSpaceOnUse" id="color-3"><stop offset="0" stop-color="#f1a000"/><stop offset="1" stop-color="#ab6300"/></radialGradient><linearGradient x1="75.10895" y1="263.58312" x2="74.77611" y2="264.14174" gradientTransform="translate(-14015.58136,-13378.92505) rotate(-30.77894) scale(70.97232,70.97232)" gradientUnits="userSpaceOnUse" id="color-4"><stop offset="0" stop-color="#d2d2d2"/><stop offset="1" stop-color="#00bfbb"/></linearGradient><radialGradient cx="69.09106" cy="257.67113" r="7.08736" gradientUnits="userSpaceOnUse" id="color-5"><stop offset="0" stop-color="#f1a000"/><stop offset="1" stop-color="#ab6300"/></radialGradient><linearGradient x1="67.38756" y1="261.03065" x2="67.38613" y2="261.68087" gradientTransform="translate(-4684.91966,-18550.32915) rotate(-0.12199) scale(70.97232,70.97232)" gradientUnits="userSpaceOnUse" id="color-6"><stop offset="0" stop-color="#d2d2d2"/><stop offset="1" stop-color="#00bfbb"/></linearGradient></defs><g transform="translate(9.5,143.21774)"><g data-paper-data="{&quot;isPaintingLayer&quot;:true}" fill="none" fill-rule="nonzero" stroke="none" stroke-width="none" stroke-linecap="butt" stroke-linejoin="miter" stroke-miterlimit="10" stroke-dasharray="" stroke-dashoffset="0" font-family="none" font-weight="none" font-size="none" text-anchor="none" style="mix-blend-mode: normal"><path d="M1,413v-556.21774h501v556.21774z" data-paper-data="{&quot;origPos&quot;:null}" fill="#bebebe" stroke="none" stroke-width="0"/><path d="M-8,390.33335v-391.38462h138.4375v391.38462z" data-paper-data="{&quot;origPos&quot;:null}" fill="#828282" stroke="#000000" stroke-width="3"/><text transform="translate(63.66667,295) scale(0.5,0.5)" font-size="40" xml:space="preserve" data-paper-data="{&quot;origPos&quot;:null}" fill="#000000" fill-rule="nonzero" stroke="none" stroke-width="1" stroke-linecap="butt" stroke-linejoin="miter" stroke-miterlimit="10" stroke-dasharray="" stroke-dashoffset="0" font-family="Sans Serif" font-weight="normal" text-anchor="start" style="mix-blend-mode: normal"><tspan x="0" dy="0">Phase</tspan></text><text transform="translate(276,173) scale(0.5,0.5)" font-size="40" xml:space="preserve" fill="#000000" fill-rule="nonzero" stroke="none" stroke-width="1" stroke-linecap="butt" stroke-linejoin="miter" stroke-miterlimit="10" stroke-dasharray="" stroke-dashoffset="0" font-family="Sans Serif" font-weight="normal" text-anchor="start" style="mix-blend-mode: normal"><tspan x="0" dy="0"> </tspan></text><path d="M-5,216.80001v-87h135v87z" data-paper-data="{&quot;origPos&quot;:null}" fill="#828282" stroke="#000000" stroke-width="2"/><text transform="translate(3,148.8) scale(0.5,0.5)" font-size="40" xml:space="preserve" data-paper-data="{&quot;origPos&quot;:null}" fill="#000000" fill-rule="nonzero" stroke="none" stroke-width="1" stroke-linecap="butt" stroke-linejoin="miter" stroke-miterlimit="10" stroke-dasharray="" stroke-dashoffset="0" font-family="Sans Serif" font-weight="normal" text-anchor="start" style="mix-blend-mode: normal"><tspan x="0" dy="0">Choose one:</tspan></text><path d="M130.66667,363.66666v-57h322v57z" data-paper-data="{&quot;origPos&quot;:null}" fill="#828282" stroke="#000404" stroke-width="3"/><g data-paper-data="{&quot;origPos&quot;:null}"><g data-paper-data="{&quot;origPos&quot;:null,&quot;origRot&quot;:0}"><path d="M61.4454,274.02227l-7.96393,-11.72596l7.80777,-5.30281l7.96393,11.72596z" data-paper-data="{&quot;origPos&quot;:null}" fill="url(#color-1)" stroke="#000000" stroke-width="0.5"/><path d="M64.60459,263.39282c1.99535,2.93792 2.15318,6.31098 0.35251,7.53394c-1.80066,1.22296 -4.87794,-0.1673 -6.87329,-3.10522c-1.99535,-2.93792 -2.15318,-6.31099 -0.35251,-7.53394c1.80066,-1.22296 4.87794,0.1673 6.87329,3.10522z" data-paper-data="{&quot;origPos&quot;:null}" fill="#cc5600" stroke="#4600a7" stroke-width="0.5"/><text transform="translate(57.36237,265.97845) rotate(-34.18287) scale(0.08658,0.08658)" font-size="40" xml:space="preserve" data-paper-data="{&quot;origPos&quot;:null}" fill="#ff4d00" fill-rule="nonzero" stroke="none" stroke-width="1" stroke-linecap="butt" stroke-linejoin="miter" stroke-miterlimit="10" stroke-dasharray="" stroke-dashoffset="0" font-family="Sans Serif" font-weight="normal" text-anchor="start" style="mix-blend-mode: normal"><tspan x="0" dy="0">M</tspan></text><text transform="translate(57.43321,265.83662) rotate(-34.1834) scale(0.07892,0.07892)" font-size="40" xml:space="preserve" data-paper-data="{&quot;origPos&quot;:null}" fill="#2a7bff" fill-rule="nonzero" stroke="none" stroke-width="1" stroke-linecap="butt" stroke-linejoin="miter" stroke-miterlimit="10" stroke-dasharray="" stroke-dashoffset="0" font-family="Sans Serif" font-weight="normal" text-anchor="start" style="mix-blend-mode: normal"><tspan x="0" dy="0">M</tspan></text><g data-paper-data="{&quot;origPos&quot;:null}" stroke="none" stroke-width="1" font-family="Sans Serif" font-weight="normal" font-size="40" text-anchor="start"><text transform="translate(59.13933,263.45079) rotate(-34.18678) scale(0.04783,0.04783)" font-size="40" xml:space="preserve" data-paper-data="{&quot;origPos&quot;:null}" fill="#ff4d00" fill-rule="nonzero" stroke="none" stroke-width="1" stroke-linecap="butt" stroke-linejoin="miter" stroke-miterlimit="10" stroke-dasharray="" stroke-dashoffset="0" font-family="Sans Serif" font-weight="normal" text-anchor="start" style="mix-blend-mode: normal"><tspan x="0" dy="0">A</tspan></text><text transform="translate(59.19647,263.31152) rotate(-34.18317) scale(0.03932,0.03932)" font-size="40" xml:space="preserve" data-paper-data="{&quot;origPos&quot;:null}" fill="#2a7bff" fill-rule="nonzero" stroke="none" stroke-width="1" stroke-linecap="butt" stroke-linejoin="miter" stroke-miterlimit="10" stroke-dasharray="" stroke-dashoffset="0" font-family="Sans Serif" font-weight="normal" text-anchor="start" style="mix-blend-mode: normal"><tspan x="0" dy="0">A</tspan></text></g><text transform="translate(59.9577,262.88005) rotate(-34.18678) scale(0.04783,0.04633) skewX(-0.00269)" font-size="40" xml:space="preserve" data-paper-data="{&quot;origPos&quot;:null}" fill="#ff4d00" fill-rule="nonzero" stroke="none" stroke-width="1" stroke-linecap="butt" stroke-linejoin="miter" stroke-miterlimit="10" stroke-dasharray="" stroke-dashoffset="0" font-family="Sans Serif" font-weight="normal" text-anchor="start" style="mix-blend-mode: normal"><tspan x="0" dy="0">G</tspan></text><text transform="translate(60.00513,262.72648) rotate(-34.18317) scale(0.03932,0.03932)" font-size="40" xml:space="preserve" data-paper-data="{&quot;origPos&quot;:null}" fill="#2a7bff" fill-rule="nonzero" stroke="none" stroke-width="1" stroke-linecap="butt" stroke-linejoin="miter" stroke-miterlimit="10" stroke-dasharray="" stroke-dashoffset="0" font-family="Sans Serif" font-weight="normal" text-anchor="start" style="mix-blend-mode: normal"><tspan x="0" dy="0">G</tspan></text><text transform="translate(60.95981,262.21062) rotate(-34.18302) scale(0.0548,0.04724) skewX(-0.00157)" font-size="40" xml:space="preserve" data-paper-data="{&quot;origPos&quot;:null}" fill="#ff4d00" fill-rule="nonzero" stroke="none" stroke-width="1" stroke-linecap="butt" stroke-linejoin="miter" stroke-miterlimit="10" stroke-dasharray="" stroke-dashoffset="0" font-family="Sans Serif" font-weight="normal" text-anchor="start" style="mix-blend-mode: normal"><tspan x="0" dy="0">I</tspan></text><text transform="translate(60.98457,262.094) rotate(-34.18644) scale(0.0421,0.0421)" font-size="40" xml:space="preserve" data-paper-data="{&quot;origPos&quot;:null}" fill="#2a7bff" fill-rule="nonzero" stroke="none" stroke-width="1" stroke-linecap="butt" stroke-linejoin="miter" stroke-miterlimit="10" stroke-dasharray="" stroke-dashoffset="0" font-family="Sans Serif" font-weight="normal" text-anchor="start" style="mix-blend-mode: normal"><tspan x="0" dy="0">I</tspan></text><text transform="translate(61.36074,261.86915) rotate(-34.18232) scale(0.04939,0.04364) skewX(0.00264)" font-size="40" xml:space="preserve" data-paper-data="{&quot;origPos&quot;:null}" fill="#ff4d00" fill-rule="nonzero" stroke="none" stroke-width="1" stroke-linecap="butt" stroke-linejoin="miter" stroke-miterlimit="10" stroke-dasharray="" stroke-dashoffset="0" font-family="Sans Serif" font-weight="normal" text-anchor="start" style="mix-blend-mode: normal"><tspan x="0" dy="0">C</tspan></text><text transform="translate(61.42958,261.7471) rotate(-34.18317) scale(0.03932,0.03932)" font-size="40" xml:space="preserve" data-paper-data="{&quot;origPos&quot;:null}" fill="#2a7bff" fill-rule="nonzero" stroke="none" stroke-width="1" stroke-linecap="butt" stroke-linejoin="miter" stroke-miterlimit="10" stroke-dasharray="" stroke-dashoffset="0" font-family="Sans Serif" font-weight="normal" text-anchor="start" style="mix-blend-mode: normal"><tspan x="0" dy="0">C</tspan></text><text transform="translate(59.40985,263.80271) rotate(-34.18073) scale(0.01409,0.01409)" font-size="40" xml:space="preserve" data-paper-data="{&quot;origPos&quot;:null}" fill="url(#color-2)" fill-rule="nonzero" stroke="none" stroke-width="1" stroke-linecap="butt" stroke-linejoin="miter" stroke-miterlimit="10" stroke-dasharray="" stroke-dashoffset="0" font-family="Sans Serif" font-weight="normal" text-anchor="start" style="mix-blend-mode: normal"><tspan x="0" dy="0">The Gathering</tspan></text><path d="M61.65897,272.26508l-0.80287,-1.18213l5.79849,-3.93816l0.80287,1.18213z" data-paper-data="{&quot;origPos&quot;:null}" fill="#00d1ab" stroke="#000000" stroke-width="0.5"/><path d="M61.67997,272.01769l-0.6053,-0.89123l5.52072,-3.74951l0.6053,0.89123z" data-paper-data="{&quot;origPos&quot;:null}" fill="#00d1ab" stroke="#000000" stroke-width="0.5"/><text transform="translate(61.79408,271.84868) rotate(-34.17855) scale(0.03188,0.03188)" font-size="40" xml:space="preserve" data-paper-data="{&quot;origPos&quot;:null}" fill="#000000" fill-rule="nonzero" stroke="none" stroke-width="1" stroke-linecap="butt" stroke-linejoin="miter" stroke-miterlimit="10" stroke-dasharray="" stroke-dashoffset="0" font-family="Handwriting" font-weight="normal" text-anchor="start" style="mix-blend-mode: normal"><tspan x="0" dy="0">Deckmaster</tspan></text><path d="M61.85168,272.9407c0.08422,0.124 0.05345,0.29179 -0.06873,0.37477c-0.12218,0.08298 -0.2895,0.04972 -0.37371,-0.07428c-0.08422,-0.124 -0.05345,-0.29179 0.06873,-0.37477c0.12218,-0.08298 0.2895,-0.04972 0.37371,0.07428z" data-paper-data="{&quot;origPos&quot;:null}" fill="#ff6100" stroke="#000000" stroke-width="0.5"/><path d="M68.52976,268.40515c0.08422,0.124 0.05344,0.29179 -0.06873,0.37477c-0.12218,0.08298 -0.2895,0.04972 -0.37371,-0.07428c-0.08422,-0.124 -0.05345,-0.29179 0.06873,-0.37477c0.12218,-0.08298 0.2895,-0.04973 0.37371,0.07427z" data-paper-data="{&quot;origPos&quot;:null}" fill="#ff6100" stroke="#000000" stroke-width="0.5"/><path d="M54.58163,262.35946c0.08422,0.124 0.05345,0.29179 -0.06873,0.37477c-0.12218,0.08298 -0.2895,0.04972 -0.37371,-0.07428c-0.08422,-0.124 -0.05345,-0.29179 0.06873,-0.37477c0.12218,-0.08298 0.2895,-0.04972 0.37371,0.07428z" data-paper-data="{&quot;origPos&quot;:null}" fill="#ff6100" stroke="#000000" stroke-width="0.5"/><path d="M61.35639,257.73038c0.08422,0.124 0.05345,0.29179 -0.06873,0.37477c-0.12218,0.08298 -0.2895,0.04972 -0.37371,-0.07428c-0.08422,-0.124 -0.05345,-0.29179 0.06873,-0.37477c0.12218,-0.08298 0.2895,-0.04972 0.37371,0.07428z" data-paper-data="{&quot;origPos&quot;:null}" fill="#ff6100" stroke="#000000" stroke-width="0.5"/><g stroke="#000000" stroke-width="0.5"><path d="M61.38845,265.07457c0.08422,0.124 0.05345,0.29179 -0.06873,0.37477c-0.12218,0.08298 -0.2895,0.04972 -0.37371,-0.07428c-0.08422,-0.124 -0.05345,-0.29179 0.06873,-0.37477c0.12218,-0.08298 0.2895,-0.04972 0.37371,0.07428z" data-paper-data="{&quot;origPos&quot;:null}" fill="#ffd028"/><path d="M60.88054,266.27283c0.08422,0.124 0.05345,0.29179 -0.06873,0.37477c-0.12218,0.08298 -0.2895,0.04972 -0.37371,-0.07428c-0.08422,-0.124 -0.05345,-0.29179 0.06873,-0.37477c0.12218,-0.08298 0.2895,-0.04972 0.37371,0.07428z" data-paper-data="{&quot;origPos&quot;:null}" fill="#72ff29"/><path d="M61.8671,266.93305c0.08422,0.124 0.05345,0.29179 -0.06873,0.37477c-0.12218,0.08298 -0.2895,0.04973 -0.37371,-0.07427c-0.08422,-0.124 -0.05344,-0.29179 0.06873,-0.37477c0.12218,-0.08298 0.2895,-0.04972 0.37371,0.07428z" data-paper-data="{&quot;origPos&quot;:null}" fill="#ff2929"/><path d="M62.86447,266.29127c0.08422,0.124 0.05345,0.29179 -0.06873,0.37477c-0.12218,0.08298 -0.2895,0.04972 -0.37371,-0.07428c-0.08422,-0.124 -0.05345,-0.29179 0.06873,-0.37477c0.12218,-0.08298 0.2895,-0.04972 0.37371,0.07428z" data-paper-data="{&quot;origPos&quot;:null}" fill="#000000"/><path d="M62.66185,265.1048c0.08422,0.124 0.05344,0.29179 -0.06873,0.37477c-0.12218,0.08298 -0.2895,0.04972 -0.37371,-0.07428c-0.08422,-0.124 -0.05345,-0.29179 0.06873,-0.37477c0.12218,-0.08298 0.2895,-0.04973 0.37371,0.07427z" data-paper-data="{&quot;origPos&quot;:null}" fill="#002eff"/></g></g><g data-paper-data="{&quot;origPos&quot;:null,&quot;origRot&quot;:0}"><path d="M64.80027,269.18087l7.25548,-12.17704l8.10813,4.83109l-7.25548,12.17704z" data-paper-data="{&quot;origPos&quot;:null}" fill="url(#color-3)" stroke="#000000" stroke-width="0.5"/><path d="M75.76814,267.54632c-1.81785,3.05094 -4.80739,4.62101 -6.67732,3.50684c-1.86993,-1.11417 -1.91215,-4.49065 -0.0943,-7.54159c1.81785,-3.05094 4.80739,-4.62101 6.67732,-3.50684c1.86993,1.11417 1.91215,4.49065 0.0943,7.54159z" data-paper-data="{&quot;origPos&quot;:null}" fill="#cc5600" stroke="#4600a7" stroke-width="0.5"/><text transform="translate(70.3613,262.07811) rotate(30.78614) scale(0.08658,0.08658)" font-size="40" xml:space="preserve" data-paper-data="{&quot;origPos&quot;:null}" fill="#ff4d00" fill-rule="nonzero" stroke="none" stroke-width="1" stroke-linecap="butt" stroke-linejoin="miter" stroke-miterlimit="10" stroke-dasharray="" stroke-dashoffset="0" font-family="Sans Serif" font-weight="normal" text-anchor="start" style="mix-blend-mode: normal"><tspan x="0" dy="0">M</tspan></text><text transform="translate(70.51978,262.08229) rotate(30.78819) scale(0.07892,0.07892)" font-size="40" xml:space="preserve" data-paper-data="{&quot;origPos&quot;:null}" fill="#2a7bff" fill-rule="nonzero" stroke="none" stroke-width="1" stroke-linecap="butt" stroke-linejoin="miter" stroke-miterlimit="10" stroke-dasharray="" stroke-dashoffset="0" font-family="Sans Serif" font-weight="normal" text-anchor="start" style="mix-blend-mode: normal"><tspan x="0" dy="0">M</tspan></text><g data-paper-data="{&quot;origPos&quot;:null}" stroke="none" stroke-width="1" font-family="Sans Serif" font-weight="normal" font-size="40" text-anchor="start"><text transform="translate(73.40339,262.6188) rotate(30.78502) scale(0.04783,0.04783)" font-size="40" xml:space="preserve" data-paper-data="{&quot;origPos&quot;:null}" fill="#ff4d00" fill-rule="nonzero" stroke="none" stroke-width="1" stroke-linecap="butt" stroke-linejoin="miter" stroke-miterlimit="10" stroke-dasharray="" stroke-dashoffset="0" font-family="Sans Serif" font-weight="normal" text-anchor="start" style="mix-blend-mode: normal"><tspan x="0" dy="0">A</tspan></text><text transform="translate(73.55375,262.61166) rotate(30.78508) scale(0.03932,0.03932)" font-size="40" xml:space="preserve" data-paper-data="{&quot;origPos&quot;:null}" fill="#2a7bff" fill-rule="nonzero" stroke="none" stroke-width="1" stroke-linecap="butt" stroke-linejoin="miter" stroke-miterlimit="10" stroke-dasharray="" stroke-dashoffset="0" font-family="Sans Serif" font-weight="normal" text-anchor="start" style="mix-blend-mode: normal"><tspan x="0" dy="0">A</tspan></text></g><text transform="translate(74.26677,263.11886) rotate(30.78502) scale(0.04783,0.04633) skewX(-0.00364)" font-size="40" xml:space="preserve" data-paper-data="{&quot;origPos&quot;:null}" fill="#ff4d00" fill-rule="nonzero" stroke="none" stroke-width="1" stroke-linecap="butt" stroke-linejoin="miter" stroke-miterlimit="10" stroke-dasharray="" stroke-dashoffset="0" font-family="Sans Serif" font-weight="normal" text-anchor="start" style="mix-blend-mode: normal"><tspan x="0" dy="0">G</tspan></text><text transform="translate(74.42598,263.09687) rotate(30.78508) scale(0.03932,0.03932)" font-size="40" xml:space="preserve" data-paper-data="{&quot;origPos&quot;:null}" fill="#2a7bff" fill-rule="nonzero" stroke="none" stroke-width="1" stroke-linecap="butt" stroke-linejoin="miter" stroke-miterlimit="10" stroke-dasharray="" stroke-dashoffset="0" font-family="Sans Serif" font-weight="normal" text-anchor="start" style="mix-blend-mode: normal"><tspan x="0" dy="0">G</tspan></text><text transform="translate(75.2973,263.74365) rotate(30.78892) scale(0.0548,0.04724) skewX(-0.00009)" font-size="40" xml:space="preserve" data-paper-data="{&quot;origPos&quot;:null}" fill="#ff4d00" fill-rule="nonzero" stroke="none" stroke-width="1" stroke-linecap="butt" stroke-linejoin="miter" stroke-miterlimit="10" stroke-dasharray="" stroke-dashoffset="0" font-family="Sans Serif" font-weight="normal" text-anchor="start" style="mix-blend-mode: normal"><tspan x="0" dy="0">I</tspan></text><text transform="translate(75.41344,263.71674) rotate(30.78875) scale(0.04211,0.04211)" font-size="40" xml:space="preserve" data-paper-data="{&quot;origPos&quot;:null}" fill="#2a7bff" fill-rule="nonzero" stroke="none" stroke-width="1" stroke-linecap="butt" stroke-linejoin="miter" stroke-miterlimit="10" stroke-dasharray="" stroke-dashoffset="0" font-family="Sans Serif" font-weight="normal" text-anchor="start" style="mix-blend-mode: normal"><tspan x="0" dy="0">I</tspan></text><text transform="translate(75.77633,263.96246) rotate(30.78669) scale(0.04939,0.04364) skewX(-0.00326)" font-size="40" xml:space="preserve" data-paper-data="{&quot;origPos&quot;:null}" fill="#ff4d00" fill-rule="nonzero" stroke="none" stroke-width="1" stroke-linecap="butt" stroke-linejoin="miter" stroke-miterlimit="10" stroke-dasharray="" stroke-dashoffset="0" font-family="Sans Serif" font-weight="normal" text-anchor="start" style="mix-blend-mode: normal"><tspan x="0" dy="0">C</tspan></text><text transform="translate(75.91605,263.9732) rotate(30.78508) scale(0.03932,0.03932)" font-size="40" xml:space="preserve" data-paper-data="{&quot;origPos&quot;:null}" fill="#2a7bff" fill-rule="nonzero" stroke="none" stroke-width="1" stroke-linecap="butt" stroke-linejoin="miter" stroke-miterlimit="10" stroke-dasharray="" stroke-dashoffset="0" font-family="Sans Serif" font-weight="normal" text-anchor="start" style="mix-blend-mode: normal"><tspan x="0" dy="0">C</tspan></text><text transform="translate(73.19897,263.01282) rotate(30.77894) scale(0.01409,0.01409)" font-size="40" xml:space="preserve" data-paper-data="{&quot;origPos&quot;:null}" fill="url(#color-4)" fill-rule="nonzero" stroke="none" stroke-width="1" stroke-linecap="butt" stroke-linejoin="miter" stroke-miterlimit="10" stroke-dasharray="" stroke-dashoffset="0" font-family="Sans Serif" font-weight="normal" text-anchor="start" style="mix-blend-mode: normal"><tspan x="0" dy="0">The Gathering</tspan></text><path d="M66.48281,268.63096l0.73145,-1.2276l6.02155,3.58783l-0.73145,1.2276z" data-paper-data="{&quot;origPos&quot;:null}" fill="#00d1ab" stroke="#000000" stroke-width="0.5"/><path d="M66.71586,268.54531l0.55145,-0.92551l5.73309,3.41596l-0.55145,0.92551z" data-paper-data="{&quot;origPos&quot;:null}" fill="#00d1ab" stroke="#000000" stroke-width="0.5"/><text transform="translate(66.91727,268.57721) rotate(30.79269) scale(0.03188,0.03188)" font-size="40" xml:space="preserve" data-paper-data="{&quot;origPos&quot;:null}" fill="#000000" fill-rule="nonzero" stroke="none" stroke-width="1" stroke-linecap="butt" stroke-linejoin="miter" stroke-miterlimit="10" stroke-dasharray="" stroke-dashoffset="0" font-family="Handwriting" font-weight="normal" text-anchor="start" style="mix-blend-mode: normal"><tspan x="0" dy="0">Deckmaster</tspan></text><path d="M65.95216,269.09141c-0.07673,0.12877 -0.24178,0.17188 -0.36866,0.09628c-0.12688,-0.0756 -0.16754,-0.24127 -0.09081,-0.37004c0.07673,-0.12877 0.24178,-0.17188 0.36866,-0.09628c0.12688,0.0756 0.16753,0.24127 0.09081,0.37004z" data-paper-data="{&quot;origPos&quot;:null}" fill="#ff6100" stroke="#000000" stroke-width="0.5"/><path d="M72.88714,273.2235c-0.07673,0.12877 -0.24178,0.17187 -0.36866,0.09628c-0.12688,-0.0756 -0.16754,-0.24127 -0.09081,-0.37004c0.07673,-0.12877 0.24178,-0.17188 0.36866,-0.09628c0.12688,0.0756 0.16754,0.24128 0.09081,0.37004z" data-paper-data="{&quot;origPos&quot;:null}" fill="#ff6100" stroke="#000000" stroke-width="0.5"/><path d="M72.46398,258.02739c-0.07673,0.12877 -0.24178,0.17188 -0.36866,0.09628c-0.12688,-0.0756 -0.16754,-0.24127 -0.09081,-0.37004c0.07673,-0.12877 0.24178,-0.17188 0.36866,-0.09628c0.12688,0.0756 0.16753,0.24127 0.09081,0.37004z" data-paper-data="{&quot;origPos&quot;:null}" fill="#ff6100" stroke="#000000" stroke-width="0.5"/><path d="M79.52461,262.2075c-0.07673,0.12877 -0.24178,0.17188 -0.36866,0.09628c-0.12688,-0.0756 -0.16753,-0.24127 -0.09081,-0.37004c0.07673,-0.12877 0.24178,-0.17188 0.36866,-0.09628c0.12688,0.0756 0.16754,0.24127 0.09081,0.37004z" data-paper-data="{&quot;origPos&quot;:null}" fill="#ff6100" stroke="#000000" stroke-width="0.5"/><g stroke="#000000" stroke-width="0.5"><path d="M72.88364,265.34371c-0.07673,0.12877 -0.24178,0.17188 -0.36866,0.09628c-0.12688,-0.0756 -0.16753,-0.24128 -0.09081,-0.37005c0.07673,-0.12877 0.24178,-0.17188 0.36866,-0.09628c0.12688,0.0756 0.16753,0.24127 0.09081,0.37004z" data-paper-data="{&quot;origPos&quot;:null}" fill="#ffd028"/><path d="M71.58302,265.39045c-0.07673,0.12877 -0.24178,0.17188 -0.36866,0.09628c-0.12688,-0.0756 -0.16754,-0.24127 -0.09081,-0.37004c0.07673,-0.12877 0.24178,-0.17188 0.36866,-0.09628c0.12688,0.0756 0.16753,0.24127 0.09081,0.37004z" data-paper-data="{&quot;origPos&quot;:null}" fill="#72ff29"/><path d="M71.40219,266.56368c-0.07673,0.12877 -0.24178,0.17188 -0.36866,0.09628c-0.12688,-0.0756 -0.16754,-0.24128 -0.09081,-0.37004c0.07673,-0.12877 0.24178,-0.17187 0.36866,-0.09628c0.12688,0.0756 0.16753,0.24127 0.09081,0.37004z" data-paper-data="{&quot;origPos&quot;:null}" fill="#ff2929"/><path d="M72.40567,267.19588c-0.07673,0.12877 -0.24178,0.17188 -0.36866,0.09628c-0.12688,-0.0756 -0.16753,-0.24127 -0.09081,-0.37004c0.07673,-0.12877 0.24178,-0.17188 0.36866,-0.09628c0.12688,0.0756 0.16754,0.24127 0.09081,0.37004z" data-paper-data="{&quot;origPos&quot;:null}" fill="#000000"/><path d="M73.39499,266.51032c-0.07673,0.12877 -0.24178,0.17188 -0.36866,0.09628c-0.12688,-0.0756 -0.16753,-0.24127 -0.09081,-0.37004c0.07673,-0.12877 0.24178,-0.17188 0.36866,-0.09628c0.12688,0.0756 0.16754,0.24128 0.09081,0.37005z" data-paper-data="{&quot;origPos&quot;:null}" fill="#002eff"/></g></g><g data-paper-data="{&quot;origPos&quot;:null,&quot;origRot&quot;:0}"><path d="M61.37491,271.10288l0.03116,-14.17467l9.43825,0.02075l-0.03116,14.17467z" data-paper-data="{&quot;origPos&quot;:null}" fill="url(#color-5)" stroke="#000000" stroke-width="0.5"/><path d="M69.9758,264.10357c-0.00781,3.55145 -1.77869,6.42658 -3.95538,6.4218c-2.17669,-0.00479 -3.93492,-2.88768 -3.92711,-6.43913c0.00781,-3.55145 1.77869,-6.42658 3.95539,-6.4218c2.17669,0.00479 3.93492,2.88768 3.92711,6.43912z" data-paper-data="{&quot;origPos&quot;:null}" fill="#cc5600" stroke="#4600a7" stroke-width="0.5"/><text transform="translate(62.53625,262.15719) rotate(0.12574) scale(0.08658,0.08658)" font-size="40" xml:space="preserve" data-paper-data="{&quot;origPos&quot;:null}" fill="#ff4d00" fill-rule="nonzero" stroke="none" stroke-width="1" stroke-linecap="butt" stroke-linejoin="miter" stroke-miterlimit="10" stroke-dasharray="" stroke-dashoffset="0" font-family="Sans Serif" font-weight="normal" text-anchor="start" style="mix-blend-mode: normal"><tspan x="0" dy="0">M</tspan></text><text transform="translate(62.67471,262.07997) rotate(0.12705) scale(0.07892,0.07892)" font-size="40" xml:space="preserve" data-paper-data="{&quot;origPos&quot;:null}" fill="#2a7bff" fill-rule="nonzero" stroke="none" stroke-width="1" stroke-linecap="butt" stroke-linejoin="miter" stroke-miterlimit="10" stroke-dasharray="" stroke-dashoffset="0" font-family="Sans Serif" font-weight="normal" text-anchor="start" style="mix-blend-mode: normal"><tspan x="0" dy="0">M</tspan></text><g data-paper-data="{&quot;origPos&quot;:null}" stroke="none" stroke-width="1" font-family="Sans Serif" font-weight="normal" font-size="40" text-anchor="start"><text transform="translate(65.42877,261.07091) rotate(0.12578) scale(0.04783,0.04783)" font-size="40" xml:space="preserve" data-paper-data="{&quot;origPos&quot;:null}" fill="#ff4d00" fill-rule="nonzero" stroke="none" stroke-width="1" stroke-linecap="butt" stroke-linejoin="miter" stroke-miterlimit="10" stroke-dasharray="" stroke-dashoffset="0" font-family="Sans Serif" font-weight="normal" text-anchor="start" style="mix-blend-mode: normal"><tspan x="0" dy="0">A</tspan></text><text transform="translate(65.55447,260.98808) rotate(0.12386) scale(0.03932,0.03932)" font-size="40" xml:space="preserve" data-paper-data="{&quot;origPos&quot;:null}" fill="#2a7bff" fill-rule="nonzero" stroke="none" stroke-width="1" stroke-linecap="butt" stroke-linejoin="miter" stroke-miterlimit="10" stroke-dasharray="" stroke-dashoffset="0" font-family="Sans Serif" font-weight="normal" text-anchor="start" style="mix-blend-mode: normal"><tspan x="0" dy="0">A</tspan></text></g><text transform="translate(66.42646,261.06076) rotate(0.12578) scale(0.04783,0.04633) skewX(0.00204)" font-size="40" xml:space="preserve" data-paper-data="{&quot;origPos&quot;:null}" fill="#ff4d00" fill-rule="nonzero" stroke="none" stroke-width="1" stroke-linecap="butt" stroke-linejoin="miter" stroke-miterlimit="10" stroke-dasharray="" stroke-dashoffset="0" font-family="Sans Serif" font-weight="normal" text-anchor="start" style="mix-blend-mode: normal"><tspan x="0" dy="0">G</tspan></text><text transform="translate(66.5522,260.96065) rotate(0.12386) scale(0.03932,0.03932)" font-size="40" xml:space="preserve" data-paper-data="{&quot;origPos&quot;:null}" fill="#2a7bff" fill-rule="nonzero" stroke="none" stroke-width="1" stroke-linecap="butt" stroke-linejoin="miter" stroke-miterlimit="10" stroke-dasharray="" stroke-dashoffset="0" font-family="Sans Serif" font-weight="normal" text-anchor="start" style="mix-blend-mode: normal"><tspan x="0" dy="0">G</tspan></text><text transform="translate(67.63154,261.07265) rotate(0.12547) scale(0.0548,0.04724) skewX(-0.00163)" font-size="40" xml:space="preserve" data-paper-data="{&quot;origPos&quot;:null}" fill="#ff4d00" fill-rule="nonzero" stroke="none" stroke-width="1" stroke-linecap="butt" stroke-linejoin="miter" stroke-miterlimit="10" stroke-dasharray="" stroke-dashoffset="0" font-family="Sans Serif" font-weight="normal" text-anchor="start" style="mix-blend-mode: normal"><tspan x="0" dy="0">I</tspan></text><text transform="translate(67.71772,260.99028) rotate(0.12246) scale(0.04211,0.04211)" font-size="40" xml:space="preserve" data-paper-data="{&quot;origPos&quot;:null}" fill="#2a7bff" fill-rule="nonzero" stroke="none" stroke-width="1" stroke-linecap="butt" stroke-linejoin="miter" stroke-miterlimit="10" stroke-dasharray="" stroke-dashoffset="0" font-family="Sans Serif" font-weight="normal" text-anchor="start" style="mix-blend-mode: normal"><tspan x="0" dy="0">I</tspan></text><text transform="translate(68.15518,261.01658) rotate(0.12761) scale(0.04939,0.04364) skewX(0.00254)" font-size="40" xml:space="preserve" data-paper-data="{&quot;origPos&quot;:null}" fill="#ff4d00" fill-rule="nonzero" stroke="none" stroke-width="1" stroke-linecap="butt" stroke-linejoin="miter" stroke-miterlimit="10" stroke-dasharray="" stroke-dashoffset="0" font-family="Sans Serif" font-weight="normal" text-anchor="start" style="mix-blend-mode: normal"><tspan x="0" dy="0">C</tspan></text><text transform="translate(68.28084,260.95457) rotate(0.12386) scale(0.03932,0.03932)" font-size="40" xml:space="preserve" data-paper-data="{&quot;origPos&quot;:null}" fill="#2a7bff" fill-rule="nonzero" stroke="none" stroke-width="1" stroke-linecap="butt" stroke-linejoin="miter" stroke-miterlimit="10" stroke-dasharray="" stroke-dashoffset="0" font-family="Sans Serif" font-weight="normal" text-anchor="start" style="mix-blend-mode: normal"><tspan x="0" dy="0">C</tspan></text><text transform="translate(65.45387,261.51409) rotate(0.12199) scale(0.01409,0.01409)" font-size="40" xml:space="preserve" data-paper-data="{&quot;origPos&quot;:null}" fill="url(#color-6)" fill-rule="nonzero" stroke="none" stroke-width="1" stroke-linecap="butt" stroke-linejoin="miter" stroke-miterlimit="10" stroke-dasharray="" stroke-dashoffset="0" font-family="Sans Serif" font-weight="normal" text-anchor="start" style="mix-blend-mode: normal"><tspan x="0" dy="0">The Gathering</tspan></text><path d="M62.54177,269.77181l0.00314,-1.42899l7.00938,0.01541l-0.00314,1.42899z" data-paper-data="{&quot;origPos&quot;:null}" fill="#00d1ab" stroke="#000000" stroke-width="0.5"/><path d="M62.69856,269.57929l0.00237,-1.07734l6.6736,0.01467l-0.00237,1.07734z" data-paper-data="{&quot;origPos&quot;:null}" fill="#00d1ab" stroke="#000000" stroke-width="0.5"/><text transform="translate(62.88809,269.50402) rotate(0.12581) scale(0.03188,0.03188)" font-size="40" xml:space="preserve" data-paper-data="{&quot;origPos&quot;:null}" fill="#000000" fill-rule="nonzero" stroke="none" stroke-width="1" stroke-linecap="butt" stroke-linejoin="miter" stroke-miterlimit="10" stroke-dasharray="" stroke-dashoffset="0" font-family="Handwriting" font-weight="normal" text-anchor="start" style="mix-blend-mode: normal"><tspan x="0" dy="0">Deckmaster</tspan></text><path d="M62.32014,270.4385c-0.00033,0.14989 -0.12032,0.27115 -0.26801,0.27082c-0.14769,-0.00032 -0.26716,-0.12211 -0.26683,-0.272c0.00033,-0.14989 0.12033,-0.27115 0.26802,-0.27082c0.14769,0.00032 0.26715,0.1221 0.26682,0.272z" data-paper-data="{&quot;origPos&quot;:null}" fill="#ff6100" stroke="#000000" stroke-width="0.5"/><path d="M70.39279,270.45625c-0.00033,0.14989 -0.12033,0.27115 -0.26802,0.27082c-0.14769,-0.00032 -0.26716,-0.1221 -0.26683,-0.272c0.00033,-0.14989 0.12032,-0.27115 0.26802,-0.27082c0.14769,0.00032 0.26716,0.12211 0.26683,0.272z" data-paper-data="{&quot;origPos&quot;:null}" fill="#ff6100" stroke="#000000" stroke-width="0.5"/><path d="M62.27922,257.60048c-0.00033,0.14989 -0.12032,0.27115 -0.26802,0.27082c-0.14769,-0.00032 -0.26715,-0.12211 -0.26682,-0.272c0.00033,-0.14989 0.12032,-0.27115 0.26802,-0.27082c0.14769,0.00032 0.26715,0.12211 0.26682,0.272z" data-paper-data="{&quot;origPos&quot;:null}" fill="#ff6100" stroke="#000000" stroke-width="0.5"/><path d="M70.48444,257.59547c-0.00033,0.14989 -0.12032,0.27115 -0.26802,0.27082c-0.14769,-0.00032 -0.26715,-0.1221 -0.26682,-0.272c0.00033,-0.14989 0.12032,-0.27115 0.26802,-0.27082c0.14769,0.00032 0.26715,0.12211 0.26682,0.272z" data-paper-data="{&quot;origPos&quot;:null}" fill="#ff6100" stroke="#000000" stroke-width="0.5"/><g stroke="#000000" stroke-width="0.5"><path d="M66.37131,263.67991c-0.00033,0.14989 -0.12032,0.27115 -0.26802,0.27082c-0.14769,-0.00032 -0.26715,-0.12211 -0.26682,-0.272c0.00033,-0.14989 0.12032,-0.27115 0.26802,-0.27082c0.14769,0.00032 0.26715,0.12211 0.26682,0.272z" data-paper-data="{&quot;origPos&quot;:null}" fill="#ffd028"/><path d="M65.27636,264.38339c-0.00033,0.14989 -0.12032,0.27115 -0.26801,0.27082c-0.14769,-0.00032 -0.26715,-0.12211 -0.26682,-0.272c0.00033,-0.14989 0.12032,-0.27115 0.26802,-0.27082c0.14769,0.00032 0.26715,0.1221 0.26682,0.272z" data-paper-data="{&quot;origPos&quot;:null}" fill="#72ff29"/><path d="M65.71914,265.48482c-0.00033,0.14989 -0.12032,0.27115 -0.26801,0.27082c-0.14769,-0.00032 -0.26716,-0.12211 -0.26683,-0.272c0.00033,-0.14989 0.12033,-0.27115 0.26802,-0.27082c0.14769,0.00032 0.26715,0.1221 0.26682,0.272z" data-paper-data="{&quot;origPos&quot;:null}" fill="#ff2929"/><path d="M66.90471,265.51688c-0.00033,0.14989 -0.12032,0.27115 -0.26802,0.27082c-0.14769,-0.00032 -0.26715,-0.1221 -0.26682,-0.272c0.00033,-0.14989 0.12032,-0.27115 0.26802,-0.27082c0.14769,0.00032 0.26715,0.12211 0.26682,0.272z" data-paper-data="{&quot;origPos&quot;:null}" fill="#000000"/><path d="M67.40611,264.42264c-0.00033,0.14989 -0.12033,0.27115 -0.26802,0.27083c-0.14769,-0.00032 -0.26715,-0.12211 -0.26682,-0.272c0.00033,-0.14989 0.12032,-0.27115 0.26802,-0.27082c0.14769,0.00032 0.26716,0.12211 0.26683,0.272z" data-paper-data="{&quot;origPos&quot;:null}" fill="#002eff"/></g></g></g><path d="M131.33333,175.88334v-3.75h534.91667v3.75z" data-paper-data="{&quot;origPos&quot;:null}" fill="#000000" stroke="none" stroke-width="0"/></g></g></svg>