<svg version="1.1" xmlns="http://www.w3.org/2000/svg" xmlns:xlink="http://www.w3.org/1999/xlink" width="142.5" height="211"><g transform="translate(-171.83348,-81.63144)"><g data-paper-data="{&quot;isPaintingLayer&quot;:true}" fill="none" fill-rule="nonzero" stroke="none" stroke-width="none" stroke-linecap="butt" stroke-linejoin="miter" stroke-miterlimit="10" stroke-dasharray="" stroke-dashoffset="0" font-family="none" font-weight="none" font-size="none" text-anchor="none" style="mix-blend-mode: normal"><path d="M174.83349,289.63144v-205h136.5v205z" data-paper-data="{&quot;origPos&quot;:null}" fill="#987209" stroke="#000000" stroke-width="6"/><path d="M183.08637,110.80334v-19.50806h120v19.50806z" data-paper-data="{&quot;origPos&quot;:null}" fill="#bebebe" stroke="#00c6c6" stroke-width="2"/><path d="M183.24566,283.4543v-16.5h120v16.5z" data-paper-data="{&quot;origPos&quot;:null}" fill="#bebebe" stroke="#00c6c6" stroke-width="2"/><path d="M186.10347,266.05431v-155.32703h114.5v155.32703z" data-paper-data="{&quot;origPos&quot;:null}" fill="#007eab" stroke="#00c6c6" stroke-width="2"/><path d="M289.92429,280.91978v-11.17675h11.46836v11.17675z" data-paper-data="{&quot;origPos&quot;:null}" fill="#000000" stroke="none" stroke-width="0"/><text transform="translate(184.66678,107.66418) scale(0.51462,0.49722)" font-size="40" xml:space="preserve" data-paper-data="{&quot;origPos&quot;:null}" fill="#000000" fill-rule="nonzero" stroke="#000000" stroke-width="0" stroke-linecap="butt" stroke-linejoin="miter" stroke-miterlimit="10" stroke-dasharray="" stroke-dashoffset="0" font-family="Serif" font-weight="normal" text-anchor="start" style="mix-blend-mode: normal"><tspan x="0" dy="0">Island</tspan></text><text transform="translate(292.10004,279.34782) scale(0.29546,0.29546)" font-size="40" xml:space="preserve" data-paper-data="{&quot;origPos&quot;:null}" fill="#ffffff" fill-rule="nonzero" stroke="none" stroke-width="1" stroke-linecap="butt" stroke-linejoin="miter" stroke-miterlimit="10" stroke-dasharray="" stroke-dashoffset="0" font-family="Handwriting" font-weight="normal" text-anchor="start" style="mix-blend-mode: normal"><tspan x="0" dy="0">S</tspan></text><path d="M198.37899,197.4762v-14.84901h89.02289v14.84901c0,0 -2.40522,27.43965 -22.1347,28.23014c-3.60441,0.14442 -19.90433,-1.27228 -22.24661,-4.0157c-6.7043,-7.85249 -4.97769,-6.03687 -12.71086,-12.87845c-2.67676,-2.36815 -11.59138,-1.87097 -14.98153,-0.73959c-6.98798,2.33207 1.63231,19.07027 -5.73454,19.07027c-1.64482,0 -11.21464,-29.66667 -11.21464,-29.66667z" data-paper-data="{&quot;origPos&quot;:null}" fill="#ab5c00" stroke="none" stroke-width="0"/><path d="M242.72767,192.83842c-24.49312,0 -44.34872,-4.41235 -44.34872,-9.85527c0,-5.44292 19.8556,-9.85527 44.34872,-9.85527c24.49312,0 44.34872,4.41235 44.34872,9.85527c0,5.44292 -19.8556,9.85527 -44.34872,9.85527z" data-paper-data="{&quot;origPos&quot;:null}" fill="#ab5c00" stroke="none" stroke-width="0"/><text transform="translate(184.43584,278.94642) scale(0.28163,0.28163)" font-size="40" xml:space="preserve" data-paper-data="{&quot;origPos&quot;:null}" fill="#000000" fill-rule="nonzero" stroke="none" stroke-width="1" stroke-linecap="butt" stroke-linejoin="miter" stroke-miterlimit="10" stroke-dasharray="" stroke-dashoffset="0" font-family="Serif" font-weight="normal" text-anchor="start" style="mix-blend-mode: normal"><tspan x="0" dy="0">Basic Land - Island</tspan></text></g></g></svg>