<svg version="1.1" xmlns="http://www.w3.org/2000/svg" xmlns:xlink="http://www.w3.org/1999/xlink" width="164.46296" height="269.19528"><defs><linearGradient x1="223.99181" y1="210.07634" x2="223.99181" y2="221.25309" gradientUnits="userSpaceOnUse" id="color-1"><stop offset="0" stop-color="#cd3700"/><stop offset="1" stop-color="#ff4400"/></linearGradient><linearGradient x1="190.80249" y1="118.42326" x2="151.95504" y2="161.34768" gradientUnits="userSpaceOnUse" id="color-2"><stop offset="0" stop-color="#66ebff" stop-opacity="0"/><stop offset="1" stop-color="#66ebff"/></linearGradient><linearGradient x1="154.40526" y1="116.42326" x2="193.2527" y2="159.34768" gradientUnits="userSpaceOnUse" id="color-3"><stop offset="0" stop-color="#66ebff" stop-opacity="0"/><stop offset="1" stop-color="#66ebff"/></linearGradient></defs><g transform="translate(-90.28713,-64.35472)"><g data-paper-data="{&quot;isPaintingLayer&quot;:true}" fill="none" fill-rule="nonzero" stroke="none" stroke-width="none" stroke-linecap="none" stroke-linejoin="miter" stroke-miterlimit="10" stroke-dasharray="" stroke-dashoffset="0" font-family="none" font-weight="none" font-size="none" text-anchor="none" style="mix-blend-mode: normal"><path d="M93.03714,330.80001v-263h158.96296v263z" data-paper-data="{&quot;origPos&quot;:null}" fill="#828282" stroke="#000000" stroke-width="5.5" stroke-linecap="butt"/><text transform="translate(104.00007,85.80004) scale(0.5,0.5)" font-size="40" xml:space="preserve" data-paper-data="{&quot;origPos&quot;:null}" fill="#000000" fill-rule="nonzero" stroke="none" stroke-width="1" stroke-linecap="butt" stroke-linejoin="miter" stroke-miterlimit="10" stroke-dasharray="" stroke-dashoffset="0" font-family="Sans Serif" font-weight="normal" text-anchor="start" style="mix-blend-mode: normal"><tspan x="0" dy="0">Revealed Card</tspan></text><g><path d="M103.83359,295.5v-205h136.5v205z" data-paper-data="{&quot;origPos&quot;:null,&quot;index&quot;:null}" fill="#00c6c6" stroke="#000000" stroke-width="6" stroke-linecap="butt"/><path d="M115.10356,207.18297v-90.33333h114.5v90.33333z" data-paper-data="{&quot;origPos&quot;:null,&quot;index&quot;:null}" fill="#9f9f9f" stroke="#000000" stroke-width="2" stroke-linecap="butt"/><path d="M112.08655,116.80331v-19.50806h120v19.50806z" data-paper-data="{&quot;origPos&quot;:null,&quot;index&quot;:null}" fill="#bebebe" stroke="#000000" stroke-width="2" stroke-linecap="butt"/><g data-paper-data="{&quot;origPos&quot;:null,&quot;index&quot;:null}" stroke="#000000" stroke-width="0.5" stroke-linecap="butt"><path d="M229.25712,107.00757c0,3.89674 -3.2276,7.05568 -7.20906,7.05568c-3.98146,0 -7.20906,-3.15894 -7.20906,-7.05568c0,-3.89674 3.2276,-7.05568 7.20906,-7.05568c3.98146,0 7.20906,3.15894 7.20906,7.05568z" data-paper-data="{&quot;origPos&quot;:null}" fill="#00c6c6"/><path d="M225.11172,108.3707c0,1.53676 -1.3973,2.78255 -3.12096,2.78255c-1.72367,0 -3.12098,-1.24578 -3.12098,-2.78255c0,-1.53676 1.54771,-6.994 3.27139,-6.994c1.72367,0 2.97055,5.45722 2.97055,6.994z" data-paper-data="{&quot;origPos&quot;:null}" fill="#009090"/></g><path d="M112.24575,277.16967v-53h120v53z" data-paper-data="{&quot;origPos&quot;:null,&quot;index&quot;:null}" fill="#bebebe" stroke="#000000" stroke-width="2" stroke-linecap="butt"/><text transform="translate(113.66696,112.75811) scale(0.37004,0.43683)" font-size="40" xml:space="preserve" data-paper-data="{&quot;origPos&quot;:null,&quot;index&quot;:null}" fill="#000000" fill-rule="nonzero" stroke="#000000" stroke-width="0" stroke-linecap="butt" stroke-linejoin="miter" stroke-miterlimit="10" stroke-dasharray="" stroke-dashoffset="0" font-family="Serif" font-weight="normal" text-anchor="start" style="mix-blend-mode: normal"><tspan x="0" dy="0">Time Walk</tspan></text><path d="M112.24575,224.16967v-16.5h120v16.5z" data-paper-data="{&quot;origPos&quot;:null,&quot;index&quot;:null}" fill="#bebebe" stroke="#000000" stroke-width="2" stroke-linecap="butt"/><text transform="translate(114.15523,220.02475) scale(0.2994,0.2994)" font-size="40" xml:space="preserve" data-paper-data="{&quot;origPos&quot;:null,&quot;index&quot;:null}" fill="#000000" fill-rule="nonzero" stroke="none" stroke-width="1" stroke-linecap="butt" stroke-linejoin="miter" stroke-miterlimit="10" stroke-dasharray="" stroke-dashoffset="0" font-family="Serif" font-weight="normal" text-anchor="start" style="mix-blend-mode: normal"><tspan x="0" dy="0">Sorcery</tspan></text><text transform="translate(113.93481,235.24419) scale(0.27609,0.27609)" font-size="40" xml:space="preserve" data-paper-data="{&quot;origPos&quot;:null,&quot;index&quot;:null}" fill="#000000" fill-rule="nonzero" stroke="none" stroke-width="1" stroke-linecap="butt" stroke-linejoin="miter" stroke-miterlimit="10" stroke-dasharray="" stroke-dashoffset="0" font-family="Serif" font-weight="normal" text-anchor="start" style="mix-blend-mode: normal"><tspan x="0" dy="0">Take an extra turn after</tspan><tspan x="0" dy="48px">this one.</tspan></text><text transform="translate(106.91212,289.80954) scale(0.23337,0.23337)" font-size="40" xml:space="preserve" data-paper-data="{&quot;origPos&quot;:null,&quot;index&quot;:null}" fill="#000000" fill-rule="nonzero" stroke="none" stroke-width="1" stroke-linecap="butt" stroke-linejoin="miter" stroke-miterlimit="10" stroke-dasharray="" stroke-dashoffset="0" font-family="Sans Serif" font-weight="normal" text-anchor="start" style="mix-blend-mode: normal"><tspan x="0" dy="0">(c)pthiel23</tspan></text><g data-paper-data="{&quot;index&quot;:null,&quot;origPos&quot;:null}" stroke-linecap="butt"><path d="M218.25764,221.25309v-11.17675h11.46836v11.17675z" data-paper-data="{&quot;origPos&quot;:null}" fill="url(#color-1)" stroke="#ffffff" stroke-width="0.5"/><text transform="translate(220.43336,219.68113) scale(0.29546,0.29546)" font-size="40" xml:space="preserve" data-paper-data="{&quot;origPos&quot;:null}" fill="#ffffff" fill-rule="nonzero" stroke="none" stroke-width="1" stroke-linecap="butt" stroke-linejoin="miter" stroke-miterlimit="10" stroke-dasharray="" stroke-dashoffset="0" font-family="Handwriting" font-weight="normal" text-anchor="start" style="mix-blend-mode: normal"><tspan x="0" dy="0">S</tspan></text></g><text transform="translate(204.86726,113.4889) scale(0.5,0.5)" font-size="40" xml:space="preserve" data-paper-data="{&quot;origPos&quot;:null}" fill="#000000" fill-rule="nonzero" stroke="none" stroke-width="1" stroke-linecap="butt" stroke-linejoin="miter" stroke-miterlimit="10" stroke-dasharray="" stroke-dashoffset="0" font-family="Serif" font-weight="normal" text-anchor="start" style="mix-blend-mode: normal"><tspan x="0" dy="0">1</tspan></text><path d="M182.23152,285.76382c0,2.68369 -4.51848,4.85926 -10.09231,4.85926c-5.57383,0 -10.09231,-2.17556 -10.09231,-4.85926c0,-2.68369 4.51848,-4.85926 10.09231,-4.85926c5.57383,0 10.09231,2.17556 10.09231,4.85926z" data-paper-data="{&quot;origPos&quot;:null,&quot;index&quot;:null}" fill="#ffffff" stroke="#000000" stroke-width="2" stroke-linecap="butt"/><g data-paper-data="{&quot;origPos&quot;:null}" stroke="none" stroke-linecap="butt"><path d="M132.01791,143.71198l14.0305,-25.85921l81.88874,0.61989l-0.29732,25.77104l-58.53441,35.20615z" data-paper-data="{&quot;origPos&quot;:null,&quot;origRot&quot;:0}" fill="url(#color-2)" stroke-width="NaN"/><path d="M176.30232,180.19985l-59.81774,-38.45615l-0.21399,-23.60437l89.38875,-0.28656l6.9305,24.05921z" data-paper-data="{&quot;origPos&quot;:null,&quot;origRot&quot;:0,&quot;index&quot;:null}" fill="url(#color-3)" stroke-width="NaN"/></g><g data-paper-data="{&quot;origPos&quot;:null}" stroke="#000000" stroke-width="4"><g data-paper-data="{&quot;origPos&quot;:null}"><path d="M215.69126,183.57883c-10.11544,10.32097 -26.57584,10.59204 -36.76533,0.60546c-1.73428,-1.69975 -1.83269,-4.05855 -1.03616,-4.88915c29.06178,-30.30448 0.84731,-1.11981 33.74928,-35.38746c0.59983,-0.62473 0.65267,-0.29248 1.27499,0.30986c1.27217,1.2313 1.3787,1.35197 2.64313,2.59122c10.18949,9.98658 10.24952,26.4491 0.13408,36.77007z" data-paper-data="{&quot;origPos&quot;:null,&quot;index&quot;:null}" fill="#ffffff" stroke-linecap="butt"/><path d="M217.08868,179.5638l-21.23594,-18.1705" data-paper-data="{&quot;origPos&quot;:null,&quot;index&quot;:null}" fill="none" stroke-linecap="round"/><path d="M190.8,187.76l0.2,-3.8" data-paper-data="{&quot;origPos&quot;:null}" fill="none" stroke-linecap="round"/><path d="M207.8,187.56l-1.6,-5.2" data-paper-data="{&quot;origPos&quot;:null}" fill="none" stroke-linecap="round"/><path d="M221.4,163.96l-4.8,0.6" data-paper-data="{&quot;origPos&quot;:null}" fill="none" stroke-linecap="round"/><path d="M216,149.76l-5,4.8" data-paper-data="{&quot;origPos&quot;:null}" fill="none" stroke-linecap="round"/></g><g data-paper-data="{&quot;origPos&quot;:null}"><g data-paper-data="{&quot;origPos&quot;:null}"><path d="M129.59776,185.10582c-10.61246,-9.80918 -11.36494,-26.25461 -1.68072,-36.73188c1.20173,-1.30014 1.30218,-1.42592 2.51203,-2.71851c0.59184,-0.63231 0.62821,-0.96677 1.25814,-0.3724c34.55301,32.60214 4.93263,4.84543 35.45456,33.67877c0.83656,0.79028 0.85468,3.15106 -0.79361,4.93433c-9.68423,10.47727 -26.13795,11.01886 -36.75041,1.20968z" data-paper-data="{&quot;origPos&quot;:null,&quot;origRot&quot;:0}" fill="#ffffff" stroke-linecap="butt"/><path d="M153.70429,189.65665l-5.38707,-27.68839" data-paper-data="{&quot;origPos&quot;:null,&quot;origRot&quot;:0}" fill="none" stroke-linecap="round"/></g><path d="M129.6,182.56l2.2,-2.2" data-paper-data="{&quot;origPos&quot;:null}" fill="none" stroke-linecap="round"/><path d="M142.6,190.36l1,-4.8" data-paper-data="{&quot;origPos&quot;:null}" fill="none" stroke-linecap="round"/><path d="M122.2,167.56h4.2" data-paper-data="{&quot;origPos&quot;:null}" fill="none" stroke-linecap="round"/><path d="M124.8,153.56l4.2,3.6" data-paper-data="{&quot;origPos&quot;:null}" fill="none" stroke-linecap="round"/></g></g></g></g></g></svg>