<svg version="1.1" xmlns="http://www.w3.org/2000/svg" xmlns:xlink="http://www.w3.org/1999/xlink" width="142.5" height="211" viewBox="0,0,142.5,211"><defs><linearGradient x1="294.99181" y1="204.07634" x2="294.99181" y2="215.25309" gradientUnits="userSpaceOnUse" id="color-1"><stop offset="0" stop-color="#d1a500"/><stop offset="1" stop-color="#ffca00"/></linearGradient></defs><g transform="translate(-171.83369,-81.5)"><g data-paper-data="{&quot;isPaintingLayer&quot;:true}" fill-rule="nonzero" stroke-linecap="butt" stroke-linejoin="miter" stroke-miterlimit="10" stroke-dasharray="" stroke-dashoffset="0" style="mix-blend-mode: normal"><path d="M174.8337,289.5v-205h136.5v205z" data-paper-data="{&quot;origPos&quot;:null,&quot;index&quot;:null}" fill="#9c5e00" stroke="#000000" stroke-width="6"/><text transform="translate(181.00043,104.36579) scale(0.39773,0.46952)" font-size="40" xml:space="preserve" data-paper-data="{&quot;origPos&quot;:null,&quot;index&quot;:null}" fill="#ffffff" fill-rule="nonzero" stroke="#000000" stroke-width="0" stroke-linecap="butt" stroke-linejoin="miter" stroke-miterlimit="10" stroke-dasharray="" stroke-dashoffset="0" font-family="Serif" font-weight="normal" text-anchor="start" style="mix-blend-mode: normal"><tspan x="0" dy="0">Volcanic Island</tspan></text><path d="M186.49658,201.43297v-90.33333h114.5v90.33333z" data-paper-data="{&quot;origPos&quot;:null,&quot;index&quot;:null}" fill="#ffffff" stroke="#000000" stroke-width="2"/><text transform="translate(185.15542,212.99817) scale(0.27088,0.27088)" font-size="40" xml:space="preserve" data-paper-data="{&quot;origPos&quot;:null,&quot;index&quot;:null}" fill="#ffffff" fill-rule="nonzero" stroke="none" stroke-width="1" stroke-linecap="butt" stroke-linejoin="miter" stroke-miterlimit="10" stroke-dasharray="" stroke-dashoffset="0" font-family="Serif" font-weight="normal" text-anchor="start" style="mix-blend-mode: normal"><tspan x="0" dy="0">Land - Island Mountain</tspan></text><text transform="translate(177.91223,283.80954) scale(0.23338,0.23338)" font-size="40" xml:space="preserve" data-paper-data="{&quot;origPos&quot;:null,&quot;index&quot;:null}" fill="#ffffff" fill-rule="nonzero" stroke="none" stroke-width="1" stroke-linecap="butt" stroke-linejoin="miter" stroke-miterlimit="10" stroke-dasharray="" stroke-dashoffset="0" font-family="Sans Serif" font-weight="normal" text-anchor="start" style="mix-blend-mode: normal"><tspan x="0" dy="0">Illus (c) [pending]</tspan></text><path d="M289.25766,215.25309v-11.17675h11.46836v11.17675z" data-paper-data="{&quot;origPos&quot;:null}" fill="url(#color-1)" stroke="#000000" stroke-width="0.5"/><text transform="translate(290.83339,213.68113) scale(0.29546,0.29546)" font-size="40" xml:space="preserve" data-paper-data="{&quot;origPos&quot;:null}" fill="#000000" fill-rule="nonzero" stroke="none" stroke-width="1" stroke-linecap="butt" stroke-linejoin="miter" stroke-miterlimit="10" stroke-dasharray="" stroke-dashoffset="0" font-family="Handwriting" font-weight="normal" text-anchor="start" style="mix-blend-mode: normal"><tspan x="0" dy="0">B</tspan></text><g><path d="M182.9125,270.91967v-53h120v53z" data-paper-data="{&quot;index&quot;:null}" fill="#ff4f4f" stroke="#000000" stroke-width="2"/><path d="M186.6625,267.16967v-45.55h113v45.55z" data-paper-data="{&quot;index&quot;:null}" fill="#3e5eff" stroke="none" stroke-width="0"/><path d="M189.4125,264.16967v-39.2729h107v39.2729z" data-paper-data="{&quot;index&quot;:null}" fill="#ff4f4f" stroke="none" stroke-width="0"/><path d="M192.9125,260.91967v-33.01714h100v33.01715z" data-paper-data="{&quot;index&quot;:null}" fill="#3e5eff" stroke="none" stroke-width="0"/><path d="M195.9125,257.64641v-26.74389h94v26.74389z" data-paper-data="{&quot;index&quot;:null}" fill="#ff4f4f" stroke="none" stroke-width="0"/><path d="M199.1625,254.49284v-20.84032h87.25v20.84032z" data-paper-data="{&quot;index&quot;:null}" fill="#3e5eff" stroke="none" stroke-width="0"/><path d="M201.9125,251.14641v-14.71282h81.5v14.71282z" data-paper-data="{&quot;index&quot;:null}" fill="#ff4f4f" stroke="none" stroke-width="0"/><path d="M205.1625,248.13629v-9.20269h75.5v9.20269z" data-paper-data="{&quot;index&quot;:null}" fill="#3e5eff" stroke="none" stroke-width="0"/></g><g><text transform="translate(188.41429,239.61086) scale(0.27609,0.27609)" font-size="40" xml:space="preserve" data-paper-data="{&quot;origPos&quot;:null}" fill="#ffffff" fill-rule="nonzero" stroke="none" stroke-width="1" stroke-linecap="butt" stroke-linejoin="miter" stroke-miterlimit="10" stroke-dasharray="" stroke-dashoffset="0" font-family="Serif" font-weight="normal" text-anchor="start" style="mix-blend-mode: normal"><tspan x="0" dy="0">Can be tapped to add</tspan><tspan x="0" dy="48px">or      to your mana pool.</tspan></text><g stroke="#000000" stroke-width="0.5"><path d="M212.51557,250.24858c0,3.38558 -2.80422,6.13014 -6.26341,6.13014c-3.45918,0 -6.26341,-2.74456 -6.26341,-6.13014c0,-3.38558 2.80422,-6.13014 6.26341,-6.13014c3.45918,0 6.26341,2.74456 6.26341,6.13014z" data-paper-data="{&quot;origPos&quot;:null}" fill="#e04a4a"/><path d="M209.981,252.03976c-0.65593,0.68424 -0.44542,0.60411 -1.02784,1.03225c-0.55718,0.40958 -1.35673,0.69568 -2.00149,0.94571c-0.66119,0.25641 -1.10398,0.23012 -1.92675,0.23701c-0.84591,0.04284 -1.07272,-0.00351 -1.68521,-0.09192c-0.03996,-0.00577 -1.38989,-0.03938 -1.33045,-1.86031c0.02083,-0.63804 0.29644,-1.63115 1.48154,-2.02175c0.07915,-0.02609 0.43932,-0.03763 2.13921,-0.36635c0.67593,0.12759 1.09483,0.05005 1.93084,0.63801c0.42138,0.29635 0.59073,0.04784 1.08694,-0.09063c0.73159,-0.20415 0.83559,-0.4152 0.83857,-0.82105c-0.0445,-0.73786 -0.60865,-1.1611 -1.42446,-1.47752c-1.26365,-0.32781 -1.71021,-0.47948 -2.90679,-0.62109c-0.65384,-0.14723 -1.98244,-0.76279 -1.98244,-0.76279c0,0 2.22413,-0.50604 2.25999,-0.49141c1.69121,0.09101 3.77821,0.74635 4.91219,2.06753c0,0 0.48648,0.67779 0.45775,1.31807c-0.03748,0.83523 -0.23014,1.69149 -0.82158,2.36623z" data-paper-data="{&quot;origPos&quot;:null}" fill="#e02222"/></g><g stroke="#000000" stroke-width="0.5"><path d="M296.36683,236.14513c0,3.41746 -2.83062,6.18787 -6.32239,6.18787c-3.49176,0 -6.32239,-2.77041 -6.32239,-6.18787c0,-3.41746 2.83062,-6.18787 6.32239,-6.18787c3.49176,0 6.32239,2.77041 6.32239,6.18787z" data-paper-data="{&quot;origPos&quot;:null}" fill="#00c6c6"/><path d="M292.73141,237.3406c0,1.34775 -1.22544,2.44031 -2.7371,2.44031c-1.51167,0 -2.73711,-1.09256 -2.73711,-2.44031c0,-1.34775 1.35736,-6.13378 2.86903,-6.13378c1.51167,0 2.60519,4.78602 2.60519,6.13378z" data-paper-data="{&quot;origPos&quot;:null}" fill="#009090"/></g></g></g></g></svg>