<svg version="1.1" xmlns="http://www.w3.org/2000/svg" xmlns:xlink="http://www.w3.org/1999/xlink" width="33.18747" height="11.59961" viewBox="0,0,33.18747,11.59961"><g transform="translate(-267.74153,-204.95385)"><g data-paper-data="{&quot;isPaintingLayer&quot;:true}" fill="#000000" fill-rule="nonzero" stroke-linecap="butt" stroke-linejoin="miter" stroke-miterlimit="10" stroke-dasharray="" stroke-dashoffset="0" style="mix-blend-mode: normal"><path d="M272.19587,216.26737c-0.8146,-0.11017 -1.04976,-3.11404 -1.04976,-3.11404c0,0 -3.01136,-0.09161 -3.15863,-0.89926c-0.14723,-0.80762 2.63511,-1.95931 2.63511,-1.95931c0,0 -0.84075,-2.89267 -0.11963,-3.28243c0.72273,-0.38992 2.67728,1.90093 2.67728,1.90093c0,0 2.4907,-1.69553 3.08525,-1.12773c0.59444,0.56624 -0.98157,3.13328 -0.98157,3.13328c0,0 2.38269,1.84564 2.02725,2.58555c-0.35438,0.74219 -3.28274,0.03778 -3.28274,0.03778c0,0 -1.01965,2.83403 -1.83256,2.72522z" data-paper-data="{&quot;origPos&quot;:null,&quot;origRot&quot;:0}" stroke="#ffffff" stroke-width="0.5"/><path d="M276.30573,209.33508l0.073,-1.59734l-1.8708,0.42679c0,0 2.40669,-1.54408 4.49327,-2.27242c1.77056,-0.35321 4.08991,-0.66822 5.38219,-0.68087c6.74701,-0.18147 11.33161,3.01757 14.24946,5.40506c1.07257,0.87762 2.27781,2.75534 2.00774,3.03044c-0.68192,0.69461 -1.05188,-1.00404 -3.87434,-2.74933c-4.18696,-2.58904 -8.39882,-4.15235 -11.49487,-4.18583c-0.70645,-0.00764 -3.5104,0.13825 -3.92756,0.27353c-3.39524,0.26392 -5.03809,2.34997 -5.03809,2.34997z" stroke="#ffffff" stroke-width="0.5"/><path d="M276.90573,208.38508l-1.52415,1.82123l-1.15869,-1.6393l1.94298,-1.0853c0,0 0.61868,-0.21814 0.71848,-0.09628c0.13565,0.16563 0.02138,0.99965 0.02138,0.99965z" stroke="none" stroke-width="0"/></g></g></svg>