<svg version="1.1" xmlns="http://www.w3.org/2000/svg" xmlns:xlink="http://www.w3.org/1999/xlink" width="142.5" height="211" viewBox="0,0,142.5,211"><defs><linearGradient x1="294.9918" y1="204.07634" x2="294.9918" y2="215.25309" gradientUnits="userSpaceOnUse" id="color-1"><stop offset="0" stop-color="#cd3700"/><stop offset="1" stop-color="#ff4400"/></linearGradient><linearGradient x1="242.49596" y1="126.0944" x2="242.49596" y2="193.83333" gradientUnits="userSpaceOnUse" id="color-2"><stop offset="0" stop-color="#00c6c6"/><stop offset="1" stop-color="#009090"/></linearGradient><linearGradient x1="241.55099" y1="138.29661" x2="241.55099" y2="138.98104" gradientUnits="userSpaceOnUse" id="color-3"><stop offset="0" stop-color="#9966ff" stop-opacity="0"/><stop offset="1" stop-color="#9966ff"/></linearGradient></defs><g transform="translate(-171.8335,-81.5)"><g data-paper-data="{&quot;isPaintingLayer&quot;:true}" fill-rule="nonzero" stroke-linejoin="miter" stroke-miterlimit="10" stroke-dasharray="" stroke-dashoffset="0" style="mix-blend-mode: normal"><path d="M174.8335,289.5v-205h136.5v205z" data-paper-data="{&quot;origPos&quot;:null}" fill="#929292" stroke="#000000" stroke-width="6" stroke-linecap="butt"/><path d="M186.1034,201.18297v-90.33333h114.5v90.33333z" data-paper-data="{&quot;origPos&quot;:null}" fill="#d19400" stroke="#000000" stroke-width="2" stroke-linecap="butt"/><path d="M183.24559,271.16967v-53h120v53z" data-paper-data="{&quot;origPos&quot;:null}" fill="#bebebe" stroke="#000000" stroke-width="2" stroke-linecap="butt"/><path d="M183.08636,110.80331v-19.50806h120v19.50806z" data-paper-data="{&quot;origPos&quot;:null}" fill="#bebebe" stroke="#000000" stroke-width="2" stroke-linecap="butt"/><text transform="translate(184.66677,107.36579) scale(0.39773,0.46952)" font-size="40" xml:space="preserve" data-paper-data="{&quot;origPos&quot;:null}" fill="#000000" fill-rule="nonzero" stroke="#000000" stroke-width="0" stroke-linecap="butt" stroke-linejoin="miter" stroke-miterlimit="10" stroke-dasharray="" stroke-dashoffset="0" font-family="Serif" font-weight="normal" text-anchor="start" style="mix-blend-mode: normal"><tspan x="0" dy="0">Mox Sapphire</tspan></text><path d="M183.2456,218.16967v-16.5h120v16.5z" data-paper-data="{&quot;origPos&quot;:null}" fill="#bebebe" stroke="#000000" stroke-width="2" stroke-linecap="butt"/><text transform="translate(289.68746,107.4889) scale(0.5,0.5)" font-size="40" xml:space="preserve" data-paper-data="{&quot;origPos&quot;:null}" fill="#000000" fill-rule="nonzero" stroke="none" stroke-width="1" stroke-linecap="butt" stroke-linejoin="miter" stroke-miterlimit="10" stroke-dasharray="" stroke-dashoffset="0" font-family="Serif" font-weight="normal" text-anchor="start" style="mix-blend-mode: normal"><tspan x="0" dy="0">0</tspan></text><text transform="translate(185.15513,214.02475) scale(0.2994,0.2994)" font-size="40" xml:space="preserve" data-paper-data="{&quot;origPos&quot;:null}" fill="#000000" fill-rule="nonzero" stroke="none" stroke-width="1" stroke-linecap="butt" stroke-linejoin="miter" stroke-miterlimit="10" stroke-dasharray="" stroke-dashoffset="0" font-family="Serif" font-weight="normal" text-anchor="start" style="mix-blend-mode: normal"><tspan x="0" dy="0">Artifact</tspan></text><path d="M289.25762,215.25309v-11.17675h11.46836v11.17675z" data-paper-data="{&quot;origPos&quot;:null}" fill="url(#color-1)" stroke="#ffffff" stroke-width="0.5" stroke-linecap="butt"/><text transform="translate(291.43336,213.68113) scale(0.29546,0.29546)" font-size="40" xml:space="preserve" data-paper-data="{&quot;origPos&quot;:null}" fill="#ffffff" fill-rule="nonzero" stroke="none" stroke-width="1" stroke-linecap="butt" stroke-linejoin="miter" stroke-miterlimit="10" stroke-dasharray="" stroke-dashoffset="0" font-family="Handwriting" font-weight="normal" text-anchor="start" style="mix-blend-mode: normal"><tspan x="0" dy="0">S</tspan></text><path d="M242.85018,193.83333l-38.75042,-53.54604l-0.34338,-8.07228l5.15651,-5.43408l67.15172,-0.68653l5.17093,5.28505l-0.33949,8.20329z" data-paper-data="{&quot;origPos&quot;:null}" fill="url(#color-2)" stroke="#000000" stroke-width="3" stroke-linecap="butt"/><path d="M204.59214,138.98104l73.91769,-0.68443" data-paper-data="{&quot;origPos&quot;:null}" fill="url(#color-3)" stroke="#000000" stroke-width="1.5" stroke-linecap="round"/><path d="M242.15358,191.0621l-24.3561,-51.92002l7.64943,-11.67545" data-paper-data="{&quot;origPos&quot;:null}" fill="none" stroke="#000000" stroke-width="1.5" stroke-linecap="round"/><path d="M257.65504,127.06403l9.86374,11.67545l-24.45481,53.02652" data-paper-data="{&quot;origPos&quot;:null}" fill="none" stroke="#000000" stroke-width="1.5" stroke-linecap="round"/><g data-paper-data="{&quot;origPos&quot;:null}" stroke="#000000" stroke-width="0.5" stroke-linecap="butt"><path d="M243.04708,230.71727c0,3.41746 -2.83062,6.18787 -6.32239,6.18787c-3.49176,0 -6.32239,-2.77041 -6.32239,-6.18787c0,-3.41746 2.83062,-6.18787 6.32239,-6.18787c3.49176,0 6.32239,2.77041 6.32239,6.18787z" data-paper-data="{&quot;origPos&quot;:null}" fill="#00c6c6"/><path d="M239.41161,231.91274c0,1.34775 -1.22544,2.44031 -2.7371,2.44031c-1.51167,0 -2.73711,-1.09256 -2.73711,-2.44031c0,-1.34775 1.35736,-6.13378 2.86903,-6.13378c1.51167,0 2.60519,4.78602 2.60519,6.13378z" data-paper-data="{&quot;origPos&quot;:null}" fill="#009090"/></g><text transform="translate(177.91208,283.80954) scale(0.23338,0.23338)" font-size="40" xml:space="preserve" data-paper-data="{&quot;origPos&quot;:null}" fill="#000000" fill-rule="nonzero" stroke="none" stroke-width="1" stroke-linecap="butt" stroke-linejoin="miter" stroke-miterlimit="10" stroke-dasharray="" stroke-dashoffset="0" font-family="Sans Serif" font-weight="normal" text-anchor="start" style="mix-blend-mode: normal"><tspan x="0" dy="0">(c)pthiel23</tspan></text><text transform="translate(188.41409,234.41086) scale(0.27609,0.27609)" font-size="40" xml:space="preserve" data-paper-data="{&quot;origPos&quot;:null}" fill="#000000" fill-rule="nonzero" stroke="none" stroke-width="1" stroke-linecap="butt" stroke-linejoin="miter" stroke-miterlimit="10" stroke-dasharray="" stroke-dashoffset="0" font-family="Serif" font-weight="normal" text-anchor="start" style="mix-blend-mode: normal"><tspan x="0" dy="0">     : Add      .</tspan></text><g data-paper-data="{&quot;origPos&quot;:null}" stroke="#000000"><path d="M200.45177,231.52588c0,3.89184 -3.22355,7.04681 -7.2,7.04681c-3.97645,0 -7.2,-3.15497 -7.2,-7.04681c0,-3.89184 3.22355,-7.04681 7.2,-7.04681c3.97645,0 7.2,3.15497 7.2,7.04681z" data-paper-data="{&quot;origPos&quot;:null}" fill="#bebebe" stroke-width="0.5" stroke-linecap="butt"/><g data-paper-data="{&quot;origPos&quot;:null}" fill="none" stroke-width="2" stroke-linecap="round"><path d="M195.58261,234.69834c0,0 -2.2739,1.50598 -4.49127,0.38725c-1.97735,-0.99762 -2.19859,-2.7831 -2.11893,-4.15255c0.10865,-1.53849 1.01262,-2.83368 3.33463,-3.49919c4.63831,-0.47169 4.4065,3.46115 4.4065,3.46115" data-paper-data="{&quot;origPos&quot;:null}"/><path d="M198.20062,229.08229l-1.27363,2.47612c0,0 -2.02006,-1.76411 -2.03111,-1.79218" data-paper-data="{&quot;origPos&quot;:null,&quot;origRot&quot;:0}"/></g></g><path d="M252.87022,279.76382c0,2.68369 -4.51848,4.85926 -10.09231,4.85926c-5.57383,0 -10.09231,-2.17556 -10.09231,-4.85926c0,-2.68369 4.51848,-4.85926 10.09231,-4.85926c5.57383,0 10.09231,2.17556 10.09231,4.85926z" data-paper-data="{&quot;origPos&quot;:null}" fill="#ffffff" stroke="#000000" stroke-width="2" stroke-linecap="butt"/></g></g></svg>