<svg version="1.1" xmlns="http://www.w3.org/2000/svg" xmlns:xlink="http://www.w3.org/1999/xlink" width="142.5" height="211" viewBox="0,0,142.5,211"><defs><radialGradient cx="243.49489" cy="156.36681" r="57.16292" gradientUnits="userSpaceOnUse" id="color-1"><stop offset="0" stop-color="#fcb300"/><stop offset="1" stop-color="#fcb300" stop-opacity="0"/></radialGradient><radialGradient cx="243.22523" cy="156.27304" r="47.21911" gradientUnits="userSpaceOnUse" id="color-2"><stop offset="0" stop-color="#ffb500"/><stop offset="1" stop-color="#ffb500" stop-opacity="0"/></radialGradient><linearGradient x1="295.15653" y1="200.12344" x2="295.15653" y2="221.53192" gradientTransform="translate(-647.61111,-484.6972) scale(2.2421,2.2421)" gradientUnits="userSpaceOnUse" id="color-3"><stop offset="0" stop-color="#464646"/><stop offset="1" stop-color="#acacac"/></linearGradient></defs><g transform="translate(-172.07822,-81.5)"><g data-paper-data="{&quot;isPaintingLayer&quot;:true}" fill-rule="nonzero" stroke-linejoin="miter" stroke-miterlimit="10" stroke-dasharray="" stroke-dashoffset="0" style="mix-blend-mode: normal"><path d="M175.07822,289.5v-205h136.5v205z" data-paper-data="{&quot;origPos&quot;:null,&quot;index&quot;:null}" fill="#929292" stroke="#000000" stroke-width="6" stroke-linecap="butt"/><path d="M183.24559,271.16967v-53h120v53z" data-paper-data="{&quot;origPos&quot;:null,&quot;index&quot;:null}" fill="#bebebe" stroke="#000000" stroke-width="2" stroke-linecap="butt"/><path d="M183.08636,110.80331v-19.50806h120v19.50806z" data-paper-data="{&quot;origPos&quot;:null,&quot;index&quot;:null}" fill="#bebebe" stroke="#000000" stroke-width="2" stroke-linecap="butt"/><text transform="translate(184.66677,107.36579) scale(0.39773,0.46952)" font-size="40" xml:space="preserve" data-paper-data="{&quot;origPos&quot;:null,&quot;index&quot;:null}" fill="#000000" fill-rule="nonzero" stroke="#000000" stroke-width="0" stroke-linecap="butt" stroke-linejoin="miter" stroke-miterlimit="10" stroke-dasharray="" stroke-dashoffset="0" font-family="Serif" font-weight="normal" text-anchor="start" style="mix-blend-mode: normal"><tspan x="0" dy="0">Sol Ring</tspan></text><path d="M185.91296,200.84964v-90.33333h114.5v90.33333z" data-paper-data="{&quot;origPos&quot;:null,&quot;index&quot;:null}" fill="#000000" stroke="#000000" stroke-width="2" stroke-linecap="butt"/><path d="M183.2456,218.16967v-16.5h120v16.5z" data-paper-data="{&quot;origPos&quot;:null,&quot;index&quot;:null}" fill="#bebebe" stroke="#000000" stroke-width="2" stroke-linecap="butt"/><text transform="translate(289.68746,107.4889) scale(0.5,0.5)" font-size="40" xml:space="preserve" data-paper-data="{&quot;origPos&quot;:null,&quot;index&quot;:null}" fill="#000000" fill-rule="nonzero" stroke="none" stroke-width="1" stroke-linecap="butt" stroke-linejoin="miter" stroke-miterlimit="10" stroke-dasharray="" stroke-dashoffset="0" font-family="Serif" font-weight="normal" text-anchor="start" style="mix-blend-mode: normal"><tspan x="0" dy="0">1</tspan></text><text transform="translate(177.91212,283.80954) scale(0.23337,0.23337)" font-size="40" xml:space="preserve" data-paper-data="{&quot;origPos&quot;:null,&quot;index&quot;:null}" fill="#000000" fill-rule="nonzero" stroke="none" stroke-width="1" stroke-linecap="butt" stroke-linejoin="miter" stroke-miterlimit="10" stroke-dasharray="" stroke-dashoffset="0" font-family="Sans Serif" font-weight="normal" text-anchor="start" style="mix-blend-mode: normal"><tspan x="0" dy="0">(c)pthiel23</tspan></text><text transform="translate(185.15513,214.02475) scale(0.2994,0.2994)" font-size="40" xml:space="preserve" data-paper-data="{&quot;origPos&quot;:null,&quot;index&quot;:null}" fill="#000000" fill-rule="nonzero" stroke="none" stroke-width="1" stroke-linecap="butt" stroke-linejoin="miter" stroke-miterlimit="10" stroke-dasharray="" stroke-dashoffset="0" font-family="Serif" font-weight="normal" text-anchor="start" style="mix-blend-mode: normal"><tspan x="0" dy="0">Artifact</tspan></text><text transform="translate(188.87472,234.41086) scale(0.27609,0.27609)" font-size="40" xml:space="preserve" data-paper-data="{&quot;origPos&quot;:null}" fill="#000000" fill-rule="nonzero" stroke="none" stroke-width="1" stroke-linecap="butt" stroke-linejoin="miter" stroke-miterlimit="10" stroke-dasharray="" stroke-dashoffset="0" font-family="Serif" font-weight="normal" text-anchor="start" style="mix-blend-mode: normal"><tspan x="0" dy="0">     : Add           .</tspan></text><path d="M200.91239,231.52588c0,3.89184 -3.22355,7.04681 -7.2,7.04681c-3.97645,0 -7.2,-3.15497 -7.2,-7.04681c0,-3.89184 3.22355,-7.04681 7.2,-7.04681c3.97645,0 7.2,3.15497 7.2,7.04681z" data-paper-data="{&quot;origPos&quot;:null}" fill="#bebebe" stroke="#000000" stroke-width="0.5" stroke-linecap="butt"/><g data-paper-data="{&quot;origPos&quot;:null}" fill="none" stroke="#000000" stroke-width="2" stroke-linecap="round"><path d="M196.04324,234.69834c0,0 -2.2739,1.50598 -4.49127,0.38725c-1.97735,-0.99762 -2.19859,-2.7831 -2.11893,-4.15255c0.10865,-1.53849 1.01262,-2.83368 3.33463,-3.49919c4.63831,-0.47169 4.4065,3.46115 4.4065,3.46115" data-paper-data="{&quot;origPos&quot;:null}"/><path d="M198.66124,229.08229l-1.27363,2.47612c0,0 -2.02006,-1.76411 -2.03111,-1.79218" data-paper-data="{&quot;origPos&quot;:null,&quot;origRot&quot;:0}"/></g><path d="M186.33197,158.67018v-4.60674h114.32584v4.60674z" data-paper-data="{&quot;origPos&quot;:null}" fill="url(#color-1)" stroke="none" stroke-width="0" stroke-linecap="butt"/><path d="M221.34321,154.89102c0,-12.33953 10.00316,-22.3427 22.34269,-22.3427c12.33953,0 22.3427,10.00317 22.3427,22.3427c0,12.33953 -10.00317,22.34269 -22.3427,22.34269c-12.33953,0 -22.34269,-10.00316 -22.34269,-22.34269z" data-paper-data="{&quot;origPos&quot;:null}" fill="none" stroke="#b6b6b6" stroke-width="7" stroke-linecap="butt"/><path d="M196.00613,156.27304c0,-26.07839 21.14071,-47.2191 47.2191,-47.2191c26.07839,0 47.21911,21.14071 47.21911,47.2191c0,26.07839 -21.14071,47.2191 -47.21911,47.2191c-26.07839,0 -47.2191,-21.14071 -47.2191,-47.2191z" data-paper-data="{&quot;origPos&quot;:null}" fill="url(#color-2)" stroke="none" stroke-width="0" stroke-linecap="butt"/><g data-paper-data="{&quot;origPos&quot;:null}" fill="#9e9e9e" stroke="#000000" stroke-linecap="butt"><path d="M242.64041,230.59971c0,3.42059 -2.8493,6.19353 -6.36411,6.19353c-3.51481,0 -6.36411,-2.77294 -6.36411,-6.19353c0,-3.42059 2.8493,-6.19353 6.36411,-6.19353c3.51481,0 6.36411,2.77294 6.36411,6.19353z" data-paper-data="{&quot;origPos&quot;:null}" stroke-width="0.5"/><path d="M232.31608,230.53134l4.028,-3.86994l3.83619,4.06344l-4.02799,3.86994z" data-paper-data="{&quot;origRot&quot;:0,&quot;origPos&quot;:null}" stroke-width="2"/></g><g data-paper-data="{&quot;origPos&quot;:null}" fill="#9e9e9e" stroke="#000000" stroke-linecap="butt"><path d="M256.89041,230.59971c0,3.42059 -2.8493,6.19353 -6.36411,6.19353c-3.51481,0 -6.36411,-2.77294 -6.36411,-6.19353c0,-3.42059 2.8493,-6.19353 6.36411,-6.19353c3.51481,0 6.36411,2.77294 6.36411,6.19353z" data-paper-data="{&quot;origPos&quot;:null}" stroke-width="0.5"/><path d="M246.56608,230.53134l4.028,-3.86994l3.83619,4.06344l-4.02799,3.86994z" data-paper-data="{&quot;origRot&quot;:0,&quot;origPos&quot;:null}" stroke-width="2"/></g><text transform="translate(288.84103,216.1798) scale(0.44601,0.44601)" font-size="40" xml:space="preserve" data-paper-data="{&quot;origPos&quot;:null}" fill="url(#color-3)" fill-rule="nonzero" stroke="#000000" stroke-width="1" stroke-linecap="butt" stroke-linejoin="miter" stroke-miterlimit="10" stroke-dasharray="" stroke-dashoffset="0" font-family="Sans Serif" font-weight="normal" text-anchor="start" style="mix-blend-mode: normal"><tspan x="0" dy="0">II</tspan></text></g></g></svg>