<svg version="1.1" xmlns="http://www.w3.org/2000/svg" xmlns:xlink="http://www.w3.org/1999/xlink" width="142.5" height="211" viewBox="0,0,142.5,211"><g transform="translate(-171.83349,-81.63144)"><g data-paper-data="{&quot;isPaintingLayer&quot;:true}" fill-rule="nonzero" stroke-linecap="butt" stroke-linejoin="miter" stroke-miterlimit="10" stroke-dasharray="" stroke-dashoffset="0" style="mix-blend-mode: normal"><path d="M174.8335,289.63144v-205h136.5v205z" data-paper-data="{&quot;origPos&quot;:null}" fill="#987209" stroke="#000000" stroke-width="6"/><path d="M183.08637,110.80334v-19.50806h120v19.50806z" data-paper-data="{&quot;origPos&quot;:null}" fill="#fa4f4f" stroke="#940000" stroke-width="2"/><path d="M183.24566,283.4543v-16.5h120v16.5z" data-paper-data="{&quot;origPos&quot;:null}" fill="#fa4f4f" stroke="#940000" stroke-width="2"/><path d="M186.10347,266.05431v-155.32703h114.5v155.32703z" data-paper-data="{&quot;origPos&quot;:null}" fill="#00ab9a" stroke="#940000" stroke-width="2"/><path d="M289.92429,280.91978v-11.17675h11.46836v11.17675z" data-paper-data="{&quot;origPos&quot;:null}" fill="#000000" stroke="#ffffff" stroke-width="0.5"/><text transform="translate(184.43585,278.94642) scale(0.28163,0.28163)" font-size="40" xml:space="preserve" data-paper-data="{&quot;origPos&quot;:null}" fill="#000000" fill-rule="nonzero" stroke="none" stroke-width="1" stroke-linecap="butt" stroke-linejoin="miter" stroke-miterlimit="10" stroke-dasharray="" stroke-dashoffset="0" font-family="Serif" font-weight="normal" text-anchor="start" style="mix-blend-mode: normal"><tspan x="0" dy="0">Basic Land - Mountain</tspan></text><path d="M213.36457,213.4294l85.46029,-22.2958l0.27142,61.92531l-111.61428,-1.68914l0.08366,-73.98917z" data-paper-data="{&quot;origPos&quot;:null,&quot;origRot&quot;:0,&quot;index&quot;:null}" fill="#747474" stroke="#000000" stroke-width="2"/><path d="M243.7924,174.68397l25.68854,25.04691l20.46112,52.62766l-101.90715,0.30712l19.75685,-42.212l21.23078,-5.24898z" data-paper-data="{&quot;origPos&quot;:null,&quot;origRot&quot;:0}" fill="#747474" stroke="#000000" stroke-width="2"/><path d="M187.37686,264.84036v-11.51686h111.82334v11.51686z" data-paper-data="{&quot;origPos&quot;:null}" fill="#00ab0a" stroke="#000000" stroke-width="2"/><g data-paper-data="{&quot;origPos&quot;:null}" fill="#ffffff" stroke="none" stroke-width="0"><path d="M187.28873,140.51898v-6.2273h43.59108v6.2273z" data-paper-data="{&quot;origPos&quot;:null}"/><path d="M187.28873,134.24801c0,-2.40747 2.30014,-4.3591 5.13752,-4.3591c2.83738,0 5.13752,1.95164 5.13752,4.3591c0,2.40747 -2.30015,4.35911 -5.13752,4.35911c-2.83738,0 -5.13752,-1.95164 -5.13752,-4.35911z" data-paper-data="{&quot;origPos&quot;:null}"/><path d="M193.31524,131.67156c0,-2.40747 2.30014,-4.3591 5.13751,-4.3591c2.83738,0 5.13752,1.95163 5.13752,4.3591c0,2.40747 -2.30015,4.35911 -5.13752,4.35911c-2.83738,0 -5.13751,-1.95164 -5.13751,-4.35911z" data-paper-data="{&quot;origPos&quot;:null}"/><path d="M200.91346,133.89291c0,-2.40747 2.30014,-4.3591 5.13752,-4.3591c2.83738,0 5.13752,1.95164 5.13752,4.3591c0,2.40747 -2.30014,4.35911 -5.13752,4.35911c-2.83738,0 -5.13752,-1.95164 -5.13752,-4.35911z" data-paper-data="{&quot;origPos&quot;:null}"/><path d="M207.51903,133.30176c0,-2.40747 2.30015,-4.3591 5.13752,-4.3591c2.83738,0 5.13752,1.95164 5.13752,4.3591c0,2.40747 -2.30014,4.35911 -5.13752,4.35911c-2.83738,0 -5.13752,-1.95164 -5.13752,-4.35911z" data-paper-data="{&quot;origPos&quot;:null}"/><path d="M213.71101,134.44771c0,-2.40747 2.30014,-4.3591 5.13751,-4.3591c2.83738,0 5.13752,1.95164 5.13752,4.3591c0,2.40747 -2.30015,4.35911 -5.13752,4.35911c-2.83738,0 -5.13751,-1.95164 -5.13751,-4.35911z" data-paper-data="{&quot;origPos&quot;:null}"/><path d="M220.64744,134.18748c0,-2.40747 2.30014,-4.3591 5.13752,-4.3591c2.83738,0 5.13752,1.95164 5.13752,4.3591c0,2.40747 -2.30014,4.35911 -5.13752,4.35911c-2.83738,0 -5.13752,-1.95164 -5.13752,-4.35911z" data-paper-data="{&quot;origPos&quot;:null}"/><path d="M226.58379,136.78107c0,-2.06483 1.75561,-3.7387 3.92127,-3.7387c2.16565,0 3.92127,1.67387 3.92127,3.7387c0,2.06483 -1.75562,3.73871 -3.92127,3.73871c-2.16565,0 -3.92127,-1.67388 -3.92127,-3.73871z" data-paper-data="{&quot;origPos&quot;:null}"/></g><g data-paper-data="{&quot;index&quot;:null,&quot;origPos&quot;:null}" fill="#ffffff" stroke="none" stroke-width="0"><path d="M282.00647,160.51943v-2.51173h17.58213v2.51173z" data-paper-data="{&quot;origPos&quot;:null}"/><path d="M297.51642,159.7483c-1.14443,0 -2.07218,-0.78718 -2.07218,-1.75822c0,-0.97104 0.92775,-1.75821 2.07218,-1.75821c1.14443,0 2.07218,0.78718 2.07218,1.75821c0,0.97104 -0.92775,1.75822 -2.07218,1.75822z" data-paper-data="{&quot;origPos&quot;:null}"/><path d="M295.08565,158.70914c-1.14443,0 -2.07218,-0.78718 -2.07218,-1.75822c0,-0.97104 0.92775,-1.75821 2.07218,-1.75821c1.14443,0 2.07218,0.78718 2.07218,1.75821c0,0.97104 -0.92774,1.75822 -2.07218,1.75822z" data-paper-data="{&quot;origPos&quot;:null}"/><path d="M292.02099,159.6051c-1.14443,0 -2.07218,-0.78718 -2.07218,-1.75822c0,-0.97104 0.92775,-1.75821 2.07218,-1.75821c1.14443,0 2.07218,0.78717 2.07218,1.75821c0,0.97104 -0.92775,1.75822 -2.07218,1.75822z" data-paper-data="{&quot;origPos&quot;:null}"/><path d="M289.35668,159.36667c-1.14443,0 -2.07218,-0.78718 -2.07218,-1.75822c0,-0.97104 0.92775,-1.75822 2.07218,-1.75822c1.14443,0 2.07219,0.78718 2.07219,1.75822c0,0.97104 -0.92775,1.75822 -2.07219,1.75822z" data-paper-data="{&quot;origPos&quot;:null}"/><path d="M286.85918,159.82889c-1.14443,0 -2.07218,-0.78718 -2.07218,-1.75821c0,-0.97104 0.92775,-1.75822 2.07218,-1.75822c1.14443,0 2.07218,0.78718 2.07218,1.75822c0,0.97104 -0.92775,1.75821 -2.07218,1.75821z" data-paper-data="{&quot;origPos&quot;:null}"/><path d="M284.06145,159.72391c-1.14443,0 -2.07218,-0.78718 -2.07218,-1.75822c0,-0.97104 0.92775,-1.75821 2.07218,-1.75821c1.14443,0 2.07218,0.78717 2.07218,1.75821c0,0.97104 -0.92775,1.75822 -2.07218,1.75822z" data-paper-data="{&quot;origPos&quot;:null}"/><path d="M282.15761,160.51979c-0.8735,0 -1.58161,-0.67515 -1.58161,-1.50798c0,-0.83283 0.70812,-1.50797 1.58161,-1.50797c0.8735,0 1.58161,0.67514 1.58161,1.50797c0,0.83283 -0.70812,1.50798 -1.58161,1.50798z" data-paper-data="{&quot;origPos&quot;:null}"/></g><text transform="translate(184.66678,107.66418) scale(0.51462,0.49722)" font-size="40" xml:space="preserve" data-paper-data="{&quot;origPos&quot;:null}" fill="#000000" fill-rule="nonzero" stroke="#000000" stroke-width="0" stroke-linecap="butt" stroke-linejoin="miter" stroke-miterlimit="10" stroke-dasharray="" stroke-dashoffset="0" font-family="Serif" font-weight="normal" text-anchor="start" style="mix-blend-mode: normal"><tspan x="0" dy="0">Mountain</tspan></text><text transform="translate(292.10004,279.34782) scale(0.29546,0.29546)" font-size="40" xml:space="preserve" data-paper-data="{&quot;origPos&quot;:null}" fill="#ffffff" fill-rule="nonzero" stroke="none" stroke-width="1" stroke-linecap="butt" stroke-linejoin="miter" stroke-miterlimit="10" stroke-dasharray="" stroke-dashoffset="0" font-family="Handwriting" font-weight="normal" text-anchor="start" style="mix-blend-mode: normal"><tspan x="0" dy="0">S</tspan></text></g></g></svg>