<svg version="1.1" xmlns="http://www.w3.org/2000/svg" xmlns:xlink="http://www.w3.org/1999/xlink" width="164.46296" height="269.49998" viewBox="0,0,164.46296,269.49998"><g transform="translate(-90.28718,-64.05004)"><g data-paper-data="{&quot;isPaintingLayer&quot;:true}" fill-rule="nonzero" stroke-linecap="butt" stroke-linejoin="miter" stroke-miterlimit="10" stroke-dasharray="" stroke-dashoffset="0" style="mix-blend-mode: normal"><path d="M93.03718,330.80001v-263h158.96296v263.00001z" data-paper-data="{&quot;origPos&quot;:null}" fill="#828282" stroke="#000000" stroke-width="5.5"/><text transform="translate(104.00011,85.80004) scale(0.5,0.5)" font-size="40" xml:space="preserve" data-paper-data="{&quot;origPos&quot;:null}" fill="#000000" fill-rule="nonzero" stroke="none" stroke-width="1" stroke-linecap="butt" stroke-linejoin="miter" stroke-miterlimit="10" stroke-dasharray="" stroke-dashoffset="0" font-family="Sans Serif" font-weight="normal" text-anchor="start" style="mix-blend-mode: normal"><tspan x="0" dy="0">Revealed Card</tspan></text><path d="M103.83354,295.67312v-205h136.5v205.00002z" data-paper-data="{&quot;origPos&quot;:null}" fill="#987209" stroke="#000000" stroke-width="6"/><path d="M112.08642,118.55335v-19.50806h120v19.50806z" data-paper-data="{&quot;origPos&quot;:null}" fill="#bebebe" stroke="#00c6c6" stroke-width="2"/><path d="M112.24571,291.2043v-16.5h120v16.5z" data-paper-data="{&quot;origPos&quot;:null}" fill="#bebebe" stroke="#00c6c6" stroke-width="2"/><path d="M115.10352,273.80431v-155.32703h114.5v155.32703z" data-paper-data="{&quot;origPos&quot;:null}" fill="#007eab" stroke="#00c6c6" stroke-width="2"/><path d="M218.92433,288.66979v-11.17676h11.46836v11.17676z" data-paper-data="{&quot;origPos&quot;:null}" fill="#000000" stroke="#ffffff" stroke-width="0.5"/><text transform="translate(113.66683,115.4142) scale(0.51462,0.49722)" font-size="40" xml:space="preserve" data-paper-data="{&quot;origPos&quot;:null}" fill="#000000" fill-rule="nonzero" stroke="#000000" stroke-width="0" stroke-linecap="butt" stroke-linejoin="miter" stroke-miterlimit="10" stroke-dasharray="" stroke-dashoffset="0" font-family="Serif" font-weight="normal" text-anchor="start" style="mix-blend-mode: normal"><tspan x="0" dy="0">Island</tspan></text><text transform="translate(221.10009,287.09783) scale(0.29546,0.29546)" font-size="40" xml:space="preserve" data-paper-data="{&quot;origPos&quot;:null}" fill="#ffffff" fill-rule="nonzero" stroke="none" stroke-width="1" stroke-linecap="butt" stroke-linejoin="miter" stroke-miterlimit="10" stroke-dasharray="" stroke-dashoffset="0" font-family="Handwriting" font-weight="normal" text-anchor="start" style="mix-blend-mode: normal"><tspan x="0" dy="0">S</tspan></text><text transform="translate(113.43586,286.18244) scale(0.26735,0.26735)" font-size="40" xml:space="preserve" data-paper-data="{&quot;origPos&quot;:null}" fill="#000000" fill-rule="nonzero" stroke="none" stroke-width="1" stroke-linecap="butt" stroke-linejoin="miter" stroke-miterlimit="10" stroke-dasharray="" stroke-dashoffset="0" font-family="Serif" font-weight="normal" text-anchor="start" style="mix-blend-mode: normal"><tspan x="0" dy="0">Basic Land - Island</tspan></text><path d="M127.37901,205.22621v-14.84901h89.02289v14.84901c0,0 -2.40522,27.43965 -22.1347,28.23014c-3.60441,0.14442 -19.90433,-1.27228 -22.24661,-4.01569c-6.7043,-7.85249 -4.97769,-6.03687 -12.71086,-12.87845c-2.67676,-2.36815 -11.59138,-1.87097 -14.98153,-0.73959c-6.98798,2.33207 1.63231,19.07027 -5.73454,19.07027c-1.64482,0 -11.21464,-29.66667 -11.21464,-29.66667z" data-paper-data="{&quot;origPos&quot;:null}" fill="#ab5c00" stroke="none" stroke-width="0"/><path d="M171.72772,200.58842c-24.49312,0 -44.34872,-4.41235 -44.34872,-9.85527c0,-5.44292 19.8556,-9.85527 44.34872,-9.85527c24.49312,0 44.34872,4.41235 44.34872,9.85527c0,5.44292 -19.8556,9.85527 -44.34872,9.85527z" data-paper-data="{&quot;origPos&quot;:null}" fill="#ab5c00" stroke="none" stroke-width="0"/></g></g></svg>