<svg version="1.1" xmlns="http://www.w3.org/2000/svg" xmlns:xlink="http://www.w3.org/1999/xlink" width="142.5" height="211" viewBox="0,0,142.5,211"><defs><linearGradient x1="294.99181" y1="204.07639" x2="294.99181" y2="215.25313" gradientUnits="userSpaceOnUse" id="color-1"><stop offset="0" stop-color="#d1a500"/><stop offset="1" stop-color="#ffca00"/></linearGradient><linearGradient x1="295.15363" y1="200.12154" x2="295.15363" y2="221.5298" gradientTransform="translate(-647.61111,-484.6973) scale(2.2421,2.2421)" gradientUnits="userSpaceOnUse" id="color-2"><stop offset="0" stop-color="#d1a500"/><stop offset="1" stop-color="#ffca00"/></linearGradient><linearGradient x1="227.04483" y1="155.9896" x2="300.17948" y2="155.9896" gradientUnits="userSpaceOnUse" id="color-3"><stop offset="0" stop-color="#ff3100"/><stop offset="1" stop-color="#ffb500"/></linearGradient></defs><g transform="translate(-172.07822,-81.29895)"><g data-paper-data="{&quot;isPaintingLayer&quot;:true}" fill-rule="nonzero" stroke-linejoin="miter" stroke-miterlimit="10" stroke-dasharray="" stroke-dashoffset="0" style="mix-blend-mode: normal"><path d="M289.25766,215.25313v-11.17675h11.46836v11.17675z" data-paper-data="{&quot;origPos&quot;:null}" fill="url(#color-1)" stroke="#000000" stroke-width="0.5" stroke-linecap="butt"/><path d="M175.07822,289.29895v-205h136.5v205z" data-paper-data="{&quot;index&quot;:null}" fill="#ff4d4d" stroke="#000000" stroke-width="6" stroke-linecap="butt"/><path d="M183.24559,271.16972v-53h120v53z" data-paper-data="{&quot;origPos&quot;:null,&quot;index&quot;:null}" fill="#bebebe" stroke="#000000" stroke-width="2" stroke-linecap="butt"/><path d="M183.08636,110.80336v-19.50806h120v19.50806z" data-paper-data="{&quot;origPos&quot;:null,&quot;index&quot;:null}" fill="#bebebe" stroke="#000000" stroke-width="2" stroke-linecap="butt"/><text transform="translate(184.66677,107.36584) scale(0.39773,0.46952)" font-size="40" xml:space="preserve" data-paper-data="{&quot;origPos&quot;:null,&quot;index&quot;:null}" fill="#000000" fill-rule="nonzero" stroke="#000000" stroke-width="0" stroke-linecap="butt" stroke-linejoin="miter" stroke-miterlimit="10" stroke-dasharray="" stroke-dashoffset="0" font-family="Serif" font-weight="normal" text-anchor="start" style="mix-blend-mode: normal"><tspan x="0" dy="0">Char</tspan></text><path d="M183.2456,218.16972v-16.5h120v16.5z" data-paper-data="{&quot;origPos&quot;:null,&quot;index&quot;:null}" fill="#bebebe" stroke="#000000" stroke-width="2" stroke-linecap="butt"/><text transform="translate(177.91212,283.80958) scale(0.23337,0.23337)" font-size="40" xml:space="preserve" data-paper-data="{&quot;origPos&quot;:null,&quot;index&quot;:null}" fill="#000000" fill-rule="nonzero" stroke="none" stroke-width="1" stroke-linecap="butt" stroke-linejoin="miter" stroke-miterlimit="10" stroke-dasharray="" stroke-dashoffset="0" font-family="Sans Serif" font-weight="normal" text-anchor="start" style="mix-blend-mode: normal"><tspan x="0" dy="0">(c)[pending]</tspan></text><text transform="translate(185.1553,214.02479) scale(0.2994,0.2994)" font-size="40" xml:space="preserve" data-paper-data="{&quot;origPos&quot;:null,&quot;index&quot;:null}" fill="#000000" fill-rule="nonzero" stroke="none" stroke-width="1" stroke-linecap="butt" stroke-linejoin="miter" stroke-miterlimit="10" stroke-dasharray="" stroke-dashoffset="0" font-family="Serif" font-weight="normal" text-anchor="start" style="mix-blend-mode: normal"><tspan x="0" dy="0">Instant</tspan></text><text transform="translate(185.76814,229.91091) scale(0.27609,0.27609)" font-size="40" xml:space="preserve" data-paper-data="{&quot;origPos&quot;:null}" fill="#000000" fill-rule="nonzero" stroke="none" stroke-width="1" stroke-linecap="butt" stroke-linejoin="miter" stroke-miterlimit="10" stroke-dasharray="" stroke-dashoffset="0" font-family="Serif" font-weight="normal" text-anchor="start" style="mix-blend-mode: normal"><tspan x="0" dy="0">Char deals 4 damage to</tspan><tspan x="0" dy="48px">target creature or player</tspan><tspan x="0" dy="48px">and 2 damage to you.</tspan></text><path d="M253.23163,279.76383c0,2.68369 -4.51848,4.85926 -10.09231,4.85926c-5.57383,0 -10.09231,-2.17556 -10.09231,-4.85926c0,-2.68369 4.51848,-4.85926 10.09231,-4.85926c5.57383,0 10.09231,2.17556 10.09231,4.85926z" data-paper-data="{&quot;origPos&quot;:null,&quot;index&quot;:null}" fill="#ffffff" stroke="#000000" stroke-width="2" stroke-linecap="butt"/><g data-paper-data="{&quot;origPos&quot;:null}" stroke="#000000" stroke-width="0.5" stroke-linecap="butt"><path d="M300.44408,101.07192c0,4.03076 -3.33862,7.29835 -7.45702,7.29835c-4.11839,0 -7.45702,-3.26759 -7.45702,-7.29835c0,-4.03076 3.33862,-7.29835 7.45702,-7.29835c4.11839,0 7.45702,3.26759 7.45702,7.29835z" data-paper-data="{&quot;origPos&quot;:null}" fill="#e04a4a"/><path d="M297.42668,103.20444c-0.78092,0.81463 -0.5303,0.71925 -1.22371,1.22898c-0.66336,0.48763 -1.61528,0.82825 -2.38291,1.12593c-0.78719,0.30527 -1.31436,0.27397 -2.29394,0.28218c-1.00711,0.051 -1.27715,-0.00418 -2.00636,-0.10944c-0.04758,-0.00687 -1.65476,-0.04688 -1.58399,-2.21483c0.0248,-0.75963 0.35294,-1.942 1.76387,-2.40703c0.09423,-0.03106 0.52303,-0.0448 2.54688,-0.43615c0.80474,0.1519 1.30347,0.05958 2.2988,0.75958c0.50168,0.35284 0.70332,0.05694 1.29408,-0.1079c0.87101,-0.24305 0.99483,-0.49432 0.99839,-0.9775c-0.05298,-0.87846 -0.72464,-1.38237 -1.69592,-1.75909c-1.50446,-0.39028 -2.03612,-0.57085 -3.46073,-0.73945c-0.77844,-0.17529 -2.36023,-0.90815 -2.36023,-0.90815c0,0 2.64798,-0.60248 2.69068,-0.58506c2.01349,0.10835 4.49822,0.88858 5.8483,2.46154c0,0 0.57919,0.80696 0.54498,1.56925c-0.04462,0.99441 -0.27399,2.01385 -0.97815,2.81716z" data-paper-data="{&quot;origPos&quot;:null}" fill="#e02222"/></g><path d="M186.24629,201.18302v-90.33333h114.5v90.33333z" data-paper-data="{&quot;origPos&quot;:null,&quot;index&quot;:null}" fill="#bebebe" stroke="none" stroke-width="0" stroke-linecap="butt"/><text transform="translate(275.86726,107.48896) scale(0.5,0.5)" font-size="40" xml:space="preserve" data-paper-data="{&quot;origPos&quot;:null}" fill="#000000" fill-rule="nonzero" stroke="none" stroke-width="1" stroke-linecap="butt" stroke-linejoin="miter" stroke-miterlimit="10" stroke-dasharray="" stroke-dashoffset="0" font-family="Serif" font-weight="normal" text-anchor="start" style="mix-blend-mode: normal"><tspan x="0" dy="0">2</tspan></text><g data-paper-data="{&quot;index&quot;:null}" stroke-width="2.5"><path d="M206.82802,187.78853l8,-16.5l6.7,16.56" data-paper-data="{&quot;origPos&quot;:null}" fill="none" stroke="#b24600" stroke-linecap="round"/><path d="M214.72808,172.24853l0.2,-15.6l13.40523,1.00733" data-paper-data="{&quot;origPos&quot;:null}" fill="none" stroke="#b24600" stroke-linecap="round"/><path d="M202.9228,165.4391l11.40523,-9.19058" data-paper-data="{&quot;origPos&quot;:null}" fill="none" stroke="#b24600" stroke-linecap="round"/><path d="M220.72808,149.44851c0,3.42416 -2.64152,6.2 -5.9,6.2c-3.25848,0 -5.9,-2.77584 -5.9,-6.2c0,-3.42416 2.64152,-6.2 5.9,-6.2c3.25848,0 5.9,2.77584 5.9,6.2z" data-paper-data="{&quot;origPos&quot;:null}" fill="#000000" stroke="#000000" stroke-linecap="butt"/></g><text transform="translate(288.84103,216.17985) scale(0.44601,0.44601)" font-size="40" xml:space="preserve" data-paper-data="{&quot;origPos&quot;:null}" fill="url(#color-2)" fill-rule="nonzero" stroke="#000000" stroke-width="1" stroke-linecap="butt" stroke-linejoin="miter" stroke-miterlimit="10" stroke-dasharray="" stroke-dashoffset="0" font-family="Sans Serif" font-weight="normal" text-anchor="start" style="mix-blend-mode: normal"><tspan x="0" dy="0">II</tspan></text><path d="M238.70512,177.78033c-19.83372,-19.76143 -10.58725,-26.83763 0,-38.24182c10.58725,-11.40419 61.47436,-27.97604 61.47436,-27.97604l-0.37341,88.85426c0,0 -41.26722,-2.87498 -61.10094,-22.6364z" fill="url(#color-3)" stroke="none" stroke-width="0" stroke-linecap="butt"/><g><g data-paper-data="{&quot;origPos&quot;:null}" stroke="#000000" stroke-width="2.5"><path d="M279.40153,184.85899l6.7,-16.56l8,16.5" data-paper-data="{&quot;origPos&quot;:null}" fill="none" stroke-linecap="round"/><path d="M272.59624,154.66631l13.40523,-1.00733l0.2,15.6" data-paper-data="{&quot;origPos&quot;:null}" fill="none" stroke-linecap="round"/><path d="M273.07704,150.38678l13.52448,2.87218" data-paper-data="{&quot;origPos&quot;:null}" fill="none" stroke-linecap="round"/><path d="M286.10147,140.25896c3.25848,0 5.9,2.77584 5.9,6.2c0,3.42416 -2.64152,6.2 -5.9,6.2c-3.25848,0 -5.9,-2.77584 -5.9,-6.2c0,-3.42416 2.64152,-6.2 5.9,-6.2z" data-paper-data="{&quot;origPos&quot;:null}" fill="#000000" stroke-linecap="butt"/></g><path d="M268.83624,168.85652v-26.53809h4.42302v26.53809z" fill="#000000" stroke="none" stroke-width="0" stroke-linecap="butt"/></g><g fill="#b24600" stroke="none" stroke-width="0" stroke-linecap="butt"><path d="M205.30567,148.55086v-3.81988h19.2311v3.81988z"/><path d="M208.57997,146.13831c0,0 0.15908,-2.92951 0.15908,-4.71532c0,-1.46438 -2.2271,-3.69025 -2.2271,-3.69025c0,0 2.92156,-2.04505 4.78201,-2.42081c1.67218,-0.33773 5.87626,0.26816 5.87626,0.26816c0,0 4.29512,4.34907 4.29512,5.74039c0,1.8111 0,4.81783 0,4.81783z"/></g><path d="M186.24629,201.18302v-90.33333h114.5v90.33333z" data-paper-data="{&quot;origPos&quot;:null,&quot;index&quot;:null}" fill="none" stroke="#000000" stroke-width="2" stroke-linecap="butt"/></g></g></svg>