<svg version="1.1" xmlns="http://www.w3.org/2000/svg" xmlns:xlink="http://www.w3.org/1999/xlink" width="164.00016" height="378.50297" viewBox="0,0,164.00016,378.50297"><g transform="translate(-161.9167,34.20697)"><g data-paper-data="{&quot;isPaintingLayer&quot;:true}" fill="none" fill-rule="nonzero" stroke="none" stroke-width="none" stroke-linecap="none" stroke-linejoin="miter" stroke-miterlimit="10" stroke-dasharray="" stroke-dashoffset="0" font-family="none" font-weight="none" font-size="none" text-anchor="none" style="mix-blend-mode: normal"><text transform="translate(165.33337,258.87925) scale(6.83334,6.83334)" font-size="40" xml:space="preserve" data-paper-data="{&quot;origPos&quot;:null}" fill="#d9d9d9" fill-rule="nonzero" stroke="#6f6f6f" stroke-width="1" stroke-linecap="butt" stroke-linejoin="miter" stroke-miterlimit="10" stroke-dasharray="" stroke-dashoffset="0" font-family="Sans Serif" font-weight="normal" text-anchor="start" style="mix-blend-mode: normal"><tspan x="0" dy="0">S</tspan></text><path d="M270.72998,188.16667c0,0 -2.16552,-32.48405 -2.16197,-32.68871c-0.55876,-8.13681 -0.98086,-12.69644 -2.0297,-17.7304c-0.34961,-1.67799 -1.48655,-7.31828 -1.98511,-8.54344c-0.0249,-0.1747 -4.05321,-11.37078 -4.05321,-11.37078l1.705,-26l1.7269,20.55186l2.6095,-33.16599l2.58809,32.63784l2.18383,-40.36896l2.15874,40.91451l2.37017,-31.28581l1.75011,32.13487l2.05813,-20.90293l1.5162,25.48463c0,0 -4.02832,11.19608 -4.05321,11.37078c-0.49857,1.22516 -1.6355,6.86545 -1.98511,8.54344c-1.04884,5.03396 -1.47094,9.59359 -2.0297,17.7304c0.00354,0.20466 -2.16197,32.68871 -2.16197,32.68871" data-paper-data="{&quot;origPos&quot;:null,&quot;index&quot;:null}" fill="#ff7400" stroke="#ffb100" stroke-width="2.5" stroke-linecap="round"/></g></g></svg>