<svg version="1.1" xmlns="http://www.w3.org/2000/svg" xmlns:xlink="http://www.w3.org/1999/xlink" width="142.5" height="211" viewBox="0,0,142.5,211"><defs><linearGradient x1="261.46916" y1="112.42326" x2="222.62171" y2="155.34768" gradientUnits="userSpaceOnUse" id="color-1"><stop offset="0" stop-color="#63ff00" stop-opacity="0"/><stop offset="1" stop-color="#63ff00"/></linearGradient><linearGradient x1="225.07193" y1="110.42326" x2="263.91937" y2="153.34768" gradientUnits="userSpaceOnUse" id="color-2"><stop offset="0" stop-color="#63ff00" stop-opacity="0"/><stop offset="1" stop-color="#63ff00"/></linearGradient><linearGradient x1="272.66458" y1="206.96766" x2="272.66458" y2="216.27041" gradientUnits="userSpaceOnUse" id="color-3"><stop offset="0" stop-color="#cd3700"/><stop offset="1" stop-color="#ff4400"/></linearGradient><linearGradient x1="274.50793" y1="209.50493" x2="300.679" y2="209.50493" gradientUnits="userSpaceOnUse" id="color-4"><stop offset="0" stop-color="#d13800"/><stop offset="1" stop-color="#fa4300"/></linearGradient><linearGradient x1="297.2178" y1="200.92005" x2="297.2178" y2="207.67409" gradientUnits="userSpaceOnUse" id="color-5"><stop offset="0" stop-color="#fa4300"/><stop offset="1" stop-color="#d73a00"/></linearGradient></defs><g transform="translate(-171.83359,-81.5)"><g data-paper-data="{&quot;isPaintingLayer&quot;:true}" fill-rule="nonzero" stroke-linejoin="miter" stroke-miterlimit="10" stroke-dasharray="" stroke-dashoffset="0" style="mix-blend-mode: normal"><path d="M174.83359,289.5v-205h136.5v205z" data-paper-data="{&quot;origPos&quot;:null,&quot;index&quot;:null}" fill="#00c6c6" stroke="#000000" stroke-width="6" stroke-linecap="butt"/><path d="M185.77023,201.18297v-90.33333h114.5v90.33333z" data-paper-data="{&quot;origPos&quot;:null,&quot;index&quot;:null}" fill="#000000" stroke="#000000" stroke-width="2" stroke-linecap="butt"/><g data-paper-data="{&quot;origPos&quot;:null}" stroke="none" stroke-linecap="butt"><path d="M202.68458,137.71198l14.0305,-25.85921l81.88874,0.61989l-0.29732,25.77104l-58.53441,35.20615z" data-paper-data="{&quot;origPos&quot;:null,&quot;origRot&quot;:0}" fill="url(#color-1)" stroke-width="NaN"/><path d="M246.96899,174.19985l-59.81774,-38.45615l-0.21399,-23.60437l89.38875,-0.28656l6.9305,24.05921z" data-paper-data="{&quot;origPos&quot;:null,&quot;origRot&quot;:0,&quot;index&quot;:null}" fill="url(#color-2)" stroke-width="NaN"/></g><path d="M183.08655,110.80331v-19.50806h120v19.50806z" data-paper-data="{&quot;origPos&quot;:null,&quot;index&quot;:null}" fill="#bebebe" stroke="#000000" stroke-width="2" stroke-linecap="butt"/><g data-paper-data="{&quot;origPos&quot;:null,&quot;index&quot;:null}" stroke="#000000" stroke-width="0.5" stroke-linecap="butt"><path d="M300.25712,101.00757c0,3.89674 -3.2276,7.05568 -7.20906,7.05568c-3.98146,0 -7.20906,-3.15894 -7.20906,-7.05568c0,-3.89674 3.2276,-7.05568 7.20906,-7.05568c3.98146,0 7.20906,3.15894 7.20906,7.05568z" data-paper-data="{&quot;origPos&quot;:null}" fill="#00c6c6"/><path d="M296.11172,102.3707c0,1.53676 -1.3973,2.78255 -3.12096,2.78255c-1.72367,0 -3.12098,-1.24578 -3.12098,-2.78255c0,-1.53676 1.54771,-6.994 3.27139,-6.994c1.72367,0 2.97055,5.45722 2.97055,6.994z" data-paper-data="{&quot;origPos&quot;:null}" fill="#009090"/></g><path d="M183.24575,271.16967v-53h120v53z" data-paper-data="{&quot;origPos&quot;:null,&quot;index&quot;:null}" fill="#bebebe" stroke="#000000" stroke-width="2" stroke-linecap="butt"/><text transform="translate(184.66696,106.75811) scale(0.37004,0.43683)" font-size="40" xml:space="preserve" data-paper-data="{&quot;origPos&quot;:null,&quot;index&quot;:null}" fill="#000000" fill-rule="nonzero" stroke="#000000" stroke-width="0" stroke-linecap="butt" stroke-linejoin="miter" stroke-miterlimit="10" stroke-dasharray="" stroke-dashoffset="0" font-family="Serif" font-weight="normal" text-anchor="start" style="mix-blend-mode: normal"><tspan x="0" dy="0">Time Walk</tspan></text><path d="M183.24575,218.16967v-16.5h120v16.5z" data-paper-data="{&quot;origPos&quot;:null,&quot;index&quot;:null}" fill="#bebebe" stroke="#000000" stroke-width="2" stroke-linecap="butt"/><text transform="translate(185.15523,214.02475) scale(0.2994,0.2994)" font-size="40" xml:space="preserve" data-paper-data="{&quot;origPos&quot;:null,&quot;index&quot;:null}" fill="#000000" fill-rule="nonzero" stroke="none" stroke-width="1" stroke-linecap="butt" stroke-linejoin="miter" stroke-miterlimit="10" stroke-dasharray="" stroke-dashoffset="0" font-family="Serif" font-weight="normal" text-anchor="start" style="mix-blend-mode: normal"><tspan x="0" dy="0">Sorcery</tspan></text><text transform="translate(186.26814,229.24419) scale(0.27609,0.27609)" font-size="40" xml:space="preserve" data-paper-data="{&quot;origPos&quot;:null,&quot;index&quot;:null}" fill="#000000" fill-rule="nonzero" stroke="none" stroke-width="1" stroke-linecap="butt" stroke-linejoin="miter" stroke-miterlimit="10" stroke-dasharray="" stroke-dashoffset="0" font-family="Serif" font-weight="normal" text-anchor="start" style="mix-blend-mode: normal"><tspan x="0" dy="0">Take an extra turn after</tspan><tspan x="0" dy="48px">this one.</tspan></text><text transform="translate(177.91212,283.80954) scale(0.23337,0.23337)" font-size="40" xml:space="preserve" data-paper-data="{&quot;origPos&quot;:null,&quot;index&quot;:null}" fill="#000000" fill-rule="nonzero" stroke="none" stroke-width="1" stroke-linecap="butt" stroke-linejoin="miter" stroke-miterlimit="10" stroke-dasharray="" stroke-dashoffset="0" font-family="Sans Serif" font-weight="normal" text-anchor="start" style="mix-blend-mode: normal"><tspan x="0" dy="0">(c)pthiel23</tspan></text><text transform="translate(275.86726,107.4889) scale(0.5,0.5)" font-size="40" xml:space="preserve" data-paper-data="{&quot;origPos&quot;:null}" fill="#000000" fill-rule="nonzero" stroke="none" stroke-width="1" stroke-linecap="butt" stroke-linejoin="miter" stroke-miterlimit="10" stroke-dasharray="" stroke-dashoffset="0" font-family="Serif" font-weight="normal" text-anchor="start" style="mix-blend-mode: normal"><tspan x="0" dy="0">1</tspan></text><path d="M286.35793,177.57883c-10.11544,10.32097 -26.57584,10.59204 -36.76533,0.60546c-1.73428,-1.69975 -1.83269,-4.05855 -1.03616,-4.88915c29.06178,-30.30448 0.84731,-1.11981 33.74928,-35.38746c0.59983,-0.62473 0.65267,-0.29248 1.27499,0.30986c1.27217,1.2313 1.3787,1.35197 2.64313,2.59122c10.18949,9.98658 10.24952,26.4491 0.13408,36.77007z" data-paper-data="{&quot;origPos&quot;:null,&quot;index&quot;:null}" fill="#060606" stroke="#63ff00" stroke-width="4" stroke-linecap="butt"/><path d="M288.08868,173.5638l-21.23594,-18.1705" data-paper-data="{&quot;origPos&quot;:null,&quot;index&quot;:null}" fill="none" stroke="#63ff00" stroke-width="4" stroke-linecap="round"/><path d="M261.46667,181.76l0.2,-3.8" data-paper-data="{&quot;origPos&quot;:null}" fill="none" stroke="#63ff00" stroke-width="4" stroke-linecap="round"/><path d="M278.8,181.56l-1.6,-5.2" data-paper-data="{&quot;origPos&quot;:null}" fill="none" stroke="#63ff00" stroke-width="4" stroke-linecap="round"/><path d="M292.4,157.96l-4.8,0.6" data-paper-data="{&quot;origPos&quot;:null}" fill="none" stroke="#63ff00" stroke-width="4" stroke-linecap="round"/><path d="M282,148.56l5,-4.8" data-paper-data="{&quot;origPos&quot;:null}" fill="none" stroke="#63ff00" stroke-width="4" stroke-linecap="round"/><g data-paper-data="{&quot;origPos&quot;:null}" fill="#000000" stroke="#63ff00" stroke-width="4"><path d="M200.26443,179.10582c-10.61246,-9.80918 -11.36494,-26.25461 -1.68072,-36.73188c1.20173,-1.30014 1.30218,-1.42592 2.51203,-2.71851c0.59184,-0.63231 0.62821,-0.96677 1.25814,-0.3724c34.55301,32.60214 4.93263,4.84543 35.45456,33.67877c0.83656,0.79028 0.85468,3.15106 -0.79361,4.93433c-9.68423,10.47727 -26.13795,11.01886 -36.75041,1.20968z" data-paper-data="{&quot;origPos&quot;:null,&quot;origRot&quot;:0}" stroke-linecap="butt"/><path d="M218.98389,155.96826l5.38707,27.68839" data-paper-data="{&quot;origPos&quot;:null,&quot;origRot&quot;:0}" stroke-linecap="round"/></g><path d="M200.6,176.56l2.2,-2.2" data-paper-data="{&quot;origPos&quot;:null}" fill="none" stroke="#63ff00" stroke-width="4" stroke-linecap="round"/><path d="M213.6,184.36l1,-4.8" data-paper-data="{&quot;origPos&quot;:null}" fill="none" stroke="#63ff00" stroke-width="4" stroke-linecap="round"/><path d="M197.4,161.56h-4.2" data-paper-data="{&quot;origPos&quot;:null}" fill="none" stroke="#63ff00" stroke-width="4" stroke-linecap="round"/><path d="M195.8,147.56l4.2,3.6" data-paper-data="{&quot;origPos&quot;:null}" fill="none" stroke="#63ff00" stroke-width="4" stroke-linecap="round"/><path d="M272.19587,216.26737c-0.8146,-0.11017 -1.04976,-3.11404 -1.04976,-3.11404c0,0 -3.01136,-0.09161 -3.15863,-0.89926c-0.14723,-0.80762 2.63511,-1.95931 2.63511,-1.95931c0,0 -0.84075,-2.89267 -0.11963,-3.28243c0.72273,-0.38992 2.67728,1.90093 2.67728,1.90093c0,0 2.4907,-1.69553 3.08525,-1.12773c0.59444,0.56624 -0.98157,3.13328 -0.98157,3.13328c0,0 2.38269,1.84564 2.02725,2.58555c-0.35438,0.74219 -3.28274,0.03778 -3.28274,0.03778c0,0 -1.01965,2.83403 -1.83256,2.72522z" data-paper-data="{&quot;origPos&quot;:null,&quot;origRot&quot;:0}" fill="url(#color-3)" stroke="#ffffff" stroke-width="0.5" stroke-linecap="butt"/><path d="M276.30573,209.33508l0.073,-1.59734l-1.8708,0.42679c0,0 2.40669,-1.54408 4.49327,-2.27242c1.77056,-0.35321 4.08991,-0.66822 5.38219,-0.68087c6.74701,-0.18147 11.33161,3.01757 14.24946,5.40506c1.07257,0.87762 2.27781,2.75534 2.00774,3.03044c-0.68192,0.69461 -1.05188,-1.00404 -3.87434,-2.74933c-4.18696,-2.58904 -8.39882,-4.15235 -11.49487,-4.18583c-0.70645,-0.00764 -3.5104,0.13825 -3.92756,0.27353c-3.39524,0.26392 -5.03809,2.34997 -5.03809,2.34997z" fill="url(#color-4)" stroke="#ffffff" stroke-width="0.5" stroke-linecap="butt"/><path d="M276.90573,208.38508l-1.52415,1.82123l-1.15869,-1.6393l1.94298,-1.0853c0,0 0.61868,-0.21814 0.71848,-0.09628c0.13565,0.16563 0.02138,0.99965 0.02138,0.99965z" fill="url(#color-5)" stroke="none" stroke-width="0" stroke-linecap="butt"/></g></g></svg>