<svg version="1.1" xmlns="http://www.w3.org/2000/svg" xmlns:xlink="http://www.w3.org/1999/xlink" width="164.46296" height="269.49997" viewBox="0,0,164.46296,269.49997"><g transform="translate(-90.28716,-64.05004)"><g data-paper-data="{&quot;isPaintingLayer&quot;:true}" fill-rule="nonzero" stroke-linecap="butt" stroke-linejoin="miter" stroke-miterlimit="10" stroke-dasharray="" stroke-dashoffset="0" style="mix-blend-mode: normal"><path d="M93.03716,330.80001v-263h158.96296v263z" data-paper-data="{&quot;origPos&quot;:null}" fill="#828282" stroke="#000000" stroke-width="5.5"/><text transform="translate(104.00009,85.80004) scale(0.5,0.5)" font-size="40" xml:space="preserve" data-paper-data="{&quot;origPos&quot;:null}" fill="#000000" fill-rule="nonzero" stroke="none" stroke-width="1" stroke-linecap="butt" stroke-linejoin="miter" stroke-miterlimit="10" stroke-dasharray="" stroke-dashoffset="0" font-family="Sans Serif" font-weight="normal" text-anchor="start" style="mix-blend-mode: normal"><tspan x="0" dy="0">Revealed Card</tspan></text><path d="M103.8335,294.42312v-205h136.5v205z" data-paper-data="{&quot;origPos&quot;:null}" fill="#987209" stroke="#000000" stroke-width="6"/><path d="M112.08641,117.30335v-19.50806h120v19.50806z" data-paper-data="{&quot;origPos&quot;:null}" fill="#bebebe" stroke="#e63b3b" stroke-width="2"/><path d="M112.24568,289.9543v-16.5h120v16.5z" data-paper-data="{&quot;origPos&quot;:null}" fill="#bebebe" stroke="#e63b3b" stroke-width="2"/><path d="M115.10349,272.55431v-155.32703h114.5v155.32703z" data-paper-data="{&quot;origPos&quot;:null}" fill="#00ab9a" stroke="#e63b3b" stroke-width="2"/><path d="M218.92431,287.41979v-11.17675h11.46836v11.17675z" data-paper-data="{&quot;origPos&quot;:null}" fill="#000000" stroke="#ffffff" stroke-width="0.5"/><text transform="translate(113.43587,285.44642) scale(0.28163,0.28163)" font-size="40" xml:space="preserve" data-paper-data="{&quot;origPos&quot;:null}" fill="#000000" fill-rule="nonzero" stroke="none" stroke-width="1" stroke-linecap="butt" stroke-linejoin="miter" stroke-miterlimit="10" stroke-dasharray="" stroke-dashoffset="0" font-family="Serif" font-weight="normal" text-anchor="start" style="mix-blend-mode: normal"><tspan x="0" dy="0">Basic Land - Mountain</tspan></text><path d="M142.36457,219.9294l85.46029,-22.2958l0.27142,61.92532l-111.61428,-1.68914l0.08366,-73.98917z" data-paper-data="{&quot;origPos&quot;:null,&quot;origRot&quot;:0,&quot;index&quot;:null}" fill="#747474" stroke="#000000" stroke-width="2"/><path d="M172.7924,181.18398l25.68854,25.04691l20.46112,52.62766l-101.90715,0.30712l19.75685,-42.212l21.23078,-5.24898z" data-paper-data="{&quot;origPos&quot;:null,&quot;origRot&quot;:0}" fill="#747474" stroke="#000000" stroke-width="2"/><path d="M116.37691,271.34036v-11.51686h111.82334v11.51686z" data-paper-data="{&quot;origPos&quot;:null}" fill="#00ab0a" stroke="#000000" stroke-width="2"/><g data-paper-data="{&quot;origPos&quot;:null}" fill="#ffffff" stroke="none" stroke-width="0"><path d="M116.28877,147.01898v-6.2273h43.59108v6.2273z" data-paper-data="{&quot;origPos&quot;:null}"/><path d="M116.28877,140.74801c0,-2.40747 2.30014,-4.3591 5.13752,-4.3591c2.83738,0 5.13752,1.95164 5.13752,4.3591c0,2.40747 -2.30015,4.35911 -5.13752,4.35911c-2.83738,0 -5.13752,-1.95164 -5.13752,-4.35911z" data-paper-data="{&quot;origPos&quot;:null}"/><path d="M122.31528,138.17156c0,-2.40747 2.30014,-4.3591 5.13751,-4.3591c2.83738,0 5.13752,1.95164 5.13752,4.3591c0,2.40747 -2.30015,4.3591 -5.13752,4.3591c-2.83738,0 -5.13751,-1.95164 -5.13751,-4.3591z" data-paper-data="{&quot;origPos&quot;:null}"/><path d="M129.91349,140.39291c0,-2.40747 2.30014,-4.3591 5.13752,-4.3591c2.83738,0 5.13752,1.95164 5.13752,4.3591c0,2.40747 -2.30014,4.35911 -5.13752,4.35911c-2.83738,0 -5.13752,-1.95164 -5.13752,-4.35911z" data-paper-data="{&quot;origPos&quot;:null}"/><path d="M136.51904,139.80176c0,-2.40747 2.30015,-4.3591 5.13752,-4.3591c2.83738,0 5.13752,1.95165 5.13752,4.3591c0,2.40747 -2.30014,4.3591 -5.13752,4.3591c-2.83738,0 -5.13752,-1.95164 -5.13752,-4.3591z" data-paper-data="{&quot;origPos&quot;:null}"/><path d="M142.71101,140.94771c0,-2.40747 2.30014,-4.3591 5.13751,-4.3591c2.83738,0 5.13752,1.95164 5.13752,4.3591c0,2.40747 -2.30015,4.35911 -5.13752,4.35911c-2.83738,0 -5.13751,-1.95164 -5.13751,-4.35911z" data-paper-data="{&quot;origPos&quot;:null}"/><path d="M149.64745,140.68748c0,-2.40747 2.30014,-4.3591 5.13752,-4.3591c2.83738,0 5.13752,1.95164 5.13752,4.3591c0,2.40747 -2.30014,4.35911 -5.13752,4.35911c-2.83738,0 -5.13752,-1.95164 -5.13752,-4.35911z" data-paper-data="{&quot;origPos&quot;:null}"/><path d="M155.58382,143.28107c0,-2.06483 1.75561,-3.7387 3.92127,-3.7387c2.16565,0 3.92127,1.67387 3.92127,3.7387c0,2.06483 -1.75562,3.73871 -3.92127,3.73871c-2.16565,0 -3.92127,-1.67388 -3.92127,-3.73871z" data-paper-data="{&quot;origPos&quot;:null}"/></g><g data-paper-data="{&quot;index&quot;:null,&quot;origPos&quot;:null}" fill="#ffffff" stroke="none" stroke-width="0"><path d="M211.00651,167.01943v-2.51173h17.58213v2.51173z" data-paper-data="{&quot;origPos&quot;:null}"/><path d="M226.51647,166.2483c-1.14443,0 -2.07218,-0.78718 -2.07218,-1.75822c0,-0.97104 0.92775,-1.75821 2.07218,-1.75821c1.14443,0 2.07218,0.78717 2.07218,1.75821c0,0.97104 -0.92775,1.75822 -2.07218,1.75822z" data-paper-data="{&quot;origPos&quot;:null}"/><path d="M224.08567,165.20914c-1.14443,0 -2.07218,-0.78718 -2.07218,-1.75822c0,-0.97104 0.92775,-1.75821 2.07218,-1.75821c1.14443,0 2.07218,0.78718 2.07218,1.75821c0,0.97104 -0.92774,1.75822 -2.07218,1.75822z" data-paper-data="{&quot;origPos&quot;:null}"/><path d="M221.02101,166.1051c-1.14443,0 -2.07218,-0.78718 -2.07218,-1.75822c0,-0.97104 0.92775,-1.75821 2.07218,-1.75821c1.14443,0 2.07218,0.78717 2.07218,1.75821c0,0.97104 -0.92775,1.75822 -2.07218,1.75822z" data-paper-data="{&quot;origPos&quot;:null}"/><path d="M218.3567,165.86667c-1.14443,0 -2.07218,-0.78718 -2.07218,-1.75822c0,-0.97104 0.92775,-1.75822 2.07218,-1.75822c1.14443,0 2.07219,0.78718 2.07219,1.75822c0,0.97104 -0.92775,1.75822 -2.07219,1.75822z" data-paper-data="{&quot;origPos&quot;:null}"/><path d="M215.85921,166.32889c-1.14443,0 -2.07218,-0.78718 -2.07218,-1.75821c0,-0.97104 0.92775,-1.75822 2.07218,-1.75822c1.14443,0 2.07218,0.78718 2.07218,1.75822c0,0.97104 -0.92775,1.75821 -2.07218,1.75821z" data-paper-data="{&quot;origPos&quot;:null}"/><path d="M213.06149,166.22391c-1.14443,0 -2.07218,-0.78718 -2.07218,-1.75822c0,-0.97104 0.92775,-1.75821 2.07218,-1.75821c1.14443,0 2.07218,0.78717 2.07218,1.75821c0,0.97104 -0.92775,1.75822 -2.07218,1.75822z" data-paper-data="{&quot;origPos&quot;:null}"/><path d="M211.15764,167.01979c-0.8735,0 -1.58161,-0.67515 -1.58161,-1.50798c0,-0.83283 0.70812,-1.50797 1.58161,-1.50797c0.8735,0 1.58161,0.67514 1.58161,1.50797c0,0.83283 -0.70812,1.50798 -1.58161,1.50798z" data-paper-data="{&quot;origPos&quot;:null}"/></g><text transform="translate(113.66682,114.16418) scale(0.51462,0.49722)" font-size="40" xml:space="preserve" data-paper-data="{&quot;origPos&quot;:null}" fill="#000000" fill-rule="nonzero" stroke="#000000" stroke-width="0" stroke-linecap="butt" stroke-linejoin="miter" stroke-miterlimit="10" stroke-dasharray="" stroke-dashoffset="0" font-family="Serif" font-weight="normal" text-anchor="start" style="mix-blend-mode: normal"><tspan x="0" dy="0">Mountain</tspan></text><text transform="translate(221.10007,285.84783) scale(0.29546,0.29546)" font-size="40" xml:space="preserve" data-paper-data="{&quot;origPos&quot;:null}" fill="#ffffff" fill-rule="nonzero" stroke="none" stroke-width="1" stroke-linecap="butt" stroke-linejoin="miter" stroke-miterlimit="10" stroke-dasharray="" stroke-dashoffset="0" font-family="Handwriting" font-weight="normal" text-anchor="start" style="mix-blend-mode: normal"><tspan x="0" dy="0">S</tspan></text></g></g></svg>