<svg version="1.1" xmlns="http://www.w3.org/2000/svg" xmlns:xlink="http://www.w3.org/1999/xlink" width="142.5" height="211" viewBox="0,0,142.5,211"><defs><linearGradient x1="295.1561" y1="200.12315" x2="295.1561" y2="221.53159" gradientTransform="translate(-647.61112,-484.6972) scale(2.2421,2.2421)" gradientUnits="userSpaceOnUse" id="color-1"><stop offset="0" stop-color="#d13800"/><stop offset="1" stop-color="#f94300"/></linearGradient></defs><g transform="translate(-171.83362,-81.5)"><g data-paper-data="{&quot;isPaintingLayer&quot;:true}" fill-rule="nonzero" stroke-linejoin="miter" stroke-miterlimit="10" stroke-dasharray="" stroke-dashoffset="0" style="mix-blend-mode: normal"><path d="M174.83363,289.5v-205h136.5v205z" data-paper-data="{&quot;origPos&quot;:null}" fill="#ff4d4d" stroke="#000000" stroke-width="6" stroke-linecap="butt"/><path d="M183.24579,218.16967v-16.5h120v16.5z" data-paper-data="{&quot;origPos&quot;:null}" fill="#bebebe" stroke="#000000" stroke-width="2" stroke-linecap="butt"/><text transform="translate(185.15528,214.02475) scale(0.2994,0.2994)" font-size="40" xml:space="preserve" data-paper-data="{&quot;origPos&quot;:null}" fill="#000000" fill-rule="nonzero" stroke="none" stroke-width="1" stroke-linecap="butt" stroke-linejoin="miter" stroke-miterlimit="10" stroke-dasharray="" stroke-dashoffset="0" font-family="Serif" font-weight="normal" text-anchor="start" style="mix-blend-mode: normal"><tspan x="0" dy="0">Sorcery</tspan></text><path d="M183.08651,110.80331v-19.50806h120v19.50806z" data-paper-data="{&quot;origPos&quot;:null}" fill="#bebebe" stroke="#000000" stroke-width="2" stroke-linecap="butt"/><text transform="translate(184.66692,105.50449) scale(0.30543,0.36056)" font-size="40" xml:space="preserve" data-paper-data="{&quot;origPos&quot;:null}" fill="#000000" fill-rule="nonzero" stroke="#000000" stroke-width="0" stroke-linecap="butt" stroke-linejoin="miter" stroke-miterlimit="10" stroke-dasharray="" stroke-dashoffset="0" font-family="Serif" font-weight="normal" text-anchor="start" style="mix-blend-mode: normal"><tspan x="0" dy="0">Wheel of Fortune</tspan></text><path d="M185.86121,200.63139v-89.33333h114.5v89.33333z" data-paper-data="{&quot;origPos&quot;:null}" fill="#a67d4d" stroke="#000000" stroke-width="2" stroke-linecap="butt"/><g data-paper-data="{&quot;origPos&quot;:null}" stroke="#000000" stroke-width="0.5" stroke-linecap="butt"><path d="M300.44408,101.07186c0,4.03076 -3.33862,7.29835 -7.45702,7.29835c-4.11839,0 -7.45702,-3.26759 -7.45702,-7.29835c0,-4.03076 3.33862,-7.29835 7.45702,-7.29835c4.11839,0 7.45702,3.26759 7.45702,7.29835z" data-paper-data="{&quot;origPos&quot;:null}" fill="#e04a4a"/><path d="M297.42666,103.20438c-0.78092,0.81463 -0.5303,0.71925 -1.22371,1.22898c-0.66336,0.48763 -1.61528,0.82825 -2.38291,1.12593c-0.78719,0.30527 -1.31436,0.27397 -2.29394,0.28218c-1.00711,0.051 -1.27715,-0.00418 -2.00636,-0.10944c-0.04758,-0.00687 -1.65476,-0.04688 -1.58399,-2.21483c0.0248,-0.75963 0.35294,-1.942 1.76387,-2.40703c0.09423,-0.03106 0.52303,-0.0448 2.54688,-0.43615c0.80474,0.1519 1.30347,0.05958 2.2988,0.75958c0.50168,0.35284 0.70332,0.05694 1.29408,-0.1079c0.87101,-0.24305 0.99483,-0.49432 0.99839,-0.9775c-0.05298,-0.87846 -0.72464,-1.38237 -1.69592,-1.75909c-1.50446,-0.39028 -2.03612,-0.57085 -3.46073,-0.73945c-0.77844,-0.17529 -2.36023,-0.90815 -2.36023,-0.90815c0,0 2.64798,-0.60248 2.69068,-0.58506c2.01349,0.10835 4.49822,0.88858 5.8483,2.46154c0,0 0.57919,0.80696 0.54498,1.56925c-0.04462,0.99441 -0.27399,2.01385 -0.97815,2.81716z" data-paper-data="{&quot;origPos&quot;:null}" fill="#e02222"/></g><path d="M183.24571,271.16967v-53h120v53z" data-paper-data="{&quot;origPos&quot;:null}" fill="#bebebe" stroke="#000000" stroke-width="2" stroke-linecap="butt"/><text transform="translate(186.26818,229.91086) scale(0.27609,0.27609)" font-size="40" xml:space="preserve" data-paper-data="{&quot;origPos&quot;:null}" fill="#000000" fill-rule="nonzero" stroke="none" stroke-width="1" stroke-linecap="butt" stroke-linejoin="miter" stroke-miterlimit="10" stroke-dasharray="" stroke-dashoffset="0" font-family="Serif" font-weight="normal" text-anchor="start" style="mix-blend-mode: normal"><tspan x="0" dy="0">Each player discards their</tspan><tspan x="0" dy="48px">hand, then draws seven</tspan><tspan x="0" dy="48px">cards.</tspan></text><text transform="translate(288.84104,216.1798) scale(0.44601,0.44601)" font-size="40" xml:space="preserve" data-paper-data="{&quot;origPos&quot;:null}" fill="url(#color-1)" fill-rule="nonzero" stroke="#ffffff" stroke-width="1" stroke-linecap="butt" stroke-linejoin="miter" stroke-miterlimit="10" stroke-dasharray="" stroke-dashoffset="0" font-family="Sans Serif" font-weight="normal" text-anchor="start" style="mix-blend-mode: normal"><tspan x="0" dy="0">II</tspan></text><text transform="translate(275.86726,107.4889) scale(0.5,0.5)" font-size="40" xml:space="preserve" data-paper-data="{&quot;origPos&quot;:null}" fill="#000000" fill-rule="nonzero" stroke="none" stroke-width="1" stroke-linecap="butt" stroke-linejoin="miter" stroke-miterlimit="10" stroke-dasharray="" stroke-dashoffset="0" font-family="Serif" font-weight="normal" text-anchor="start" style="mix-blend-mode: normal"><tspan x="0" dy="0">2</tspan></text><path d="M253.23165,279.76382c0,2.68369 -4.51848,4.85926 -10.09231,4.85926c-5.57383,0 -10.09231,-2.17556 -10.09231,-4.85926c0,-2.68369 4.51848,-4.85926 10.09231,-4.85926c5.57383,0 10.09231,2.17556 10.09231,4.85926z" data-paper-data="{&quot;origPos&quot;:null,&quot;index&quot;:null}" fill="#ffffff" stroke="#000000" stroke-width="2" stroke-linecap="butt"/><text transform="translate(177.91231,282.05954) scale(0.17088,0.17088)" font-size="40" xml:space="preserve" data-paper-data="{&quot;origPos&quot;:null}" fill="#000000" fill-rule="nonzero" stroke="none" stroke-width="1" stroke-linecap="butt" stroke-linejoin="miter" stroke-miterlimit="10" stroke-dasharray="" stroke-dashoffset="0" font-family="Sans Serif" font-weight="normal" text-anchor="start" style="mix-blend-mode: normal"><tspan x="0" dy="0">(c)meeeeeeeep1</tspan></text><g stroke="#e2dacd"><path d="M234.24675,154.5984c0,-15.48563 12.55359,-28.03922 28.03922,-28.03922c15.48563,0 28.03922,12.55359 28.03922,28.03922c0,15.48563 -12.55359,28.03922 -28.03922,28.03922c-15.48563,0 -28.03922,-12.55359 -28.03922,-28.03922z" fill="#fff6e8" stroke-width="2" stroke-linecap="butt"/><path d="M234.84628,153.16876l25.51815,-25.51815l0.84548,-0.84548" fill="none" stroke-width="2" stroke-linecap="round"/><path d="M269.43413,128.41923l-33.66552,33.66552" fill="none" stroke-width="2" stroke-linecap="round"/><path d="M238.2282,167.6188l37.66234,-37.66234" fill="none" stroke-width="2" stroke-linecap="round"/><path d="M280.50225,134.10701l-38.58468,38.58468" fill="none" stroke-width="2" stroke-linecap="round"/><path d="M247.45163,178.53319l37.96978,-37.96978" fill="none" stroke-width="2" stroke-linecap="round"/><path d="M255.44526,181.1465l33.28121,-33.28121" fill="none" stroke-width="2" stroke-linecap="round"/><path d="M264.28438,182.7606l1.6141,-1.6141l24.05778,-24.05778" fill="none" stroke-width="2" stroke-linecap="round"/><path d="M248.52769,144.09906l1.76782,-1.76782" fill="none" stroke-width="1" stroke-linecap="round"/><path d="M247.75907,133.64584l-7.68619,7.68619" fill="none" stroke-width="1" stroke-linecap="round"/><path d="M250.14179,134.18387l-3.15134,3.15134" fill="none" stroke-width="1" stroke-linecap="round"/><path d="M244.22343,140.25596l-1.38351,1.38351" fill="none" stroke-width="1" stroke-linecap="round"/><path d="M247.14418,147.32726l-7.37874,7.37874" fill="none" stroke-width="1" stroke-linecap="round"/><path d="M254.83037,138.565l4.68858,-4.68858" fill="none" stroke-width="1" stroke-linecap="round"/><path d="M262.59342,129.41843l-1.6141,1.6141" fill="none" stroke-width="1" stroke-linecap="round"/><path d="M260.2107,141.17831l6.76385,-6.76385" fill="none" stroke-width="1" stroke-linecap="round"/><path d="M252.37079,149.01822l3.68937,-3.68937" fill="none" stroke-width="1" stroke-linecap="round"/><path d="M247.45163,155.01345l-4.30427,4.30427" fill="none" stroke-width="1" stroke-linecap="round"/><path d="M246.83673,163.00709l-4.45799,4.45799" fill="none" stroke-width="1" stroke-linecap="round"/><path d="M249.60376,153.78366l2.76703,-2.76703" fill="none" stroke-width="1" stroke-linecap="round"/><path d="M250.83355,160.70123l7.22502,-7.22502" fill="none" stroke-width="1" stroke-linecap="round"/><path d="M259.82639,148.32647l-7.76305,7.76305" fill="none" stroke-width="1" stroke-linecap="round"/><path d="M265.12987,145.63629l-5.53406,5.53406" fill="none" stroke-width="1" stroke-linecap="round"/><path d="M268.66551,142.71554l5.84151,-5.84151" fill="none" stroke-width="1" stroke-linecap="round"/><path d="M268.97296,140.56341l7.53247,-7.53247" fill="none" stroke-width="1" stroke-linecap="round"/><path d="M254.83037,167.00391l-5.07289,5.38033" fill="none" stroke-width="1" stroke-linecap="round"/><path d="M252.37079,167.15763l8.45481,-8.45481" fill="none" stroke-width="1" stroke-linecap="round"/><path d="M264.20752,156.70441l7.37874,-7.37874" fill="none" stroke-width="1" stroke-linecap="round"/><path d="M282.50066,138.565l-6.76385,4.30427" fill="none" stroke-width="1" stroke-linecap="round"/><path d="M278.73442,142.79241l-3.30506,3.30506" fill="none" stroke-width="1" stroke-linecap="round"/><path d="M273.73839,145.17513l-1.69096,1.69096" fill="none" stroke-width="1" stroke-linecap="round"/><path d="M252.52451,177.3034l13.37397,-13.37397" fill="none" stroke-width="1" stroke-linecap="round"/><path d="M264.36125,168.38742l9.37715,-9.37715" fill="none" stroke-width="1" stroke-linecap="round"/><path d="M282.96182,147.94216l-9.37715,9.37715" fill="none" stroke-width="1" stroke-linecap="round"/><path d="M273.43095,155.01345l-5.68778,5.68778" fill="none" stroke-width="1" stroke-linecap="round"/><path d="M253.60058,179.30181l9.53088,-9.53088" fill="none" stroke-width="1" stroke-linecap="round"/><path d="M262.05539,179.60926l16.37159,-16.37159" fill="none" stroke-width="1" stroke-linecap="round"/><path d="M269.43413,169.77094l14.29632,-14.29632" fill="none" stroke-width="1" stroke-linecap="round"/><path d="M287.2661,155.3209l-3.99682,3.99682" fill="none" stroke-width="1" stroke-linecap="round"/><path d="M287.95785,151.40094l-1.76782,1.76782" fill="none" stroke-width="1" stroke-linecap="round"/><path d="M272.20115,172.38424l3.45879,-3.45879" fill="none" stroke-width="1" stroke-linecap="round"/><path d="M271.27882,178.68692l7.0713,-7.0713" fill="none" stroke-width="1" stroke-linecap="round"/><path d="M278.19638,174.84382l4.76544,-5.68778" fill="none" stroke-width="1" stroke-linecap="round"/><path d="M281.27087,168.84859l5.07289,-5.07289" fill="none" stroke-width="1" stroke-linecap="round"/></g><path d="M276.24351,170.70825l-5.17318,-4.82093" fill="none" stroke="#b0b0b0" stroke-width="5.5" stroke-linecap="round"/><path d="M276.5434,170.98773l3.37382,3.14409" fill="none" stroke="#503900" stroke-width="5.5" stroke-linecap="round"/><path d="M275.85653,174.12992l3.63317,-3.89863" fill="none" stroke="#503900" stroke-width="5.5" stroke-linecap="round"/><path d="M279.97221,139.40674c-0.196,2.7097 -7.19801,2.56186 -7.19801,2.56186c0,0 -0.83771,-2.26873 -0.64171,-4.97843c0.06959,-0.96208 1.84913,-3.07346 3.14408,-2.95942c0.71117,0.06263 1.3024,2.90588 1.3024,2.90588c0,0 2.76346,-1.42842 3.23697,-0.52505c0.37295,0.71152 0.19513,2.45795 0.15627,2.99515z" fill="#e8c0c8" stroke="none" stroke-width="0" stroke-linecap="butt"/><path d="M246.63233,135.31595c0.33084,0.34681 0.03854,1.54435 0.59,2.29832c0.74285,1.01563 2.31001,1.58575 2.31001,1.58575l-2.31637,2.13062c0,0 -0.26516,-1.44722 -1.56412,-2.41637c-0.50829,-0.37924 -1.87279,0.16429 -2.39259,-0.3806c-0.34852,-0.36535 -0.88694,-0.80351 -1.22672,-1.3189c-0.42071,-0.63816 -0.60881,-1.3261 -0.60881,-1.3261l2.46731,-2.66847c0,0 0.63127,0.1836 1.23303,0.61351c0.56193,0.40146 1.08084,1.03418 1.50824,1.48222z" fill="#f6ddae" stroke="#000000" stroke-width="0.5" stroke-linecap="butt"/><path d="M249.85609,175.17606c-1.27176,1.72064 -3.82625,2.12579 -5.47807,0.9049c-1.65182,-1.22089 -1.46801,-3.54398 -0.19625,-5.26462c0.2296,-0.31065 1.4641,0.04882 2.42173,-0.59716c1.19477,-0.80594 2.16519,-2.26798 3.56815,-1.1179c2.40111,1.9683 0.31895,2.71611 -0.5011,3.94372c-0.42128,0.63066 0.40557,1.83337 0.18554,2.13107z" fill="#ffffff" stroke="none" stroke-width="0" stroke-linecap="butt"/><path d="M245.49133,172.76716c0,0.45846 0.40752,1.07607 0,1.07607c-0.40752,0 -0.98383,-0.37166 -0.98383,-0.83011c0,-0.45846 -0.10007,-0.83011 0.30745,-0.83011c0.40752,0 0.67638,0.1257 0.67638,0.58415z" fill="#000000" stroke="#000000" stroke-width="0.5" stroke-linecap="butt"/><path d="M247.77177,176.04877c-0.15707,0.37603 -0.46144,0.14045 -0.88447,-0.03626c-0.42303,-0.1767 -0.54384,-0.85174 -0.38677,-1.22777c0.15707,-0.37603 0.56989,0.23805 0.99293,0.41475c0.42303,0.1767 0.43538,0.47324 0.27831,0.84927z" data-paper-data="{&quot;index&quot;:null}" fill="#000000" stroke="#000000" stroke-width="0.5" stroke-linecap="butt"/><path d="M249.67174,170.88475l-0.9565,-0.9565" fill="none" stroke="#000000" stroke-width="1.5" stroke-linecap="round"/></g></g></svg>