<svg version="1.1" xmlns="http://www.w3.org/2000/svg" xmlns:xlink="http://www.w3.org/1999/xlink" width="164.00016" height="378.50297" viewBox="0,0,164.00016,378.50297"><g transform="translate(-161.9167,34.20698)"><g data-paper-data="{&quot;isPaintingLayer&quot;:true}" fill="none" fill-rule="nonzero" stroke="none" stroke-width="none" stroke-linecap="none" stroke-linejoin="miter" stroke-miterlimit="10" stroke-dasharray="" stroke-dashoffset="0" font-family="none" font-weight="none" font-size="none" text-anchor="none" style="mix-blend-mode: normal"><text transform="translate(165.33337,258.87925) scale(6.83334,6.83334)" font-size="40" xml:space="preserve" data-paper-data="{&quot;origPos&quot;:null}" fill="#d9d9d9" fill-rule="nonzero" stroke="#6f6f6f" stroke-width="1" stroke-linecap="butt" stroke-linejoin="miter" stroke-miterlimit="10" stroke-dasharray="" stroke-dashoffset="0" font-family="Sans Serif" font-weight="normal" text-anchor="start" style="mix-blend-mode: normal"><tspan x="0" dy="0">S</tspan></text><path d="M270.91332,188.16667c0,0 -5.30902,-32.48405 -5.30033,-32.68871c-1.36985,-8.13681 -2.40469,-12.69644 -4.97603,-17.7304c-0.85711,-1.67799 -3.64444,-7.31828 -4.86672,-8.54344c-0.06104,-0.1747 -9.9369,-11.37078 -9.9369,-11.37078l4.18,-26l4.23369,20.55186l6.39748,-33.16599l6.345,32.63784l5.3539,-40.36896l5.29239,40.91451l5.81075,-31.28581l4.29059,32.13487l5.04573,-20.90293l3.71712,25.48463c0,0 -9.87587,11.19608 -9.93691,11.37078c-1.22229,1.22516 -4.00961,6.86545 -4.86672,8.54344c-2.57135,5.03396 -3.60618,9.59359 -4.97603,17.7304c0.00869,0.20466 -5.30033,32.68871 -5.30033,32.68871" data-paper-data="{&quot;origPos&quot;:null,&quot;index&quot;:null}" fill="#ff7400" stroke="#ffb100" stroke-width="2.5" stroke-linecap="round"/></g></g></svg>