<svg version="1.1" xmlns="http://www.w3.org/2000/svg" xmlns:xlink="http://www.w3.org/1999/xlink" width="491.96239" height="402.33334"><g transform="translate(6.4812,21.66667)"><g data-paper-data="{&quot;isPaintingLayer&quot;:true}" fill="none" fill-rule="nonzero" stroke="none" stroke-width="none" stroke-linecap="butt" stroke-linejoin="miter" stroke-miterlimit="10" stroke-dasharray="" stroke-dashoffset="0" font-family="none" font-weight="none" font-size="none" text-anchor="none" style="mix-blend-mode: normal"><path d="M-6.4812,380.66667v-402.33334h491.96239v402.33334z" data-paper-data="{&quot;origPos&quot;:null}" fill="#969696" stroke="none" stroke-width="0"/><text transform="translate(1.5188,352.81604) scale(0.6707,0.6707)" font-size="40" xml:space="preserve" data-paper-data="{&quot;origPos&quot;:null}" fill="#ffffff" fill-rule="nonzero" stroke="none" stroke-width="1" stroke-linecap="butt" stroke-linejoin="miter" stroke-miterlimit="10" stroke-dasharray="" stroke-dashoffset="0" font-family="Serif" font-weight="normal" text-anchor="start" style="mix-blend-mode: normal"><tspan x="0" dy="0">Loading...</tspan></text><text transform="translate(92.99534,23.64316) scale(0.65168,0.65168)" font-size="40" xml:space="preserve" data-paper-data="{&quot;origPos&quot;:null}" fill="#ffffff" fill-rule="nonzero" stroke="none" stroke-width="1" stroke-linecap="butt" stroke-linejoin="miter" stroke-miterlimit="10" stroke-dasharray="" stroke-dashoffset="0" font-family="Serif" font-weight="normal" text-anchor="start" style="mix-blend-mode: normal"><tspan x="0" dy="0">Song: Deaf Kev - Invincible</tspan></text><path d="M257.49438,124.73309c0,8.86205 -7.07846,16.04614 -15.81019,16.04614c-8.73173,0 -15.81019,-7.18409 -15.81019,-16.04614c0,-8.86205 7.07846,-16.04614 15.81019,-16.04614c8.73173,0 15.81019,7.18409 15.81019,16.04614z" data-paper-data="{&quot;origPos&quot;:null}" fill="#ffd641" stroke="#000000" stroke-width="1.5"/><path d="M192.85168,166.4656c0,8.86205 -7.07846,16.04614 -15.81019,16.04614c-8.73173,0 -15.81019,-7.18409 -15.81019,-16.04614c0,-8.86205 7.07846,-16.04614 15.81019,-16.04614c8.73173,0 15.81019,7.18409 15.81019,16.04614z" data-paper-data="{&quot;origPos&quot;:null}" fill="#66e925" stroke="#000000" stroke-width="1.5"/><path d="M219.17168,232.52539c0,8.86205 -7.07846,16.04614 -15.81019,16.04614c-8.73173,0 -15.81019,-7.18409 -15.81019,-16.04614c0,-8.86205 7.07846,-16.04614 15.81019,-16.04614c8.73173,0 15.81019,7.18409 15.81019,16.04614z" data-paper-data="{&quot;origPos&quot;:null}" fill="#ff5959" stroke="#000000" stroke-width="1.5"/><path d="M289.26813,233.26688c0,8.86205 -7.07846,16.04614 -15.81019,16.04614c-8.73173,0 -15.81019,-7.18409 -15.81019,-16.04614c0,-8.86205 7.07846,-16.04614 15.81019,-16.04614c8.73173,0 15.81019,7.18409 15.81019,16.04614z" data-paper-data="{&quot;origPos&quot;:null}" fill="#000000" stroke="#000000" stroke-width="1.5"/><path d="M318.76873,167.33767c0,8.86205 -7.07846,16.04614 -15.81019,16.04614c-8.73173,0 -15.81019,-7.18409 -15.81019,-16.04614c0,-8.86205 7.07846,-16.04614 15.81019,-16.04614c8.73173,0 15.81019,7.18409 15.81019,16.04614z" data-paper-data="{&quot;origPos&quot;:null}" fill="#00a5ff" stroke="#000000" stroke-width="1.5"/></g></g></svg>