<svg version="1.1" xmlns="http://www.w3.org/2000/svg" xmlns:xlink="http://www.w3.org/1999/xlink" width="635" height="497.33787" viewBox="0,0,635,497.33787"><defs><linearGradient x1="311.48573" y1="211.27585" x2="311.48573" y2="227.52923" gradientUnits="userSpaceOnUse" id="color-1"><stop offset="0" stop-color="#414141"/><stop offset="1" stop-color="#b0b0b0"/></linearGradient></defs><g transform="translate(27,33.53785)"><g data-paper-data="{&quot;isPaintingLayer&quot;:true}" fill-rule="nonzero" stroke-linejoin="miter" stroke-miterlimit="10" stroke-dasharray="" stroke-dashoffset="0" style="mix-blend-mode: normal"><path d="M-26,462.80001v-495.33786h633v495.33787z" data-paper-data="{&quot;origPos&quot;:null}" fill="#ffffff" stroke="#000000" stroke-width="2" stroke-linecap="butt"/><path d="M-21,352.00001v-325.19999h504v325.2z" data-paper-data="{&quot;origPos&quot;:null}" fill="#7a7a7a" stroke="#000000" stroke-width="4" stroke-linecap="butt"/><path d="M136.75001,335.50001v-298.11356h198.5v298.11356z" data-paper-data="{&quot;origPos&quot;:null}" fill="#ff4d4d" stroke="#000000" stroke-width="6" stroke-linecap="butt"/><path d="M148.98308,231.77055v-23.99451h174.50549v23.99451z" data-paper-data="{&quot;origPos&quot;:null}" fill="#bebebe" stroke="#000000" stroke-width="2" stroke-linecap="butt"/><text transform="translate(151.7599,225.74296) scale(0.43539,0.43539)" font-size="40" xml:space="preserve" data-paper-data="{&quot;origPos&quot;:null}" fill="#000000" fill-rule="nonzero" stroke="none" stroke-width="1" stroke-linecap="butt" stroke-linejoin="miter" stroke-miterlimit="10" stroke-dasharray="" stroke-dashoffset="0" font-family="Serif" font-weight="normal" text-anchor="start" style="mix-blend-mode: normal"><tspan x="0" dy="0">Instant</tspan></text><path d="M148.75147,75.63706v-28.36886h174.5055v28.36887z" data-paper-data="{&quot;origPos&quot;:null}" fill="#bebebe" stroke="#000000" stroke-width="2" stroke-linecap="butt"/><text transform="translate(151.04972,68.295) scale(0.57248,0.6758)" font-size="40" xml:space="preserve" data-paper-data="{&quot;origPos&quot;:null}" fill="#000000" fill-rule="nonzero" stroke="#000000" stroke-width="0" stroke-linecap="butt" stroke-linejoin="miter" stroke-miterlimit="10" stroke-dasharray="" stroke-dashoffset="0" font-family="Serif" font-weight="normal" text-anchor="start" style="mix-blend-mode: normal"><tspan x="0" dy="0">Lightning Bolt</tspan></text><path d="M153.13894,207.06828v-131.36385h166.50733v131.36386z" data-paper-data="{&quot;origPos&quot;:null}" fill="#7a7a7a" stroke="#000000" stroke-width="2" stroke-linecap="butt"/><path d="M303.147,227.52923v-16.25337h16.67743v16.25337z" data-paper-data="{&quot;origPos&quot;:null}" fill="url(#color-1)" stroke="#000000" stroke-width="0.5" stroke-linecap="butt"/><text transform="translate(306.311,225.24326) scale(0.42966,0.42966)" font-size="40" xml:space="preserve" data-paper-data="{&quot;origPos&quot;:null}" fill="#ffffff" fill-rule="nonzero" stroke="none" stroke-width="1" stroke-linecap="butt" stroke-linejoin="miter" stroke-miterlimit="10" stroke-dasharray="" stroke-dashoffset="0" font-family="Handwriting" font-weight="normal" text-anchor="start" style="mix-blend-mode: normal"><tspan x="0" dy="0">S</tspan></text><g data-paper-data="{&quot;origPos&quot;:null}" stroke="#000000" stroke-width="0.5" stroke-linecap="butt"><path d="M319.4145,61.48546c0,5.86158 -4.85506,10.61335 -10.84409,10.61335c-5.98901,0 -10.84409,-4.75177 -10.84409,-10.61335c0,-5.86158 4.85506,-10.61335 10.84409,-10.61335c5.98901,0 10.84409,4.75177 10.84409,10.61335z" data-paper-data="{&quot;origPos&quot;:null}" fill="#e04a4a"/><path d="M315.02643,64.5866c-1.13563,1.18465 -0.77117,1.04594 -1.77954,1.78719c-0.96467,0.70912 -2.34897,1.20445 -3.46526,1.63734c-1.14474,0.44392 -1.91136,0.39841 -3.33587,0.41035c-1.46455,0.07416 -1.85725,-0.00608 -2.91768,-0.15915c-0.06919,-0.00999 -2.40637,-0.06818 -2.30345,-3.22084c0.03607,-1.10466 0.51325,-2.82408 2.56504,-3.50033c0.13703,-0.04517 0.7606,-0.06515 3.70371,-0.63425c1.17026,0.22089 1.89552,0.08664 3.34294,1.10459c0.72955,0.51311 1.02278,0.0828 1.88187,-0.15691c1.26664,-0.35345 1.44669,-0.71885 1.45187,-1.4215c-0.07704,-1.27746 -1.05378,-2.01026 -2.46623,-2.55809c-2.18781,-0.56755 -2.96096,-0.83014 -5.03264,-1.07532c-1.13202,-0.25491 -3.43228,-1.32064 -3.43228,-1.32064c0,0 3.85073,-0.87613 3.91282,-0.8508c2.92804,0.15756 6.54137,1.29218 8.50467,3.5796c0,0 0.84227,1.1735 0.79252,2.28203c-0.06489,1.44609 -0.39844,2.92856 -1.42244,4.09675z" data-paper-data="{&quot;origPos&quot;:null}" fill="#e02222"/></g><path d="M148.98299,308.8438v-77.07326h174.5055v77.07326z" data-paper-data="{&quot;origPos&quot;:null}" fill="#bebebe" stroke="#000000" stroke-width="2" stroke-linecap="butt"/><text transform="translate(155.55958,248.84475) scale(0.4015,0.4015)" font-size="40" xml:space="preserve" data-paper-data="{&quot;origPos&quot;:null}" fill="#000000" fill-rule="nonzero" stroke="none" stroke-width="1" stroke-linecap="butt" stroke-linejoin="miter" stroke-miterlimit="10" stroke-dasharray="" stroke-dashoffset="0" font-family="Serif" font-weight="normal" text-anchor="start" style="mix-blend-mode: normal"><tspan x="0" dy="0">Lightning Bolt deals 3 </tspan><tspan x="0" dy="48px">damage to target creature</tspan><tspan x="0" dy="48px">or player</tspan></text><path d="M180.51887,103.3069c0,0 -5.96324,7.27069 -8.48835,9.06914c-2.21077,0.79563 -3.98314,0.69036 -7.16479,0.34539c-6.10907,0.38777 -11.52298,-9.44422 -11.52298,-9.44422" data-paper-data="{&quot;origPos&quot;:null}" fill="none" stroke="#000000" stroke-width="2" stroke-linecap="round"/><path d="M208.09315,103.57193c0,0 -5.96324,7.27068 -8.48836,9.06914c-2.21077,0.79563 -3.98315,0.69036 -7.16481,0.34539c-6.10907,0.38777 -11.52298,-9.44423 -11.52298,-9.44423" data-paper-data="{&quot;origPos&quot;:null}" fill="none" stroke="#000000" stroke-width="2" stroke-linecap="round"/><path d="M235.77894,103.3069c0,0 -5.96324,7.27069 -8.48836,9.06914c-2.21077,0.79563 -3.98313,0.69036 -7.16478,0.34539c-6.10907,0.38777 -11.52298,-9.44422 -11.52298,-9.44422" data-paper-data="{&quot;origPos&quot;:null}" fill="none" stroke="#000000" stroke-width="2" stroke-linecap="round"/><path d="M262.92426,103.54926c0,0 -5.96323,7.27069 -8.48836,9.06914c-2.21077,0.79563 -3.98313,0.69036 -7.16479,0.34539c-6.10907,0.38777 -11.52298,-9.44423 -11.52298,-9.44423" data-paper-data="{&quot;origPos&quot;:null}" fill="none" stroke="#000000" stroke-width="2" stroke-linecap="round"/><path d="M290.5543,104.76111c0,0 -5.96325,7.27068 -8.48836,9.06914c-2.21076,0.79563 -3.98313,0.69036 -7.16478,0.34539c-6.10908,0.38777 -11.52298,-9.44422 -11.52298,-9.44422" data-paper-data="{&quot;origPos&quot;:null}" fill="none" stroke="#000000" stroke-width="2" stroke-linecap="round"/><path d="M318.66905,104.76111c0,0 -5.96325,7.27068 -8.48836,9.06914c-2.21076,0.79563 -3.98313,0.69036 -7.16478,0.34539c-6.10908,0.38777 -11.52298,-9.44422 -11.52298,-9.44422" data-paper-data="{&quot;origPos&quot;:null}" fill="none" stroke="#000000" stroke-width="2" stroke-linecap="round"/><path d="M180.76126,158.08223c0,0 -5.96324,7.27069 -8.48836,9.06914c-2.21077,0.79563 -3.98313,0.69036 -7.16478,0.34539c-6.10907,0.38777 -11.52298,-9.44422 -11.52298,-9.44422" data-paper-data="{&quot;origPos&quot;:null}" fill="none" stroke="#000000" stroke-width="2" stroke-linecap="round"/><path d="M179.78923,141.03177c0,0 4.36511,3.57934 5.44492,5.0951c0.47778,1.32711 0.4147,2.3911 0.20783,4.30112c0.23318,3.66735 -5.66877,6.91805 -5.66877,6.91805" data-paper-data="{&quot;origPos&quot;:null,&quot;origRot&quot;:0}" fill="none" stroke="#000000" stroke-width="2" stroke-linecap="round"/><path d="M152.85805,141.33844c0,0 2.32376,-6.21572 4.94588,-5.97059c1.36562,-0.21809 2.12636,-0.28465 3.07527,0.21835c1.08382,1.13698 3.64337,5.73346 3.64337,5.73346" data-paper-data="{&quot;origPos&quot;:null,&quot;index&quot;:null}" fill="none" stroke="#000000" stroke-width="2" stroke-linecap="round"/><path d="M164.74248,141.3207c0,0 2.86161,-4.1048 4.12652,-5.16376c1.13978,-0.5139 2.08441,-0.53164 3.78664,-0.48077c3.22481,-0.45942 6.50523,4.5317 6.50523,4.5317" data-paper-data="{&quot;origPos&quot;:null,&quot;origRot&quot;:0}" fill="none" stroke="#000000" stroke-width="2" stroke-linecap="round"/><path d="M318.66905,174.07856c0,0 -5.96323,7.27068 -8.48836,9.06913c-2.21076,0.79563 -3.98315,0.69036 -7.1648,0.34539c-6.10906,0.38777 -11.52296,-9.44422 -11.52296,-9.44422" data-paper-data="{&quot;origPos&quot;:null}" fill="none" stroke="#000000" stroke-width="2" stroke-linecap="round"/><path d="M290.5543,172.62434c0,0 -5.96323,7.27069 -8.48836,9.06914c-2.21076,0.79563 -3.98315,0.69036 -7.1648,0.34539c-6.10906,0.38777 -11.52296,-9.44422 -11.52296,-9.44422" data-paper-data="{&quot;origPos&quot;:null}" fill="none" stroke="#000000" stroke-width="2" stroke-linecap="round"/><path d="M203.78625,187.16648c0,0 -5.96324,7.27069 -8.48835,9.06914c-2.21075,0.79563 -3.98314,0.69036 -7.16479,0.34539c-6.10906,0.38777 -11.52296,-9.44423 -11.52296,-9.44423" data-paper-data="{&quot;origPos&quot;:null}" fill="none" stroke="#000000" stroke-width="2" stroke-linecap="round"/><path d="M231.90107,187.16648c0,0 -5.96324,7.27069 -8.48835,9.06914c-2.21077,0.79563 -3.98315,0.69036 -7.1648,0.34539c-6.10906,0.38777 -11.52296,-9.44423 -11.52296,-9.44423" data-paper-data="{&quot;origPos&quot;:null}" fill="none" stroke="#000000" stroke-width="2" stroke-linecap="round"/><g data-paper-data="{&quot;origPos&quot;:null}" fill="#00ceff" stroke="none" stroke-width="0" stroke-linecap="butt"><g data-paper-data="{&quot;origPos&quot;:null}"><g data-paper-data="{&quot;origPos&quot;:null}"><path d="M204.36141,106.40385v-29.08425h6.30159v29.08425z" data-paper-data="{&quot;origPos&quot;:null}"/><path d="M216.80682,122.63926l-12.55133,-16.48901l5.01421,-3.81678l12.55132,16.48901z" data-paper-data="{&quot;origPos&quot;:null,&quot;origRot&quot;:0}"/></g><g data-paper-data="{&quot;origPos&quot;:null,&quot;index&quot;:null}"><path d="M215.30263,147.60652v-29.08424h6.3016v29.08424z" data-paper-data="{&quot;origPos&quot;:null}"/><path d="M227.74804,163.84194l-12.55134,-16.48901l5.01422,-3.81678l12.55132,16.48901z" data-paper-data="{&quot;origPos&quot;:null,&quot;origRot&quot;:0}"/></g></g><g data-paper-data="{&quot;origPos&quot;:null}"><path d="M226.65937,189.01696v-29.08424h6.3016v29.08424z" data-paper-data="{&quot;origPos&quot;:null}"/><path d="M239.76487,205.59527l-13.09034,-16.83188l5.01421,-3.81679l15.27191,20.65557z" data-paper-data="{&quot;origPos&quot;:null,&quot;origRot&quot;:0}"/></g></g><text transform="translate(141.22697,327.22486) scale(0.33939,0.33939)" font-size="40" xml:space="preserve" data-paper-data="{&quot;origPos&quot;:null}" fill="#000000" fill-rule="nonzero" stroke="none" stroke-width="1" stroke-linecap="butt" stroke-linejoin="miter" stroke-miterlimit="10" stroke-dasharray="" stroke-dashoffset="0" font-family="Sans Serif" font-weight="normal" text-anchor="start" style="mix-blend-mode: normal"><tspan x="0" dy="0">(c)pthiel23</tspan></text><path d="M58.15867,256.29918c0,0 -15.96954,10.66741 -23.83254,14.31137c-2.68667,1.24509 -3.70907,-1.04302 -3.19969,-1.7838c6.2983,-9.15941 17.68598,-22.23468 17.68598,-22.23468l-14.92255,-8.10607l53.74543,-17.68598l-20.81787,49.6848z" data-paper-data="{&quot;origPos&quot;:null,&quot;index&quot;:null}" fill="#ffffff" stroke="#000000" stroke-width="4" stroke-linecap="butt"/><text transform="translate(341.50003,46.98751) scale(0.50541,0.50541)" font-size="40" xml:space="preserve" fill="#ffffff" fill-rule="nonzero" stroke="none" stroke-width="1" stroke-linecap="butt" stroke-linejoin="miter" stroke-miterlimit="10" stroke-dasharray="" stroke-dashoffset="0" font-family="Sans Serif" font-weight="normal" text-anchor="start" style="mix-blend-mode: normal"><tspan x="0" dy="0">Art:</tspan><tspan x="0" dy="46.15px">pthiel23</tspan><tspan x="0" dy="46.15px">Evan</tspan><tspan x="0" dy="46.15px">meeeeeeeep1</tspan></text></g></g></svg>