<svg version="1.1" xmlns="http://www.w3.org/2000/svg" xmlns:xlink="http://www.w3.org/1999/xlink" width="59.2" height="52.5" viewBox="0,0,59.2,52.5"><g transform="translate(-212.29257,-160.91672)"><g data-paper-data="{&quot;isPaintingLayer&quot;:true}" fill-rule="nonzero" stroke-linejoin="miter" stroke-miterlimit="10" stroke-dasharray="" stroke-dashoffset="0" style="mix-blend-mode: normal"><path d="M214,212.66672v-51h55.13514v51z" data-paper-data="{&quot;origPos&quot;:null}" fill="#8e8e8e" stroke="#000000" stroke-width="1.5" stroke-linecap="butt"/><path d="M227.52431,193.41496v-28.52414h29.26836v28.52414z" data-paper-data="{&quot;origPos&quot;:null}" fill="#ffffff" stroke="#ffffff" stroke-width="1" stroke-linecap="butt"/><path d="M230.05323,190.82005v-22.95h23.92268v22.95z" data-paper-data="{&quot;origPos&quot;:null}" fill="#00a5ff" stroke="#ffffff" stroke-width="1" stroke-linecap="butt"/><path d="M219.89257,208.79922v-11.05h29.75v11.05z" data-paper-data="{&quot;origPos&quot;:null}" fill="#ffffff" stroke="#ffffff" stroke-width="1" stroke-linecap="butt"/><path d="M260.26757,203.16797c0,2.52325 -1.0941,4.56875 -2.44375,4.56875c-1.34965,0 -2.44375,-2.0455 -2.44375,-4.56875c0,-2.52325 1.09411,-4.56875 2.44375,-4.56875c1.34965,0 2.44375,2.0455 2.44375,4.56875z" data-paper-data="{&quot;origPos&quot;:null}" fill="#ffffff" stroke="#ffffff" stroke-width="1" stroke-linecap="butt"/><path d="M235.33856,192.98046l-0.12977,4.80153" fill="none" stroke="#ffffff" stroke-width="1" stroke-linecap="round"/><path d="M258.17826,198.56061c0,0 -2.03921,-2.46587 -4.74781,-2.93361c-3.33349,-0.57565 -11.90799,1.39565 -13.42245,0.47654c-2.16615,-1.31461 -1.94424,-2.99331 -1.94424,-2.99331" data-paper-data="{&quot;origPos&quot;:null}" fill="none" stroke="#ffffff" stroke-width="1" stroke-linecap="round"/><text transform="translate(238.91667,176.09345) scale(0.13344,0.13344)" font-size="40" xml:space="preserve" data-paper-data="{&quot;origPos&quot;:null}" fill="#ffffff" fill-rule="nonzero" stroke="none" stroke-width="1" stroke-linecap="butt" stroke-linejoin="miter" stroke-miterlimit="10" stroke-dasharray="" stroke-dashoffset="0" font-family="Sans Serif" font-weight="normal" text-anchor="start" style="mix-blend-mode: normal"><tspan x="0" dy="0">:(</tspan></text><text transform="translate(231.33334,180.73882) scale(0.03086,0.03086)" font-size="40" xml:space="preserve" data-paper-data="{&quot;origPos&quot;:null}" fill="#ffffff" fill-rule="nonzero" stroke="none" stroke-width="1" stroke-linecap="butt" stroke-linejoin="miter" stroke-miterlimit="10" stroke-dasharray="" stroke-dashoffset="0" font-family="Sans Serif" font-weight="normal" text-anchor="start" style="mix-blend-mode: normal"><tspan x="0" dy="0">text too small to read</tspan><tspan x="0" dy="46.150000000000006px">type anything here</tspan></text><text transform="translate(237.0625,189.12109) scale(0.09803,0.09803)" font-size="40" xml:space="preserve" data-paper-data="{&quot;origPos&quot;:null}" fill="#ffffff" fill-rule="nonzero" stroke="none" stroke-width="1" stroke-linecap="butt" stroke-linejoin="miter" stroke-miterlimit="10" stroke-dasharray="" stroke-dashoffset="0" font-family="Sans Serif" font-weight="normal" text-anchor="start" style="mix-blend-mode: normal"><tspan x="0" dy="0">-20%</tspan></text><g data-paper-data="{&quot;origPos&quot;:null}" fill="none" stroke="#38d000" stroke-width="5" stroke-linecap="round"><path d="M257.71757,210.11672l-42.925,-24.58098" data-paper-data="{&quot;origPos&quot;:null}"/><path d="M263.35507,199.17922l-42.925,-24.58098" data-paper-data="{&quot;origPos&quot;:null}"/><path d="M268.99257,188.02922l-42.925,-24.58098" data-paper-data="{&quot;origPos&quot;:null}"/></g></g></g></svg>