<svg version="1.1" xmlns="http://www.w3.org/2000/svg" xmlns:xlink="http://www.w3.org/1999/xlink" width="142.5" height="211" viewBox="0,0,142.5,211"><defs><linearGradient x1="183.24559" y1="244.66967" x2="303.24559" y2="244.66967" gradientUnits="userSpaceOnUse" id="color-1"><stop offset="0" stop-color="#08c3c3"/><stop offset="1" stop-color="#e86262"/></linearGradient><linearGradient x1="183.24559" y1="244.66967" x2="303.24559" y2="244.66967" gradientUnits="userSpaceOnUse" id="color-2"><stop offset="0" stop-color="#009494"/><stop offset="1" stop-color="#940000"/></linearGradient><linearGradient x1="183.08636" y1="101.04928" x2="303.08636" y2="101.04928" gradientUnits="userSpaceOnUse" id="color-3"><stop offset="0" stop-color="#009494"/><stop offset="1" stop-color="#940000"/></linearGradient><linearGradient x1="186.24629" y1="156.01631" x2="300.74629" y2="156.01631" gradientUnits="userSpaceOnUse" id="color-4"><stop offset="0" stop-color="#009494"/><stop offset="1" stop-color="#940000"/></linearGradient><linearGradient x1="183.2456" y1="209.91967" x2="303.2456" y2="209.91967" gradientUnits="userSpaceOnUse" id="color-5"><stop offset="0" stop-color="#009494"/><stop offset="1" stop-color="#940000"/></linearGradient><linearGradient x1="295.15508" y1="200.12249" x2="295.15508" y2="221.53084" gradientTransform="translate(-647.61111,-484.6972) scale(2.2421,2.2421)" gradientUnits="userSpaceOnUse" id="color-6"><stop offset="0" stop-color="#d1a500"/><stop offset="1" stop-color="#ffca00"/></linearGradient></defs><g transform="translate(-172.07822,-81.5)"><g data-paper-data="{&quot;isPaintingLayer&quot;:true}" fill-rule="nonzero" stroke-linejoin="miter" stroke-miterlimit="10" stroke-dasharray="" stroke-dashoffset="0" style="mix-blend-mode: normal"><path d="M175.07822,289.5v-205h136.5v205z" data-paper-data="{&quot;origPos&quot;:null,&quot;index&quot;:null}" fill="#987209" stroke="#000000" stroke-width="6" stroke-linecap="butt"/><path d="M183.24559,271.16967v-53h120v53z" data-paper-data="{&quot;origPos&quot;:null,&quot;index&quot;:null}" fill="url(#color-1)" stroke="url(#color-2)" stroke-width="2" stroke-linecap="butt"/><path d="M183.08636,110.80331v-19.50806h120v19.50806z" data-paper-data="{&quot;origPos&quot;:null,&quot;index&quot;:null}" fill="#bebebe" stroke="url(#color-3)" stroke-width="2" stroke-linecap="butt"/><text transform="translate(184.66677,107.36579) scale(0.39773,0.46952)" font-size="40" xml:space="preserve" data-paper-data="{&quot;origPos&quot;:null,&quot;index&quot;:null}" fill="#000000" fill-rule="nonzero" stroke="#000000" stroke-width="0" stroke-linecap="butt" stroke-linejoin="miter" stroke-miterlimit="10" stroke-dasharray="" stroke-dashoffset="0" font-family="Serif" font-weight="normal" text-anchor="start" style="mix-blend-mode: normal"><tspan x="0" dy="0">Spirebluff Canal</tspan></text><path d="M186.24629,201.18297v-90.33333h114.5v90.33333z" data-paper-data="{&quot;origPos&quot;:null,&quot;index&quot;:null}" fill="#ffffff" stroke="url(#color-4)" stroke-width="2" stroke-linecap="butt"/><path d="M183.2456,218.16967v-16.5h120v16.5z" data-paper-data="{&quot;origPos&quot;:null,&quot;index&quot;:null}" fill="#bebebe" stroke="url(#color-5)" stroke-width="2" stroke-linecap="butt"/><text transform="translate(177.91212,283.80954) scale(0.23337,0.23337)" font-size="40" xml:space="preserve" data-paper-data="{&quot;origPos&quot;:null,&quot;index&quot;:null}" fill="#000000" fill-rule="nonzero" stroke="none" stroke-width="1" stroke-linecap="butt" stroke-linejoin="miter" stroke-miterlimit="10" stroke-dasharray="" stroke-dashoffset="0" font-family="Sans Serif" font-weight="normal" text-anchor="start" style="mix-blend-mode: normal"><tspan x="0" dy="0">(c)[pending]</tspan></text><path d="M253.23161,279.76382c0,2.68369 -4.51848,4.85926 -10.09231,4.85926c-5.57383,0 -10.09231,-2.17556 -10.09231,-4.85926c0,-2.68369 4.51848,-4.85926 10.09231,-4.85926c5.57383,0 10.09231,2.17556 10.09231,4.85926z" data-paper-data="{&quot;origPos&quot;:null,&quot;index&quot;:null}" fill="#ffffff" stroke="#000000" stroke-width="2" stroke-linecap="butt"/><text transform="translate(185.1553,214.02475) scale(0.2994,0.2994)" font-size="40" xml:space="preserve" data-paper-data="{&quot;origPos&quot;:null,&quot;index&quot;:null}" fill="#000000" fill-rule="nonzero" stroke="none" stroke-width="1" stroke-linecap="butt" stroke-linejoin="miter" stroke-miterlimit="10" stroke-dasharray="" stroke-dashoffset="0" font-family="Serif" font-weight="normal" text-anchor="start" style="mix-blend-mode: normal"><tspan x="0" dy="0">Land</tspan></text><text transform="translate(185.10148,228.71897) scale(0.24992,0.24992)" font-size="40" xml:space="preserve" data-paper-data="{&quot;origPos&quot;:null}" fill="#000000" fill-rule="nonzero" stroke="none" stroke-width="1" stroke-linecap="butt" stroke-linejoin="miter" stroke-miterlimit="10" stroke-dasharray="" stroke-dashoffset="0" font-family="Serif" font-weight="normal" text-anchor="start" style="mix-blend-mode: normal"><tspan x="0" dy="0">Spirebluff Canal enters the</tspan><tspan x="0" dy="48px">battlefield unless you control</tspan><tspan x="0" dy="48px">three or fewer other lands.</tspan></text><text transform="translate(187.55955,262.82371) scale(0.2417,0.2417)" font-size="40" xml:space="preserve" data-paper-data="{&quot;origPos&quot;:null}" fill="#000000" fill-rule="nonzero" stroke="none" stroke-width="1" stroke-linecap="butt" stroke-linejoin="miter" stroke-miterlimit="10" stroke-dasharray="" stroke-dashoffset="0" font-family="Serif" font-weight="normal" text-anchor="start" style="mix-blend-mode: normal"><tspan x="0" dy="0">     : Add       or      .</tspan></text><path d="M198.09802,260.29804c0,3.40714 -2.82207,6.16918 -6.30329,6.16918c-3.48121,0 -6.30329,-2.76204 -6.30329,-6.16918c0,-3.40714 2.82207,-6.16918 6.30329,-6.16918c3.48121,0 6.30329,2.76204 6.30329,6.16918z" data-paper-data="{&quot;origPos&quot;:null}" fill="#bebebe" stroke="#000000" stroke-width="0.5" stroke-linecap="butt"/><g data-paper-data="{&quot;origPos&quot;:null}" fill="none" stroke="#000000" stroke-width="2" stroke-linecap="round"><path d="M193.83529,263.07538c0,0 -1.9907,1.31842 -3.93191,0.33902c-1.73108,-0.87338 -1.92478,-2.43648 -1.85503,-3.63538c0.09512,-1.34688 0.88651,-2.48076 2.91932,-3.06339c4.06064,-0.41294 3.8577,3.03009 3.8577,3.03009" data-paper-data="{&quot;origPos&quot;:null}"/><path d="M196.12724,258.15878l-1.11501,2.16773c0,0 -1.76847,-1.5444 -1.77815,-1.56897" data-paper-data="{&quot;origPos&quot;:null,&quot;origRot&quot;:0}"/></g><g data-paper-data="{&quot;origPos&quot;:null}" stroke="#000000" stroke-width="0.5" stroke-linecap="butt"><path d="M234.98512,259.78468c0,2.99183 -2.47809,5.41721 -5.53498,5.41721c-3.05689,0 -5.53498,-2.42538 -5.53498,-5.41721c0,-2.99183 2.47809,-5.41721 5.53498,-5.41721c3.05689,0 5.53498,2.42538 5.53498,5.41721z" data-paper-data="{&quot;origPos&quot;:null}" fill="#00c6c6"/><path d="M231.80242,260.83126c0,1.1799 -1.07282,2.13639 -2.39622,2.13639c-1.32341,0 -2.39622,-0.95649 -2.39622,-2.13639c0,-1.1799 1.18831,-5.36986 2.51171,-5.36986c1.32341,0 2.28073,4.18995 2.28073,5.36986z" data-paper-data="{&quot;origPos&quot;:null}" fill="#009090"/></g><g data-paper-data="{&quot;origPos&quot;:null}" stroke="#000000" stroke-width="0.5" stroke-linecap="butt"><path d="M260.54693,259.78735c0,2.96393 -2.45498,5.36667 -5.48335,5.36667c-3.02836,0 -5.48335,-2.40274 -5.48335,-5.36667c0,-2.96393 2.45498,-5.36667 5.48335,-5.36667c3.02836,0 5.48335,2.40274 5.48335,5.36667z" data-paper-data="{&quot;origPos&quot;:null}" fill="#e04a4a"/><path d="M258.32802,261.35546c-0.57424,0.59903 -0.38995,0.52887 -0.89983,0.90369c-0.48778,0.35856 -1.18775,0.60904 -1.75222,0.82793c-0.57884,0.22448 -0.96648,0.20146 -1.68678,0.20749c-0.74056,0.0375 -0.93912,-0.00307 -1.47533,-0.08048c-0.03498,-0.00505 -1.21678,-0.03448 -1.16475,-1.62862c0.01824,-0.55858 0.25952,-1.42801 1.29702,-1.76995c0.0693,-0.02284 0.38461,-0.03294 1.87279,-0.32073c0.59175,0.1117 0.95847,0.04382 1.69037,0.55855c0.3689,0.25944 0.51715,0.04188 0.95157,-0.07935c0.64048,-0.17873 0.73153,-0.36349 0.73414,-0.71879c-0.03896,-0.64596 -0.53285,-1.0165 -1.24706,-1.2935c-1.10627,-0.28698 -1.49722,-0.41977 -2.54477,-0.54374c-0.57241,-0.12889 -1.73554,-0.66779 -1.73554,-0.66779c0,0 1.94713,-0.44302 1.97853,-0.43021c1.48058,0.07968 3.30766,0.65339 4.30041,1.81003c0,0 0.42589,0.59338 0.40074,1.15391c-0.03282,0.7312 -0.20148,1.48083 -0.71926,2.07153z" data-paper-data="{&quot;origPos&quot;:null}" fill="#e02222"/></g><text transform="translate(288.84103,216.1798) scale(0.44601,0.44601)" font-size="40" xml:space="preserve" data-paper-data="{&quot;origPos&quot;:null}" fill="url(#color-6)" fill-rule="nonzero" stroke="#000000" stroke-width="1" stroke-linecap="butt" stroke-linejoin="miter" stroke-miterlimit="10" stroke-dasharray="" stroke-dashoffset="0" font-family="Sans Serif" font-weight="normal" text-anchor="start" style="mix-blend-mode: normal"><tspan x="0" dy="0">II</tspan></text></g></g></svg>