<svg version="1.1" xmlns="http://www.w3.org/2000/svg" xmlns:xlink="http://www.w3.org/1999/xlink" width="142.5" height="211" viewBox="0,0,142.5,211"><defs><linearGradient x1="295.15436" y1="200.12199" x2="295.15436" y2="221.5303" gradientTransform="translate(-647.61111,-484.69719) scale(2.2421,2.2421)" gradientUnits="userSpaceOnUse" id="color-1"><stop offset="0" stop-color="#d13800"/><stop offset="1" stop-color="#f94300"/></linearGradient></defs><g transform="translate(-172.07822,-81.49999)"><g data-paper-data="{&quot;isPaintingLayer&quot;:true}" fill-rule="nonzero" stroke-linejoin="miter" stroke-miterlimit="10" stroke-dasharray="" stroke-dashoffset="0" style="mix-blend-mode: normal"><path d="M175.07822,289.5v-205h136.5v205z" data-paper-data="{&quot;origPos&quot;:null,&quot;index&quot;:null}" fill="#987209" stroke="#000000" stroke-width="6" stroke-linecap="butt"/><path d="M183.24559,271.16967v-53h120v53z" data-paper-data="{&quot;origPos&quot;:null,&quot;index&quot;:null}" fill="#08c2c2" stroke="#009494" stroke-width="2" stroke-linecap="butt"/><path d="M183.08636,110.80331v-19.50806h120v19.50806z" data-paper-data="{&quot;origPos&quot;:null,&quot;index&quot;:null}" fill="#08c2c2" stroke="#009494" stroke-width="2" stroke-linecap="butt"/><text transform="translate(184.66677,107.05484) scale(0.39041,0.46088)" font-size="40" xml:space="preserve" data-paper-data="{&quot;origPos&quot;:null,&quot;index&quot;:null}" fill="#000000" fill-rule="nonzero" stroke="#000000" stroke-width="0" stroke-linecap="butt" stroke-linejoin="miter" stroke-miterlimit="10" stroke-dasharray="" stroke-dashoffset="0" font-family="Serif" font-weight="normal" text-anchor="start" style="mix-blend-mode: normal"><tspan x="0" dy="0">Tolarian Academy</tspan></text><path d="M186.24629,201.18297v-90.33333h114.5v90.33333z" data-paper-data="{&quot;origPos&quot;:null,&quot;index&quot;:null}" fill="#ffffff" stroke="#009494" stroke-width="2" stroke-linecap="butt"/><path d="M183.2456,218.16967v-16.5h120v16.5z" data-paper-data="{&quot;origPos&quot;:null,&quot;index&quot;:null}" fill="#08c2c2" stroke="#009494" stroke-width="2" stroke-linecap="butt"/><text transform="translate(177.91212,283.80954) scale(0.23337,0.23337)" font-size="40" xml:space="preserve" data-paper-data="{&quot;origPos&quot;:null,&quot;index&quot;:null}" fill="#000000" fill-rule="nonzero" stroke="none" stroke-width="1" stroke-linecap="butt" stroke-linejoin="miter" stroke-miterlimit="10" stroke-dasharray="" stroke-dashoffset="0" font-family="Sans Serif" font-weight="normal" text-anchor="start" style="mix-blend-mode: normal"><tspan x="0" dy="0">(c)[pending]</tspan></text><path d="M253.23161,279.76382c0,2.68369 -4.51848,4.85926 -10.09231,4.85926c-5.57383,0 -10.09231,-2.17556 -10.09231,-4.85926c0,-2.68369 4.51848,-4.85926 10.09231,-4.85926c5.57383,0 10.09231,2.17556 10.09231,4.85926z" data-paper-data="{&quot;origPos&quot;:null,&quot;index&quot;:null}" fill="#ffffff" stroke="#000000" stroke-width="2" stroke-linecap="butt"/><text transform="translate(185.1553,214.02475) scale(0.2994,0.2994)" font-size="40" xml:space="preserve" data-paper-data="{&quot;origPos&quot;:null,&quot;index&quot;:null}" fill="#000000" fill-rule="nonzero" stroke="none" stroke-width="1" stroke-linecap="butt" stroke-linejoin="miter" stroke-miterlimit="10" stroke-dasharray="" stroke-dashoffset="0" font-family="Serif" font-weight="normal" text-anchor="start" style="mix-blend-mode: normal"><tspan x="0" dy="0">Legendary Land</tspan></text><g><text transform="translate(187.6327,228.81589) scale(0.2478,0.2478)" font-size="40" xml:space="preserve" data-paper-data="{&quot;origPos&quot;:null}" fill="#000000" fill-rule="nonzero" stroke="none" stroke-width="1" stroke-linecap="butt" stroke-linejoin="miter" stroke-miterlimit="10" stroke-dasharray="" stroke-dashoffset="0" font-family="Serif" font-weight="normal" text-anchor="start" style="mix-blend-mode: normal"><tspan x="0" dy="0">     : Add       for each artifact</tspan><tspan x="0" dy="48px">you control.</tspan></text><path d="M198.43713,226.22648c0,3.49313 -2.8933,6.32488 -6.46237,6.32488c-3.56907,0 -6.46237,-2.83175 -6.46237,-6.32488c0,-3.49313 2.8933,-6.32488 6.46237,-6.32488c3.56907,0 6.46237,2.83175 6.46237,6.32488z" data-paper-data="{&quot;origPos&quot;:null}" fill="#bebebe" stroke="#000000" stroke-width="0.5" stroke-linecap="butt"/><g data-paper-data="{&quot;origPos&quot;:null}" fill="none" stroke="#000000" stroke-width="2" stroke-linecap="round"><path d="M194.06682,229.07392c0,0 -2.04094,1.3517 -4.03115,0.34758c-1.77477,-0.89542 -1.97335,-2.49797 -1.90185,-3.72713c0.09752,-1.38088 0.90888,-2.54337 2.993,-3.1407c4.16312,-0.42337 3.95506,3.10656 3.95506,3.10656" data-paper-data="{&quot;origPos&quot;:null}"/><path d="M196.41661,224.03323l-1.14315,2.22244c0,0 -1.81311,-1.58338 -1.82303,-1.60857" data-paper-data="{&quot;origPos&quot;:null,&quot;origRot&quot;:0}"/></g><g data-paper-data="{&quot;origPos&quot;:null}" stroke="#000000" stroke-width="0.5" stroke-linecap="butt"><path d="M236.25519,225.70016c0,3.06734 -2.54063,5.55393 -5.67467,5.55393c-3.13404,0 -5.67467,-2.48659 -5.67467,-5.55393c0,-3.06734 2.54063,-5.55393 5.67467,-5.55393c3.13404,0 5.67467,2.48659 5.67467,5.55393z" data-paper-data="{&quot;origPos&quot;:null}" fill="#00c6c6"/><path d="M232.99216,226.77316c0,1.20967 -1.09989,2.1903 -2.45669,2.1903c-1.35681,0 -2.4567,-0.98063 -2.4567,-2.1903c0,-1.20967 1.2183,-5.50538 2.5751,-5.50538c1.35681,0 2.33829,4.2957 2.33829,5.50538z" data-paper-data="{&quot;origPos&quot;:null}" fill="#009090"/></g></g><text transform="translate(288.84103,216.1798) scale(0.44601,0.44601)" font-size="40" xml:space="preserve" data-paper-data="{&quot;origPos&quot;:null}" fill="url(#color-1)" fill-rule="nonzero" stroke="#ffffff" stroke-width="1" stroke-linecap="butt" stroke-linejoin="miter" stroke-miterlimit="10" stroke-dasharray="" stroke-dashoffset="0" font-family="Sans Serif" font-weight="normal" text-anchor="start" style="mix-blend-mode: normal"><tspan x="0" dy="0">II</tspan></text></g></g></svg>