<svg version="1.1" xmlns="http://www.w3.org/2000/svg" xmlns:xlink="http://www.w3.org/1999/xlink" width="142.5" height="211" viewBox="0,0,142.5,211"><g transform="translate(-171.83361,-81.5)"><g data-paper-data="{&quot;isPaintingLayer&quot;:true}" fill-rule="nonzero" stroke-linecap="butt" stroke-linejoin="miter" stroke-miterlimit="10" stroke-dasharray="" stroke-dashoffset="0" style="mix-blend-mode: normal"><path d="M174.83362,289.5v-205h136.5v205z" data-paper-data="{&quot;origPos&quot;:null}" fill="#ff4d4d" stroke="#000000" stroke-width="6"/><path d="M186.10351,254.18297c0,0 -0.26282,-79.4309 -0.5115,-119.48026c-0.13959,-22.4818 34.58018,-24.21191 57.05976,-23.86681c23.66262,0.36326 57.02627,0.35216 57.45173,24.01375c0.63395,35.25679 0.5,119.33333 0.5,119.33333z" data-paper-data="{&quot;origPos&quot;:null}" fill="#ffffff" stroke="#000000" stroke-width="2"/><path d="M183.2457,271.66967v-16.5h120v16.5z" data-paper-data="{&quot;origPos&quot;:null}" fill="#bebebe" stroke="#000000" stroke-width="2"/><path d="M279.07547,284.34772v-12.139h26.8341v12.139z" data-paper-data="{&quot;origPos&quot;:null}" fill="#bebebe" stroke="#000000" stroke-width="1"/><text transform="translate(283.24091,282.79648) scale(0.35379,0.35379)" font-size="40" xml:space="preserve" data-paper-data="{&quot;origPos&quot;:null}" fill="#000000" fill-rule="nonzero" stroke="none" stroke-width="1" stroke-linecap="butt" stroke-linejoin="miter" stroke-miterlimit="10" stroke-dasharray="" stroke-dashoffset="0" font-family="Serif" font-weight="normal" text-anchor="start" style="mix-blend-mode: normal"><tspan x="0" dy="0">1/1</tspan></text><text transform="translate(185.15526,266.59955) scale(0.25981,0.25981)" font-size="40" xml:space="preserve" data-paper-data="{&quot;origPos&quot;:null}" fill="#000000" fill-rule="nonzero" stroke="none" stroke-width="1" stroke-linecap="butt" stroke-linejoin="miter" stroke-miterlimit="10" stroke-dasharray="" stroke-dashoffset="0" font-family="Serif" font-weight="normal" text-anchor="start" style="mix-blend-mode: normal"><tspan x="0" dy="0">Token Creature - Goblin</tspan></text><text transform="translate(177.91231,283.80954) scale(0.23338,0.23338)" font-size="40" xml:space="preserve" data-paper-data="{&quot;origPos&quot;:null}" fill="#000000" fill-rule="nonzero" stroke="none" stroke-width="1" stroke-linecap="butt" stroke-linejoin="miter" stroke-miterlimit="10" stroke-dasharray="" stroke-dashoffset="0" font-family="Sans Serif" font-weight="normal" text-anchor="start" style="mix-blend-mode: normal"><tspan x="0" dy="0">(c)[pending]</tspan></text><path d="M193.87418,106.84545c-8.11434,-0.04894 -6.91627,-16.65123 0,-16.67121c14.86636,-0.04295 59.4256,0.13177 97.45907,0c7.71243,-0.02672 7.15023,16.67781 0,16.67121c-15.47829,-0.01429 -89.72369,-0.13836 -97.45907,0z" data-paper-data="{&quot;origPos&quot;:null}" fill="#000000" stroke="#000000" stroke-width="2"/><text transform="translate(225.2094,103.90781) scale(0.33989,0.40125)" font-size="40" xml:space="preserve" data-paper-data="{&quot;origPos&quot;:null}" fill="#fec900" fill-rule="nonzero" stroke="#000000" stroke-width="0" stroke-linecap="butt" stroke-linejoin="miter" stroke-miterlimit="10" stroke-dasharray="" stroke-dashoffset="0" font-family="Serif" font-weight="normal" text-anchor="start" style="mix-blend-mode: normal"><tspan x="0" dy="0">Goblin</tspan></text><text transform="translate(288.84103,269.51313) scale(0.44601,0.44601)" font-size="40" xml:space="preserve" data-paper-data="{&quot;origPos&quot;:null}" fill="#000000" fill-rule="nonzero" stroke="#ffffff" stroke-width="1" stroke-linecap="butt" stroke-linejoin="miter" stroke-miterlimit="10" stroke-dasharray="" stroke-dashoffset="0" font-family="Sans Serif" font-weight="normal" text-anchor="start" style="mix-blend-mode: normal"><tspan x="0" dy="0">II</tspan></text></g></g></svg>